<?xml version="1.0" encoding="utf-8"?>
<!-- Generator: Adobe Illustrator 24.2.0, SVG Export Plug-In . SVG Version: 6.00 Build 0)  -->
<svg version="1.1" id="Layer_1" xmlns="http://www.w3.org/2000/svg" xmlns:xlink="http://www.w3.org/1999/xlink" x="0px" y="0px"
	 width="401px" height="387px" viewBox="0 0 401 387" style="enable-background:new 0 0 401 387;" xml:space="preserve">
<style type="text/css">
	.st0{fill:#FFCF34;}
	.st1{clip-path:url(#SVGID_2_);}
	.st2{fill:#EDE3DD;}
	.st3{fill:#151924;}
	.st4{opacity:0.5;}
	.st5{fill:#FFFFFF;}
	.st6{fill:#F2CD5D;}
	.st7{fill:#BCB469;}
	.st8{fill:#8C843D;}
	.st9{fill:#40C9FF;}
	.st10{opacity:0.6;}
	.st11{opacity:0.9;}
	.st12{opacity:0.3;}
	.st13{fill:#7665FF;}
	.st14{fill:#FE4040;}
</style>
<g>
	<g>
		<path class="st0" d="M51.7,80.8c11.8-29.6,71-105.8,113.7-53.3C208,79.9,17,168.1,51.7,80.8z"/>
	</g>
	<g>
		<defs>
			<path id="SVGID_1_" d="M196.6,54c-77.1,96.8-150.4,62.3-184.1,122.2c-50.1,88.9,60.7,177.7,151.9,196.1
				c121.2,24.4,215.2-53,233.7-155.2C423.3,77.2,279.2-49.7,196.6,54z"/>
		</defs>
		<use xlink:href="#SVGID_1_"  style="overflow:visible;fill:#FFCF34;"/>
		<clipPath id="SVGID_2_">
			<use xlink:href="#SVGID_1_"  style="overflow:visible;"/>
		</clipPath>
		<g class="st1">
			<g>
				<g>
					<g>
						<rect x="26.5" y="63" class="st2" width="0.9" height="275.1"/>
					</g>
				</g>
			</g>
			<g>
				<g>
					<g>
						<rect x="114.1" y="-7.7" class="st2" width="0.9" height="345.8"/>
					</g>
				</g>
			</g>
			<g>
				<g>
					<g>
						<rect x="201.8" y="-7.7" class="st2" width="0.9" height="345.8"/>
					</g>
				</g>
			</g>
			<g>
				<g>
					<g>
						<rect x="289.5" y="-7.7" class="st2" width="0.9" height="345.8"/>
					</g>
				</g>
			</g>
			<g>
				<g>
					<g>
						<rect x="379" y="35.8" class="st2" width="0.9" height="302.3"/>
					</g>
				</g>
			</g>
			<g>
				<g>
					<g>
						<rect x="-12" y="338.6" class="st0" width="425.1" height="38.4"/>
					</g>
				</g>
			</g>
			<g>
				<g>
					<g>
						<rect x="-12" y="333.9" class="st3" width="425.1" height="4.6"/>
					</g>
				</g>
			</g>
			<g>
				<g>
					<g>
						<rect x="-12" y="276.3" class="st2" width="425.1" height="0.9"/>
					</g>
				</g>
			</g>
			<g>
				<g>
					<g>
						<rect x="-12" y="215.1" class="st2" width="425.1" height="0.9"/>
					</g>
				</g>
			</g>
			<g>
				<g>
					<g>
						<rect x="-12" y="153.8" class="st2" width="425.1" height="0.9"/>
					</g>
				</g>
			</g>
			<g>
				<g>
					<g>
						<rect x="-12" y="90.5" class="st2" width="425.1" height="0.9"/>
					</g>
				</g>
			</g>
			<g>
				<g>
					<g>
						<rect x="-12" y="27.3" class="st2" width="425.1" height="0.9"/>
					</g>
				</g>
			</g>
		</g>
		<g class="st1">
			<g class="st4">
				<path class="st0" d="M218,33.1c20.2,20.2,40.3,40.3,60.5,60.5c40,40,80.1,80.1,120.1,120.1c-0.2,1.1-0.3,2.2-0.6,3.4
					c-0.6,3.2-1.2,6.4-2,9.6l-90.3-90.3c-32.1-32.1-64.2-64.2-96.3-96.3C212.3,37.5,215.1,35.2,218,33.1z"/>
			</g>
			<g class="st4">
				<path class="st0" d="M52,142l56.7,56.7c55.6,55.6,111.1,111.1,166.7,166.7c-18.9,6.8-39.4,10.8-61.2,11.4
					c-2.1-2.1-4.2-4.3-6.4-6.4C143,305.2,78,240.2,13,175.2C23,158.1,36.3,148.9,52,142z"/>
			</g>
			<g class="st4">
				<path class="st0" d="M336.1,267c-58.6-58.6-117.3-117.3-175.9-175.9c8.8-7.1,17.6-15.5,26.6-25.5c12.8,12.8,25.7,25.7,38.5,38.5
					c43.6,43.6,87.3,87.3,130.9,130.9l27.8,27.8c-5.2,11.8-11.5,22.9-18.8,33.3C355.6,286.5,345.9,276.8,336.1,267z"/>
			</g>
		</g>
		<g class="st1">
			<g>
				<g>
					<polygon class="st5" points="13.7,216 58.1,216 50.8,228.9 13.7,228.9 					"/>
				</g>
				<g>
					<polygon class="st3" points="45.7,228.9 1.3,228.9 6.6,216 45.7,216 					"/>
				</g>
				<g>
					<g>
						
							<rect x="52.3" y="217.6" transform="matrix(0.9624 -0.2716 0.2716 0.9624 -79.1873 26.3056)" class="st3" width="6.3" height="163.3"/>
					</g>
				</g>
				<g>
					<g>
						
							<rect x="-89.5" y="296.1" transform="matrix(0.2716 -0.9624 0.9624 0.2716 -293.7146 210.4457)" class="st3" width="163.3" height="6.3"/>
					</g>
				</g>
			</g>
			<g>
				<g>
					<polygon class="st6" points="264.9,216 309.3,216 302,228.9 264.9,228.9 					"/>
				</g>
				<g>
					<polygon class="st3" points="296.9,228.9 252.5,228.9 257.9,216 296.9,216 					"/>
				</g>
				<g>
					<g>
						
							<rect x="303.5" y="217.6" transform="matrix(0.9624 -0.2716 0.2716 0.9624 -69.7446 94.538)" class="st3" width="6.3" height="163.3"/>
					</g>
				</g>
				<g>
					<g>
						
							<rect x="161.7" y="296.1" transform="matrix(0.2716 -0.9624 0.9624 0.2716 -110.7026 452.2452)" class="st3" width="163.3" height="6.3"/>
					</g>
				</g>
			</g>
			<g>
				
					<rect x="-0.3" y="212.3" transform="matrix(-1 -4.488599e-11 4.488599e-11 -1 236.8446 429.6283)" class="st3" width="237.4" height="5"/>
			</g>
		</g>
	</g>
	<g>
		<g>
			<g>
				<path class="st7" d="M158.8,258.8c-19.8-18.2-46,28.9-43.5,47.5h9.9C134.8,301.6,174.9,273.5,158.8,258.8z"/>
			</g>
			<g>
				<g>
					<path class="st8" d="M120.5,306.4c14.7-26.9,38.4-47.1,38.6-47.3l-0.6-0.7c-0.2,0.2-24.1,20.5-38.8,47.5L120.5,306.4z"/>
				</g>
			</g>
			<g>
				<g>
					<path class="st8" d="M132.1,288c0.7-0.1,17.3-1.8,22.3-3.7l-0.3-0.8c-4.9,1.8-21.9,3.6-22.1,3.6L132.1,288z"/>
				</g>
			</g>
			<g>
				<g>
					<path class="st8" d="M144.2,272.2l0.8-0.3c-2.3-5.7-2.8-15-2.8-15.1l-0.9,0C141.4,257.2,141.8,266.3,144.2,272.2z"/>
				</g>
			</g>
			<g>
				<path d="M124.1,275.8c-6.1,10.6-9.8,22.8-8.8,30.4C129.2,294.2,126.3,277.8,124.1,275.8z"/>
			</g>
			<g>
				<path class="st7" d="M108,246.1c-17.6-7.3-12.3,36.6,3.2,60.1h7.2C122,300.3,122.2,252,108,246.1z"/>
			</g>
			<g>
				<g>
					<path class="st8" d="M114.9,306.3l0.9-0.2c-2.8-13-10.3-55.1-10.3-55.5l-0.9,0.2C104.6,251.2,112.1,293.3,114.9,306.3z"/>
				</g>
			</g>
			<g>
				<g>
					
						<rect x="107.7" y="282.4" transform="matrix(0.7088 -0.7054 0.7054 0.7088 -171.5342 160.1372)" class="st8" width="0.9" height="10.9"/>
				</g>
			</g>
			<g>
				<g>
					
						<rect x="108.5" y="270.9" transform="matrix(0.8185 -0.5745 0.5745 0.8185 -135.2119 114.6305)" class="st8" width="10.7" height="0.9"/>
				</g>
			</g>
		</g>
		<g>
			<path class="st9" d="M142.8,306.3v6.1c0,6.9-1.4,13.6-4.2,19.6l-1.1,2.4l-7.2,42.7h-20.6l-7.7-42.7l-1.1-2.4
				c-2.7-6-4.2-12.8-4.2-19.6v-6.1H142.8z"/>
		</g>
		<g>
			<g>
				<rect x="108.2" y="321.1" class="st3" width="34.3" height="0.9"/>
			</g>
		</g>
		<g>
			<g>
				<rect x="101.8" y="333.8" class="st3" width="12.3" height="0.9"/>
			</g>
		</g>
		<g>
			<g>
				<path class="st3" d="M129.5,377.5h1.1l0.1-0.4l7.2-42.6l1.1-2.3c2.7-6,4.2-12.9,4.2-19.8v-6.5H96.8v0.9h45.6v5.6
					c0,6.8-1.4,13.5-4.1,19.4l-1.1,2.5l-7.2,42.3h-0.4V377.5z"/>
			</g>
		</g>
	</g>
	<g>
		<g>
			<path class="st5" d="M92.7,212.3h21l7.6-39.6c1.2-6.4-3.6-12.2-10.1-12.2l0,0c-4.9,0-9.2,3.5-10.1,8.4L92.7,212.3z"/>
		</g>
		<g>
			<g>
				<path class="st3" d="M114,203.5l6-31c0.5-2.6-0.2-5.3-1.9-7.4c-1.7-2.1-4.2-3.2-6.9-3.2c-4.3,0-8,3.1-8.8,7.3l-3.6,18.5l0.9,0.2
					l3.6-18.5c0.7-3.8,4-6.5,7.9-6.5c2.4,0,4.7,1.1,6.2,2.9c1.5,1.9,2.2,4.3,1.7,6.6l-6,31L114,203.5z"/>
			</g>
		</g>
		<g>
			
				<rect x="97.2" y="208.8" transform="matrix(-1 -4.483848e-11 4.483848e-11 -1 249.9418 421.1065)" class="st5" width="55.6" height="3.5"/>
		</g>
		<g>
			<g>
				<rect x="107.2" y="208.3" class="st3" width="45.6" height="0.9"/>
			</g>
		</g>
		<g>
			<path class="st5" d="M179.5,196.7H59.7c-3.2,0-5.9-2.4-6.2-5.6l-7.6-72.4c-0.4-3.7,2.5-6.9,6.2-6.9H172c3.2,0,5.9,2.4,6.2,5.6
				l7.6,72.4C186.1,193.5,183.2,196.7,179.5,196.7z"/>
		</g>
		<g>
			<path class="st3" d="M56.1,187.8l-7.3-69.4c-0.1-0.9,0.2-1.9,0.8-2.6c0.6-0.7,1.5-1.1,2.5-1.1H172c1.7,0,3.1,1.3,3.3,3l7.3,70.1
				H56.1z"/>
		</g>
		<g>
			<g>
				<path class="st3" d="M59.7,194.5h119.8c1.1,0,2.2-0.5,3-1.3c0.8-0.9,1.1-1.9,1-3.1l-7.6-72.4c-0.2-2-1.9-3.6-4-3.6H90v0.9h82
					c1.6,0,2.9,1.2,3.1,2.8l7.6,72.4c0.1,0.9-0.2,1.7-0.8,2.4c-0.6,0.7-1.4,1-2.3,1H59.7c-0.1,0-0.2,0-0.3,0l-0.1,0.9
					C59.5,194.5,59.6,194.5,59.7,194.5z"/>
			</g>
		</g>
	</g>
	<g>
		<g>
			<g>
				<path class="st9" d="M56.3,42.5h94.3c3,0,5.7,2.4,6,5.5l0.7,6.4H52.1L51.4,48C51.1,45,53.3,42.5,56.3,42.5z"/>
			</g>
			<g>
				<g>
					<path class="st5" d="M150,48.6c0.5,0,0.9,0.4,0.9,0.8c0,0.5-0.3,0.8-0.7,0.8c-0.5,0-0.9-0.4-0.9-0.8
						C149.3,48.9,149.6,48.6,150,48.6z"/>
				</g>
				<g>
					<path class="st5" d="M146.6,48.6c0.5,0,0.9,0.4,0.9,0.8c0,0.5-0.3,0.8-0.7,0.8c-0.5,0-0.9-0.4-0.9-0.8
						C145.8,48.9,146.1,48.6,146.6,48.6z"/>
				</g>
				<g>
					<path class="st5" d="M143.1,48.6c0.5,0,0.9,0.4,0.9,0.8c0,0.5-0.3,0.8-0.7,0.8c-0.5,0-0.9-0.4-0.9-0.8
						C142.3,48.9,142.6,48.6,143.1,48.6z"/>
				</g>
			</g>
			<g class="st10">
				<polygon class="st5" points="152.4,168.2 152.2,166.3 161.5,166.3 161.7,168.2 				"/>
			</g>
			<g class="st10">
				<polygon class="st5" points="141.6,162.6 141.5,160.8 161.1,160.8 161.3,162.6 				"/>
			</g>
			<g class="st10">
				<polygon class="st5" points="145.2,157 145,155.2 160.8,155.2 161,157 				"/>
			</g>
			<g class="st10">
				<polygon class="st5" points="148.6,168.2 148.4,166.3 151.3,166.3 151.4,168.2 				"/>
			</g>
			<g class="st10">
				<polygon class="st5" points="130.5,168.2 130.4,166.3 139.7,166.3 139.8,168.2 				"/>
			</g>
			<g class="st10">
				<polygon class="st5" points="119.8,162.6 119.6,160.8 139.3,160.8 139.5,162.6 				"/>
			</g>
			<g class="st10">
				<polygon class="st5" points="123.4,157 123.2,155.2 139,155.2 139.1,157 				"/>
			</g>
			<g class="st10">
				<polygon class="st5" points="126.8,168.2 126.6,166.3 129.4,166.3 129.6,168.2 				"/>
			</g>
			<g class="st10">
				<polygon class="st5" points="150.8,151.6 150.6,149.8 159.9,149.8 160.1,151.6 				"/>
			</g>
			<g class="st11">
				<polygon class="st5" points="140,146 139.9,144.2 159.5,144.2 159.7,146 				"/>
			</g>
			<g class="st11">
				<polygon class="st5" points="143.6,140.5 143.4,138.6 159.2,138.6 159.4,140.5 				"/>
			</g>
			<g class="st10">
				<polygon class="st5" points="147,151.6 146.8,149.8 149.7,149.8 149.8,151.6 				"/>
			</g>
			<g class="st10">
				<polygon class="st5" points="128.9,151.6 128.8,149.8 138.1,149.8 138.2,151.6 				"/>
			</g>
			<g class="st11">
				<polygon class="st5" points="118.2,146 118,144.2 137.7,144.2 137.8,146 				"/>
			</g>
			<g class="st11">
				<polygon class="st5" points="121.8,140.5 121.6,138.6 137.4,138.6 137.5,140.5 				"/>
			</g>
			<g class="st10">
				<polygon class="st5" points="125.2,151.6 125,149.8 127.8,149.8 128,151.6 				"/>
			</g>
			<g class="st11">
				<polygon class="st5" points="149.2,135.1 149,133.2 158.3,133.2 158.5,135.1 				"/>
			</g>
			<g class="st11">
				<polygon class="st5" points="138.4,129.5 138.3,127.6 157.9,127.6 158.1,129.5 				"/>
			</g>
			<g>
				<polygon class="st5" points="142,123.9 141.8,122 157.6,122 157.8,123.9 				"/>
			</g>
			<g class="st11">
				<polygon class="st5" points="145.4,135.1 145.2,133.2 148.1,133.2 148.2,135.1 				"/>
			</g>
			<g class="st11">
				<polygon class="st5" points="127.3,135.1 127.2,133.2 136.5,133.2 136.6,135.1 				"/>
			</g>
			<g class="st11">
				<polygon class="st5" points="116.6,129.5 116.4,127.6 136.1,127.6 136.2,129.5 				"/>
			</g>
			<g>
				<polygon class="st5" points="120.2,123.9 120,122 135.8,122 135.9,123.9 				"/>
			</g>
			<g class="st11">
				<polygon class="st5" points="123.6,135.1 123.4,133.2 126.2,133.2 126.4,135.1 				"/>
			</g>
			<g>
				<polygon class="st5" points="147.6,118.5 147.4,116.7 156.7,116.7 156.9,118.5 				"/>
			</g>
			<g>
				<polygon class="st3" points="136.8,112.9 136.7,111.1 156.3,111.1 156.5,112.9 				"/>
			</g>
			<g>
				<polygon class="st5" points="143.8,118.5 143.6,116.7 146.5,116.7 146.6,118.5 				"/>
			</g>
			<g>
				<polygon class="st5" points="125.7,118.5 125.6,116.7 134.9,116.7 135,118.5 				"/>
			</g>
			<g>
				<polygon class="st3" points="115,112.9 114.8,111.1 134.5,111.1 134.6,112.9 				"/>
			</g>
			<g>
				<polygon class="st3" points="118.6,107.3 118.4,105.5 134.2,105.5 134.3,107.3 				"/>
			</g>
			<g>
				<polygon class="st5" points="122,118.5 121.8,116.7 124.6,116.7 124.8,118.5 				"/>
			</g>
			<g>
				<polygon class="st3" points="146,102 145.8,100.1 155.1,100.1 155.3,102 				"/>
			</g>
			<g>
				<polygon class="st3" points="135.2,96.4 135.1,94.5 154.7,94.5 154.9,96.4 				"/>
			</g>
			<g>
				<polygon class="st3" points="138.8,90.8 138.6,88.9 154.4,88.9 154.5,90.8 				"/>
			</g>
			<g>
				<polygon class="st3" points="142.2,102 142,100.1 144.9,100.1 145,102 				"/>
			</g>
			<g>
				<polygon class="st3" points="124.1,102 124,100.1 133.3,100.1 133.4,102 				"/>
			</g>
			<g>
				<polygon class="st3" points="113.4,96.4 113.2,94.5 132.9,94.5 133,96.4 				"/>
			</g>
			<g>
				<polygon class="st3" points="116.9,90.8 116.8,88.9 132.6,88.9 132.7,90.8 				"/>
			</g>
			<g>
				<polygon class="st3" points="120.4,102 120.2,100.1 123,100.1 123.2,102 				"/>
			</g>
			<g>
				<polygon class="st3" points="144.4,85.4 144.2,83.5 153.5,83.5 153.7,85.4 				"/>
			</g>
			<g>
				<polygon class="st3" points="133.6,79.8 133.5,78 153.1,78 153.3,79.8 				"/>
			</g>
			<g>
				<polygon class="st3" points="137.2,74.2 137,72.4 152.8,72.4 152.9,74.2 				"/>
			</g>
			<g>
				<polygon class="st3" points="140.6,85.4 140.4,83.5 143.3,83.5 143.4,85.4 				"/>
			</g>
			<g>
				<polygon class="st3" points="122.5,85.4 122.4,83.5 131.7,83.5 131.8,85.4 				"/>
			</g>
			<g>
				<polygon class="st3" points="111.8,79.8 111.6,78 131.3,78 131.4,79.8 				"/>
			</g>
			<g>
				<polygon class="st3" points="115.3,74.2 115.2,72.4 131,72.4 131.1,74.2 				"/>
			</g>
			<g>
				<polygon class="st3" points="118.8,85.4 118.6,83.5 121.4,83.5 121.6,85.4 				"/>
			</g>
			<g>
				<polygon class="st3" points="142.8,68.8 142.6,67 151.9,67 152.1,68.8 				"/>
			</g>
			<g>
				<polygon class="st3" points="132,63.3 131.9,61.4 151.5,61.4 151.7,63.3 				"/>
			</g>
			<g>
				<polygon class="st3" points="139,68.8 138.8,67 141.7,67 141.8,68.8 				"/>
			</g>
			<g>
				<polygon class="st3" points="120.9,68.8 120.8,67 130.1,67 130.2,68.8 				"/>
			</g>
			<g>
				<polygon class="st3" points="110.2,63.3 110,61.4 129.7,61.4 129.8,63.3 				"/>
			</g>
			<g>
				<polygon class="st3" points="117.2,68.8 117,67 119.8,67 120,68.8 				"/>
			</g>
			<g class="st10">
				<polygon class="st5" points="103.1,168.2 102.9,166.3 112.2,166.3 112.4,168.2 				"/>
			</g>
			<g class="st10">
				<polygon class="st5" points="92.3,162.6 92.2,160.8 111.8,160.8 112,162.6 				"/>
			</g>
			<g class="st10">
				<polygon class="st5" points="95.9,157 95.7,155.2 111.5,155.2 111.6,157 				"/>
			</g>
			<g class="st10">
				<polygon class="st5" points="99.3,168.2 99.1,166.3 102,166.3 102.1,168.2 				"/>
			</g>
			<g class="st10">
				<polygon class="st5" points="81.2,168.2 81.1,166.3 90.4,166.3 90.5,168.2 				"/>
			</g>
			<g class="st10">
				<polygon class="st5" points="70.5,162.6 70.3,160.8 90,160.8 90.1,162.6 				"/>
			</g>
			<g class="st10">
				<polygon class="st5" points="74,157 73.9,155.2 89.7,155.2 89.8,157 				"/>
			</g>
			<g class="st10">
				<polygon class="st5" points="77.5,168.2 77.3,166.3 80.1,166.3 80.3,168.2 				"/>
			</g>
			<g class="st10">
				<polygon class="st5" points="101.5,151.6 101.3,149.8 110.6,149.8 110.8,151.6 				"/>
			</g>
			<g class="st11">
				<polygon class="st5" points="90.7,146 90.6,144.2 110.2,144.2 110.4,146 				"/>
			</g>
			<g class="st11">
				<polygon class="st5" points="94.3,140.5 94.1,138.6 109.9,138.6 110,140.5 				"/>
			</g>
			<g class="st10">
				<polygon class="st5" points="97.7,151.6 97.5,149.8 100.4,149.8 100.5,151.6 				"/>
			</g>
			<g class="st10">
				<polygon class="st5" points="79.6,151.6 79.5,149.8 88.8,149.8 88.9,151.6 				"/>
			</g>
			<g class="st11">
				<polygon class="st5" points="68.9,146 68.7,144.2 88.4,144.2 88.5,146 				"/>
			</g>
			<g class="st11">
				<polygon class="st5" points="72.4,140.5 72.3,138.6 88.1,138.6 88.2,140.5 				"/>
			</g>
			<g class="st10">
				<polygon class="st5" points="75.9,151.6 75.7,149.8 78.5,149.8 78.7,151.6 				"/>
			</g>
			<g class="st11">
				<polygon class="st5" points="99.9,135.1 99.7,133.2 109,133.2 109.2,135.1 				"/>
			</g>
			<g class="st11">
				<polygon class="st5" points="89.1,129.5 89,127.6 108.6,127.6 108.8,129.5 				"/>
			</g>
			<g>
				<polygon class="st5" points="92.7,123.9 92.5,122 108.3,122 108.4,123.9 				"/>
			</g>
			<g class="st11">
				<polygon class="st5" points="96.1,135.1 95.9,133.2 98.8,133.2 98.9,135.1 				"/>
			</g>
			<g class="st11">
				<polygon class="st5" points="78,135.1 77.9,133.2 87.2,133.2 87.3,135.1 				"/>
			</g>
			<g>
				<polygon class="st5" points="67.3,129.5 67.1,127.6 86.8,127.6 86.9,129.5 				"/>
			</g>
			<g>
				<polygon class="st5" points="70.8,123.9 70.7,122 86.5,122 86.6,123.9 				"/>
			</g>
			<g class="st11">
				<polygon class="st5" points="74.3,135.1 74.1,133.2 76.9,133.2 77.1,135.1 				"/>
			</g>
			<g class="st12">
				<polygon class="st5" points="104.9,184.8 104.8,183 114.1,183 114.2,184.8 				"/>
			</g>
			<g class="st12">
				<polygon class="st5" points="94.2,179.3 94,177.4 113.7,177.4 113.8,179.3 				"/>
			</g>
			<g class="st12">
				<polygon class="st5" points="97.8,173.7 97.6,171.8 113.4,171.8 113.5,173.7 				"/>
			</g>
			<g class="st12">
				<polygon class="st5" points="101.2,184.8 101,183 103.8,183 104,184.8 				"/>
			</g>
			<g class="st12">
				<polygon class="st5" points="83.1,184.8 83,183 92.3,183 92.4,184.8 				"/>
			</g>
			<g class="st12">
				<polygon class="st5" points="72.4,179.3 72.2,177.4 91.9,177.4 92,179.3 				"/>
			</g>
			<g class="st12">
				<polygon class="st5" points="75.9,173.7 75.8,171.8 91.5,171.8 91.7,173.7 				"/>
			</g>
			<g class="st12">
				<polygon class="st5" points="79.3,184.8 79.2,183 82,183 82.2,184.8 				"/>
			</g>
			<g>
				<polygon class="st5" points="98.3,118.5 98.1,116.7 107.4,116.7 107.6,118.5 				"/>
			</g>
			<g>
				<polygon class="st3" points="87.5,112.9 87.4,111.1 107,111.1 107.2,112.9 				"/>
			</g>
			<g>
				<polygon class="st5" points="94.5,118.5 94.3,116.7 97.2,116.7 97.3,118.5 				"/>
			</g>
			<g>
				<polygon class="st5" points="76.4,118.5 76.3,116.7 85.6,116.7 85.7,118.5 				"/>
			</g>
			<g>
				<polygon class="st3" points="65.7,112.9 65.5,111.1 85.2,111.1 85.3,112.9 				"/>
			</g>
			<g>
				<polygon class="st3" points="69.2,107.3 69.1,105.5 84.9,105.5 85,107.3 				"/>
			</g>
			<g>
				<polygon class="st5" points="72.7,118.5 72.5,116.7 75.3,116.7 75.5,118.5 				"/>
			</g>
			<g>
				<polygon class="st3" points="96.7,102 96.5,100.1 105.8,100.1 106,102 				"/>
			</g>
			<g>
				<polygon class="st3" points="85.9,96.4 85.8,94.5 105.4,94.5 105.6,96.4 				"/>
			</g>
			<g>
				<polygon class="st3" points="89.5,90.8 89.3,88.9 105.1,88.9 105.2,90.8 				"/>
			</g>
			<g>
				<polygon class="st3" points="92.9,102 92.7,100.1 95.6,100.1 95.7,102 				"/>
			</g>
			<g>
				<polygon class="st3" points="74.8,102 74.7,100.1 84,100.1 84.1,102 				"/>
			</g>
			<g>
				<polygon class="st3" points="64.1,96.4 63.9,94.5 83.6,94.5 83.7,96.4 				"/>
			</g>
			<g>
				<polygon class="st5" points="67.6,90.8 67.5,88.9 83.3,88.9 83.4,90.8 				"/>
			</g>
			<g>
				<polygon class="st3" points="71.1,102 70.9,100.1 73.7,100.1 73.9,102 				"/>
			</g>
			<g>
				<polygon class="st3" points="95.1,85.4 94.9,83.5 104.2,83.5 104.4,85.4 				"/>
			</g>
			<g>
				<polygon class="st3" points="84.3,79.8 84.2,78 103.8,78 104,79.8 				"/>
			</g>
			<g>
				<polygon class="st3" points="87.9,74.2 87.7,72.4 103.5,72.4 103.6,74.2 				"/>
			</g>
			<g>
				<polygon class="st3" points="91.3,85.4 91.1,83.5 93.9,83.5 94.1,85.4 				"/>
			</g>
			<g>
				<polygon class="st3" points="73.2,85.4 73.1,83.5 82.4,83.5 82.5,85.4 				"/>
			</g>
			<g>
				<polygon class="st3" points="62.5,79.8 62.3,78 82,78 82.1,79.8 				"/>
			</g>
			<g>
				<polygon class="st3" points="66,74.2 65.9,72.4 81.7,72.4 81.8,74.2 				"/>
			</g>
			<g>
				<polygon class="st3" points="69.5,85.4 69.3,83.5 72.1,83.5 72.3,85.4 				"/>
			</g>
			<g>
				<polygon class="st3" points="93.5,68.8 93.3,67 102.6,67 102.8,68.8 				"/>
			</g>
			<g>
				<polygon class="st3" points="82.7,63.3 82.6,61.4 102.2,61.4 102.4,63.3 				"/>
			</g>
			<g>
				<polygon class="st3" points="89.7,68.8 89.5,67 92.3,67 92.5,68.8 				"/>
			</g>
			<g>
				<polygon class="st3" points="71.6,68.8 71.5,67 80.8,67 80.9,68.8 				"/>
			</g>
			<g>
				<polygon class="st5" points="60.9,63.3 60.7,61.4 80.4,61.4 80.5,63.3 				"/>
			</g>
			<g>
				<polygon class="st3" points="67.9,68.8 67.7,67 70.5,67 70.7,68.8 				"/>
			</g>
		</g>
		<g>
			<g>
				<path class="st3" d="M64.7,178.5l0.9-0.1L51.9,48c-0.1-1.4,0.3-2.6,1.1-3.6c0.9-0.9,2.1-1.5,3.4-1.5h94.1c2.8,0,5.4,2.3,5.7,5.2
					l11.2,107.1l0.9-0.1L157.1,48c-0.3-3.3-3.3-6-6.6-6H56.4c-1.6,0-3.1,0.6-4.1,1.8c-1,1.1-1.5,2.7-1.3,4.3L64.7,178.5z"/>
			</g>
		</g>
	</g>
	<g>
		<g>
			<path class="st9" d="M142.2,212.3c0,0,2.1-11.6,12.1-11.6c11,0,15.9,6.5,18.5,11.5L142.2,212.3z"/>
		</g>
		<g>
			<g>
				<path d="M281.6,362.2c0,0,5,2,13.6-12.3c8.7-14.3,7.5-27.9,1.6-32.8c-5.9-4.8-18,11.1-21.7,21
					C271.4,348.1,269.8,364,281.6,362.2z"/>
			</g>
			<g>
				<g>
					<path class="st13" d="M281,334.3c8.1,2.1,15.6,8.3,19.7,19.7c1.4,4,3.1,7.8,2.3,12.2c-0.8,3.8-3.8,7.2-6.6,9
						c-0.9,0.6-0.9,1.5,0.2,1.5c3.8,0,9.4-0.1,13.2-0.1c6.2,0,13.5-3.5,11.5-12.5c-2.1-9-0.6-15.7,1.8-25.5
						c2.4-9.8-0.9-16.5-11.7-18.3c-3.8-0.6-10.1-1.1-12.7-2.1c-1.6-0.6-6.3-3.4-7.4-4.1C291.3,314.2,274.5,325.2,281,334.3z"/>
				</g>
				<g>
					<path class="st5" d="M305.6,363.5c1.4-7.8,0.4-15.9,0-19.6c-0.5-4.3-2.7-10.5-0.5-16.4c2.6-7.1,6.8-6.9,7.2-6.8
						c9.8,1.6,13,8.6,10.7,18.1c-2.4,9.8-3.8,16.5-1.8,25.5c2.1,9-5.3,12.5-11.5,12.5c-2.9,0-7.4,0-10.8,0c-1.1,0-1.6-1.4-0.7-2
						C300.9,372.6,304.6,369.1,305.6,363.5z"/>
				</g>
				<g>
					<path class="st13" d="M308,363.5c1.4-7.8,0.4-15.9,0-19.6c-0.5-4.3-2.7-10.5-0.5-16.4c2.6-7.1,6.8-6.9,7.2-6.8
						c9.8,1.6,13,8.6,10.7,18.1c-2.4,9.8-3.8,16.5-1.8,25.5c2.1,9-5.3,12.5-11.5,12.5c-3.2,0-8.4,0-11.8,0c-0.8,0-1.1-1-0.5-1.4
						C302.5,373.3,306.9,369.8,308,363.5z"/>
				</g>
				<g>
					<path class="st3" d="M323.5,332.3c0,5-3.2,9.1-7.1,9.1c-3.9,0-7.1-4.1-7.1-9.1c0-5,3.2-9.1,7.1-9.1
						C320.3,323.1,323.5,327.2,323.5,332.3z"/>
				</g>
				<g>
					<g>
						<path class="st3" d="M304.3,340.5l0.7-0.6c-7.1-8.6-6.2-14.5-5.4-16.6c0.6-1.9,1.9-3.3,3.2-3.6l-0.2-0.9
							c-1.7,0.4-3.1,2-3.9,4.2C297.9,325.3,296.9,331.5,304.3,340.5z"/>
					</g>
				</g>
				<g>
					<g>
						<path class="st3" d="M299.6,350.9l0.7-0.6c-1.5-1.5-2.1-3.2-1.9-4.9c0.4-3.8,4.6-6.9,4.7-6.9l-0.5-0.7
							c-0.2,0.1-4.6,3.3-5.1,7.6C297.3,347.2,298,349.1,299.6,350.9z"/>
					</g>
				</g>
				<g>
					<g>
						<path class="st3" d="M296.4,346.3l0.7-0.5c-1.3-1.7-1.7-3.4-1.4-5.1c0.7-3.4,4.4-5.7,4.5-5.8l-0.5-0.8
							c-0.2,0.1-4.2,2.5-4.9,6.4C294.5,342.4,295,344.4,296.4,346.3z"/>
					</g>
				</g>
			</g>
			<g>
				<path class="st0" d="M258.7,259.9c8.1,8.9,14.2,16.2,25.4,42c3.2,7.3,12.1,14.8,12.1,14.8c-5.3-2.7-36.9,45.2-14.7,45.5
					c0,0-15.8,3.3-34.8-18.6c-18.9-21.9-28.2-73.6-26.4-85.1C222.3,247,244.5,244.4,258.7,259.9z"/>
			</g>
			<g>
				<path class="st3" d="M220.4,258.5c1.8-11.5,24.1-14.1,38.3,1.4c5.6,6.1,10.3,11.6,16.3,22.9c-1.1,0.1-2.5,0.2-3.1,0.2
					c-2.3,0.1-4.4,0.3-6.7,0.7c-7.2,1.2-13.2,5.2-16.7,11.7c-7.5,13.6,0.4,30.3,9.3,41c4.7,5.7,10.3,10.3,16.3,14.4
					c-1.2,6.4,0.5,11.2,7.5,11.3c0,0-15.8,3.3-34.8-18.6C227.9,321.7,218.6,270.1,220.4,258.5z"/>
			</g>
		</g>
		<g>
			<g>
				<path d="M218.3,362.2c0,0,5,2,13.6-12.3c8.7-14.3,7.5-27.9,1.6-32.8c-5.9-4.8-18,11.1-21.7,21
					C208.2,348.1,206.5,364,218.3,362.2z"/>
			</g>
			<g>
				<g>
					<path class="st13" d="M217.7,334.3c8.1,2.1,15.6,8.3,19.7,19.7c1.4,4,3.1,7.8,2.3,12.2c-0.8,3.8-3.8,7.2-6.6,9
						c-0.9,0.6-0.9,1.5,0.2,1.5c3.8,0,9.4-0.1,13.2-0.1c6.2,0,13.5-3.5,11.5-12.5c-2.1-9-0.6-15.7,1.8-25.5
						c2.4-9.8-0.9-16.5-11.7-18.3c-3.8-0.6-10.1-1.1-12.7-2.1c-1.6-0.6-6.3-3.4-7.4-4.1C228,314.2,211.3,325.2,217.7,334.3z"/>
				</g>
				<g>
					<path class="st5" d="M242.3,363.5c1.4-7.8,0.4-15.9,0-19.6c-0.5-4.3-2.7-10.5-0.5-16.4c2.6-7.1,6.8-6.9,7.2-6.8
						c9.8,1.6,13,8.6,10.7,18.1c-2.4,9.8-3.8,16.5-1.8,25.5c2.1,9-5.3,12.5-11.5,12.5c-2.9,0-7.4,0-10.8,0c-1.1,0-1.6-1.4-0.7-2
						C237.6,372.6,241.3,369.1,242.3,363.5z"/>
				</g>
				<g>
					<path class="st13" d="M244.8,363.5c1.4-7.8,0.4-15.9,0-19.6c-0.5-4.3-2.7-10.5-0.5-16.4c2.6-7.1,6.8-6.9,7.2-6.8
						c9.8,1.6,13,8.6,10.7,18.1c-2.4,9.8-3.8,16.5-1.8,25.5c2.1,9-5.3,12.5-11.5,12.5c-3.2,0-8.4,0-11.8,0c-0.8,0-1.1-1-0.5-1.4
						C239.2,373.3,243.6,369.8,244.8,363.5z"/>
				</g>
				<g>
					<path class="st3" d="M260.2,332.3c0,5-3.2,9.1-7.1,9.1c-3.9,0-7.1-4.1-7.1-9.1c0-5,3.2-9.1,7.1-9.1
						C257,323.1,260.2,327.2,260.2,332.3z"/>
				</g>
				<g>
					<g>
						<path class="st3" d="M241,340.5l0.7-0.6c-7.1-8.6-6.2-14.5-5.4-16.6c0.6-1.9,1.9-3.3,3.2-3.6l-0.2-0.9c-1.7,0.4-3.1,2-3.9,4.2
							C234.6,325.3,233.6,331.5,241,340.5z"/>
					</g>
				</g>
				<g>
					<g>
						<path class="st3" d="M236.3,350.9l0.7-0.6c-1.5-1.5-2.1-3.2-1.9-4.9c0.4-3.8,4.6-6.9,4.7-6.9l-0.5-0.7
							c-0.2,0.1-4.6,3.3-5.1,7.6C234,347.2,234.7,349.1,236.3,350.9z"/>
					</g>
				</g>
				<g>
					<g>
						<path class="st3" d="M233.2,346.3l0.7-0.5c-1.3-1.7-1.7-3.4-1.4-5.1c0.7-3.4,4.4-5.7,4.5-5.8l-0.5-0.8
							c-0.2,0.1-4.2,2.5-4.9,6.4C231.2,342.4,231.7,344.4,233.2,346.3z"/>
					</g>
				</g>
			</g>
			<g>
				<path class="st14" d="M195.5,259.9c8.1,8.9,14.2,16.2,25.4,42c3.2,7.3,12.1,14.8,12.1,14.8c-5.3-2.7-36.9,45.2-14.7,45.5
					c0,0-15.8,3.3-34.8-18.6c-18.9-21.9-28.2-73.6-26.4-85.1C159,247,181.3,244.4,195.5,259.9z"/>
			</g>
			<g>
				<path class="st14" d="M292.6,280.2c-10.3,3.5-29.2,1.7-48.7,1.7s-57.6,2.5-68.9-2.6c-8.1-3.6-26.5-15.9-13.6-33.4
					c12.9-17.5,120.8-21,132.1-21.4C304.7,224,320.3,270.8,292.6,280.2z"/>
			</g>
			<g>
				<g>
					<g>
						<path class="st3" d="M283.4,260.9c0.6-0.2,0.9-0.3,0.9-0.3l-0.6-1.7c0,0-0.3,0.1-0.8,0.3L283.4,260.9z"/>
					</g>
				</g>
				<g>
					<g>
						<path class="st5" d="M205,341.8l1.1-1.4c0.5,0.4,1,0.7,1.5,1.1l-1,1.5C206,342.5,205.5,342.2,205,341.8z M201.4,338.8l1.2-1.4
							c0.5,0.4,0.9,0.8,1.4,1.2l-1.2,1.4C202.3,339.7,201.8,339.3,201.4,338.8z M198,335.6l1.3-1.3c0.4,0.4,0.8,0.9,1.3,1.3
							l-1.3,1.3C198.9,336.5,198.4,336.1,198,335.6z M194.9,332.2l1.4-1.2c0.4,0.5,0.8,0.9,1.2,1.4l-1.3,1.2
							C195.7,333.2,195.3,332.7,194.9,332.2z M192,328.6l1.4-1.1c0.4,0.5,0.7,1,1.1,1.4l-1.4,1.1C192.7,329.6,192.4,329.1,192,328.6
							z M189.3,324.8l1.5-1c0.3,0.5,0.7,1,1,1.5l-1.5,1C190,325.9,189.6,325.3,189.3,324.8z M186.8,320.9l1.5-0.9
							c0.3,0.5,0.6,1,0.9,1.5l-1.5,1C187.5,322,187.1,321.5,186.8,320.9z M184.5,316.9l1.6-0.9c0.3,0.5,0.6,1.1,0.9,1.6l-1.6,0.9
							C185.1,318,184.8,317.5,184.5,316.9z M182.4,312.8l1.6-0.8c0.3,0.5,0.5,1.1,0.8,1.6l-1.6,0.8C183,314,182.7,313.4,182.4,312.8
							z M180.5,308.7l1.7-0.7c0.2,0.6,0.5,1.1,0.7,1.7l-1.6,0.8C181,309.8,180.7,309.2,180.5,308.7z M178.7,304.4l1.7-0.7
							c0.2,0.6,0.4,1.1,0.7,1.7l-1.7,0.7C179.2,305.6,179,305,178.7,304.4z M177.1,300.1l1.7-0.6c0.2,0.6,0.4,1.1,0.6,1.7l-1.7,0.6
							C177.5,301.2,177.3,300.7,177.1,300.1z M175.7,295.7l1.7-0.5c0.2,0.6,0.4,1.2,0.5,1.7l-1.7,0.6
							C176.1,296.9,175.9,296.3,175.7,295.7z M174.5,291.3l1.7-0.5c0.2,0.6,0.3,1.2,0.5,1.7l-1.7,0.5
							C174.8,292.5,174.6,291.9,174.5,291.3z M173.4,286.8l1.8-0.4c0.1,0.6,0.3,1.2,0.4,1.8l-1.8,0.4
							C173.7,288,173.5,287.4,173.4,286.8z M172.6,282.2l1.8-0.3c0.1,0.6,0.2,1.2,0.3,1.8l-1.8,0.3
							C172.8,283.5,172.7,282.8,172.6,282.2z M172,277.6l1.8-0.1c0,0.6,0.1,1.2,0.2,1.8l-1.8,0.2C172.1,278.9,172.1,278.2,172,277.6
							z M171.9,274c0-0.4,0-0.7,0-1.1l1.8,0.1c0,0.3,0,0.7,0,1c0,0.3,0,0.5,0,0.8l-1.8,0C171.9,274.6,171.9,274.3,171.9,274z
							 M211.2,271.6l0-1.8c0.6,0,1.2,0,1.8,0l0,1.8C212.4,271.6,211.8,271.6,211.2,271.6z M215.8,269.8c0.6,0,1.2,0,1.8,0l0,1.8
							c-0.6,0-1.2,0-1.8,0L215.8,269.8z M206.6,271.5l0-1.8c0.6,0,1.2,0,1.8,0l0,1.8C207.8,271.5,207.2,271.5,206.6,271.5z
							 M220.3,269.7c0.6,0,1.2,0,1.8,0l0.1,1.8c-0.6,0-1.2,0-1.8,0L220.3,269.7z M202,271.3l0.1-1.8c0.6,0,1.2,0.1,1.8,0.1l-0.1,1.8
							C203.2,271.4,202.6,271.4,202,271.3z M224.9,269.6l1.8-0.1l0.1,1.8l-1.8,0.1L224.9,269.6z M229.4,269.4l1.8-0.1l0.1,1.8
							l-1.8,0.1L229.4,269.4z M197.4,271.1l0.1-1.8c0.6,0,1.2,0.1,1.8,0.1l-0.1,1.8C198.7,271.1,198.1,271.1,197.4,271.1z
							 M234,269.1c0.6,0,1.2-0.1,1.8-0.1l0.1,1.8c-0.6,0-1.2,0.1-1.8,0.1L234,269.1z M192.9,270.7l0.2-1.8c0.6,0.1,1.2,0.1,1.8,0.2
							l-0.2,1.8C194.1,270.8,193.5,270.7,192.9,270.7z M238.5,268.8c0.6-0.1,1.2-0.1,1.8-0.2l0.2,1.8c-0.6,0.1-1.2,0.1-1.8,0.2
							L238.5,268.8z M172.1,270.1c0.1-0.7,0.3-1.4,0.5-1.9l1.7,0.6c-0.2,0.5-0.3,1-0.4,1.6L172.1,270.1z M188.3,270.1l0.3-1.8
							c0.6,0.1,1.2,0.2,1.8,0.2l-0.2,1.8C189.5,270.3,188.9,270.2,188.3,270.1z M243,268.3c0.6-0.1,1.2-0.2,1.8-0.2l0.2,1.8
							c-0.6,0.1-1.2,0.2-1.8,0.2L243,268.3z M183.7,269.4l0.3-1.8c0.6,0.1,1.2,0.2,1.8,0.3l-0.3,1.8
							C184.9,269.6,184.3,269.5,183.7,269.4z M247.5,267.6c0.6-0.1,1.2-0.2,1.8-0.3l0.3,1.8c-0.6,0.1-1.2,0.2-1.8,0.3L247.5,267.6z
							 M179.2,268.3l0.5-1.7c0.6,0.2,1.1,0.3,1.7,0.5l-0.4,1.8C180.4,268.6,179.8,268.5,179.2,268.3z M252,266.9
							c0.6-0.1,1.2-0.2,1.8-0.3l0.3,1.8c-0.6,0.1-1.2,0.2-1.8,0.3L252,266.9z M256.5,266.1c0.6-0.1,1.2-0.2,1.8-0.4l0.4,1.8
							c-0.6,0.1-1.2,0.2-1.8,0.4L256.5,266.1z M176.4,267.4c-0.4-0.2-0.7-0.2-1-0.1l-0.6-1.7c0.7-0.3,1.5-0.2,2.3,0.1l0.1,0.1
							l-0.7,1.7L176.4,267.4z M260.9,265.1c0.6-0.1,1.2-0.3,1.8-0.4l0.4,1.8c-0.6,0.1-1.2,0.3-1.8,0.4L260.9,265.1z M265.4,264.1
							c0.6-0.1,1.2-0.3,1.8-0.4l0.4,1.8c-0.6,0.1-1.2,0.3-1.8,0.4L265.4,264.1z M269.8,263c0.6-0.2,1.2-0.3,1.8-0.5l0.5,1.7
							c-0.6,0.2-1.2,0.3-1.8,0.5L269.8,263z M274.2,261.8c0.6-0.2,1.2-0.3,1.8-0.5l0.5,1.7c-0.6,0.2-1.2,0.3-1.8,0.5L274.2,261.8z
							 M278.5,260.5c0.6-0.2,1.2-0.4,1.7-0.5l0.5,1.7c-0.5,0.2-1.1,0.3-1.8,0.5L278.5,260.5z"/>
					</g>
				</g>
				<g>
					<g>
						<path class="st3" d="M209.5,344.8l0.9-1.6c-0.3-0.2-0.5-0.3-0.8-0.5l-1,1.5C209,344.5,209.3,344.7,209.5,344.8z"/>
					</g>
				</g>
			</g>
			<g>
				<path class="st5" d="M281.3,80.8c2.2,0,12.1-0.7,14.5,0c5.6,1.6,5.2,9.8,7.8,16.8c0.8,2.2,1.4,6.9,0.7,8.7c0,0,0,0,0,0l6.7,15.2
					c-5.6,9-18.9,5.6-18.9,5.6l-3-9.2c-1.5,0.6-2.7,0.9-3.5,0.9c-6.2-0.2-9.8-12.1-10.2-20.1C275,91.4,272.8,80.8,281.3,80.8z"/>
				<path d="M292,127.4l-0.2-0.1l-2.9-9c-1.4,0.5-2.5,0.8-3.2,0.8c-6.5-0.2-10.2-12.4-10.6-20.5c-0.1-1-0.1-2-0.2-3.1
					c-0.4-4.9-0.9-10.5,1.7-13.3c1.1-1.2,2.7-1.8,4.8-1.8c0.6,0,1.6,0,3-0.1c3.9-0.2,9.8-0.4,11.6,0.1c4.1,1.2,5.1,5.7,6.2,10.5
					c0.5,2.2,1,4.4,1.8,6.5c0.8,2.1,1.5,6.7,0.8,8.8l6.7,15.2l-0.1,0.2c-3.3,5.3-9.2,6.4-13.7,6.4C294.4,128,292,127.4,292,127.4z
					 M303.9,106.4l0-0.2l0.1-0.1c0.6-1.6,0.1-6.2-0.7-8.4c-0.8-2.2-1.3-4.4-1.9-6.6c-1.1-4.8-2.1-8.9-5.7-9.9
					c-1.7-0.5-7.7-0.2-11.4-0.1c-1.4,0.1-2.5,0.1-3,0.1c-1.9,0-3.2,0.5-4.2,1.6c-2.4,2.6-1.9,8-1.5,12.7c0.1,1.1,0.2,2.1,0.2,3.1
					c0.4,8.2,4.1,19.6,9.8,19.8c0.7,0,1.8-0.3,3.3-0.9l0.4-0.2l3.1,9.4c1.7,0.4,13.1,2.5,18.2-5.3L303.9,106.4z"/>
			</g>
			<g>
				<path class="st3" d="M276.6,85.5c0.8,0.2,3.3,0.8,3.3,0.8s1.5,5.8,2.8,7.9c1.2,2.1-0.5,10.3-4.5,11.7c-4,1.4-0.7,5.4-0.1,7.2
					c0.9,2.6-1.2,5.9,4.3,6.9c3.6,0.7,11.9-2.6,8.8-7.6c-3.1-5.1-8-11.2-5-17.8c2.9-6.5,0.5,7.4,8.6,11c8.1,3.6,10.4,5.1,10.4,5.1
					s0.5-3.2,2.5-4.3c2-1.1,6.9-9.3,5.7-18.8c-1.2-9.5-6-12-14.6-12.4c-8.6-0.4-6.2-4.4-11.5-4.5c-5.4-0.2-12.9-5.4-12.9-5.4
					S269.1,83.4,276.6,85.5z"/>
			</g>
			<g>
				<path class="st13" d="M286.1,124.3c-15.9,5.6-26.1,18.1-34.8,54.3c-8.7,36.2-20,39.9-23,49.9c0,0,36.6,19.7,55,53.3
					c0,0,62.3,4.9,58.4-45.7c-3.8-50.6,5.7-60.5,3.4-79.4c-2.3-18.9-18.3-35.3-29.1-36.3C307.1,119.6,298.4,120,286.1,124.3z"/>
			</g>
			<g>
				<g>
					<path class="st5" d="M295.7,98.5c-1,3.2-4,5.2-6.8,4.4c-2.8-0.8-4.2-4.2-3.3-7.4c1-3.2,4-5.2,6.8-4.4
						C295.2,91.9,296.7,95.3,295.7,98.5z"/>
					<path d="M288.8,103.2c-1.5-0.4-2.6-1.5-3.3-3c-0.7-1.5-0.7-3.2-0.2-4.9c0.5-1.7,1.5-3.1,2.9-3.9c1.4-0.9,2.9-1.1,4.4-0.7
						c3,0.9,4.6,4.4,3.5,7.9l0,0c-0.9,2.9-3.3,4.8-5.9,4.8C289.7,103.4,289.2,103.4,288.8,103.2z M295.3,98.4c0.9-3-0.4-6.1-3-6.9
						c-1.2-0.4-2.6-0.2-3.8,0.6c-1.2,0.8-2.1,2-2.6,3.5c-0.4,1.5-0.4,3,0.2,4.3c0.6,1.3,1.6,2.2,2.8,2.6
						C291.6,103.3,294.4,101.4,295.3,98.4L295.3,98.4z"/>
				</g>
			</g>
			<g>
				<g>
					<path class="st3" d="M289.1,101c0.2,0,0.5-0.1,0.7-0.2c0.8-0.5,0.7-1.1,0.6-1.7c-0.1-0.5-0.1-1,0.4-1.6c0.4-0.5,0.9-0.7,1.4-1
						c0.8-0.4,1.6-0.8,1.2-2.4c-0.2-0.5-0.5-0.9-0.9-1.1c-1.4-0.7-3.6,0-3.7,0l0.3,0.9c0.5-0.2,2.1-0.5,3-0.1
						c0.3,0.1,0.4,0.3,0.5,0.6c0.2,0.8,0,0.9-0.7,1.3c-0.5,0.2-1.1,0.5-1.7,1.2c-0.8,0.9-0.7,1.7-0.6,2.3c0.1,0.5,0.1,0.6-0.2,0.8
						c-0.2,0.1-0.3,0.1-0.3,0.1c-0.4-0.1-0.7-0.8-0.9-1.1l-0.8,0.3c0.1,0.1,0.5,1.4,1.4,1.6C288.8,101,288.9,101,289.1,101z"/>
				</g>
			</g>
			<g>
				<path class="st5" d="M148.4,199.3c2.8-6.5,4.5-3.1,10.5-4.9c6-1.8,7.1-3.1,12,1.6c4.9,4.7,6.7,4.9,9.9,4
					c2.9-0.8,27.3-8.5,41.7-14.2c5.3-6.5,22.7-26.2,22.7-26.2c16.5-15.6,42.5,7.8,31.5,22.8c-11,15.1-29.6,27.6-40,29.8
					c-0.8,0.2-1.6,0.2-2.4,0h-66.6c0,0-5.8-0.8-7.1-5.6c-1.3-4.8-6.9-2.4-8-0.1c-1.1,2.3,0,5.4-2.4,5.3c-2.4-0.1-2.4-3.8-2.4-3.8
					s-6.7,2.8-6.8,0.4C140.7,207.1,145.6,205.9,148.4,199.3z"/>
				<path d="M234.3,212.7l-66.7,0c-0.2,0-6-0.9-7.4-5.9c-0.4-1.5-1.3-2.4-2.6-2.5c-1.9-0.2-4.1,1.2-4.7,2.5
					c-0.4,0.8-0.5,1.7-0.6,2.6c-0.2,1.5-0.3,3-2.2,2.9c-2.2-0.1-2.7-2.5-2.8-3.7c-1.4,0.5-4.9,1.7-6.3,0.9c-0.4-0.2-0.6-0.6-0.6-1
					c-0.1-0.7,0.6-1.3,1.7-2.1c1.7-1.3,4.2-3.3,5.9-7.3c1.9-4.5,3.6-4.5,6-4.5c1.2,0,2.8,0,4.8-0.6c0.8-0.2,1.5-0.5,2.2-0.7
					c4.2-1.4,5.8-1.9,10.2,2.3c4.8,4.6,6.4,4.7,9.5,3.9c3.1-0.8,27.4-8.5,41.6-14.1c5.3-6.5,22.5-26,22.7-26.2
					c8.9-8.4,20.2-5.8,27.4,0.6c6.2,5.5,10.4,15,4.7,22.8c-11.1,15.2-29.7,27.8-40.2,30c-0.5,0.1-0.9,0.1-1.4,0.1
					C235.1,212.8,234.7,212.7,234.3,212.7z M245.6,159.8c-0.2,0.2-17.5,19.8-22.7,26.2l-0.1,0.1l-0.1,0
					c-14.2,5.6-38.7,13.4-41.8,14.2c-3.5,1-5.4,0.5-10.2-4.1c-4.1-3.9-5.3-3.5-9.4-2.1c-0.7,0.2-1.4,0.4-2.2,0.7
					c-2.1,0.6-3.7,0.6-5,0.6c-2.4,0-3.6,0-5.3,4c-1.8,4.2-4.5,6.3-6.1,7.6c-0.8,0.6-1.4,1.1-1.4,1.4c0,0.2,0.1,0.3,0.2,0.4
					c1,0.6,4.2-0.4,6.1-1.2l0.5-0.2v0.6c0,0,0,3.3,2.1,3.4c1.1,0.1,1.2-0.5,1.4-2.2c0.1-0.9,0.2-1.9,0.6-2.8
					c0.7-1.5,3.2-3.1,5.5-2.9c1.6,0.1,2.8,1.2,3.3,3.1c1.2,4.5,6.7,5.3,6.7,5.3l66.7,0c0.8,0.1,1.6,0.1,2.3,0
					c10.3-2.2,28.7-14.6,39.7-29.7c5.4-7.4,1.4-16.5-4.6-21.7c-3.9-3.4-8.9-5.7-14.1-5.7C253.6,154.8,249.3,156.2,245.6,159.8z"/>
			</g>
			<g>
				<path class="st13" d="M297,130c5.1,3.3,9.8,9.1,5.3,23.1c-4.4,14-21.7,36.2-38.2,50.5c0,0-29.5-14.7-27.2-35.4
					c0,0,25.3-28.2,35-35.7C281.7,125.2,291.4,126.4,297,130z"/>
			</g>
			<g>
				<g>
					<path d="M270.6,180.7c4.7,0,12.5-1.5,17.9-10.2l-0.8-0.5c-7.7,12.5-20.7,9.5-20.8,9.4l-0.2,0.9
						C266.8,180.3,268.3,180.7,270.6,180.7z"/>
				</g>
			</g>
			<g>
				<g>
					<path d="M264,204.5l0.2-0.2c0.3-0.2,25.9-23.4,36-45.1l-0.8-0.4c-9.5,20.4-33,42.2-35.5,44.6c-1.7-0.9-11.5-6-18.6-14.5
						l-0.7,0.6c7.9,9.4,19.1,14.8,19.2,14.8L264,204.5z"/>
				</g>
			</g>
			<g>
				<g>
					<path class="st3" d="M209.2,282.9c1.6,0,2.5-0.1,2.5-0.1l-0.1-0.9c-0.2,0-17.3,2-33.1-12.2l-0.6,0.7
						C190.4,281.6,203.7,282.9,209.2,282.9z"/>
				</g>
			</g>
		</g>
		<g>
			<path class="st3" d="M191.2,285.3h88.7v-4h-88.7c-1.1,0-2,0.9-2,2l0,0C189.2,284.4,190.1,285.3,191.2,285.3z"/>
		</g>
		<g>
			<g>
				<path class="st5" d="M281.2,366.2L281.2,366.2c1.5,0,2.7-1,2.7-2.2v-81.1h-5.4V364C278.5,365.2,279.7,366.2,281.2,366.2z"/>
			</g>
			<g>
				<path d="M278.1,364v-81.5h6.3V364c0,1.5-1.4,2.7-3.1,2.7S278.1,365.4,278.1,364z M279,283.4V364c0,1,1,1.7,2.2,1.7
					c1.2,0,2.2-0.8,2.2-1.7v-80.6H279z"/>
			</g>
		</g>
		<g>
			<g>
				<rect x="279.5" y="283.8" width="0.9" height="79.3"/>
			</g>
		</g>
		<g>
			<g>
				<path class="st3" d="M253.9,374.2h0.9v-7.5c0-4.7,3.8-8.5,8.5-8.5H299c4.7,0,8.5,3.8,8.5,8.5v6.3h0.9v-6.3
					c0-5.2-4.2-9.4-9.4-9.4h-35.7c-5.2,0-9.4,4.2-9.4,9.4V374.2z"/>
			</g>
		</g>
		<g>
			<g>
				<path class="st3" d="M240.2,374.2h0.9v-7.5c0-4.7,3.8-8.5,8.5-8.5h63.1c4.7,0,8.5,3.8,8.5,8.5v6.3h0.9v-6.3
					c0-5.2-4.2-9.4-9.4-9.4h-63.1c-5.2,0-9.4,4.2-9.4,9.4V374.2z"/>
			</g>
		</g>
		<g>
			<path class="st3" d="M249.9,372.9c0,2.5,2,4.5,4.5,4.5c2.5,0,4.5-2,4.5-4.5c0-2.5-2-4.5-4.5-4.5
				C251.9,368.5,249.9,370.5,249.9,372.9z"/>
		</g>
		<g>
			<path class="st3" d="M236.4,372.9c0,2.5,2,4.5,4.5,4.5s4.5-2,4.5-4.5c0-2.5-2-4.5-4.5-4.5S236.4,370.5,236.4,372.9z"/>
		</g>
		<g>
			<path class="st3" d="M317.3,372.9c0,2.5,2,4.5,4.5,4.5c2.5,0,4.5-2,4.5-4.5c0-2.5-2-4.5-4.5-4.5
				C319.3,368.5,317.3,370.5,317.3,372.9z"/>
		</g>
		<g>
			<path class="st3" d="M303.2,372.9c0,2.5,2,4.5,4.5,4.5c2.5,0,4.5-2,4.5-4.5c0-2.5-2-4.5-4.5-4.5
				C305.2,368.5,303.2,370.5,303.2,372.9z"/>
		</g>
		<g>
			<g>
				<path class="st3" d="M332.5,285.4c4.5,0,7.5,0,7.5,0s20.6-3.3,15.9-43.1c-0.6-5.1-4-9.5-8.9-11.2c-11.2-4.1-34-10.7-63.9-10.7
					c0,0-0.3,0-0.8,0.1c26.6,0.9,46.9,6.9,57.2,10.6c4.8,1.8,8.3,6.1,8.9,11.2C353.2,282.2,332.5,285.4,332.5,285.4z"/>
			</g>
			<g>
				<path class="st3" d="M266.5,240.5c6.3,18.9,12.8,34.9,12.8,34.9s3.1,10,15.5,10h7.5c-12.5,0-15.5-10-15.5-10s-6.5-16-12.8-34.9
					c-5.4-16.3,5.2-19.5,8.3-20c-2.2-0.1-4.4-0.1-6.7-0.1C275.6,220.4,260.2,221.6,266.5,240.5z"/>
			</g>
			<g>
				<g>
					<path class="st5" d="M278.4,275.8c-0.1-0.2-6.5-16.2-12.8-35c-2.2-6.7-2.1-12.1,0.5-15.9c3.2-4.9,9.2-5.4,9.4-5.5l0.1,0
						c30.1,0,53.2,6.8,64.2,10.8c5.2,1.9,8.8,6.5,9.5,12c4.8,40.2-15.7,44-16.6,44.1l-37.8,0C281.8,286.3,278.4,275.8,278.4,275.8z
						 M347.5,242.4c-0.6-4.8-3.8-8.8-8.3-10.5c-10.9-4-33.8-10.7-63.6-10.7c-0.4,0-5.4,0.6-8,4.6c-2.2,3.4-2.3,8.2-0.3,14.3
						c6.2,18.7,12.7,34.7,12.8,34.9c0.1,0.4,3.1,9.4,14.7,9.4h37.6C333.6,284.3,352,279.9,347.5,242.4z"/>
				</g>
			</g>
		</g>
		<g>
			<path class="st3" d="M334.9,284.9H266c3.1-0.6,18.8-5.9,14.8-50.4c-2.4-26.6,13.7-67.3,18.7-78.2h71.4c0.2,1.3-0.3,3.2-2.8,5.9
				c-5.5,6.2-17.3,54.5-18.9,68.3C347.6,244,360.4,276,334.9,284.9z"/>
		</g>
		<g>
			<g>
				<path class="st5" d="M266,285.4h68.9l0.1,0c19.4-6.8,17-26.9,15.4-41.6c-0.6-5.2-1.1-9.7-0.7-13.1c1.7-14.5,13.4-62,18.8-68.1
					c2.2-2.4,3.1-4.6,2.9-6.3l-0.1-0.4h-31.7v0.9h30.9c0,1.4-0.9,3.2-2.7,5.2c-5.8,6.5-17.5,55.7-19,68.6c-0.4,3.5,0.1,8.1,0.7,13.3
					c1.8,15.2,3.9,34-14.7,40.6H266V285.4z"/>
			</g>
		</g>
		<g>
			<g>
				<path class="st3" d="M261.7,285.4c4.5,0,7.5,0,7.5,0s20.6-3.3,15.9-43.1c-0.6-5.1-4-9.5-8.9-11.2c-11.2-4.1-34-10.7-63.9-10.7
					c0,0-0.3,0-0.8,0.1c26.6,0.9,46.9,6.9,57.2,10.6c4.8,1.8,8.3,6.1,8.9,11.2C282.4,282.2,261.7,285.4,261.7,285.4z"/>
			</g>
			<g>
				<path class="st3" d="M195.7,240.5c6.3,18.9,12.8,34.9,12.8,34.9s3.1,10,15.5,10h7.5c-12.5,0-15.5-10-15.5-10s-6.5-16-12.8-34.9
					c-5.4-16.3,5.2-19.5,8.3-20c-2.2-0.1-4.4-0.1-6.7-0.1C204.8,220.4,189.4,221.6,195.7,240.5z"/>
			</g>
			<g>
				<g>
					<path class="st5" d="M207.6,275.8c-0.1-0.2-6.5-16.2-12.8-35c-2.2-6.7-2.1-12.1,0.5-15.9c3.2-4.9,9.2-5.4,9.4-5.5l0.1,0
						c30.1,0,53.2,6.8,64.2,10.8c5.2,1.9,8.8,6.5,9.5,12c4.8,40.2-15.7,44-16.6,44.1l-37.8,0C211,286.3,207.6,275.8,207.6,275.8z
						 M276.7,242.4c-0.6-4.8-3.8-8.8-8.3-10.5c-10.9-4-33.8-10.7-63.6-10.7c-0.4,0-5.4,0.6-8,4.6c-2.2,3.4-2.3,8.2-0.3,14.3
						c6.2,18.7,12.7,34.7,12.8,34.9c0.1,0.4,3.1,9.4,14.7,9.4h37.6C262.8,284.3,281.2,279.9,276.7,242.4z"/>
				</g>
			</g>
		</g>
		<g>
			<g>
				<rect x="313" y="182.5" class="st5" width="47.8" height="0.9"/>
			</g>
		</g>
		<g>
			<g>
				<rect x="310.3" y="191.5" class="st5" width="47.8" height="0.9"/>
			</g>
		</g>
		<g>
			<g>
				<rect x="306.7" y="200.6" class="st5" width="47.8" height="0.9"/>
			</g>
		</g>
	</g>
	<g>
		<g>
			<polygon class="st9" points="15.1,212.3 34.8,212.3 36.9,179.2 13,179.2 			"/>
		</g>
		<g>
			<g>
				<path class="st5" d="M13.3,175.8h23.3c0.3,0,0.6,0.2,0.8,0.4l1,1.3c0.5,0.7,0,1.7-0.8,1.7H12.3c-0.9,0-1.3-1-0.8-1.7l1-1.3
					C12.7,176,13,175.8,13.3,175.8z"/>
			</g>
			<g>
				<path class="st3" d="M37.6,179.7H12.3c-0.6,0-1.1-0.3-1.3-0.8c-0.3-0.5-0.2-1.1,0.1-1.6l1-1.3c0.3-0.4,0.7-0.6,1.2-0.6h23.3
					c0.5,0,0.9,0.2,1.2,0.6l1,1.3c0.3,0.5,0.4,1,0.1,1.6C38.7,179.4,38.2,179.7,37.6,179.7z M13.3,176.3c-0.2,0-0.4,0.1-0.5,0.2
					l-1,1.3c-0.1,0.2-0.2,0.4-0.1,0.6c0.1,0.2,0.3,0.3,0.5,0.3h25.2c0.2,0,0.4-0.1,0.5-0.3c0.1-0.2,0.1-0.4-0.1-0.6l-1-1.3
					c-0.1-0.1-0.3-0.2-0.5-0.2H13.3z"/>
			</g>
		</g>
		<g>
			<path class="st5" d="M17.8,196.5c0,2.9,2.4,5.3,5.3,5.3c2.9,0,5.3-2.4,5.3-5.3c0-2.9-2.4-5.3-5.3-5.3
				C20.2,191.2,17.8,193.5,17.8,196.5z"/>
		</g>
		<g>
			<g>
				<path class="st3" d="M23.2,203.8c-4,0-7.3-3.3-7.3-7.3c0-4,3.3-7.3,7.3-7.3c4,0,7.3,3.3,7.3,7.3
					C30.5,200.5,27.2,203.8,23.2,203.8z M23.2,190.1c-3.5,0-6.4,2.9-6.4,6.4c0,3.5,2.9,6.4,6.4,6.4c3.5,0,6.4-2.9,6.4-6.4
					C29.6,192.9,26.7,190.1,23.2,190.1z"/>
			</g>
		</g>
	</g>
</g>
</svg>
