<?xml version="1.0" encoding="utf-8"?>
<!-- Generator: Adobe Illustrator 24.2.0, SVG Export Plug-In . SVG Version: 6.00 Build 0)  -->
<svg version="1.1" id="Layer_1" xmlns="http://www.w3.org/2000/svg" xmlns:xlink="http://www.w3.org/1999/xlink" x="0px" y="0px"
	 width="1000px" height="1000px" viewBox="0 0 1000 1000" style="enable-background:new 0 0 1000 1000;" xml:space="preserve">
<style type="text/css">
	.st0{opacity:0.36;fill:#E6E6E6;}
	.st1{clip-path:url(#SVGID_2_);}
	.st2{fill:#F5F5F5;}
	.st3{fill:#FFFFFF;}
	.st4{fill:#DBDBDB;}
	.st5{fill:#00B5F4;}
	.st6{fill:#34234D;}
	.st7{fill:#FE4040;}
	.st8{opacity:0.25;fill:#212121;}
	.st9{fill:#2B1D40;}
	.st10{fill:#6179C4;}
	.st11{fill:#E6E6E6;}
	.st12{fill:url(#SVGID_3_);}
	.st13{fill:url(#SVGID_4_);}
</style>
<g>
	<g>
		<path class="st0" d="M35.3,697.5C-6,557.2-21,203.4,314.2,55.2C638.8-88.2,491,254.5,780.6,431.8
			c289.6,177.3,119.5,488.4-140.5,533.7C380.1,1010.9,101.4,921.6,35.3,697.5z"/>
		<path class="st0" d="M848.6,368.6c-120.7-33.7-200.9-147.2-197-261.7C655.6-7.6,787.6,14,830.9,150S1018,415.9,848.6,368.6z"/>
		<g>
			<defs>
				<path id="SVGID_1_" d="M35.3,697.5C-6,557.2-21,203.4,314.2,55.2C638.8-88.2,491,254.5,780.6,431.8
					c289.6,177.3,119.5,488.4-140.5,533.7C380.1,1010.9,101.4,921.6,35.3,697.5z"/>
			</defs>
			<clipPath id="SVGID_2_">
				<use xlink:href="#SVGID_1_"  style="overflow:visible;"/>
			</clipPath>
			<g class="st1">
				<g>
					<g>
						<g>
							<g>
								<g>
									<path class="st2" d="M-50.7,589.1c0,154.9,118.1,300.6,360,346.8c319.4,61,729.9,65.1,729.9-239.7
										c0-114.5,11.5-427.1-53.7-469.3H818.4v386.3l-91.6,149.5V455.3h-62V329.4L490.6,197.1v175.2H343.1V145.2
										c-44.4,5.6-86.8,25.8-124.3,57.6v327.9H152v-74.4L-45.7,355.9C-51.2,387.4-50.7,554.8-50.7,589.1z M318.6,684.4h114.9v74.4
										H318.6V684.4z M389.8,413.1h53v214.8h-53V413.1z M312.2,258.5h-60.6v-45.8h60.6V258.5z M312.2,316.6h-60.6v-45.8h60.6
										V316.6z M312.2,374.7h-60.6v-45.8h60.6V374.7z M312.2,432.8h-60.6V387h60.6V432.8z M918.5,357.6h-74.8V248.5h74.8V357.6z
										 M918.5,496h-74.8V386.9h74.8V496z M918.5,634.3h-74.8V525.2h74.8V634.3z M918.5,772.7h-74.8V663.6h74.8V772.7z
										 M248.5,522.6h86.5v99h-86.5V522.6z"/>
								</g>
							</g>
						</g>
					</g>
				</g>
				<g>
					<g>
						<g>
							<g>
								<rect x="831.2" y="220.8" class="st3" width="2" height="671.7"/>
							</g>
						</g>
					</g>
					<g>
						<g>
							<g>
								<rect x="636.3" y="67.8" class="st3" width="2" height="824.6"/>
							</g>
						</g>
					</g>
					<g>
						<g>
							<g>
								<rect x="441.5" y="67.8" class="st3" width="2" height="824.6"/>
							</g>
						</g>
					</g>
					<g>
						<g>
							<g>
								<rect x="246.7" y="67.8" class="st3" width="2" height="824.6"/>
							</g>
						</g>
					</g>
					<g>
						<g>
							<g>
								<rect x="47.8" y="220.6" class="st3" width="2" height="671.9"/>
							</g>
						</g>
					</g>
					<g>
						<g>
							<g>
								<rect x="-26" y="893.6" class="st4" width="944.7" height="85.4"/>
							</g>
						</g>
					</g>
					<g>
						<g>
							<g>
								<rect x="-26" y="883.3" class="st3" width="944.7" height="10.2"/>
							</g>
						</g>
					</g>
					<g>
						<g>
							<g>
								<rect x="-26" y="755.3" class="st3" width="944.7" height="2"/>
							</g>
						</g>
					</g>
					<g>
						<g>
							<g>
								<rect x="-26" y="619.1" class="st3" width="944.7" height="2"/>
							</g>
						</g>
					</g>
					<g>
						<g>
							<g>
								<rect x="-26" y="482.9" class="st3" width="944.7" height="2"/>
							</g>
						</g>
					</g>
					<g>
						<g>
							<g>
								<rect x="-26" y="342.3" class="st3" width="944.7" height="2"/>
							</g>
						</g>
					</g>
					<g>
						<g>
							<g>
								<rect x="-26" y="201.6" class="st3" width="944.7" height="2"/>
							</g>
						</g>
					</g>
				</g>
			</g>
		</g>
	</g>
	<g>
		<g>
			<path class="st5" d="M594.8,250.9l15.2-24.4l-14.5-10.9c2.9-8.1,4.2-16.5,4.2-24.9l17.3-5.6l-6.4-28l-18,2.5
				c-3.6-7.5-8.5-14.5-14.6-20.5l8.3-16.2l-24.4-15.2l-10.9,14.5c-8.1-2.9-16.5-4.2-24.9-4.2l-5.6-17.3l-28,6.4l2.5,18
				c-7.5,3.6-14.5,8.5-20.5,14.6l-16.2-8.3L443,156l14.5,10.9c-2.9,8.1-4.2,16.5-4.2,24.8l-17.3,5.6l6.4,28l18-2.5
				c3.6,7.5,8.5,14.5,14.6,20.5l-8.3,16.2l24.4,15.2l10.9-14.5c8.1,2.9,16.5,4.2,24.8,4.2l5.6,17.3l28-6.4l-2.5-18
				c7.5-3.6,14.5-8.5,20.5-14.6L594.8,250.9z M499,235.3c-24.3-15.2-31.6-47.2-16.5-71.4c15.2-24.3,47.2-31.6,71.4-16.5
				c24.3,15.2,31.6,47.2,16.5,71.4C555.3,243.1,523.3,250.5,499,235.3z"/>
		</g>
		<g>
			<polygon class="st6" points="452.5,164 442.2,156.2 453.7,137.8 454.8,138.5 443.9,155.9 453.3,163 			"/>
		</g>
		<g>
			<path class="st6" d="M467.4,259.8l-1.1-0.6l8-15.8c-7.1-6.4-11.6-15.1-11.7-15.2l1.1-0.6c0,0.1,4.6,8.9,11.7,15.2l0.4,0.3
				L467.4,259.8z"/>
		</g>
		<g>
			<path class="st6" d="M543.4,241l-0.4-1.2c38.3-14,34.6-51.9,34.6-52.3l1.3-0.1C578.9,187.8,582.6,226.7,543.4,241z"/>
		</g>
		<g>
			<path class="st6" d="M597.9,204.7c1-7.5,1.1-13.9,1.1-13.9v-0.5l6.4-2.1l0.4,1.2l-5.5,1.8c0,1.6-0.2,7.2-1.1,13.6L597.9,204.7z"
				/>
		</g>
		<g>
			<g>
				<path class="st6" d="M499.2,275.6l-25.3-15.9l8.3-16.3c-1.8-1.7-9.9-10-14.2-20l-18.1,2.6l-6.7-29.1l17.4-5.6
					c0-2.3,0-12.8,4.1-24.2l-14.6-11l15.9-25.3l16.3,8.3c1.9-1.9,11.2-11,20-14.3l-2.6-18.1l29.1-6.7l5.6,17.4
					c2.3-0.2,11.8-0.5,24.2,4.1l11-14.6l25.3,15.9l-8.3,16.3c1.8,1.7,10.1,10.1,14.2,20l18.1-2.6l6.7,29.1l-17.4,5.6
					c0.1,2.4,0.3,12.7-4.1,24.2l14.6,11l-15.9,25.3l-16.3-8.3c-1.6,1.7-9,9.3-20,14.2l2.6,18.1l-29.1,6.7l-5.6-17.4
					c-2.4,0.2-12.5,0.6-24.2-4.1L499.2,275.6z M475.5,259.3l23.4,14.6l10.9-14.5l0.5,0.2c13.2,5.4,24.4,4.1,24.5,4.1l0.5-0.1
					l5.6,17.3l26.9-6.2l-2.5-17.9l0.4-0.2c12.4-5.4,20.2-14.4,20.3-14.5l0.3-0.4l16.1,8.2l14.6-23.4l-14.4-10.9l0.2-0.4
					c5-13,4.1-24.5,4.1-24.6l0-0.5l17.2-5.6l-6.2-26.9l-17.9,2.5l-0.2-0.5c-4.4-11-14.4-20.2-14.5-20.3l-0.4-0.3l8.2-16.1
					l-23.4-14.6L558.9,123l-0.4-0.2c-13.9-5.3-24.5-4.1-24.6-4.1l-0.5,0.1l-5.6-17.2l-26.9,6.2l2.5,17.9l-0.5,0.2
					c-9.4,3.3-20.2,14.4-20.3,14.5l-0.3,0.3l-16.1-8.2l-14.6,23.4l14.4,10.9l-0.2,0.4c-4.6,12.7-4.1,24.5-4.1,24.6l0,0.5l-17.2,5.6
					l6.2,26.9l17.9-2.5l0.2,0.4c4.7,11.2,14.4,20.2,14.5,20.3l0.3,0.3L475.5,259.3z"/>
			</g>
			<g>
				<path class="st6" d="M520.7,242c-28-7.5-44.6-36.4-37.1-64.3c7.5-28,36.4-44.6,64.3-37.1c28,7.5,44.6,36.4,37.1,64.3
					C577.5,232.8,548.6,249.5,520.7,242z M547.6,141.8c-27.3-7.3-55.5,8.9-62.8,36.2c-7.3,27.3,8.9,55.5,36.2,62.8
					c27.3,7.3,55.5-8.9,62.8-36.2C591.1,177.3,574.9,149.1,547.6,141.8z"/>
			</g>
		</g>
	</g>
	<g>
		<g>
			<path class="st5" d="M310.4,638.4c51-55.1,117.9,88.2,111.3,144.7l-25.4-0.1C371.6,768.8,269.1,683,310.4,638.4z"/>
			<g>
				<path class="st6" d="M408.5,783.3l2-0.9c-37.6-82.2-98.6-144.2-99.3-144.8l-1.5,1.5C310.3,639.7,371,701.5,408.5,783.3z"/>
			</g>
			<g>
				<path class="st6" d="M325.9,717.4c16.3,5.1,51.1,9.5,52.8,9.7l0.3-2.2c-0.4-0.1-44-5.6-56.7-11.2l-0.9,2
					C322.7,716.3,324.2,716.9,325.9,717.4z"/>
			</g>
			<g>
				<path class="st6" d="M347.9,679.1c6.1-17.8,7.4-46.3,7.4-46.6l-2.2-0.1c0,0.3-1.3,28.5-7.3,46L347.9,679.1z"/>
			</g>
			<path class="st6" d="M399.4,690.6c15.5,32.4,24.9,69.6,22.2,92.5C386.3,746.2,393.8,696.6,399.4,690.6z"/>
			<path class="st5" d="M441,600.2c45.2-22.1,31.2,111.4-8.6,182.8l-18.5-0.1C404.7,765.1,404.4,618.1,441,600.2z"/>
			<g>
				<path class="st6" d="M420.6,782.8l2.1,0.4c7.2-39.6,26.8-167.4,27-168.7l-2.1-0.3C447.4,615.5,427.8,743.2,420.6,782.8z"/>
			</g>
			<g>
				
					<rect x="424.8" y="726" transform="matrix(0.6456 -0.7637 0.7637 0.6456 -399.3109 593.8281)" class="st6" width="30.7" height="2.2"/>
			</g>
			<g>
				
					<rect x="424.7" y="662.3" transform="matrix(0.6419 -0.7668 0.7668 0.6419 -366.5616 568.8655)" class="st6" width="2.2" height="29.2"/>
			</g>
		</g>
		<g>
			<path class="st3" d="M346.1,782.9l0,10.9c0,12.4,3.6,24.7,10.6,35.5l2.8,4.3l22.1,139.8l53.1,0.2L451.2,834l2.8-4.3
				c7.1-10.8,10.8-23,10.8-35.5l0-10.9L346.1,782.9z"/>
			<g>
				<path class="st6" d="M435.5,974.4l-54.5-0.2L358.7,834l-2.7-4.2c-7.1-11-10.8-23.4-10.8-35.9l0-11.7l120.3,0.3l0,11.7
					c0,12.6-3.8,25-10.9,35.9l-2.7,4.1L435.5,974.4z M382.3,972.7l51.8,0.1l16.4-139.1l2.9-4.5c7-10.7,10.7-22.8,10.7-35l0-10.1
					l-117.1-0.3l0,10.1c0,12.2,3.6,24.4,10.5,35.1l2.9,4.6L382.3,972.7z"/>
			</g>
		</g>
		<g>
			
				<rect x="389.9" y="766.4" transform="matrix(2.742688e-03 -1 1 2.742688e-03 -420.6776 1199.36)" class="st6" width="2.2" height="88.4"/>
		</g>
		<g>
			
				<rect x="434.8" y="818" transform="matrix(2.919832e-03 -1 1 2.919832e-03 -399.1971 1267.2372)" class="st6" width="2.2" height="31.6"/>
		</g>
		<g>
			<path class="st6" d="M380.7,974.5l2.9,0l0-2.2l-1,0l-22-139.1l-2.9-4.5c-6.9-10.7-10.5-22.7-10.4-34.9l0-9.9l117.6,0.3l0-2.2
				l-119.8-0.3l0,12c0,12.6,3.7,25.1,10.8,36.1l2.7,4.1L380.7,974.5z"/>
		</g>
	</g>
	<g>
		<g>
			<path class="st7" d="M961.3,901.6l12.5-40.8l-25-10.1c1-12.7-0.3-25.3-3.6-37.2l22.7-14.7l-20-37.6L923,771.8
				c-8.1-9.4-17.7-17.5-28.8-23.8l5.6-26.4L859,709.2l-10.1,25c-12.7-1-25.3,0.3-37.2,3.6L797,715.2l-37.6,20L770,760
				c-9.4,8.1-17.5,17.7-23.8,28.9l-26.4-5.6L707.3,824l25,10.1c-1,12.7,0.3,25.3,3.6,37.2L713.3,886l20,37.6l24.8-10.6
				c8.1,9.4,17.8,17.5,28.8,23.8l-5.6,26.4l40.8,12.5l10.1-25c12.7,1,25.3-0.3,37.2-3.6l14.7,22.6l37.6-20l-10.6-24.8
				c9.4-8.1,17.5-17.8,23.8-28.8L961.3,901.6z M818.1,916c-40.6-12.4-63.5-55.4-51.1-96.1c12.4-40.6,55.4-63.5,96.1-51.1
				c40.6,12.4,63.5,55.4,51.1,96.1C901.7,905.5,858.7,928.4,818.1,916z"/>
		</g>
		<g>
			<polygon class="st6" points="724,831.7 706.2,824.5 715.6,793.8 717.4,794.3 708.5,823.4 724.7,830 			"/>
		</g>
		<g>
			<path class="st6" d="M782.3,963.4l-1.8-0.4l5.5-25.7c-12.7-6.5-22.5-17.2-22.6-17.3l1.4-1.3c0.1,0.1,10,11,22.6,17.2l0.7,0.3
				L782.3,963.4z"/>
		</g>
		<g>
			<path class="st6" d="M883.9,907.1l-1.1-1.5c49.5-34.8,29.7-87.8,29.5-88.3l1.8-0.7C914.2,817.2,934.6,871.5,883.9,907.1z"/>
		</g>
		<g>
			<path class="st6" d="M948.1,834.2c-1.4-11.1-3.8-20.3-3.8-20.4l-0.2-0.7l8.3-5.4l1,1.6l-7.2,4.6c0.6,2.3,2.5,10.4,3.7,20
				L948.1,834.2z"/>
		</g>
		<g>
			<g>
				<path class="st6" d="M833.8,973.8l-42.4-13l5.7-26.6c-3.2-1.8-18-10.5-28.1-23.2l-25,10.6l-20.8-39.1l22.8-14.8
					c-1-3.3-4.9-18.4-3.5-36.2l-25.2-10.2l13-42.4l26.6,5.7c2-3.4,11.9-20,23.1-28.1l-10.6-24.9l39.1-20.8l14.7,22.7
					c3.2-1.1,16.8-5.3,36.3-3.5l10.2-25.2l42.4,13l-5.7,26.6c3.2,1.8,18.4,10.6,28.1,23.2l25-10.6l20.8,39.1l-22.8,14.7
					c1.1,3.3,5.3,18.1,3.5,36.2l25.2,10.1l-13,42.4l-26.5-5.7c-1.6,3.1-9.3,16.8-23.2,28.1l10.6,25l-39.1,20.8l-14.7-22.8
					c-3.3,1.2-17.7,5.7-36.3,3.5L833.8,973.8z M793.5,959.5l39.2,12l10-24.9l0.7,0.1c21,2.7,36.6-3.5,36.8-3.5l0.7-0.3l14.6,22.6
					l36.1-19.2l-10.5-24.7l0.6-0.4c15.7-12.6,23.5-28.4,23.5-28.5l0.3-0.7l26.3,5.6l12-39.2l-24.9-10l0.1-0.7
					c2.2-20.5-3.5-36.7-3.6-36.8l-0.2-0.7l22.6-14.6l-19.2-36.1l-24.7,10.5l-0.4-0.6c-10.6-14-28.4-23.4-28.5-23.5l-0.6-0.3
					l5.6-26.3l-39.2-12l-10,24.9l-0.7-0.1c-21.9-2.2-36.7,3.5-36.8,3.5l-0.7,0.3l-14.6-22.6l-36.1,19.2l10.5,24.8l-0.6,0.4
					c-12.2,8.4-23.4,28.4-23.5,28.6l-0.3,0.6l-26.2-5.6l-12,39.2l24.9,10l-0.1,0.7c-1.7,20.1,3.5,36.7,3.6,36.9l0.2,0.7l-22.5,14.6
					l19.2,36.1l24.7-10.5l0.4,0.6c11.1,14.2,28.4,23.5,28.6,23.6l0.6,0.3L793.5,959.5z"/>
			</g>
			<g>
				<path class="st6" d="M851.7,917.3c-43,0-77.9-35-77.9-77.9c0-43,35-77.9,77.9-77.9c43,0,77.9,35,77.9,77.9
					C929.6,882.3,894.6,917.3,851.7,917.3z M851.7,763.3c-41.9,0-76.1,34.1-76.1,76.1c0,41.9,34.1,76.1,76.1,76.1
					c41.9,0,76.1-34.1,76.1-76.1C927.7,797.4,893.6,763.3,851.7,763.3z"/>
			</g>
		</g>
	</g>
	<g>
		<g>
			<g>
				<path class="st6" d="M822.8,274.7v653.9c0,23.4-16.3,43.1-38.2,48.3c-2.8,0.7-5.7,1.1-8.6,1.3H611v0.1H480.2
					c-27.4,0-49.7-22.3-49.7-49.7V274.7c0-27.4,22.3-49.7,49.7-49.7H773C800.4,225,822.8,247.3,822.8,274.7z"/>
			</g>
			<g>
				<path class="st3" d="M480.1,236H773c21.4,0,38.7,17.3,38.7,38.7v653.9c0,21.4-17.3,38.7-38.7,38.7H480.1
					c-21.4,0-38.7-17.3-38.7-38.7V274.7C441.5,253.4,458.8,236,480.1,236z"/>
			</g>
			<g>
				<path class="st6" d="M580.5,242.5h91.2c2,0,3.7,1.7,3.7,3.7c0,2-1.6,3.7-3.7,3.7h-91.2c-2,0-3.7-1.6-3.7-3.7
					C576.8,244.1,578.4,242.5,580.5,242.5z"/>
			</g>
			<g>
				<g>
					<g>
						
							<rect x="477.1" y="276.2" transform="matrix(0.7071 -0.7071 0.7071 0.7071 -53.8081 424.6627)" class="st6" width="17.3" height="2.2"/>
					</g>
				</g>
				<g>
					<g>
						
							<rect x="484.6" y="268.6" transform="matrix(0.7071 -0.7071 0.7071 0.7071 -53.8093 424.6583)" class="st6" width="2.2" height="17.3"/>
					</g>
				</g>
			</g>
			<g>
				<g>
					<rect x="761" y="280.2" class="st6" width="19.6" height="2.2"/>
				</g>
			</g>
		</g>
		<g>
			<path class="st6" d="M782.9,411.6h-2.7v-2h2.7c1.9,0,3.6-1.5,3.8-3.4l0-5.9l2,0l0,5.6c0,0.2,0,0.3,0,0.5
				C788.3,409.4,785.8,411.6,782.9,411.6z M764.4,411.6h-15.8v-2h15.8V411.6z M732.9,411.6h-15.8v-2h15.8V411.6z M701.4,411.6h-15.8
				v-2h15.8V411.6z M669.9,411.6h-15.8v-2h15.8V411.6z M638.4,411.6h-15.8v-2h15.8V411.6z M606.8,411.6h-15.8v-2h15.8V411.6z
				 M575.3,411.6h-15.8v-2h15.8V411.6z M543.8,411.6H528v-2h15.8V411.6z M512.3,411.6h-15.8v-2h15.8V411.6z M480.8,408.8
				c-0.5-0.9-0.8-1.9-0.8-2.9l0-13.2l2,0l0,13.2c0,0.7,0.2,1.3,0.5,1.9L480.8,408.8z M788.7,384.5l-2,0l0-15.8l2,0L788.7,384.5z
				 M482,376.9l-2,0l0-15.8l2,0L482,376.9z M788.7,353l-2,0l0-15.8l2,0L788.7,353z M482.1,345.3l-2,0l0-15.8l2,0L482.1,345.3z
				 M788.8,321.5l-2,0l0-2.4c0-2.1-1.7-3.8-3.8-3.8h-15.8v-2H783c3.2,0,5.8,2.6,5.8,5.8L788.8,321.5z M484.2,315.7l-0.9-1.8
				c0.8-0.4,1.7-0.6,2.6-0.6h13.5v2h-13.5C485.3,315.3,484.7,315.4,484.2,315.7z M751.5,315.3h-15.8v-2h15.8V315.3z M720,315.3
				h-15.8v-2H720V315.3z M688.5,315.3h-15.8v-2h15.8V315.3z M657,315.3h-15.8v-2H657V315.3z M625.5,315.3h-15.8v-2h15.8V315.3z
				 M593.9,315.3h-15.8v-2h15.8V315.3z M562.4,315.3h-15.8v-2h15.8V315.3z M530.9,315.3h-15.8v-2h15.8V315.3z"/>
		</g>
		<g>
			<path class="st6" d="M773.8,749.7h-15.6v-2h15.6V749.7z M742.6,749.7H727v-2h15.6V749.7z M711.4,749.7h-15.6v-2h15.6V749.7z
				 M680.2,749.7h-15.6l0-2l0.2,0l15.4,0V749.7z M784.7,742.3l0-0.2l0-15.4h2v15.5L784.7,742.3z M659.1,736.8h-2v-15.6h2V736.8z
				 M786.7,711.1h-2v-15.6h2V711.1z M659.1,705.7h-2v-15.6h2V705.7z M786.7,679.9h-2v-15.6h2V679.9z M659.1,674.5h-2v-15.6h2V674.5z
				 M786.7,648.7h-2v-15.6h2V648.7z M659.1,643.3h-2v-15.6l2,0V643.3z M779.2,622.2l-0.1,0l-15.5,0v-2h15.6L779.2,622.2z M748,622.2
				h-15.6v-2H748V622.2z M716.8,622.2h-15.6v-2h15.6V622.2z M685.6,622.2H670v-2h15.6V622.2z"/>
		</g>
		<g>
			<path class="st6" d="M595.1,926h-15.6v-2h15.6V926z M563.9,926h-15.6v-2h15.6V926z M532.8,926h-15.6v-2h15.6V926z M501.6,926H486
				l0-2h15.6V926z M606,918.5l0-0.2l0-15.4h2v15.5L606,918.5z M480.5,913.1h-2v-15.6h2V913.1z M608,887.3h-2v-15.6h2V887.3z
				 M480.5,881.9h-2v-15.6h2V881.9z M608,856.2h-2v-15.6h2V856.2z M480.5,850.7h-2v-15.6h2V850.7z M608,825h-2v-15.6h2V825z
				 M480.5,819.6h-2V804l2,0V819.6z M600.6,798.4h-15.7v-2h15.6L600.6,798.4z M569.3,798.4h-15.6v-2h15.6V798.4z M538.1,798.4h-15.6
				v-2h15.6V798.4z M507,798.4h-15.6v-2H507V798.4z"/>
		</g>
		<g>
			<path class="st5" d="M965.1,319.1l-0.2,86.8c0,0.1,0,0.2,0,0.3v0.2c-0.3,2.4-2.3,4.3-4.7,4.3H663c-2.6,0-4.8-2.1-4.8-4.8
				l0.1-47.4l0.1-39.5c0-2.6,2.1-4.8,4.8-4.8h297.2C963,314.3,965.1,316.4,965.1,319.1z"/>
			<g>
				<path class="st3" d="M749.6,401.2h-72c-1.6,0-2.8-1.3-2.8-2.8v-72c0-1.6,1.3-2.8,2.8-2.8h72c1.6,0,2.8,1.3,2.8,2.8v72
					C752.4,399.9,751.2,401.2,749.6,401.2z"/>
				<g>
					<g>
						<path class="st7" d="M729.1,351.1c0.1,8.9-6.7,16.1-15.1,16.1c-8.4,0-15.3-7.1-15.3-16c-0.1-8.9,6.7-16.1,15.1-16.1
							C722.2,335.1,729,342.2,729.1,351.1z"/>
					</g>
					<g>
						<path class="st7" d="M693.9,387.7c-0.1-11.9,9-12.7,20.3-12.8c11.3,0,20.4,0.7,20.5,12.6L693.9,387.7z"/>
					</g>
				</g>
			</g>
			<g>
				<g>
					<rect x="773.3" y="381.4" class="st3" width="159.7" height="6.3"/>
				</g>
				<g>
					<rect x="773.3" y="359.3" class="st3" width="50.9" height="6.3"/>
				</g>
				<g>
					<rect x="846.1" y="359.3" class="st3" width="35.6" height="6.3"/>
				</g>
				<g>
					<rect x="773.3" y="337.1" class="st3" width="106.6" height="6.3"/>
				</g>
				<g>
					<rect x="894.2" y="337.1" class="st3" width="52.6" height="6.3"/>
				</g>
			</g>
		</g>
		<g>
			<path class="st6" d="M597.2,573.5h-15.8v-2h15.8V573.5z M565.7,573.5h-15.8v-2h15.8V573.5z M534.1,573.5h-15.8v-2h15.8V573.5z
				 M502.6,573.5h-15.8v-2h15.8V573.5z M607.3,563.4h-2v-15.8h2V563.4z M479.8,562.2h-2v-15.8h2V562.2z M607.3,531.9h-2v-15.8h2
				V531.9z M479.8,530.7h-2V515h2V530.7z M607.3,500.4h-2v-15.8h2V500.4z M479.8,499.2h-2v-15.8h2V499.2z M607.3,468.8h-2v-15.8h2
				V468.8z M479.8,467.7h-2v-15.8h2V467.7z M600.4,445.9h-15.8v-2h15.8V445.9z M568.9,445.9h-15.8v-2h15.8V445.9z M537.4,445.9
				h-15.8v-2h15.8V445.9z M505.9,445.9h-15.8v-2h15.8V445.9z"/>
		</g>
		<g>
			<path class="st5" d="M526.5,450.9v115.7c0,3.3-2.7,5.9-5.9,5.9H404.8c-3.3,0-5.9-2.6-5.9-5.9V450.9c0-3.3,2.6-5.9,5.9-5.9h115.7
				C523.8,445,526.5,447.6,526.5,450.9z"/>
			<g>
				<g>
					<path class="st3" d="M488.1,490.3c0.1,14.6-11,26.4-24.8,26.5c-13.8,0.1-25.1-11.7-25.2-26.3c-0.1-14.6,11-26.4,24.8-26.5
						C476.7,463.9,488,475.7,488.1,490.3z"/>
				</g>
				<g>
					<path class="st3" d="M430.2,550.3c-0.2-19.5,14.8-20.9,33.3-21c18.5-0.1,33.5,1.2,33.7,20.7L430.2,550.3z"/>
				</g>
			</g>
		</g>
		<g>
			<path class="st7" d="M603.4,748.7H481.8c-1.7,0-3-1.3-3-3V624.2c0-1.7,1.3-3,3-3h121.5c1.7,0,3,1.3,3,3v121.5
				C606.4,747.4,605,748.7,603.4,748.7z"/>
			<g>
				<g>
					<path class="st3" d="M571,715.3l-11.2-23.2c-0.4-0.7-1.2-1-2-0.7l-7.4,3.6c-1.9,0.9-3.4,2.2-4.7,3.6c-3.1-4.1-6-8.8-8.6-14
						c-2.3-4.7-4-9.4-5.2-13.9c2.1,0,4.1-0.5,6.1-1.4l7.4-3.6c0.7-0.4,1-1.2,0.7-2L535,640.5c-0.4-0.7-1.2-1.1-2-0.7l-7.4,3.6
						c-0.3,0.1-0.5,0.3-0.8,0.4c-0.3,0.1-0.6,0.2-0.9,0.4c-10.3,5-10.4,26-0.3,46.9c6.4,13.3,15.5,23.4,23.8,27.7
						c4.2,3.6,10.3,4.5,15.5,2l7.4-3.6C571.1,716.9,571.4,716.1,571,715.3z"/>
				</g>
			</g>
		</g>
		<g>
			<path class="st7" d="M782.4,572.5H661.5c-1.8,0-3.3-1.5-3.3-3.3V448.3c0-1.8,1.5-3.3,3.3-3.3h120.9c1.8,0,3.3,1.5,3.3,3.3v120.9
				C785.7,571,784.2,572.5,782.4,572.5z"/>
			<g>
				<path class="st3" d="M762.9,511.5c0.4-4.3-0.1-8.5-1.2-12.5l7.6-4.9l-6.8-12.7l-8.4,3.6c-2.7-3.2-6-5.9-9.7-8l1.9-8.9l-13.7-4.2
					l-3.4,8.4c-4.3-0.3-8.5,0.1-12.5,1.2l-4.9-7.6l-12.7,6.7l3.6,8.4c-3.2,2.7-5.9,6-8,9.7l-3.1-0.7l-5.8-1.2l-4.2,13.7l8.5,3.4
					c-0.2,3-0.1,5.9,0.4,8.7c0.2,1.3,0.5,2.5,0.8,3.8l-7.6,4.9l6.7,12.7l8.4-3.6c2.7,3.2,6,5.9,9.7,8l-1.9,8.9l13.8,4.2l3.4-8.4
					c4.3,0.3,8.5-0.1,12.5-1.2l5,7.6l12.7-6.7l-3.6-8.4c3.2-2.7,5.9-6,8-9.7l8.9,1.9l4.2-13.7L762.9,511.5z M751.2,516.3
					c-4.2,13.7-18.7,21.4-32.4,17.2c-13.7-4.2-21.4-18.7-17.2-32.4c4.2-13.7,18.7-21.4,32.4-17.2
					C747.7,488.1,755.4,502.6,751.2,516.3z"/>
			</g>
		</g>
		<g>
			<path class="st5" d="M846.1,748.7H725.2c-1.8,0-3.3-1.5-3.3-3.3V624.5c0-1.8,1.5-3.3,3.3-3.3h120.9c1.8,0,3.3,1.5,3.3,3.3v120.9
				C849.5,747.3,848,748.7,846.1,748.7z"/>
			<g>
				<path class="st3" d="M841.6,737.3l-38.8-77l-24.5,51.4l-17.2-27.2l-30.9,52.3c-1.2,2,0.3,4.5,2.6,4.5l106.1,0.3
					C841.1,741.6,842.6,739.3,841.6,737.3z"/>
			</g>
			<g>
				<path class="st3" d="M766.9,649.2c0,5.2,4.3,9.3,9.5,9.3c5.2-0.1,9.3-4.3,9.3-9.5c0-5.2-4.3-9.3-9.5-9.3
					C771,639.8,766.8,644,766.9,649.2z"/>
			</g>
		</g>
		<g>
			<path class="st5" d="M520.7,925H399.1c-1.7,0-3-1.3-3-3V800.5c0-1.7,1.3-3,3-3h121.5c1.7,0,3,1.3,3,3V922
				C523.7,923.6,522.3,925,520.7,925z"/>
			<path class="st3" d="M488.7,859.1L443.5,830c-1.7-1.1-4,0.1-4,2.2v58.2c0,2,2.3,3.3,4,2.2l45.2-29.1
				C490.3,862.4,490.3,860.1,488.7,859.1z"/>
		</g>
		<g>
			<path class="st7" d="M782.4,925H661.5c-1.8,0-3.3-1.5-3.3-3.3V800.8c0-1.8,1.5-3.3,3.3-3.3h120.9c1.8,0,3.3,1.5,3.3,3.3v120.9
				C785.7,923.5,784.2,925,782.4,925z"/>
			<g>
				<path class="st3" d="M718.1,868.8l-41.2-34.4c-1.3-1-0.6-3.2,1-3.2c0,0,0,0,0,0h87.8c0,0,0,0,0,0c1.6,0,2.3,2.2,1,3.2
					l-40.8,34.1C723.4,870.8,720.3,870.8,718.1,868.8z"/>
				<path class="st3" d="M704.8,863.7l-26,22.4c-1.2,1-3,0.2-3-1.4v-44.1c0-1.5,1.8-2.4,2.9-1.4l26,21.7
					C705.6,861.7,705.6,863,704.8,863.7z"/>
				<path class="st3" d="M766.4,890.8c-0.1,0.2-0.4,0.4-0.8,0.4h-86.9c-0.4-0.1-0.7-0.2-0.8-0.4c-0.1-0.3,0.1-0.6,0.4-1
					c0.1-0.1,0.3-0.2,0.4-0.4l28.1-24.2c0.9-0.8,2.3-0.8,3.2,0l6.4,5.4c1.6,1.3,3.5,2,5.4,2c1.9,0,3.9-0.7,5.4-2l6.7-5.6
					c0.9-0.8,2.3-0.8,3.2,0l28.4,24.4c0.2,0.1,0.3,0.3,0.4,0.4C766.4,890.2,766.5,890.5,766.4,890.8z"/>
				<path class="st3" d="M768,840.7v43.6c0,1.5-1.8,2.4-3,1.4l-25.7-22.1c-0.8-0.7-0.8-2,0-2.7l25.7-21.4
					C766.2,838.3,768,839.1,768,840.7z"/>
			</g>
		</g>
	</g>
	<path class="st8" d="M581.2,321.6h-10.6l1-7.3l9.1-64.4l1-7.4l0.9-6.5l1.6-11.1H480.2c-27.4,0-49.7,22.3-49.7,49.7V445h-25.6
		c-3.3,0-5.9,2.6-5.9,5.9v79.6c10.6-2.5,21.4-5.2,31.5-7.7c3.8-1,7.5-1.9,11.1-2.9c5.5-1.5,10.7-2.8,15.3-4.1
		c11.2-3,19.2-5.3,21.4-6.1c0.2,0,0.4-0.1,0.6-0.1c0.7-0.1,1.3-0.3,1.9-0.4c0.2,0,0.4-0.1,0.6-0.1c9.6,0.1,15.8-3,20.1-5.6
		c0.1,0,14.7-11,25.1-14.1c2.2-0.7,4.2-0.9,5.9-0.7c3.5,0.6,4.4-0.7,3.5-2.4h23.5c5.8,0,11.2-4.7,12.1-10.6l4.1-30.8l4.5-34.3
		l10.3-78.5C591.1,326.3,587.1,321.6,581.2,321.6z"/>
	<g>
		<rect x="56.4" y="977" class="st6" width="833.1" height="2"/>
	</g>
	<g>
		<g>
			<path class="st3" d="M478.6,451.6c-3,0.4-6.1,0.9-9.1,1.4c1.6-5.9,3.4-12.8,4.6-19.4c0.4-2.2-3.6-3-5-1.3
				c-3.5,4.5-6.2,15.5-7.6,22.5c-0.4,0.1-0.9,0.3-1.3,0.4c-0.3-6.4-1-15.7-2.6-16.4c-1.5-0.6-8.8-0.5-14.9-0.4
				c-4.3,0.1-4,1.4-4.8,5.7c-0.9,4.8-2.3,8.6-3.1,9.5c-7.4-0.3-67.6-2.5-83.6-3.5c-18.9-2.2-38-4.4-52.7-3.6
				c-31.5,1.7-52.6,71.6,2.7,65.7c34.7-3.7,125.3-28.4,133.8-31.4c1.1-0.2,2.1-0.4,3.1-0.6c9.6,0.1,15.8-3,20-5.6
				c0.1,0,21.6-16.2,31-14.7C498.5,461.5,488.9,450.3,478.6,451.6z"/>
			<path class="st6" d="M294.8,513.3c-13.7,0-20.6-5.4-24-10.3c-6.1-8.7-6-22.2,0.4-35.2c6.2-12.8,16.7-21.2,27.2-21.7
				c15.2-0.8,35.2,1.6,52.8,3.6c11.3,0.7,45.7,2,66.2,2.8c8.3,0.3,14.6,0.6,17,0.7c0.7-1.1,1.9-4.4,2.8-9.1c0.1-0.5,0.2-0.9,0.2-1.3
				c0.6-3.3,0.8-4.8,5.1-4.9c8.8-0.2,13.9-0.1,15.1,0.4c0.6,0.2,2.2,0.8,3,16.1c0.1,0,0.2-0.1,0.3-0.1c1.6-7.9,4.2-18,7.6-22.3
				c1-1.3,3.1-1.4,4.5-0.8c1.1,0.5,1.7,1.5,1.5,2.5c-1,5.5-2.5,11.7-4.3,18.6c2.5-0.5,5.2-0.9,8.3-1.3c6.3-0.8,12.5,3,14.3,5.9
				c0.7,1.1,0.8,2,0.3,2.8c-0.6,0.9-2,1.2-4.2,0.9c-5.3-0.8-15.9,4.2-29.9,14.2c-0.4,0.3-0.6,0.4-0.7,0.5l0,0
				c-3.9,2.4-10.2,5.7-19.9,5.7c-0.1,0-0.3,0-0.4,0c-0.9,0.2-1.9,0.4-3,0.6c-7.8,2.7-98.5,27.6-133.8,31.4
				C298.9,513.1,296.8,513.3,294.8,513.3z M305,447c-2.3,0-4.4,0.1-6.5,0.2c-10.2,0.5-20.2,8.6-26.3,21.1c-6.1,12.5-6.2,25.8-0.5,34
				c5.4,7.6,15.5,10.9,29.3,9.4c35.2-3.8,125.8-28.6,133.7-31.3c1.2-0.3,2.2-0.5,3.2-0.6c0.1,0,0.2,0,0.4,0c9.6,0,15.7-3.1,19.5-5.5
				l0.1-0.1c0.1-0.1,0.3-0.2,0.6-0.4c10.1-7.2,23.6-15.5,30.7-14.4c2.4,0.4,3-0.2,3.1-0.4c0.2-0.3,0.1-0.9-0.3-1.5
				c-1.7-2.7-7.4-6.2-13.2-5.4l0,0c-3.4,0.4-6.4,0.9-9.1,1.4l-0.9,0.2l0.2-0.9c2-7.2,3.5-13.7,4.6-19.3c0.1-0.7-0.5-1.1-0.9-1.3
				c-1-0.4-2.5-0.4-3.1,0.5c-2.6,3.3-5.2,11.2-7.5,22.2l-0.1,0.3l-0.3,0.1c-0.4,0.1-0.9,0.2-1.3,0.4l-0.7,0.2l0-0.7
				c-0.6-14.8-2.1-15.8-2.3-15.9c-0.5-0.2-2.9-0.6-14.7-0.3c-3.4,0.1-3.5,0.8-4.1,3.9c-0.1,0.4-0.1,0.8-0.2,1.3
				c-0.9,4.9-2.3,8.7-3.2,9.8l-0.2,0.2l-0.3,0c-2.1-0.1-8.7-0.4-17.3-0.7c-21.9-0.8-54.9-2.1-66.2-2.8C336,449,319.1,447,305,447z"
				/>
		</g>
	</g>
	<g>
		<g>
			<path class="st9" d="M516.1,457.7H319.7c-5.8,0-9.9-4.7-9.1-10.6l18.9-143.6c0.8-5.8,6.2-10.6,12.1-10.6H538
				c5.8,0,9.9,4.7,9.1,10.6l-18.9,143.6C527.4,452.9,522,457.7,516.1,457.7z"/>
			<path class="st6" d="M509.6,447.7H313.2c-5.8,0-9.9-4.7-9.1-10.6L323,303.4c0.8-5.8,6.2-10.6,12.1-10.6h196.4
				c5.8,0,9.9,4.7,9.1,10.6l-19.2,135.2C520.6,444.5,515.5,447.7,509.6,447.7z"/>
			<g>
				<path class="st3" d="M502.8,442H321.7c-5.4,0-9.1-4.4-8.4-9.8l17.5-124c0.8-5.4,5.7-9.8,11.1-9.8H523c5.4,0,9.1,4.4,8.4,9.8
					l-17.5,124C513.1,437.6,508.1,442,502.8,442z"/>
				<g>
					<path class="st10" d="M502.8,442.3H321.7c-2.7,0-5-1-6.7-2.9c-1.7-1.9-2.4-4.4-2-7.2l17.5-124c0.8-5.5,5.9-10,11.4-10H523
						c2.7,0,5,1,6.7,2.9c1.7,1.9,2.4,4.4,2,7.1l-17.5,124C513.4,437.8,508.3,442.3,502.8,442.3z M341.9,298.8
						c-5.2,0-10.1,4.3-10.9,9.5l-17.5,124c-0.4,2.5,0.3,4.9,1.9,6.7c1.5,1.8,3.8,2.7,6.3,2.7h181.1c5.2,0,10.1-4.3,10.8-9.5
						l17.5-124c0.4-2.5-0.3-4.9-1.9-6.7c-1.5-1.8-3.8-2.7-6.3-2.7H341.9z"/>
				</g>
			</g>
			<g>
				<g>
					<rect x="244" y="437.5" class="st5" width="22.3" height="3.8"/>
				</g>
				<g>
					<rect x="270.2" y="437.5" class="st5" width="22.3" height="3.8"/>
				</g>
				<g>
					<rect x="296.4" y="437.5" class="st5" width="22.3" height="3.8"/>
				</g>
				<g>
					<rect x="322.5" y="437.5" class="st5" width="73.8" height="3.8"/>
				</g>
				<g>
					<rect x="401.1" y="437.5" class="st5" width="22.3" height="3.8"/>
				</g>
				<g>
					<rect x="427.3" y="437.5" class="st5" width="22.3" height="3.8"/>
				</g>
				<g>
					<rect x="453.5" y="437.5" class="st5" width="22.3" height="3.8"/>
				</g>
				<g>
					<rect x="479.7" y="437.5" class="st5" width="22.3" height="3.8"/>
				</g>
			</g>
			<g>
				<path class="st9" d="M509.4,457.7H242.5c-7.3,0-13.2-1-13.2-8.2v-8.2h293.2v8.2C522.6,456.7,516.7,457.7,509.4,457.7z"/>
				<path class="st6" d="M512.4,449.4H229.7v-8.4h291.1l0,0C520.8,445.7,517,449.4,512.4,449.4z"/>
			</g>
			<path class="st9" d="M521,441.9l0.7-3.1l3.9,1.3l-2,11.9l-3.5,4.5l-3.1,0.8c0,0-0.4,0.1-0.9,0.1c-0.5,0-9.7,0-9.7,0
				s6.1-6.7,6.6-6.7c0.5,0,5.2-0.3,5.2-0.3l1.5-4.3l1-1.3L521,441.9z"/>
		</g>
		<g>
			<g>
				<path class="st3" d="M319,434.1L355,178.5c0.4-2.6,2.8-4.7,5.4-4.7h178.8c2.6,0,4.4,2.1,4.1,4.7l-35.9,255.6H319z"/>
			</g>
			<g>
				<g>
					<path class="st11" d="M539.1,173.8H360.6c-2.7,0-5.1,2.2-5.5,4.8l-0.8,5.6h188.1l0.8-5.6C543.6,175.9,541.7,173.8,539.1,173.8z
						"/>
					<path class="st6" d="M542.7,184.5H353.9l0.8-6c0.4-2.8,3-5.1,5.8-5.1h178.5c1.4,0,2.6,0.5,3.4,1.5c0.9,1,1.2,2.3,1,3.7
						L542.7,184.5z M354.7,183.8h187.5l0.7-5.3c0.2-1.2-0.1-2.3-0.9-3.2c-0.7-0.8-1.8-1.3-2.9-1.3H360.6c-2.5,0-4.8,2-5.2,4.5
						L354.7,183.8z"/>
				</g>
				<g>
					<path class="st9" d="M526.1,178.1c-0.6,0-1.2,0.5-1.3,1.1c-0.1,0.6,0.4,1.1,1,1.1c0.6,0,1.2-0.5,1.3-1.1
						C527.2,178.6,526.7,178.1,526.1,178.1z"/>
					<path class="st7" d="M531,178.1c-0.6,0-1.2,0.5-1.3,1.1c-0.1,0.6,0.4,1.1,1,1.1c0.6,0,1.2-0.5,1.3-1.1
						C532,178.6,531.6,178.1,531,178.1z"/>
					<path class="st5" d="M535.8,178.1c-0.6,0-1.2,0.5-1.3,1.1c-0.1,0.6,0.4,1.1,1,1.1s1.2-0.5,1.3-1.1
						C536.9,178.6,536.4,178.1,535.8,178.1z"/>
				</g>
			</g>
			<path class="st9" d="M507.6,434.1l35.9-255.6c0.4-2.8-1.5-5-4.3-5H360.4c-2.8,0-5.3,2.2-5.7,5l-35.9,255.6H507.6z M319.3,434.1
				l35.9-255.6c0.3-2.4,2.6-4.5,5.1-4.5h178.8c2.4,0,4.2,2,3.8,4.5L507,434.1H319.3z"/>
			<g>
				<polygon class="st6" points="361.9,383.9 362.2,381.2 341.4,381.2 341.1,383.9 				"/>
				<polygon class="st6" points="377.8,375.8 378.1,373.1 342.3,373.1 341.9,375.8 				"/>
				<polygon class="st5" points="372.9,367.6 373.3,365 343,365 342.7,367.6 				"/>
				<polygon class="st6" points="367.4,383.9 367.7,381.2 363.6,381.2 363.3,383.9 				"/>
				<polygon class="st6" points="400.9,383.9 401.3,381.2 380.4,381.2 380.1,383.9 				"/>
				<polygon class="st6" points="416.8,375.8 417.2,373.1 381.3,373.1 381,375.8 				"/>
				<polygon class="st6" points="412,367.6 412.3,365 382.1,365 381.7,367.6 				"/>
				<polygon class="st6" points="406.4,383.9 406.7,381.2 402.6,381.2 402.3,383.9 				"/>
				<polygon class="st6" points="365.1,359.8 365.4,357.1 344.6,357.1 344.3,359.8 				"/>
				<polygon class="st6" points="381,351.7 381.3,349 345.5,349 345.1,351.7 				"/>
				<polygon class="st6" points="376.1,343.6 376.4,340.9 346.2,340.9 345.9,343.6 				"/>
				<polygon class="st6" points="370.6,359.8 370.9,357.1 366.8,357.1 366.5,359.8 				"/>
				<polygon class="st7" points="404.1,359.8 404.4,357.1 383.6,357.1 383.3,359.8 				"/>
				<polygon class="st6" points="420,351.7 420.3,349 384.5,349 384.2,351.7 				"/>
				<polygon class="st3" points="415.1,343.6 415.5,340.9 385.2,340.9 384.9,343.6 				"/>
				<polygon class="st6" points="409.6,359.8 409.9,357.1 405.8,357.1 405.5,359.8 				"/>
				<polygon class="st6" points="368.3,335.8 368.6,333.1 347.8,333.1 347.5,335.8 				"/>
				<polygon class="st6" points="384.2,327.7 384.5,325 348.6,325 348.3,327.7 				"/>
				<polygon class="st6" points="379.3,319.6 379.6,316.9 349.4,316.9 349.1,319.6 				"/>
				<polygon class="st6" points="373.8,335.8 374.1,333.1 370,333.1 369.7,335.8 				"/>
				<polygon class="st5" points="407.3,335.8 407.6,333.1 386.8,333.1 386.5,335.8 				"/>
				<polygon class="st6" points="423.2,327.7 423.5,325 387.7,325 387.3,327.7 				"/>
				<polygon class="st6" points="418.3,319.6 418.7,316.9 388.4,316.9 388.1,319.6 				"/>
				<polygon class="st5" points="412.8,335.8 413.1,333.1 409,333.1 408.7,335.8 				"/>
				<polygon class="st6" points="371.5,311.7 371.8,309 351,309 350.6,311.7 				"/>
				<polygon class="st6" points="377,311.7 377.3,309 373.2,309 372.9,311.7 				"/>
				<polygon class="st6" points="410.5,311.7 410.8,309 390,309 389.7,311.7 				"/>
				<polygon class="st6" points="416,311.7 416.3,309 412.2,309 411.9,311.7 				"/>
				<polygon class="st6" points="448.2,383.9 448.5,381.2 427.7,381.2 427.3,383.9 				"/>
				<polygon class="st6" points="464.1,375.8 464.4,373.1 428.5,373.1 428.2,375.8 				"/>
				<polygon class="st6" points="459.2,367.6 459.5,365 429.3,365 429,367.6 				"/>
				<polygon class="st6" points="453.6,383.9 454,381.2 449.9,381.2 449.6,383.9 				"/>
				<polygon class="st6" points="487.2,383.9 487.5,381.2 466.7,381.2 466.4,383.9 				"/>
				<polygon class="st6" points="503.1,375.8 503.4,373.1 467.5,373.1 467.2,375.8 				"/>
				<polygon class="st6" points="498.2,367.6 498.5,365 468.3,365 468,367.6 				"/>
				<polygon class="st6" points="492.7,383.9 493,381.2 488.9,381.2 488.6,383.9 				"/>
				<polygon class="st6" points="451.4,359.8 451.7,357.1 430.8,357.1 430.5,359.8 				"/>
				<polygon class="st6" points="467.3,351.7 467.6,349 431.7,349 431.4,351.7 				"/>
				<polygon class="st6" points="462.4,343.6 462.7,340.9 432.5,340.9 432.1,343.6 				"/>
				<polygon class="st6" points="456.8,359.8 457.2,357.1 453.1,357.1 452.7,359.8 				"/>
				<polygon class="st6" points="490.4,359.8 490.7,357.1 469.9,357.1 469.6,359.8 				"/>
				<polygon class="st7" points="506.3,351.7 506.6,349 470.7,349 470.4,351.7 				"/>
				<polygon class="st3" points="501.4,343.6 501.7,340.9 471.5,340.9 471.2,343.6 				"/>
				<polygon class="st6" points="495.9,359.8 496.2,357.1 492.1,357.1 491.8,359.8 				"/>
				<polygon class="st6" points="454.5,335.8 454.9,333.1 434,333.1 433.7,335.8 				"/>
				<polygon class="st6" points="470.4,327.7 470.8,325 434.9,325 434.6,327.7 				"/>
				<polygon class="st6" points="465.6,319.6 465.9,316.9 435.7,316.9 435.3,319.6 				"/>
				<polygon class="st6" points="460,335.8 460.3,333.1 456.2,333.1 455.9,335.8 				"/>
				<polygon class="st6" points="493.6,335.8 493.9,333.1 473.1,333.1 472.7,335.8 				"/>
				<polygon class="st6" points="509.5,327.7 509.8,325 473.9,325 473.6,327.7 				"/>
				<polygon class="st6" points="504.6,319.6 504.9,316.9 474.7,316.9 474.4,319.6 				"/>
				<polygon class="st6" points="499,335.8 499.4,333.1 495.3,333.1 495,335.8 				"/>
				<polygon class="st6" points="452.4,415.9 452.7,413.2 422.5,413.2 422.2,415.9 				"/>
				<polygon class="st6" points="491.4,415.9 491.8,413.2 461.5,413.2 461.2,415.9 				"/>
				<polygon class="st6" points="444.6,408.1 444.9,405.4 424.1,405.4 423.7,408.1 				"/>
				<polygon class="st6" points="460.5,399.9 460.8,397.2 424.9,397.2 424.6,399.9 				"/>
				<polygon class="st5" points="455.6,391.8 455.9,389.1 425.7,389.1 425.4,391.8 				"/>
				<polygon class="st6" points="450.1,408.1 450.4,405.4 446.3,405.4 446,408.1 				"/>
				<polygon class="st6" points="483.6,408.1 483.9,405.4 463.1,405.4 462.8,408.1 				"/>
				<polygon class="st7" points="499.5,399.9 499.8,397.2 464,397.2 463.6,399.9 				"/>
				<polygon class="st3" points="494.6,391.8 494.9,389.1 464.7,389.1 464.4,391.8 				"/>
				<polygon class="st6" points="489.1,408.1 489.4,405.4 485.3,405.4 485,408.1 				"/>
				<polygon class="st6" points="457.7,311.7 458,309 437.2,309 436.9,311.7 				"/>
				<polygon class="st6" points="463.2,311.7 463.5,309 459.4,309 459.1,311.7 				"/>
				<polygon class="st6" points="496.7,311.7 497.1,309 476.2,309 475.9,311.7 				"/>
				<polygon class="st6" points="502.2,311.7 502.6,309 498.5,309 498.1,311.7 				"/>
				<polygon class="st6" points="373.3,302.6 373.6,299.9 352.8,299.9 352.5,302.6 				"/>
				<polygon class="st6" points="389.2,294.5 389.5,291.8 353.7,291.8 353.4,294.5 				"/>
				<polygon class="st5" points="384.3,286.4 384.7,283.7 354.4,283.7 354.1,286.4 				"/>
				<polygon class="st6" points="378.8,302.6 379.1,299.9 375,299.9 374.7,302.6 				"/>
				<polygon class="st6" points="412.4,302.6 412.7,299.9 391.8,299.9 391.5,302.6 				"/>
				<polygon class="st6" points="428.3,294.5 428.6,291.8 392.7,291.8 392.4,294.5 				"/>
				<polygon class="st6" points="423.4,286.4 423.7,283.7 393.5,283.7 393.1,286.4 				"/>
				<polygon class="st6" points="417.8,302.6 418.2,299.9 414.1,299.9 413.7,302.6 				"/>
				<polygon class="st6" points="376.5,278.6 376.8,275.9 356,275.9 355.7,278.6 				"/>
				<polygon class="st6" points="392.4,270.5 392.7,267.8 356.9,267.8 356.5,270.5 				"/>
				<polygon class="st6" points="387.5,262.4 387.9,259.7 357.6,259.7 357.3,262.4 				"/>
				<polygon class="st6" points="382,278.6 382.3,275.9 378.2,275.9 377.9,278.6 				"/>
				<polygon class="st7" points="415.5,278.6 415.9,275.9 395,275.9 394.7,278.6 				"/>
				<polygon class="st6" points="431.4,270.5 431.8,267.8 395.9,267.8 395.6,270.5 				"/>
				<polygon class="st3" points="426.6,262.4 426.9,259.7 396.7,259.7 396.3,262.4 				"/>
				<polygon class="st6" points="421,278.6 421.3,275.9 417.2,275.9 416.9,278.6 				"/>
				<polygon class="st6" points="379.7,254.5 380,251.9 359.2,251.9 358.9,254.5 				"/>
				<polygon class="st6" points="395.6,246.4 395.9,243.7 360.1,243.7 359.7,246.4 				"/>
				<polygon class="st6" points="390.7,238.3 391,235.6 360.8,235.6 360.5,238.3 				"/>
				<polygon class="st6" points="385.2,254.5 385.5,251.9 381.4,251.9 381.1,254.5 				"/>
				<polygon class="st5" points="418.7,254.5 419,251.9 398.2,251.9 397.9,254.5 				"/>
				<polygon class="st6" points="434.6,246.4 434.9,243.7 399.1,243.7 398.8,246.4 				"/>
				<polygon class="st6" points="429.7,238.3 430.1,235.6 399.8,235.6 399.5,238.3 				"/>
				<polygon class="st5" points="424.2,254.5 424.5,251.9 420.4,251.9 420.1,254.5 				"/>
				<polygon class="st6" points="459.6,302.6 459.9,299.9 439.1,299.9 438.8,302.6 				"/>
				<polygon class="st6" points="475.5,294.5 475.8,291.8 439.9,291.8 439.6,294.5 				"/>
				<polygon class="st6" points="470.6,286.4 470.9,283.7 440.7,283.7 440.4,286.4 				"/>
				<polygon class="st6" points="465.1,302.6 465.4,299.9 461.3,299.9 461,302.6 				"/>
				<polygon class="st6" points="498.6,302.6 498.9,299.9 478.1,299.9 477.8,302.6 				"/>
				<polygon class="st6" points="514.5,294.5 514.8,291.8 479,291.8 478.6,294.5 				"/>
				<polygon class="st6" points="509.6,286.4 510,283.7 479.7,283.7 479.4,286.4 				"/>
				<polygon class="st6" points="504.1,302.6 504.4,299.9 500.3,299.9 500,302.6 				"/>
				<polygon class="st6" points="462.8,278.6 463.1,275.9 442.3,275.9 441.9,278.6 				"/>
				<polygon class="st6" points="478.7,270.5 479,267.8 443.1,267.8 442.8,270.5 				"/>
				<polygon class="st6" points="473.8,262.4 474.1,259.7 443.9,259.7 443.6,262.4 				"/>
				<polygon class="st6" points="468.3,278.6 468.6,275.9 464.5,275.9 464.2,278.6 				"/>
				<polygon class="st6" points="501.8,278.6 502.1,275.9 481.3,275.9 481,278.6 				"/>
				<polygon class="st7" points="517.7,270.5 518,267.8 482.1,267.8 481.8,270.5 				"/>
				<polygon class="st3" points="512.8,262.4 513.1,259.7 482.9,259.7 482.6,262.4 				"/>
				<polygon class="st6" points="507.3,278.6 507.6,275.9 503.5,275.9 503.2,278.6 				"/>
				<polygon class="st6" points="397.9,230.6 398.3,227.9 362.4,227.9 362.1,230.6 				"/>
				<polygon class="st5" points="393.1,222.5 393.4,219.8 363.1,219.8 362.8,222.5 				"/>
				<polygon class="st6" points="437,230.6 437.3,227.9 401.4,227.9 401.1,230.6 				"/>
				<polygon class="st6" points="432.1,222.5 432.4,219.8 402.2,219.8 401.9,222.5 				"/>
				<polygon class="st6" points="385.2,214.7 385.5,212 364.7,212 364.4,214.7 				"/>
				<polygon class="st6" points="390.7,214.7 391,212 386.9,212 386.6,214.7 				"/>
				<polygon class="st7" points="424.2,214.7 424.6,212 403.7,212 403.4,214.7 				"/>
				<polygon class="st6" points="429.7,214.7 430.1,212 426,212 425.6,214.7 				"/>
				<polygon class="st6" points="484.2,230.6 484.5,227.9 448.6,227.9 448.3,230.6 				"/>
				<polygon class="st6" points="479.3,222.5 479.6,219.8 449.4,219.8 449.1,222.5 				"/>
				<polygon class="st6" points="523.2,230.6 523.5,227.9 487.7,227.9 487.3,230.6 				"/>
				<polygon class="st6" points="518.3,222.5 518.7,219.8 488.4,219.8 488.1,222.5 				"/>
				<polygon class="st6" points="471.5,214.7 471.8,212 451,212 450.6,214.7 				"/>
				<polygon class="st6" points="477,214.7 477.3,212 473.2,212 472.9,214.7 				"/>
				<polygon class="st6" points="510.5,214.7 510.8,212 490,212 489.7,214.7 				"/>
				<polygon class="st6" points="516,214.7 516.3,212 512.2,212 511.9,214.7 				"/>
				<polygon class="st6" points="466,254.5 466.3,251.9 445.4,251.9 445.1,254.5 				"/>
				<polygon class="st6" points="481.9,246.4 482.2,243.7 446.3,243.7 446,246.4 				"/>
				<polygon class="st6" points="477,238.3 477.3,235.6 447.1,235.6 446.7,238.3 				"/>
				<polygon class="st6" points="471.4,254.5 471.8,251.9 467.7,251.9 467.3,254.5 				"/>
				<polygon class="st6" points="505,254.5 505.3,251.9 484.5,251.9 484.2,254.5 				"/>
				<polygon class="st6" points="520.9,246.4 521.2,243.7 485.3,243.7 485,246.4 				"/>
				<polygon class="st6" points="516,238.3 516.3,235.6 486.1,235.6 485.8,238.3 				"/>
				<polygon class="st6" points="510.5,254.5 510.8,251.9 506.7,251.9 506.4,254.5 				"/>
			</g>
		</g>
	</g>
	<g>
		<path class="st3" d="M340.3,404.1c4.1-3.9,10.4-4.7,12.3-10.5c1.6-4.8,4.1-7.4,6.2-10c5.4,5,14.9,11.9,22.6,14.8
			c6.4,2.4,7.1-1.7,4.6-4c-5.8-5.3-17.5-19-25.3-24.2c-0.1,0-0.1-0.1-0.2-0.1c-4.9-4.4-27.1-12.1-31.6-12.4
			c-6.8-0.4-12.3,3.2-28.3,9.3c-26.2,13.3-110.5,18-120.5,22.8c-32,15.6-11.2,68.9,22.6,62.7c27-4.9,84.9-44.3,105.5-62.3l0,0
			c10.7-9.4,6.9,5.8,13.6,10.5C328.3,405.4,336.2,408,340.3,404.1z"/>
		<g>
			<path class="st6" d="M197,453.9c-16,0-27.5-12.7-31.8-25.9c-4.2-12.7-2.9-30.5,14.4-38.9c3.9-1.9,18-3.7,35.9-5.9
				c28.8-3.7,68.3-8.7,84.6-16.9c4.8-1.8,8.6-3.4,11.7-4.7c7.7-3.2,12-5,17-4.7c4.6,0.3,26.7,7.9,32,12.5c0.1,0,0.2,0.1,0.2,0.1
				c5.2,3.5,12.2,10.8,17.9,16.7c3,3.1,5.6,5.8,7.5,7.6c1.5,1.4,2.1,3.4,1.2,4.7c-0.5,0.8-2.1,2.4-6.6,0.6
				c-7.5-2.8-16.6-9.3-22.2-14.4l-0.2,0.3c-1.9,2.3-3.9,4.7-5.3,8.8c-1.3,4-4.5,5.8-7.6,7.6c-1.7,1-3.5,1.9-4.9,3.3l0,0
				c-4.7,4.4-13.2,1.2-19.7-3.3c-2.8-1.9-3.8-5.4-4.7-8.4c-0.7-2.3-1.4-4.5-2.6-4.8c-1-0.3-2.8,0.6-5.2,2.8l-0.9,0.8l0,0
				c-22.1,19-78.7,57-105,61.7C200.8,453.7,198.9,453.9,197,453.9z M327.8,358.5c-4.3,0-8.3,1.7-15.3,4.6c-3.1,1.3-7,2.9-11.7,4.7
				c-16.4,8.3-56,13.3-85,17c-17.1,2.2-31.8,4-35.4,5.8c-16.3,8-17.5,24.9-13.6,37c4.6,14,17.7,27.5,35.7,24.3
				c26.3-4.8,83.8-43.5,105.1-62.1l0.9-0.8l0,0c2.5-2,4.3-2.8,5.9-2.3c2.1,0.6,2.8,3.1,3.7,5.9c0.9,2.8,1.8,6,4.1,7.6
				c5.6,4,13.6,7.2,17.6,3.5l0.6,0.6l-0.6-0.6c1.6-1.5,3.4-2.5,5.2-3.5c3-1.7,5.8-3.2,6.9-6.7c1.5-4.4,3.6-7,5.6-9.3l1.3-1.6
				l0.6,0.6c5.5,5,14.8,11.8,22.3,14.6c2.8,1.1,4.3,0.7,4.7,0.1c0.4-0.7,0-1.9-0.9-2.7c-2-1.8-4.6-4.5-7.6-7.7
				c-5.6-5.8-12.5-13.1-17.6-16.5l-0.3-0.2c-4.8-4.3-26.7-11.9-31.2-12.2C328.4,358.5,328.1,358.5,327.8,358.5z"/>
		</g>
	</g>
	<g>
		<g>
			
				<linearGradient id="SVGID_3_" gradientUnits="userSpaceOnUse" x1="723.2606" y1="888.1719" x2="789.0941" y2="888.1719" gradientTransform="matrix(-1 0 0 1 840.9668 0)">
				<stop  offset="0" style="stop-color:#E9A850"/>
				<stop  offset="1" style="stop-color:#ECCDA3"/>
			</linearGradient>
			<polygon class="st12" points="51.9,903.6 88,919.5 117.7,876.7 72.5,856.8 			"/>
			<g>
				<path class="st5" d="M99.7,906.3c0,0-8.1-7.1-20.9-1.1c-12.9,6.1-14.3-3.4-16.5-5.7c-2.2-2.3-5.4-4.6-10.5-4.6
					c0,0-12.4,44.6-9.6,79.5l120.7,1.8c0,0,3.9-12.1-6.4-17.8c-10.3-5.8-55.9-19.7-61.7-31.6C88.8,914.8,99.7,906.3,99.7,906.3z"/>
				<g>
					<path class="st3" d="M65.5,966.1l-2,0c0.3-22.2-18.9-29.6-19.7-29.9l0.7-1.9C44.7,934.4,65.8,942.5,65.5,966.1z"/>
				</g>
				<g>
					<path class="st6" d="M41.5,963.2c-0.2,4.3,0.5,8.2,0.6,11.1l120.7,1.8c0,0,1.8-5.6-0.3-11L41.5,963.2z"/>
				</g>
				<g>
					<path class="st6" d="M105.3,948.3l-0.2,0c-1.1-0.2-27.3-5.6-29.9-17.4c-2.6-11.6,7.1-22.6,7.5-23.1l1.5,1.3
						c-0.1,0.1-9.4,10.8-7,21.4c2.2,10,25.6,15.3,28.2,15.8l14-3.6l0.5,1.9L105.3,948.3z"/>
				</g>
				<g>
					
						<rect x="92.1" y="936.9" transform="matrix(0.9509 -0.3095 0.3095 0.9509 -285.3786 76.6131)" class="st6" width="13.3" height="2"/>
				</g>
				<g>
					
						<rect x="81.9" y="929.1" transform="matrix(0.9509 -0.3096 0.3096 0.9509 -283.5689 73.0913)" class="st6" width="13.3" height="2"/>
				</g>
			</g>
		</g>
		<path class="st7" d="M107.5,729.6c-18.1,19-26,21-51.6,76.8c-7.3,15.8-35.3,147.3-35.3,147.3c8.7,13.5,81.2-9.6,121.6-1.5
			c0,0,54.4-134.3,54.4-228C196.5,698.7,139.2,696.4,107.5,729.6z"/>
		<path class="st7" d="M81.3,574.6c-5.1,21.6-7.6,165,3.6,187.8c8,16.3,97.9,56.7,106.2,11.3c7.3-39.9,29-173,27.2-196.7
			C216.4,554,96.7,509.7,81.3,574.6z"/>
		<g>
			<path class="st6" d="M76.2,767.6l-1.6-1.2c16.7-22.2,46.5-12.2,46.9-12.1l-0.6,1.9C120.5,756,92,746.5,76.2,767.6z"/>
		</g>
		<path class="st6" d="M221.8,529.7c-1-15.2-54-40.6-94.1-36.9L116,634c3.5,4.1,14.7,20.9,16.8,25.5c15.9,35,30.4,59.3,66.4,69
			C209.2,659.2,223,547.9,221.8,529.7z"/>
		<g>
			
				<linearGradient id="SVGID_4_" gradientUnits="userSpaceOnUse" x1="528.1322" y1="887.5851" x2="593.6464" y2="887.5851" gradientTransform="matrix(-1 0 0 1 840.9668 0)">
				<stop  offset="0" style="stop-color:#E9A850"/>
				<stop  offset="1" style="stop-color:#ECCDA3"/>
			</linearGradient>
			<polygon class="st13" points="247.3,903.4 283.6,918.9 312.8,875.7 267.4,856.3 			"/>
			<g>
				<path class="st5" d="M295.2,905.4c0,0-8.2-7-21-0.8c-12.8,6.2-14.3-3.2-16.6-5.6c-2.2-2.3-5.5-4.5-10.6-4.5
					c0,0-11.9,44.7-8.7,79.6l120.7,0.4c0,0,3.8-12.1-6.6-17.8c-10.4-5.6-56.1-19-62.1-30.9C284.3,914.1,295.2,905.4,295.2,905.4z"/>
				<g>
					<path class="st6" d="M261.7,965.7l-2,0c0.1-22.2-19.3-29.3-20.1-29.6l0.7-1.9C240.5,934.2,261.7,942.1,261.7,965.7z"/>
				</g>
				<g>
					<path class="st6" d="M237.7,963.1c-0.1,4.3,0.6,8.2,0.7,11l120.7,0.4c0,0,1.8-5.7-0.4-11L237.7,963.1z"/>
				</g>
				<g>
					<path class="st6" d="M301.2,947.4l-0.2,0c-1.1-0.2-27.4-5.3-30.1-17c-2.7-11.6,6.8-22.7,7.2-23.2l1.5,1.3
						c-0.1,0.1-9.2,10.9-6.8,21.5c2.3,9.9,25.8,15,28.3,15.5l13.9-3.8l0.5,1.9L301.2,947.4z"/>
				</g>
				<g>
					
						<rect x="288" y="936.1" transform="matrix(0.9474 -0.32 0.32 0.9474 -284.3765 143.5713)" class="st6" width="13.3" height="2"/>
				</g>
				<g>
					
						<rect x="277.6" y="928.4" transform="matrix(0.9473 -0.3203 0.3203 0.9473 -282.7351 140.0372)" class="st6" width="13.3" height="2"/>
				</g>
			</g>
		</g>
		<path class="st7" d="M223.6,751c-8.8,24.8-51.9,139.7-16.7,218.6c13.5,8.7,76.8-14.2,117-20.6c0,0,17-147.8-18.1-256.7
			C297.9,668.1,239,707.8,223.6,751z"/>
		<path class="st7" d="M122.3,556.4c3.3,22,73.2,202.9,92.1,219.9c13.5,12.1,63.3,15,88.6-23.5s-42.2-223.9-52.7-245.2
			C240.1,487,112.5,490.4,122.3,556.4z"/>
		<path class="st6" d="M244.6,293.7c31.5,19.2,43.7,66.5,46,147.9c2.3,81.4,16.8,134.3,7.9,155.4c0,0-93.9,85.5-230.7,31
			c0,0,4.2-23.3,13.5-124.1c9.3-100.9,9.1-128.2,22.5-167.6c13.4-39.3,77.1-75.2,94.3-65.8C215.2,280.1,220.3,278.9,244.6,293.7z"/>
		<g>
			<path class="st6" d="M227.5,751.9c-11.7-13.3-31.6-7.9-31.8-7.9l-0.8,0.2l-34.1-77.2l1.8-0.8L196,742c4.1-0.9,21.9-3.9,33,8.7
				L227.5,751.9z"/>
		</g>
		<g>
			<path class="st9" d="M156,553.2c-24,0-38.8-13.1-39-13.3l1.3-1.5c0.3,0.3,33.3,29.4,80.5-1.1l1.1,1.7
				C183.3,549.7,168.4,553.2,156,553.2z"/>
		</g>
		<g>
			<path class="st6" d="M195.7,935.2c-0.1-0.4-11.4-37.8,7.5-118.4l1.9,0.5c-18.7,80-7.7,117-7.5,117.4L195.7,935.2z"/>
		</g>
		<g>
			<path class="st3" d="M177.8,234.9l-7.7,41.3c0,0,24.8,16.7,43,2.4l3.4-36.6L177.8,234.9z"/>
			<path class="st6" d="M195.9,284.9c-13.6,0-25.9-8.1-26.1-8.2l-0.3-0.2l0.1-0.4l7.8-41.9l39.9,7.3l-3.5,37.3l-0.2,0.2
				C208,283.4,201.8,284.9,195.9,284.9z M170.8,275.9c2.9,1.8,25.3,15.2,41.9,2.4l3.4-35.8l-37.7-6.9L170.8,275.9z"/>
		</g>
		<path class="st6" d="M213,278.3c0,0-9.5-10.8-17.6-25.4l19.9,4.4L213,278.3z"/>
		<g>
			<path class="st3" d="M213.1,265.6c-7.6-1.5-32.2-24.2-33.7-35.9c-0.6-4.2,3-13.8,5.8-18.1c9-13.5,12.1-31.2,24.9-31.9
				c5.4-0.3,26.2,6.1,30.8,7.2c18.1,4.2,8.1,25.8,3.8,40.8C239.9,244.6,226.4,268.3,213.1,265.6z"/>
			<path class="st6" d="M215.2,266.4c-0.7,0-1.5-0.1-2.2-0.2l0,0c-8.1-1.6-32.6-24.9-34.2-36.4c-0.6-4.6,3.2-14.4,5.9-18.5
				c2.8-4.1,5-8.6,7.1-13c4.9-10,9.1-18.7,18.2-19.2c4.1-0.2,16.5,3.2,24.7,5.5c2.9,0.8,5.1,1.4,6.3,1.7c4.3,1,7.4,3,9.1,6.1
				c4.1,7.2,0.4,18.7-2.8,28.9c-0.7,2.3-1.4,4.4-2,6.5C240.7,244,228.2,266.4,215.2,266.4z M213.2,265c12.5,2.5,26-20.2,31-37.5
				c0.6-2.1,1.3-4.2,2-6.5c3.2-10,6.8-21.3,2.9-28c-1.6-2.8-4.3-4.6-8.4-5.5c-1.2-0.3-3.5-0.9-6.4-1.7c-7.6-2.1-20.4-5.7-24.3-5.5
				c-8.5,0.5-12.5,8.8-17.3,18.5c-2.1,4.4-4.4,8.9-7.2,13.1c-2.9,4.4-6.2,13.8-5.7,17.7C181.5,241.2,206.4,263.7,213.2,265
				L213.2,265z"/>
		</g>
		<path class="st6" d="M248.6,199.2c-1.9,0.1-7.4,0-7.4,0s-6.1,11.7-9.8,15.5c-3.6,3.8-4.1,22.2,3.8,27.1c7.8,4.9-1.1,11.8-3.4,15.4
			c-3.3,5.2-0.4,13.1-12.5,12.7c-8-0.3-24.1-11.3-15.1-20.6c9-9.3,22.5-20.1,19.4-35.4c-3-15.3-4.6,15.5-23.7,19.2
			c-19.1,3.7-24.6,5.9-24.6,5.9s0.4-7.1-3.3-10.4c-3.7-3.3-10.2-23.2-2.9-42.7c7.3-19.5,18.6-22.6,37.2-19.2
			c18.5,3.4,15.3-6.3,26.8-4c11.5,2.2,30.2-5.2,30.2-5.2S265.6,198.4,248.6,199.2z"/>
		<g>
			<path class="st3" d="M201.5,217.6c0.5,7.4,6.1,13,12.4,12.6c6.3-0.4,11.1-6.8,10.6-14.2c-0.5-7.4-6.1-13-12.4-12.6
				C205.7,203.9,201,210.2,201.5,217.6z"/>
			<path class="st6" d="M213.2,230.8c-6.3,0-11.8-5.7-12.3-13.2l0,0c-0.5-7.7,4.4-14.3,11.1-14.8c6.6-0.4,12.5,5.4,13,13.1
				c0.3,3.7-0.8,7.3-2.8,10.1c-2.1,2.8-5,4.5-8.3,4.7C213.7,230.8,213.4,230.8,213.2,230.8z M202,217.6c0.5,7.1,5.8,12.5,11.8,12.1
				c2.9-0.2,5.5-1.7,7.4-4.2c1.9-2.6,2.8-5.9,2.6-9.3c-0.5-7.1-5.8-12.5-11.8-12.1C206.1,204.4,201.6,210.5,202,217.6L202,217.6z"/>
		</g>
		<g>
			<path class="st6" d="M216.4,225.9c-0.4,0.2-0.8,0.3-1.2,0.4c-0.9,0.1-1.6-0.2-2.3-0.9c-1.4-1.4-0.9-2.8-0.6-3.9
				c0.4-1.1,0.7-2.1-0.1-3.7c-0.7-1.3-1.6-2-2.4-2.7c-1.5-1.2-3.1-2.5-1.3-5.6c0.6-1,1.4-1.7,2.6-2c3.2-0.9,7.7,1.7,7.8,1.8l-1,1.7
				c-1.1-0.6-4.3-2.1-6.3-1.6c-0.6,0.2-1.1,0.5-1.4,1.1c-0.9,1.6-0.6,1.9,0.9,3.1c0.9,0.8,2.1,1.7,3,3.4c1.2,2.3,0.6,4,0.2,5.2
				c-0.4,1-0.4,1.3,0.1,1.9c0.3,0.3,0.5,0.3,0.7,0.3c0.9-0.1,2-1.3,2.4-1.9l1.6,1.1C218.9,223.7,217.8,225.2,216.4,225.9z"/>
		</g>
		<g>
			<path class="st6" d="M88.3,431.5l-1.7,0c1.1-52.6,16.9-97.3,17-97.7l1.6,0.6C105.1,334.8,89.4,379.3,88.3,431.5z"/>
		</g>
		<polygon class="st3" points="196,251.8 194.6,255.1 178.6,241.8 180.2,237.6 183.7,236.7 194.2,244.4 		"/>
	</g>
	<g>
		<g>
			<path class="st3" d="M303.5,394.1c0,0,22,53.8,24,64.7c4.5,24.1-20.8,63.8-40.4,51.2c-19.6-12.5-54.9-54.4-65.7-93.6
				C210.7,377.2,281.9,349.4,303.5,394.1z"/>
			<path class="st6" d="M295.1,513.1c-2.9,0-5.6-0.8-8.2-2.5c-20.3-13-55.2-55.1-65.9-94c-5.5-20.2,10.1-36.2,27-42.6
				c19.6-7.4,44.5-4.1,56.1,19.9l0,0c0.9,2.2,22,54,24.1,64.8c3.1,16.3-7.5,40.8-21.8,50.5C302.4,511.8,298.7,513.1,295.1,513.1z
				 M266.6,371.7c-6.2,0-12.5,1.2-18.3,3.4c-16.4,6.2-31.7,21.7-26.3,41.2c10.6,38.6,45.3,80.4,65.4,93.3c6.8,4.4,13.7,1.7,18.2-1.4
				c14-9.4,24.4-33.4,21.4-49.3c-2-10.6-23.5-63.4-24-64.6C295.1,378.2,281,371.7,266.6,371.7z"/>
		</g>
		<path class="st6" d="M220.6,293.8c-12.9,2.9-27,11-28.8,43.1c-1.8,32.1,16.4,90.9,39,132.8c0,0,72.5-6.5,89.9-54.5
			c0,0-36.8-74-50.9-96.7C255.7,295.6,234.9,290.6,220.6,293.8z"/>
		<g>
			<path class="st9" d="M243.5,419.9c-0.3,0-30.5-4-36.9-37l1.9-0.4c6.1,31.6,34.9,35.4,35.2,35.4L243.5,419.9z"/>
		</g>
		<g>
			<path class="st9" d="M262.1,464.5c-16.6,5.6-30.8,6.8-31,6.8l-0.5,0l-0.3-0.4c-0.4-0.5-41.2-49.6-45.1-101.8l2-0.1
				c3.7,49.1,40.5,95.5,44.3,100.3c3.8-0.4,28.1-3.2,49.4-15.2l1,1.7C275.4,459.6,268.5,462.4,262.1,464.5z"/>
		</g>
		<path class="st3" d="M291,511.3c0,0,7.7,1.8,21.2-1c13.5-2.8,32.7-24.1,32.7-24.1l-7.3-12.8l-14.8-1.3l-26.2,9.2
			c0,0-7.1,10.1-7.2,11.2C289.3,493.6,291,511.3,291,511.3z"/>
	</g>
</g>
</svg>
