<?xml version="1.0" encoding="utf-8"?>
<!-- Generator: Adobe Illustrator 24.2.0, SVG Export Plug-In . SVG Version: 6.00 Build 0)  -->
<svg version="1.1" id="Layer_1" xmlns="http://www.w3.org/2000/svg" xmlns:xlink="http://www.w3.org/1999/xlink" x="0px" y="0px"
	 width="464px" height="459px" viewBox="0 0 464 459" style="enable-background:new 0 0 464 459;" xml:space="preserve">
<style type="text/css">
	.st0{fill:#E6E6E6;}
	.st1{clip-path:url(#SVGID_2_);}
	.st2{fill:#FFFFFF;}
	.st3{opacity:0.5;}
	.st4{fill:#DBDBDB;}
	.st5{fill:#34234D;}
	.st6{fill:#FFCF34;}
	.st7{fill:#221733;}
	.st8{fill:#FE4040;}
	.st9{fill:#D2E6EE;}
	.st10{opacity:0.25;fill:#212121;}
	.st11{fill:#2B1D40;}
	.st12{fill:#E8E5E6;}
	.st13{fill:#320D26;}
	.st14{fill:#EDE3DD;}
	.st15{fill:url(#SVGID_3_);}
	.st16{fill:url(#SVGID_4_);}
	.st17{fill:url(#SVGID_5_);}
	.st18{fill:url(#SVGID_6_);}
	.st19{fill:url(#SVGID_7_);}
	.st20{fill:url(#SVGID_8_);}
	.st21{fill:url(#SVGID_9_);}
</style>
<g>
	<g>
		<g>
			<path class="st0" d="M211.2,58.4c22.6,26.9,90.5,54.8,139.8,16.3C400.2,36.3,144.5-21.1,211.2,58.4z"/>
		</g>
		<g>
			<defs>
				<path id="SVGID_1_" d="M81.9,371C-1.3,283.8-9,199,27.9,133.4c73-129.9,156.5-48.8,258.6-34.5
					c104.1,14.5,228.8,68.7,140.9,219.4C367.6,420.7,200.7,495.6,81.9,371z"/>
			</defs>
			<use xlink:href="#SVGID_1_"  style="overflow:visible;fill:#E6E6E6;"/>
			<clipPath id="SVGID_2_">
				<use xlink:href="#SVGID_1_"  style="overflow:visible;"/>
			</clipPath>
			<g class="st1">
				<g>
					<g>
						<g>
							<g>
								<g>
									<g>
										<g>
											<rect x="250.9" y="61.1" class="st2" width="238.6" height="0.9"/>
										</g>
									</g>
									<g>
										<g>
											<rect x="250.9" y="34.1" class="st2" width="238.6" height="0.9"/>
										</g>
									</g>
									<g>
										<g>
											<g>
												<rect x="439.8" y="35.2" class="st2" width="0.7" height="26.4"/>
											</g>
										</g>
										<g>
											<g>
												<rect x="380" y="35.2" class="st2" width="0.7" height="26.4"/>
											</g>
										</g>
										<g>
											<g>
												<rect x="320.2" y="35.2" class="st2" width="0.7" height="26.4"/>
											</g>
										</g>
										<g>
											<g>
												<rect x="260.4" y="35.2" class="st2" width="0.7" height="26.4"/>
											</g>
										</g>
									</g>
									<g>
										<g>
											<rect x="244.4" y="87.8" class="st2" width="0.7" height="0.4"/>
											<rect x="250.9" y="87.8" class="st2" width="238.6" height="0.9"/>
										</g>
									</g>
									<g>
										<g>
											<g>
												<rect x="423.8" y="61.9" class="st2" width="0.7" height="26.4"/>
											</g>
										</g>
										<g>
											<g>
												<rect x="364" y="61.9" class="st2" width="0.7" height="26.4"/>
											</g>
										</g>
										<g>
											<g>
												<rect x="304.2" y="61.9" class="st2" width="0.7" height="26.4"/>
											</g>
										</g>
										<g>
											<g>
												<rect x="244.4" y="87.8" class="st2" width="0.7" height="0.4"/>
											</g>
										</g>
									</g>
									<g>
										<g>
											<rect x="250.9" y="114.5" class="st2" width="238.6" height="0.9"/>
										</g>
									</g>
									<g>
										<g>
											<g>
												<rect x="439.8" y="88.6" class="st2" width="0.7" height="26.4"/>
											</g>
										</g>
										<g>
											<g>
												<rect x="380" y="88.6" class="st2" width="0.7" height="26.4"/>
											</g>
										</g>
										<g>
											<g>
												<rect x="320.2" y="88.6" class="st2" width="0.7" height="26.4"/>
											</g>
										</g>
										<g>
											<g>
												<rect x="260.4" y="88.6" class="st2" width="0.7" height="26.4"/>
											</g>
										</g>
									</g>
									<g>
										<g>
											<rect x="244.4" y="141.2" class="st2" width="0.7" height="0.4"/>
											<rect x="250.9" y="141.2" class="st2" width="238.6" height="0.9"/>
										</g>
									</g>
									<g>
										<g>
											<g>
												<rect x="423.8" y="115.3" class="st2" width="0.7" height="26.4"/>
											</g>
										</g>
										<g>
											<g>
												<rect x="364" y="115.3" class="st2" width="0.7" height="26.4"/>
											</g>
										</g>
										<g>
											<g>
												<rect x="304.2" y="115.3" class="st2" width="0.7" height="26.4"/>
											</g>
										</g>
										<g>
											<g>
												<rect x="244.4" y="141.2" class="st2" width="0.7" height="0.4"/>
											</g>
										</g>
									</g>
									<g>
										<g>
											<rect x="250.9" y="167.9" class="st2" width="238.6" height="0.9"/>
										</g>
									</g>
									<g>
										<g>
											<g>
												<rect x="439.8" y="142" class="st2" width="0.7" height="26.4"/>
											</g>
										</g>
										<g>
											<g>
												<rect x="380" y="142" class="st2" width="0.7" height="26.4"/>
											</g>
										</g>
										<g>
											<g>
												<rect x="320.2" y="142" class="st2" width="0.7" height="26.4"/>
											</g>
										</g>
										<g>
											<g>
												<rect x="260.4" y="142" class="st2" width="0.7" height="26.4"/>
											</g>
										</g>
									</g>
									<g>
										<g>
											<rect x="244.4" y="194.6" class="st2" width="0.7" height="0.4"/>
											<rect x="250.9" y="194.6" class="st2" width="238.6" height="0.9"/>
										</g>
									</g>
									<g>
										<g>
											<g>
												<rect x="423.8" y="168.7" class="st2" width="0.7" height="26.4"/>
											</g>
										</g>
										<g>
											<g>
												<rect x="364" y="168.7" class="st2" width="0.7" height="26.4"/>
											</g>
										</g>
										<g>
											<g>
												<rect x="304.2" y="168.7" class="st2" width="0.7" height="26.4"/>
											</g>
										</g>
										<g>
											<g>
												<rect x="244.4" y="194.6" class="st2" width="0.7" height="0.4"/>
											</g>
										</g>
									</g>
									<g>
										<g>
											<rect x="244.4" y="222.1" class="st2" width="0.7" height="0.1"/>
											<rect x="250.9" y="221.3" class="st2" width="238.6" height="0.9"/>
										</g>
									</g>
									<g>
										<g>
											<g>
												<rect x="439.8" y="195.4" class="st2" width="0.7" height="26.4"/>
											</g>
										</g>
										<g>
											<g>
												<rect x="380" y="195.4" class="st2" width="0.7" height="26.4"/>
											</g>
										</g>
										<g>
											<g>
												<rect x="320.2" y="195.4" class="st2" width="0.7" height="26.4"/>
											</g>
										</g>
										<g>
											<g>
												<rect x="260.4" y="195.4" class="st2" width="0.7" height="26.4"/>
											</g>
										</g>
									</g>
									<g>
										<g>
											<rect x="244.4" y="248.1" class="st2" width="0.7" height="0.4"/>
											<rect x="250.9" y="248.1" class="st2" width="238.6" height="0.9"/>
										</g>
									</g>
									<g>
										<g>
											<g>
												<rect x="423.8" y="222.1" class="st2" width="0.7" height="26.4"/>
											</g>
										</g>
										<g>
											<g>
												<rect x="364" y="222.1" class="st2" width="0.7" height="26.4"/>
											</g>
										</g>
										<g>
											<g>
												<rect x="304.2" y="222.1" class="st2" width="0.7" height="26.4"/>
											</g>
										</g>
										<g>
											<g>
												<rect x="244.4" y="222.1" class="st2" width="0.7" height="0.1"/>
												<rect x="244.4" y="248.1" class="st2" width="0.7" height="0.4"/>
											</g>
										</g>
									</g>
									<g>
										<g>
											<rect x="244.4" y="275.1" class="st2" width="0.7" height="0.1"/>
											<rect x="250.9" y="274.3" class="st2" width="238.6" height="0.9"/>
										</g>
									</g>
									<g>
										<g>
											<g>
												<rect x="439.8" y="248.4" class="st2" width="0.7" height="26.4"/>
											</g>
										</g>
										<g>
											<g>
												<rect x="380" y="248.4" class="st2" width="0.7" height="26.4"/>
											</g>
										</g>
										<g>
											<g>
												<rect x="320.2" y="248.4" class="st2" width="0.7" height="26.4"/>
											</g>
										</g>
										<g>
											<g>
												<rect x="260.4" y="248.4" class="st2" width="0.7" height="26.4"/>
											</g>
										</g>
									</g>
									<g>
										<g>
											<rect x="0.1" y="301" class="st2" width="489.5" height="0.9"/>
										</g>
									</g>
									<g>
										<g>
											<g>
												<rect x="423.8" y="275.1" class="st2" width="0.7" height="26.4"/>
											</g>
										</g>
										<g>
											<g>
												<rect x="364" y="275.1" class="st2" width="0.7" height="26.4"/>
											</g>
										</g>
										<g>
											<g>
												<rect x="304.2" y="275.1" class="st2" width="0.7" height="26.4"/>
											</g>
										</g>
										<g>
											<g>
												<rect x="244.4" y="275.1" class="st2" width="0.7" height="0.1"/>
												<rect x="244.4" y="291.6" class="st2" width="0.7" height="9.9"/>
											</g>
										</g>
										<g>
											<g>
												<rect x="184.7" y="291.6" class="st2" width="0.7" height="9.9"/>
											</g>
										</g>
										<g>
											<g>
												<rect x="124.9" y="301" class="st2" width="0.7" height="0.4"/>
											</g>
										</g>
										<g>
											<g>
												<rect x="65.1" y="291.6" class="st2" width="0.7" height="9.9"/>
											</g>
										</g>
									</g>
									<g>
										<g>
											<rect x="0.1" y="327.7" class="st2" width="489.5" height="0.9"/>
										</g>
									</g>
									<g>
										<g>
											<g>
												<rect x="439.8" y="301.8" class="st2" width="0.7" height="26.4"/>
											</g>
										</g>
										<g>
											<g>
												<rect x="380" y="301.8" class="st2" width="0.7" height="26.4"/>
											</g>
										</g>
										<g>
											<g>
												<rect x="320.2" y="301.8" class="st2" width="0.7" height="26.4"/>
											</g>
										</g>
										<g>
											<g>
												<rect x="260.4" y="301.8" class="st2" width="0.7" height="26.4"/>
											</g>
										</g>
										<g>
											<g>
												<rect x="200.6" y="301.8" class="st2" width="0.7" height="26.4"/>
											</g>
										</g>
										<g>
											<g>
												<rect x="140.9" y="301.8" class="st2" width="0.7" height="26.4"/>
											</g>
										</g>
										<g>
											<g>
												<rect x="81.1" y="301.8" class="st2" width="0.7" height="26.4"/>
											</g>
										</g>
										<g>
											<g>
												<rect x="21.3" y="301.8" class="st2" width="0.7" height="26.4"/>
											</g>
										</g>
									</g>
									<g>
										<g>
											<rect x="0.1" y="354.4" class="st2" width="489.5" height="0.9"/>
										</g>
									</g>
									<g>
										<g>
											<g>
												<rect x="423.8" y="328.5" class="st2" width="0.7" height="26.4"/>
											</g>
										</g>
										<g>
											<g>
												<rect x="364" y="328.5" class="st2" width="0.7" height="26.4"/>
											</g>
										</g>
										<g>
											<g>
												<rect x="304.2" y="328.5" class="st2" width="0.7" height="26.4"/>
											</g>
										</g>
										<g>
											<g>
												<rect x="244.4" y="328.5" class="st2" width="0.7" height="26.4"/>
											</g>
										</g>
										<g>
											<g>
												<rect x="184.7" y="328.5" class="st2" width="0.7" height="26.4"/>
											</g>
										</g>
										<g>
											<g>
												<rect x="124.9" y="328.5" class="st2" width="0.7" height="26.4"/>
											</g>
										</g>
										<g>
											<g>
												<rect x="65.1" y="328.5" class="st2" width="0.7" height="26.4"/>
											</g>
										</g>
									</g>
									<g>
										<g>
											<rect x="0.1" y="381.1" class="st2" width="489.5" height="0.9"/>
										</g>
									</g>
									<g>
										<g>
											<g>
												<rect x="439.8" y="355.2" class="st2" width="0.7" height="26.4"/>
											</g>
										</g>
										<g>
											<g>
												<rect x="380" y="355.2" class="st2" width="0.7" height="26.4"/>
											</g>
										</g>
										<g>
											<g>
												<rect x="320.2" y="355.2" class="st2" width="0.7" height="26.4"/>
											</g>
										</g>
										<g>
											<g>
												<rect x="260.4" y="355.2" class="st2" width="0.7" height="26.4"/>
											</g>
										</g>
										<g>
											<g>
												<rect x="200.6" y="355.2" class="st2" width="0.7" height="26.4"/>
											</g>
										</g>
										<g>
											<g>
												<rect x="140.9" y="355.2" class="st2" width="0.7" height="26.4"/>
											</g>
										</g>
										<g>
											<g>
												<rect x="81.1" y="355.2" class="st2" width="0.7" height="26.4"/>
											</g>
										</g>
										<g>
											<g>
												<rect x="21.3" y="355.2" class="st2" width="0.7" height="26.4"/>
											</g>
										</g>
									</g>
									<g>
										<g>
											<rect x="0.1" y="407.9" class="st2" width="489.5" height="0.9"/>
										</g>
									</g>
									<g>
										<g>
											<g>
												<rect x="423.8" y="381.9" class="st2" width="0.7" height="26.4"/>
											</g>
										</g>
										<g>
											<g>
												<rect x="364" y="381.9" class="st2" width="0.7" height="26.4"/>
											</g>
										</g>
										<g>
											<g>
												<rect x="304.2" y="381.9" class="st2" width="0.7" height="26.4"/>
											</g>
										</g>
										<g>
											<g>
												<rect x="244.4" y="381.9" class="st2" width="0.7" height="26.4"/>
											</g>
										</g>
										<g>
											<g>
												<rect x="184.7" y="381.9" class="st2" width="0.7" height="26.4"/>
											</g>
										</g>
										<g>
											<g>
												<rect x="124.9" y="381.9" class="st2" width="0.7" height="26.4"/>
											</g>
										</g>
										<g>
											<g>
												<rect x="65.1" y="381.9" class="st2" width="0.7" height="26.4"/>
											</g>
										</g>
									</g>
									<g>
										<g>
											<rect x="0.1" y="434.6" class="st2" width="489.5" height="0.9"/>
										</g>
									</g>
									<g>
										<g>
											<g>
												<rect x="439.8" y="408.7" class="st2" width="0.7" height="26.3"/>
											</g>
										</g>
										<g>
											<g>
												<rect x="380" y="408.7" class="st2" width="0.7" height="26.3"/>
											</g>
										</g>
										<g>
											<g>
												<rect x="320.2" y="408.7" class="st2" width="0.7" height="26.3"/>
											</g>
										</g>
										<g>
											<g>
												<rect x="260.4" y="408.7" class="st2" width="0.7" height="26.3"/>
											</g>
										</g>
										<g>
											<g>
												<rect x="200.6" y="408.7" class="st2" width="0.7" height="26.3"/>
											</g>
										</g>
										<g>
											<g>
												<rect x="140.9" y="408.7" class="st2" width="0.7" height="26.3"/>
											</g>
										</g>
										<g>
											<g>
												<rect x="81.1" y="408.7" class="st2" width="0.7" height="26.3"/>
											</g>
										</g>
										<g>
											<g>
												<rect x="21.3" y="408.7" class="st2" width="0.7" height="26.3"/>
											</g>
										</g>
									</g>
									<g>
										<g>
											<rect x="0.1" y="461.3" class="st2" width="489.5" height="0.9"/>
										</g>
									</g>
									<g>
										<g>
											<g>
												<rect x="423.8" y="435.4" class="st2" width="0.7" height="26.4"/>
											</g>
										</g>
										<g>
											<g>
												<rect x="364" y="435.4" class="st2" width="0.7" height="26.4"/>
											</g>
										</g>
										<g>
											<g>
												<rect x="304.2" y="435.4" class="st2" width="0.7" height="26.4"/>
											</g>
										</g>
										<g>
											<g>
												<rect x="244.4" y="435.4" class="st2" width="0.7" height="26.4"/>
											</g>
										</g>
										<g>
											<g>
												<rect x="184.7" y="435.4" class="st2" width="0.7" height="26.4"/>
											</g>
										</g>
										<g>
											<g>
												<rect x="124.9" y="435.4" class="st2" width="0.7" height="26.4"/>
											</g>
										</g>
										<g>
											<g>
												<rect x="65.1" y="435.4" class="st2" width="0.7" height="26.4"/>
											</g>
										</g>
									</g>
								</g>
							</g>
						</g>
						<g class="st3">
							
								<rect x="5.4" y="42.3" transform="matrix(-1 -1.224647e-16 1.224647e-16 -1 254.2786 332.2261)" class="st2" width="243.5" height="247.7"/>
						</g>
						<g>
							<g>
								<path class="st4" d="M-7.7,285.3c1.9,4.1,3.9,8.1,6.3,12H255V32.6c-3.4-0.4-6.8-0.9-10.2-1.4v89.7h-79.7V21.3
									c-4-0.4-7.9-0.5-11.7-0.1v99.7H82.6V59.8H71.1v61.2H17.2c-1.3,3-2.5,6.2-3.5,9.4h57.4V205H-2.4c0.1,3.1,0.2,6.3,0.5,9.4h73
									v70.9H-7.7z M165.1,214.4h79.7v70.9h-79.7V214.4z M165.1,130.4h79.7V205h-79.7V130.4z M153.4,205H82.6v-74.6h70.8V205z
									 M153.4,285.3H82.6v-70.9h70.8V285.3z"/>
							</g>
						</g>
					</g>
				</g>
				<path class="st4" d="M338.9,148.4c-15.5-11.6-24.6-22.2-28.3-27V48.6h-3.9v72.8c-3.7,4.7-12.9,15.3-28.3,27h22.5c0,0,0,0,0,0
					c0,4.2,3.4,7.6,7.6,7.6c4.2,0,7.6-3.4,7.6-7.6c0,0,0,0,0,0H338.9z"/>
			</g>
		</g>
	</g>
	<g>
		<rect x="38.8" y="438.4" class="st5" width="386.4" height="0.9"/>
	</g>
	<g>
		<g>
			<path class="st6" d="M139.9,222.1l5.9-19.2l-11.8-4.8c0.5-6-0.1-11.9-1.7-17.5l10.7-6.9l-9.4-17.7l-11.7,5
				c-3.8-4.4-8.4-8.3-13.6-11.2l2.7-12.4l-19.2-5.9l-4.8,11.8c-6-0.5-11.9,0.1-17.5,1.7l-6.9-10.7l-17.7,9.4l5,11.7
				c-4.4,3.8-8.3,8.4-11.2,13.6L26,166.3l-5.9,19.2l11.8,4.8c-0.5,6,0.1,11.9,1.7,17.5L23,214.7l9.4,17.7l11.7-5
				c3.8,4.4,8.4,8.3,13.6,11.2L55,251.1l19.2,5.9l4.8-11.8c6,0.5,11.9-0.1,17.5-1.7l6.9,10.7l17.7-9.4l-5-11.7
				c4.4-3.8,8.3-8.4,11.2-13.6L139.9,222.1z M72.3,228.9c-19.2-5.9-29.9-26.1-24.1-45.3c5.9-19.1,26.1-29.9,45.3-24.1
				c19.2,5.9,29.9,26.1,24.1,45.3C111.8,224,91.5,234.7,72.3,228.9z"/>
		</g>
		<g>
			<polygon class="st5" points="28,189.2 19.6,185.8 24,171.3 24.9,171.6 20.7,185.3 28.3,188.4 			"/>
		</g>
		<g>
			<path class="st5" d="M55.5,251.2l-0.9-0.2l2.6-12.1c-6-3-10.6-8.1-10.6-8.2l0.7-0.6c0,0.1,4.7,5.2,10.7,8.1l0.3,0.2L55.5,251.2z"
				/>
		</g>
		<g>
			<path class="st5" d="M103.4,224.7l-0.5-0.7c23.3-16.4,14-41.4,13.9-41.6l0.8-0.3C117.7,182.3,127.3,207.9,103.4,224.7z"/>
		</g>
		<g>
			<path class="st5" d="M133.6,190.3c-0.7-5.2-1.8-9.6-1.8-9.6l-0.1-0.3l3.9-2.5l0.5,0.7l-3.4,2.2c0.3,1.1,1.2,4.9,1.8,9.4
				L133.6,190.3z"/>
		</g>
		<g>
			<g>
				<path class="st5" d="M79.7,256.1l-20-6.1l2.7-12.5c-1.5-0.8-8.5-4.9-13.2-10.9l-11.8,5l-9.8-18.4l10.7-7
					c-0.5-1.6-2.3-8.7-1.6-17.1l-11.9-4.8l6.1-20l12.5,2.7c0.9-1.6,5.6-9.4,10.9-13.3l-5-11.7l18.4-9.8l6.9,10.7
					c1.5-0.5,7.9-2.5,17.1-1.6l4.8-11.9l20,6.1l-2.7,12.5c1.5,0.8,8.7,5,13.2,10.9l11.8-5l9.8,18.4l-10.7,6.9
					c0.5,1.6,2.5,8.5,1.6,17.1l11.9,4.8l-6.1,20l-12.5-2.7c-0.8,1.5-4.4,7.9-10.9,13.2l5,11.8l-18.4,9.8l-6.9-10.7
					c-1.6,0.6-8.3,2.7-17.1,1.6L79.7,256.1z M60.8,249.4l18.5,5.6l4.7-11.7l0.3,0c9.9,1.3,17.3-1.6,17.3-1.7l0.3-0.1l6.9,10.6
					l17-9.1l-5-11.6l0.3-0.2c7.4-5.9,11.1-13.4,11.1-13.5l0.1-0.3l12.4,2.6l5.6-18.5l-11.7-4.7l0-0.3c1-9.7-1.6-17.3-1.7-17.4
					L137,179l10.6-6.9l-9.1-17l-11.7,5l-0.2-0.3c-5-6.6-13.4-11.1-13.5-11.1l-0.3-0.2l2.6-12.4l-18.5-5.6l-4.7,11.7l-0.3,0
					c-10.3-1-17.3,1.6-17.3,1.7l-0.3,0.1l-6.9-10.6l-17,9l5,11.7l-0.3,0.2c-5.8,4-11,13.4-11.1,13.5l-0.2,0.3l-12.4-2.6l-5.6,18.5
					l11.7,4.7l0,0.3c-0.8,9.5,1.7,17.3,1.7,17.4l0.1,0.3l-10.6,6.9l9,17l11.6-5l0.2,0.3c5.2,6.7,13.4,11.1,13.5,11.1l0.3,0.2
					L60.8,249.4z"/>
			</g>
			<g>
				<path class="st5" d="M88.2,229.5c-20.3,0-36.7-16.5-36.7-36.7c0-20.3,16.5-36.7,36.7-36.7c20.3,0,36.7,16.5,36.7,36.7
					C124.9,213,108.4,229.5,88.2,229.5z M88.2,156.9c-19.8,0-35.8,16.1-35.8,35.8c0,19.8,16.1,35.8,35.8,35.8
					c19.8,0,35.8-16.1,35.8-35.8C124,173,107.9,156.9,88.2,156.9z"/>
			</g>
		</g>
	</g>
	<g>
		<g>
			<g>
				<path class="st7" d="M405.6,112.1v303.3c0,12.7-10.3,23.1-23.1,23.1h-60.7v0h-76.5c-1.2-0.1-2.3-0.2-3.4-0.5
					c-2.4-0.5-4.7-1.4-6.8-2.6c-1.2-0.7-2.3-1.5-3.4-2.4c-5-4.2-8.1-10.5-8.1-17.5V112.1c0-7,3.2-13.3,8.1-17.6
					c4-3.4,9.3-5.5,14.9-5.5h135.8C395.2,89,405.6,99.4,405.6,112.1z"/>
			</g>
			<g>
				<path class="st5" d="M394.4,112.1v303.3c0,12.7-10.4,23.1-23.1,23.1h-60.7v0h-76.5c-1.4-0.1-2.7-0.3-4-0.6
					c-10.1-2.4-17.7-11.6-17.7-22.4V112.1c0-12.7,10.4-23.1,23.1-23.1h135.8C384,89,394.4,99.4,394.4,112.1z"/>
			</g>
			<g>
				<path class="st2" d="M371.3,94.2H235.5c-9.9,0-17.9,8-17.9,17.9v303.3c0,9.9,8,17.9,17.9,17.9h135.8c9.9,0,17.9-8,17.9-17.9
					V112.1C389.2,102.2,381.2,94.2,371.3,94.2z"/>
			</g>
			<g>
				<path class="st5" d="M324.8,97.1h-42.3c-0.9,0-1.7,0.8-1.7,1.7c0,0.9,0.8,1.7,1.7,1.7h42.3c0.9,0,1.7-0.8,1.7-1.7
					C326.5,97.9,325.7,97.1,324.8,97.1z"/>
			</g>
			<g>
				<g>
					<g>
						
							<rect x="232.4" y="112.8" transform="matrix(0.7072 -0.7071 0.7071 0.7072 -10.8759 200.3016)" class="st5" width="8" height="1"/>
					</g>
				</g>
				<g>
					<g>
						
							<rect x="235.9" y="109.3" transform="matrix(0.7072 -0.707 0.707 0.7072 -10.878 200.2954)" class="st5" width="1" height="8"/>
					</g>
				</g>
			</g>
			<g>
				<g>
					<rect x="364.1" y="114.6" class="st5" width="9.1" height="1"/>
				</g>
			</g>
		</g>
		<g>
			<path class="st6" d="M288,239.7h-53.2c-1.7,0-3-1.3-3-3v-53.2c0-1.7,1.3-3,3-3H288c1.7,0,3,1.3,3,3v53.2
				C291,238.4,289.7,239.7,288,239.7z"/>
			<g>
				<g>
					<path class="st2" d="M273.2,201.6c0.1,6.8-5.1,12.3-11.5,12.3c-6.4,0-11.6-5.4-11.7-12.2c-0.1-6.8,5.1-12.3,11.5-12.3
						C268,189.4,273.2,194.8,273.2,201.6z"/>
				</g>
				<g>
					<path class="st2" d="M246.4,229.5c-0.1-9.1,6.9-9.7,15.5-9.7c8.6,0,15.5,0.5,15.6,9.6L246.4,229.5z"/>
				</g>
			</g>
		</g>
		<g>
			<path class="st8" d="M288,321.5h-53.2c-1.7,0-3-1.3-3-3v-53.2c0-1.7,1.3-3,3-3H288c1.7,0,3,1.3,3,3v53.2
				C291,320.1,289.7,321.5,288,321.5z"/>
			<g>
				<g>
					<path class="st2" d="M274.6,306l-5.2-10.8c-0.2-0.3-0.6-0.5-0.9-0.3l-3.4,1.6c-0.9,0.4-1.6,1-2.2,1.7c-1.4-1.9-2.8-4.1-4-6.5
						c-1-2.2-1.8-4.3-2.4-6.4c1,0,1.9-0.2,2.8-0.7l3.4-1.6c0.3-0.2,0.5-0.6,0.3-0.9l-5.2-10.8c-0.2-0.3-0.6-0.5-0.9-0.3l-3.4,1.6
						c-0.1,0.1-0.2,0.1-0.4,0.2c-0.1,0.1-0.3,0.1-0.4,0.2c-4.8,2.3-4.8,12-0.2,21.8c3,6.2,7.2,10.9,11.1,12.9
						c1.9,1.6,4.8,2.1,7.2,0.9l3.4-1.6C274.7,306.7,274.8,306.3,274.6,306z"/>
				</g>
			</g>
		</g>
		<g>
			<path class="st8" d="M370.9,239.7h-52.5c-1.8,0-3.3-1.5-3.3-3.3v-52.5c0-1.8,1.5-3.3,3.3-3.3h52.5c1.8,0,3.3,1.5,3.3,3.3v52.5
				C374.2,238.3,372.7,239.7,370.9,239.7z"/>
			<g>
				<path class="st2" d="M363.6,211.5c0.2-2,0-3.9-0.6-5.8l3.5-2.3l-3.1-5.9l-3.9,1.7c-1.3-1.5-2.8-2.7-4.5-3.7l0.9-4.1l-6.4-1.9
					l-1.6,3.9c-2-0.2-4,0-5.8,0.6l-2.3-3.5l-5.9,3.1l1.7,3.9c-1.5,1.3-2.7,2.8-3.7,4.5l-1.4-0.3l-2.7-0.6l-2,6.4l3.9,1.6
					c-0.1,1.4,0,2.7,0.2,4.1c0.1,0.6,0.2,1.2,0.4,1.8l-3.5,2.3l3.1,5.9l3.9-1.7c1.3,1.5,2.8,2.7,4.5,3.7l-0.9,4.1l6.4,1.9l1.6-3.9
					c2,0.2,4,0,5.8-0.6l2.3,3.5l5.9-3.1l-1.7-3.9c1.5-1.3,2.7-2.8,3.7-4.5l4.1,0.9l1.9-6.4L363.6,211.5z M358.2,213.7
					c-1.9,6.4-8.7,9.9-15,8c-6.4-1.9-9.9-8.7-8-15c1.9-6.3,8.7-9.9,15-8C356.6,200.6,360.2,207.3,358.2,213.7z"/>
			</g>
		</g>
		<g>
			<path class="st6" d="M370.9,321.5h-52.5c-1.8,0-3.3-1.5-3.3-3.3v-52.5c0-1.8,1.5-3.3,3.3-3.3h52.5c1.8,0,3.3,1.5,3.3,3.3v52.5
				C374.2,320,372.7,321.5,370.9,321.5z"/>
			<g>
				<path class="st2" d="M370.5,316.2l-18-35.7l-11.3,23.8l-8-12.6l-14.3,24.3c-0.5,0.9,0.1,2.1,1.2,2.1l49.2,0.1
					C370.3,318.2,371,317.1,370.5,316.2z"/>
			</g>
			<g>
				<path class="st2" d="M335.9,275.3c0,2.4,2,4.3,4.4,4.3c2.4,0,4.3-2,4.3-4.4c0-2.4-2-4.3-4.4-4.3
					C337.8,270.9,335.9,272.9,335.9,275.3z"/>
			</g>
		</g>
		<g>
			<path class="st6" d="M288,403.2h-53.2c-1.7,0-3-1.3-3-3v-53.2c0-1.7,1.3-3,3-3H288c1.7,0,3,1.3,3,3v53.2
				C291,401.9,289.7,403.2,288,403.2z"/>
			<path class="st2" d="M274.8,372.6l-21-13.5c-0.8-0.5-1.8,0.1-1.8,1v27c0,0.9,1,1.5,1.8,1l21-13.5
				C275.6,374.2,275.6,373.1,274.8,372.6z"/>
		</g>
		<g>
			<path class="st8" d="M370.9,403.2h-52.5c-1.8,0-3.3-1.5-3.3-3.3v-52.5c0-1.8,1.5-3.3,3.3-3.3h52.5c1.8,0,3.3,1.5,3.3,3.3v52.5
				C374.2,401.7,372.7,403.2,370.9,403.2z"/>
			<g>
				<path class="st2" d="M342.9,377.2l-19.1-16c-0.6-0.5-0.3-1.5,0.5-1.5c0,0,0,0,0,0H365c0,0,0,0,0,0c0.8,0,1.1,1,0.5,1.5
					L346.6,377C345.3,378.1,343.9,378.1,342.9,377.2z"/>
				<path class="st2" d="M336.7,374.8l-12,10.4c-0.5,0.5-1.4,0.1-1.4-0.6v-20.4c0-0.7,0.8-1.1,1.4-0.6l12,10.1
					C337.1,373.9,337.1,374.5,336.7,374.8z"/>
				<path class="st2" d="M365.3,387.3c0,0.1-0.2,0.2-0.4,0.2h-40.3c-0.2,0-0.3-0.1-0.4-0.2c0-0.1,0-0.3,0.2-0.4c0,0,0.1-0.1,0.2-0.2
					l13-11.2c0.4-0.4,1-0.4,1.5,0l3,2.5c0.7,0.6,1.6,0.9,2.5,0.9s1.8-0.3,2.5-0.9l3.1-2.6c0.4-0.4,1.1-0.3,1.5,0l13.2,11.3
					c0.1,0.1,0.1,0.1,0.2,0.2C365.2,387.1,365.3,387.2,365.3,387.3z"/>
				<path class="st2" d="M366,364.1v20.2c0,0.7-0.8,1.1-1.4,0.6l-11.9-10.3c-0.4-0.3-0.4-0.9,0-1.3l11.9-9.9
					C365.2,363,366,363.4,366,364.1z"/>
			</g>
		</g>
		<g>
			<path class="st6" d="M374.2,127.5l-0.1,40.3c0,0.1,0,0.1,0,0.2v0.1c-0.1,1.1-1.1,2-2.2,2H234.1c-1.2,0-2.2-1-2.2-2.2l0-22l0-18.3
				c0-1.2,1-2.2,2.2-2.2H372C373.2,125.3,374.2,126.3,374.2,127.5z"/>
			<path class="st8" d="M374.1,156l0,11.9v0.1c-0.1,1.1-1.1,2-2.2,2H234.1c-1.2,0-2.2-1-2.2-2.2l0-22l30.2-9.7l51.5,18l28.3-9.6
				L374.1,156z"/>
			<g>
				<path class="st2" d="M368.8,128.4h-31.7c-1.2,0-2.2,1-2.2,2.2c0,1.2,1,2.2,2.2,2.2h31.7c1.2,0,2.2-1,2.2-2.2
					C371,129.4,370,128.4,368.8,128.4z"/>
			</g>
			<g>
				<g>
					<path class="st9" d="M337.9,131.1c-0.2,0-0.3,0.2-0.3,0.3c0,0.2,0.2,0.4,0.3,0.4c0.2,0,0.4-0.2,0.4-0.4
						C338.3,131.2,338.1,131.1,337.9,131.1z"/>
				</g>
				<g>
					<path class="st9" d="M341.2,131.1c-0.2,0-0.3,0.2-0.3,0.3c0,0.2,0.2,0.4,0.3,0.4c0.2,0,0.4-0.2,0.4-0.4
						C341.6,131.2,341.4,131.1,341.2,131.1z"/>
				</g>
				<g>
					<path class="st9" d="M344.6,131.1c-0.2,0-0.3,0.2-0.3,0.3c0,0.2,0.1,0.4,0.3,0.4c0.2,0,0.4-0.2,0.4-0.4
						C344.9,131.2,344.8,131.1,344.6,131.1z"/>
				</g>
			</g>
			<g>
				<g>
					<path class="st9" d="M367.8,129.5c-0.4,0-0.8,0.4-0.8,0.8c0,0.5,0.4,0.8,0.8,0.8c0.2,0,0.3-0.1,0.5-0.2h0
						c0.1-0.1,0.2-0.1,0.2-0.2v0c0.1-0.1,0.1-0.3,0.1-0.4C368.6,129.8,368.2,129.5,367.8,129.5z M367.8,130.7
						c-0.3,0-0.5-0.2-0.5-0.5c0-0.3,0.2-0.5,0.5-0.5c0.3,0,0.5,0.2,0.5,0.5C368.3,130.5,368,130.7,367.8,130.7z"/>
				</g>
				<g>
					
						<rect x="368.5" y="130.5" transform="matrix(0.7082 -0.706 0.706 0.7082 15.0396 298.4828)" class="st9" width="0.3" height="1"/>
				</g>
			</g>
			<path class="st2" d="M325.8,138.7c0,2.9-2.4,5.3-5.3,5.3s-5.3-2.4-5.3-5.3c0-2.9,2.4-5.3,5.3-5.3
				C323.4,133.4,325.8,135.8,325.8,138.7z"/>
			<g>
				<g>
					<polygon class="st2" points="298.9,150.3 297.6,150.3 297.6,149 298.9,149 					"/>
				</g>
				<g>
					<polygon class="st2" points="248.6,150.3 247.3,150.3 247.3,149 248.6,149 					"/>
				</g>
				<g>
					<polygon class="st2" points="298.9,133 297.6,133 297.6,131.7 298.9,131.7 					"/>
				</g>
				<g>
					<polygon class="st2" points="273.8,133 272.5,133 272.5,131.7 273.8,131.7 					"/>
				</g>
				<g>
					<polygon class="st2" points="273.8,150.3 272.5,150.3 272.5,149 273.8,149 					"/>
				</g>
				<g>
					<polygon class="st2" points="248.6,141.5 247.3,141.5 247.3,140.2 248.6,140.2 					"/>
				</g>
				<g>
					<polygon class="st2" points="298.9,141.4 297.6,141.4 297.6,140.1 298.9,140.1 					"/>
				</g>
				<g>
					<polygon class="st2" points="248.6,133 247.3,133 247.3,131.7 248.6,131.7 					"/>
				</g>
				<g>
					<path class="st2" d="M262.2,136.2H262l-2.9,0v1.4h2.9v7.3h1.6v-7.3l2.5,0h0.3v-1.4L262.2,136.2z"/>
					<path class="st2" d="M273,141.5c0-0.7-0.2-1.3-0.4-1.7v0c-0.6-1-1.6-1.7-2.9-1.6c-0.4,0-0.8,0.1-1.2,0.2
						c-1.3,0.4-2.2,1.6-2.2,3.2c0,2,1.4,3.4,3.6,3.4c1.1,0,2.1-0.4,2.7-1.1l-0.8-1c-0.5,0.5-1.1,0.7-1.8,0.7c-1.2,0-2-0.6-2.1-1.6
						l5.2,0C273,141.9,273,141.7,273,141.5z M267.8,141c0.1-1,0.9-1.6,1.9-1.6c1,0,1.7,0.7,1.9,1.6H267.8z"/>
					<path class="st2" d="M277.8,141.6l-0.2-0.2l2.5-3.2h-1.7l-1.6,2.2l-1.6-2.2h-1.7l2,2.6l0,0l0.5,0.6l-2.6,3.4h1.7l1.7-2.3
						l1.7,2.3h1.7L277.8,141.6z"/>
					<path class="st2" d="M285.2,144.2l-0.4-0.9c-0.2,0.2-0.5,0.3-0.9,0.3c-0.6,0-0.9-0.3-0.9-1v-3.1l1.8,0v-1.2h-1.8v-1.5h-1.5v1.5
						h-1.1l0,1.2h1.1v3.2c0,0.1,0,0.2,0,0.3c0.1,1.3,0.9,1.9,2.2,1.9c0.6,0,1.1-0.1,1.5-0.4L285.2,144.2z"/>
				</g>
				<g>
					<g>
						<path class="st2" d="M298.5,149.9h-0.7c-0.1,0-0.2-0.1-0.2-0.2c0-0.1,0.1-0.2,0.2-0.2h0.2l0-0.2c0-0.1,0.1-0.2,0.2-0.2
							c0.1,0,0.2,0.1,0.2,0.2L298.5,149.9z"/>
					</g>
					<g>
						<path class="st2" d="M251.4,149.4h-1c-0.1,0-0.2,0.1-0.2,0.3c0,0.1,0.1,0.2,0.2,0.2h1c0.1,0,0.2-0.1,0.2-0.2
							C251.6,149.5,251.5,149.4,251.4,149.4z M254.4,149.4h-1c-0.1,0-0.2,0.1-0.2,0.3c0,0.1,0.1,0.2,0.2,0.2h1
							c0.1,0,0.2-0.1,0.2-0.2C254.6,149.5,254.5,149.4,254.4,149.4z M257.3,149.4h-1c-0.1,0-0.2,0.1-0.2,0.3c0,0.1,0.1,0.2,0.2,0.2
							h1c0.1,0,0.2-0.1,0.2-0.2C257.6,149.5,257.4,149.4,257.3,149.4z M260.3,149.4h-1c-0.1,0-0.3,0.1-0.3,0.3
							c0,0.1,0.1,0.2,0.3,0.2h1c0.1,0,0.3-0.1,0.3-0.2C260.5,149.5,260.4,149.4,260.3,149.4z M263.2,149.4h-1
							c-0.1,0-0.2,0.1-0.2,0.3c0,0.1,0.1,0.2,0.2,0.2h1c0.1,0,0.2-0.1,0.2-0.2C263.5,149.5,263.4,149.4,263.2,149.4z M266.2,149.4
							h-1c-0.1,0-0.2,0.1-0.2,0.3c0,0.1,0.1,0.2,0.2,0.2h1c0.1,0,0.2-0.1,0.2-0.2C266.4,149.5,266.3,149.4,266.2,149.4z
							 M269.2,149.4h-1c-0.1,0-0.2,0.1-0.2,0.3c0,0.1,0.1,0.2,0.2,0.2h1c0.1,0,0.3-0.1,0.3-0.2C269.4,149.5,269.3,149.4,269.2,149.4
							z M272.1,149.4h-1c-0.1,0-0.2,0.1-0.2,0.3c0,0.1,0.1,0.2,0.2,0.2h1c0.1,0,0.2-0.1,0.2-0.2
							C272.4,149.5,272.3,149.4,272.1,149.4z M275.1,149.4h-1c-0.1,0-0.3,0.1-0.3,0.3c0,0.1,0.1,0.2,0.3,0.2h1
							c0.1,0,0.2-0.1,0.2-0.2C275.3,149.5,275.2,149.4,275.1,149.4z M278.1,149.4h-1c-0.1,0-0.2,0.1-0.2,0.3c0,0.1,0.1,0.2,0.2,0.2
							h1c0.1,0,0.3-0.1,0.3-0.2C278.3,149.5,278.2,149.4,278.1,149.4z M281,149.4h-1c-0.1,0-0.2,0.1-0.2,0.3c0,0.1,0.1,0.2,0.2,0.2
							h1c0.1,0,0.2-0.1,0.2-0.2C281.3,149.5,281.1,149.4,281,149.4z M284,149.4h-1c-0.1,0-0.2,0.1-0.2,0.3c0,0.1,0.1,0.2,0.2,0.2h1
							c0.1,0,0.3-0.1,0.3-0.2C284.2,149.5,284.1,149.4,284,149.4z M286.9,149.4h-1c-0.1,0-0.2,0.1-0.2,0.3c0,0.1,0.1,0.2,0.2,0.2h1
							c0.1,0,0.2-0.1,0.3-0.2C287.2,149.5,287.1,149.4,286.9,149.4z M289.9,149.4h-1c-0.1,0-0.3,0.1-0.3,0.3c0,0.1,0.1,0.2,0.3,0.2
							h1c0.1,0,0.2-0.1,0.2-0.2C290.1,149.5,290,149.4,289.9,149.4z M292.9,149.4h-1c-0.1,0-0.3,0.1-0.3,0.3c0,0.1,0.1,0.2,0.3,0.2
							h1c0.1,0,0.2-0.1,0.2-0.2C293.1,149.5,293,149.4,292.9,149.4z M295.8,149.4h-1c-0.1,0-0.2,0.1-0.2,0.3c0,0.1,0.1,0.2,0.2,0.2
							h1c0.1,0,0.2-0.1,0.2-0.2C296.1,149.5,296,149.4,295.8,149.4z"/>
					</g>
					<g>
						<path class="st2" d="M248.4,149.9h-0.7l0-0.7c0-0.1,0.1-0.2,0.2-0.2c0.1,0,0.2,0.1,0.2,0.2v0.2h0.2c0.1,0,0.2,0.1,0.2,0.2
							C248.7,149.8,248.6,149.9,248.4,149.9z"/>
					</g>
					<g>
						<path class="st2" d="M248,134.6c-0.1,0-0.2,0.1-0.2,0.2v1c0,0.1,0.1,0.3,0.2,0.3c0.1,0,0.2-0.1,0.2-0.3v-1
							C248.2,134.7,248.1,134.6,248,134.6z M248,137.4c-0.1,0-0.3,0.1-0.3,0.2v1c0,0.1,0.1,0.2,0.2,0.2c0.1,0,0.2-0.1,0.2-0.2v-1
							C248.2,137.5,248.1,137.4,248,137.4z M248,140.3c-0.1,0-0.3,0.1-0.3,0.2v1c0,0,0,0,0,0c0,0.1,0.1,0.2,0.2,0.2
							c0.1,0,0.2-0.1,0.2-0.2v0c0,0,0,0,0,0v-1C248.2,140.4,248.1,140.3,248,140.3z M247.9,143.2c-0.1,0-0.2,0.1-0.2,0.2v1
							c0,0.1,0.1,0.3,0.2,0.3c0.1,0,0.2-0.1,0.2-0.3v-1C248.2,143.3,248.1,143.2,247.9,143.2z M247.9,146.1c-0.1,0-0.3,0.1-0.3,0.2
							v1c0,0.1,0.1,0.3,0.2,0.3s0.2-0.1,0.2-0.3v-1C248.2,146.2,248.1,146.1,247.9,146.1z"/>
					</g>
					<g>
						<path class="st2" d="M248,133.1c-0.1,0-0.2-0.1-0.2-0.2l0-0.7h0.7c0.1,0,0.2,0.1,0.2,0.2c0,0.1-0.1,0.2-0.2,0.2h-0.2l0,0.2
							C248.2,133,248.1,133.1,248,133.1z"/>
					</g>
					<g>
						<path class="st2" d="M251.4,132.1h-1c-0.1,0-0.3,0.1-0.3,0.2s0.1,0.2,0.3,0.2h1c0.1,0,0.2-0.1,0.2-0.2
							S251.6,132.1,251.4,132.1z M254.4,132.1h-1c-0.1,0-0.3,0.1-0.3,0.2s0.1,0.2,0.2,0.2h1c0.1,0,0.3-0.1,0.3-0.2
							S254.5,132.1,254.4,132.1z M257.4,132.1h-1c-0.1,0-0.2,0.1-0.2,0.2s0.1,0.2,0.2,0.2h1c0.1,0,0.2-0.1,0.2-0.2
							S257.5,132.1,257.4,132.1z M260.3,132.1h-1c-0.1,0-0.2,0.1-0.2,0.2s0.1,0.2,0.2,0.2h1c0.1,0,0.2-0.1,0.2-0.2
							S260.5,132.1,260.3,132.1z M263.3,132.1h-1c-0.1,0-0.2,0.1-0.2,0.2s0.1,0.2,0.2,0.2h1c0.1,0,0.2-0.1,0.3-0.2
							C263.5,132.3,263.4,132.1,263.3,132.1z M266.2,132.1h-1c-0.1,0-0.2,0.1-0.2,0.2c0,0.1,0.1,0.2,0.2,0.2h1
							c0.1,0,0.2-0.1,0.2-0.2S266.4,132.1,266.2,132.1z M269.2,132.1h-1c-0.1,0-0.3,0.1-0.3,0.2s0.1,0.2,0.3,0.2h1
							c0.1,0,0.2-0.1,0.2-0.2S269.3,132.1,269.2,132.1z M272.2,132.1h-1c-0.1,0-0.2,0.1-0.2,0.2s0.1,0.2,0.2,0.2h1
							c0.1,0,0.2-0.1,0.2-0.2S272.3,132.1,272.2,132.1z M275.1,132.1h-1c-0.1,0-0.2,0.1-0.2,0.2s0.1,0.2,0.2,0.2h1
							c0.1,0,0.2-0.1,0.2-0.2S275.3,132.1,275.1,132.1z M278.1,132.1h-1c-0.1,0-0.2,0.1-0.2,0.2s0.1,0.2,0.2,0.2h1
							c0.1,0,0.3-0.1,0.3-0.2S278.2,132.1,278.1,132.1z M281.1,132.1h-1c-0.1,0-0.2,0.1-0.2,0.2s0.1,0.2,0.2,0.2h1
							c0.1,0,0.2-0.1,0.2-0.2C281.3,132.3,281.2,132.1,281.1,132.1z M284,132.1h-1c-0.1,0-0.3,0.1-0.3,0.2s0.1,0.2,0.3,0.2h1
							c0.1,0,0.2-0.1,0.2-0.2S284.2,132.1,284,132.1z M287,132.1h-1c-0.1,0-0.2,0.1-0.2,0.2s0.1,0.2,0.2,0.2h1
							c0.1,0,0.2-0.1,0.2-0.2S287.1,132.1,287,132.1z M289.9,132.1h-1c-0.1,0-0.2,0.1-0.2,0.2s0.1,0.2,0.2,0.2h1
							c0.1,0,0.2-0.1,0.2-0.2S290.1,132.1,289.9,132.1z M292.9,132.1h-1c-0.1,0-0.2,0.1-0.2,0.2s0.1,0.2,0.2,0.2h1
							c0.1,0,0.3-0.1,0.3-0.2S293,132.1,292.9,132.1z M295.9,132.1h-1c-0.1,0-0.2,0.1-0.2,0.2s0.1,0.2,0.2,0.2h1
							c0.1,0,0.3-0.1,0.3-0.2S296,132.1,295.9,132.1z"/>
					</g>
					<g>
						<path class="st2" d="M298.3,133.1c-0.1,0-0.2-0.1-0.2-0.2v-0.2h-0.2c-0.1,0-0.2-0.1-0.2-0.2c0-0.1,0.1-0.2,0.2-0.2h0.7l0,0.7
							C298.6,133,298.5,133.1,298.3,133.1z"/>
					</g>
					<g>
						<path class="st2" d="M298.3,134.6c-0.1,0-0.2,0.1-0.2,0.2v1c0,0.1,0.1,0.3,0.2,0.3c0.1,0,0.2-0.1,0.2-0.3l0-1
							C298.6,134.7,298.5,134.6,298.3,134.6z M298.3,137.4c-0.1,0-0.2,0.1-0.2,0.2l0,1c0,0.1,0.1,0.2,0.3,0.2c0.1,0,0.2-0.1,0.2-0.2
							v-1C298.6,137.5,298.5,137.4,298.3,137.4z M298.3,140.3c-0.1,0-0.3,0.1-0.3,0.2v1c0,0.1,0.1,0.2,0.2,0.2
							c0.1,0,0.3-0.1,0.3-0.2v-1C298.6,140.4,298.5,140.3,298.3,140.3z M298.3,143.2c-0.1,0-0.2,0.1-0.2,0.2v1
							c0,0.1,0.1,0.3,0.2,0.3c0.1,0,0.2-0.1,0.2-0.3v-1C298.6,143.3,298.4,143.2,298.3,143.2z M298.3,146.1c-0.1,0-0.3,0.1-0.3,0.2
							v1c0,0.1,0.1,0.3,0.2,0.3c0.1,0,0.3-0.1,0.3-0.3v-1C298.6,146.2,298.4,146.1,298.3,146.1z"/>
					</g>
				</g>
			</g>
			<g>
				<polygon class="st2" points="266.1,151.3 266.8,155.2 267.4,154.1 267.9,154.8 268.6,154.4 268.1,153.6 269.4,153.5 				"/>
			</g>
		</g>
	</g>
	<path class="st10" d="M330.5,89v121c0,1-0.2,2-0.6,2.9c-0.3,0.7-0.6,1.3-1.1,1.8c-1.4,1.9-3.7,3.1-6.2,3.1h-96.2
		c1.7,1,3.5,2.2,5.4,3.6c7.1,4.9,15.4,11.5,23.2,18.3c5.9,5.2,11.4,10.5,15.5,15.2c2.1,2.3,3.5,4.8,4.2,7.4
		c1.9,5.9,0.5,11.9-3.1,15.9c0,0,0,0,0,0c-0.2,0.2-0.3,0.4-0.5,0.6c-0.1,0.1-0.1,0.1-0.2,0.2c-4.4,3.9-8.5,7.1-13.2,10
		c-1.9,1.2-3.9,2.4-6.1,3.6c-4.4,2.5-9.5,5.1-15.6,8.2c3.1-0.5,6.1-0.3,8.5-0.1c10,1,16,9.5,19.5,20.7c2.1,6.9,3.4,14.8,4,22.6
		c0.7,8.7,0.6,17.3,0.3,24.4c0,0.3,0,0.5,0,0.8c1,2.4,1.7,4.9,2.2,7.6c0,0.2,0.1,0.4,0.1,0.5v0c1,6.5,0.1,15.9-4.2,25.8
		c-0.7,1.6-1.5,3.2-2.4,4.9c-0.8,5.3-1.6,10.5-2.5,15.1c0,0.1,0,0.2-0.1,0.3c0,0-0.1,0-0.1,0c0.8,3.7,3.3,7,6.5,9.9
		c2.3,2,4.9,3.7,7.6,5.1h-33.6c0-0.1,0.1-0.2,0.1-0.4c0,0,0-0.1,0-0.1c0.2-0.7,0.4-1.4,0.5-2.1l0-0.3c0,0,0,0,0,0
		c0.1-0.7,0.3-1.5,0.4-2.2c0.1-1,0.2-1.9,0.3-2.9c-1.4,1-2.9,1.9-4.5,2.9c-1.2,0.7-2.4,1.4-3.6,2c-1.6,0.9-3.3,1.7-5,2.5
		c-10.1-2.4-17.7-11.6-17.7-22.4V112.1c0-12.7,10.4-23.1,23.1-23.1H330.5z"/>
	<g>
		<g>
			<path class="st2" d="M294.7,205.9H105.9c-4.5,0-8.2-3.7-8.2-8.2V56.5c0-3.1,2.5-5.7,5.7-5.7h194c3.1,0,5.7,2.5,5.7,5.7v141.2
				C303,202.2,299.3,205.9,294.7,205.9z"/>
		</g>
		<g>
			<g>
				<path class="st0" d="M297.7,50.9H103.1c-2.9,0-5.2,2.3-5.2,5.2v6.1H303v-6.1C303,53.2,300.6,50.9,297.7,50.9z"/>
				<path class="st5" d="M303.3,62.6H97.5v-6.5c0-3.1,2.5-5.6,5.6-5.6h194.7c3.1,0,5.6,2.5,5.6,5.6V62.6z M98.2,61.9h204.4v-5.8
					c0-2.7-2.2-4.9-4.9-4.9H103.1c-2.7,0-4.9,2.2-4.9,4.9V61.9z"/>
			</g>
			<g>
				<path class="st11" d="M284.2,55.6c-0.7,0-1.3,0.6-1.3,1.3c0,0.7,0.6,1.3,1.3,1.3c0.7,0,1.3-0.6,1.3-1.3
					C285.5,56.2,284.9,55.6,284.2,55.6z"/>
				<path class="st8" d="M289.5,55.6c-0.7,0-1.3,0.6-1.3,1.3c0,0.7,0.6,1.3,1.3,1.3c0.7,0,1.3-0.6,1.3-1.3
					C290.8,56.2,290.2,55.6,289.5,55.6z"/>
				<path class="st6" d="M294.8,55.6c-0.7,0-1.3,0.6-1.3,1.3c0,0.7,0.6,1.3,1.3,1.3c0.7,0,1.3-0.6,1.3-1.3
					C296.1,56.2,295.5,55.6,294.8,55.6z"/>
			</g>
		</g>
		<path class="st11" d="M163.4,205.6c0.1,0.1,0.2,0.2,0.3,0.3H273l0.1-0.3H163.4z M297.8,50.6h-195c-3,0-5.5,2.4-5.5,5.5v142.4
			c0,4.3,3.5,7.8,7.8,7.8h190.2c2.5,0,4.8-1.2,6.2-3.1c1-1.3,1.6-3,1.6-4.8V56C303.3,53,300.8,50.6,297.8,50.6z M302.6,198.4
			c0,1.7-0.6,3.2-1.6,4.4c-1.3,1.7-3.4,2.8-5.7,2.8H105.2c-4,0-7.2-3.2-7.2-7.2V56c0-2.7,2.2-4.9,4.9-4.9h195c2.7,0,4.9,2.2,4.9,4.9
			V198.4z"/>
		<g>
			<polygon class="st5" points="136.2,161 136.2,158.1 113.5,158.1 113.5,161 			"/>
			<polygon class="st5" points="152.3,152.2 152.3,149.2 113.1,149.2 113.2,152.2 			"/>
			<polygon class="st6" points="145.8,143.3 145.7,140.4 112.7,140.4 112.8,143.3 			"/>
			<polygon class="st5" points="142.2,161 142.1,158.1 137.7,158.1 137.7,161 			"/>
			<polygon class="st5" points="178.8,161 178.7,158.1 156,158.1 156.1,161 			"/>
			<polygon class="st5" points="194.9,152.2 194.8,149.2 155.7,149.2 155.8,152.2 			"/>
			<polygon class="st5" points="188.3,143.3 188.3,140.4 155.3,140.4 155.4,143.3 			"/>
			<polygon class="st5" points="184.8,161 184.7,158.1 180.2,158.1 180.3,161 			"/>
			<polygon class="st5" points="136,134.8 136,131.8 113.2,131.8 113.3,134.8 			"/>
			<polygon class="st5" points="152.1,125.9 152.1,123 112.9,123 113,125.9 			"/>
			<polygon class="st5" points="145.5,117.1 145.5,114.1 112.5,114.1 112.6,117.1 			"/>
			<polygon class="st5" points="142,134.8 141.9,131.8 137.5,131.8 137.5,134.8 			"/>
			<polygon class="st8" points="178.6,134.8 178.5,131.8 155.8,131.8 155.9,134.8 			"/>
			<polygon class="st5" points="194.7,125.9 194.6,123 155.5,123 155.6,125.9 			"/>
			<polygon class="st2" points="188.1,117.1 188,114.1 155.1,114.1 155.1,117.1 			"/>
			<polygon class="st5" points="184.6,134.8 184.5,131.8 180,131.8 180.1,134.8 			"/>
			<polygon class="st5" points="135.8,108.6 135.7,105.6 113,105.6 113.1,108.6 			"/>
			<polygon class="st5" points="151.9,99.7 151.8,96.8 112.7,96.8 112.8,99.7 			"/>
			<polygon class="st5" points="145.3,90.9 145.3,87.9 112.3,87.9 112.4,90.9 			"/>
			<polygon class="st5" points="141.8,108.6 141.7,105.6 137.3,105.6 137.3,108.6 			"/>
			<polygon class="st6" points="178.4,108.6 178.3,105.6 155.6,105.6 155.7,108.6 			"/>
			<polygon class="st5" points="194.5,99.7 194.4,96.8 155.3,96.8 155.3,99.7 			"/>
			<polygon class="st5" points="187.9,90.9 187.8,87.9 154.9,87.9 154.9,90.9 			"/>
			<polygon class="st6" points="184.3,108.6 184.3,105.6 179.8,105.6 179.9,108.6 			"/>
			<polygon class="st5" points="135.6,82.3 135.5,79.4 112.8,79.4 112.9,82.3 			"/>
			<polygon class="st5" points="141.6,82.3 141.5,79.4 137,79.4 137.1,82.3 			"/>
			<polygon class="st5" points="178.2,82.3 178.1,79.4 155.4,79.4 155.4,82.3 			"/>
			<polygon class="st5" points="184.1,82.3 184.1,79.4 179.6,79.4 179.7,82.3 			"/>
			<polygon class="st5" points="230.3,161 230.2,158.1 207.5,158.1 207.6,161 			"/>
			<polygon class="st5" points="246.4,152.2 246.3,149.2 207.2,149.2 207.3,152.2 			"/>
			<polygon class="st5" points="239.8,143.3 239.8,140.4 206.8,140.4 206.9,143.3 			"/>
			<polygon class="st5" points="236.3,161 236.2,158.1 231.7,158.1 231.8,161 			"/>
			<polygon class="st5" points="272.8,161 272.8,158.1 250.1,158.1 250.1,161 			"/>
			<polygon class="st5" points="288.9,152.2 288.9,149.2 249.8,149.2 249.8,152.2 			"/>
			<polygon class="st5" points="282.4,143.3 282.3,140.4 249.3,140.4 249.4,143.3 			"/>
			<polygon class="st5" points="278.8,161 278.8,158.1 274.3,158.1 274.3,161 			"/>
			<polygon class="st5" points="230.1,134.8 230,131.8 207.3,131.8 207.4,134.8 			"/>
			<polygon class="st5" points="246.2,125.9 246.1,123 207,123 207.1,125.9 			"/>
			<polygon class="st5" points="239.6,117.1 239.5,114.1 206.6,114.1 206.6,117.1 			"/>
			<polygon class="st5" points="236,134.8 236,131.8 231.5,131.8 231.6,134.8 			"/>
			<polygon class="st5" points="272.6,134.8 272.6,131.8 249.9,131.8 249.9,134.8 			"/>
			<polygon class="st8" points="288.7,125.9 288.7,123 249.5,123 249.6,125.9 			"/>
			<polygon class="st2" points="282.2,117.1 282.1,114.1 249.1,114.1 249.2,117.1 			"/>
			<polygon class="st5" points="278.6,134.8 278.5,131.8 274.1,131.8 274.1,134.8 			"/>
			<polygon class="st5" points="229.9,108.6 229.8,105.6 207.1,105.6 207.2,108.6 			"/>
			<polygon class="st5" points="246,99.7 245.9,96.8 206.8,96.8 206.8,99.7 			"/>
			<polygon class="st5" points="239.4,90.9 239.3,87.9 206.4,87.9 206.4,90.9 			"/>
			<polygon class="st5" points="235.8,108.6 235.8,105.6 231.3,105.6 231.4,108.6 			"/>
			<polygon class="st5" points="272.4,108.6 272.4,105.6 249.6,105.6 249.7,108.6 			"/>
			<polygon class="st5" points="288.5,99.7 288.5,96.8 249.3,96.8 249.4,99.7 			"/>
			<polygon class="st5" points="281.9,90.9 281.9,87.9 248.9,87.9 249,90.9 			"/>
			<polygon class="st5" points="278.4,108.6 278.3,105.6 273.9,105.6 273.9,108.6 			"/>
			<polygon class="st5" points="239.8,195.9 239.8,193 206.8,193 206.9,195.9 			"/>
			<polygon class="st5" points="282.4,195.9 282.3,193 249.3,193 249.4,195.9 			"/>
			<polygon class="st5" points="230.1,187.4 230,184.4 207.3,184.4 207.4,187.4 			"/>
			<polygon class="st5" points="246.2,178.5 246.1,175.6 207,175.6 207.1,178.5 			"/>
			<polygon class="st6" points="239.6,169.7 239.5,166.7 206.6,166.7 206.6,169.7 			"/>
			<polygon class="st5" points="236,187.4 236,184.4 231.5,184.4 231.6,187.4 			"/>
			<polygon class="st5" points="272.6,187.4 272.6,184.4 249.9,184.4 249.9,187.4 			"/>
			<polygon class="st8" points="288.7,178.5 288.7,175.6 249.5,175.6 249.6,178.5 			"/>
			<polygon class="st2" points="282.2,169.7 282.1,166.7 249.1,166.7 249.2,169.7 			"/>
			<polygon class="st5" points="278.6,187.4 278.5,184.4 274.1,184.4 274.1,187.4 			"/>
			<polygon class="st5" points="229.7,82.3 229.6,79.4 206.9,79.4 206.9,82.3 			"/>
			<polygon class="st5" points="235.6,82.3 235.6,79.4 231.1,79.4 231.2,82.3 			"/>
			<polygon class="st5" points="272.2,82.3 272.1,79.4 249.4,79.4 249.5,82.3 			"/>
			<polygon class="st5" points="278.2,82.3 278.1,79.4 273.7,79.4 273.7,82.3 			"/>
		</g>
	</g>
	<path class="st10" d="M211.1,195.9c-1.1-1.2-2.6-2-4.3-2.6c-5.2-2.1-11.3-2.7-8-10.2c5.6-12.5-1.3-11.2-10.4-22.4
		c-9.5-11.7-17.4-7.3-23.3-2.6c-1.3,1-2.5,2.1-3.6,2.9c-1.9,1.5-3.5,2.6-4.7,2.4c-5.2-1.1-16.6,4.3-16.6,15.7
		c0,10.4,7.9,14.7-0.7,21.8c-2.3,1.9-3.9,3.4-5,4.8c-0.1,0.1-0.2,0.2-0.3,0.3c-0.1,0.1-0.2,0.2-0.2,0.3h77.9c0-0.1,0.1-0.2,0.1-0.3
		s0.1-0.2,0.1-0.3c0.3-1.2,0.6-2.5,0.7-4C213,199,212.3,197.2,211.1,195.9z"/>
	<g>
		<g>
			<g>
				<path class="st8" d="M88.8,259.5c16.8-23.4,35.4-11.3,40.1-4.7c43.2,60.5,107.9,72.7,114.3,110.5c3.5,20.4-11.4,71.6-100.7,72.4
					c-93.2,0.8-114.9-61.8-93.7-101.7C70.1,295.9,72.1,282.9,88.8,259.5z"/>
			</g>
		</g>
		<g>
			<path class="st12" d="M96.8,302.9c4.1-36.6,24.5-31.9,53.7-6.5c29.2,25.4,38,37.8,57.2,38.8c19.2,1,19.4,13.8,15.9,17
				c-19.1,17.8-71,20.8-104.8,14.6c-17.5-3.2-34.2-25.9-47.5-24.3C71.4,342.6,93.5,332.5,96.8,302.9z"/>
		</g>
		<g>
			<g>
				<path class="st13" d="M133.2,435.7c15.4,0,26-11.9,30.9-23c6.2-14.2,4.5-28.7-4.2-36.8c-7.5-7-17-8.1-26.2-9.2
					c-14.1-1.7-27.5-3.3-34.9-23.9c-12.5-34.3,7.4-91.1,7.6-91.7l-0.8-0.2c-0.2,0.6-20.1,57.6-7.6,92.2
					c7.7,21.1,21.9,22.8,35.6,24.4c9.1,1.1,18.4,2.2,25.7,9c8.5,7.9,10.1,22,4,36c-4.7,10.9-15.1,22.6-30.1,22.6V435.7z"/>
			</g>
		</g>
		<g>
			<g>
				<path class="st13" d="M207.9,421.5c14.8-5.1,21.3-23.5,21-38.4c-0.3-12.9-5.4-28.3-19.2-32.4c-9.5-2.9-16.7-3-23-3.1
					c-11.5-0.2-21.4-0.3-40.4-16.3c-29.2-24.6-29.5-78.8-29.5-79.4l-0.8,0c0,0.5,0.3,55.1,29.7,80c19.2,16.1,29.3,16.3,40.9,16.5
					c6.6,0.1,13.4,0.2,22.8,3c13.3,4,18.4,19,18.6,31.7c0.3,14.7-6,32.7-20.5,37.7L207.9,421.5z"/>
			</g>
		</g>
		<g>
			<path class="st13" d="M120.2,433.8c-4-0.4-7.9-1.2-11.7-2.2c-3.9-1-7.6-2.1-11.3-3.5c-7.4-2.7-14.5-6.3-20.8-10.9
				c-6.3-4.6-11.7-10.2-15.8-16.6c-4.1-6.4-6.6-13.6-7.9-21c-0.1-0.9-0.3-1.8-0.4-2.8l-0.3-2.8c-0.1-1.9-0.3-3.7-0.2-5.6
				c-0.1-1.9,0.1-3.7,0.1-5.6c0.2-1.9,0.3-3.7,0.5-5.6c0.4-3.7,1.1-7.4,1.9-11.1c0.9-3.7,1.8-7.3,3-10.9c2.3-7.2,5-14.2,8.2-21.1
				c3.1-6.9,6.6-13.7,10.3-20.3c-3.8,6.6-7.4,13.3-10.7,20.2c-3.2,6.9-6.1,13.9-8.4,21.1c-2.4,7.2-4.1,14.6-5,22.1
				c-0.3,1.9-0.4,3.8-0.5,5.6c-0.1,1.9-0.2,3.8-0.1,5.7c0,1.9,0.1,3.8,0.2,5.7l0.3,2.8c0.1,0.9,0.3,1.9,0.4,2.8
				c1.3,7.5,3.9,14.7,8.1,21.2c4.1,6.5,9.6,12.2,16,16.7c6.4,4.6,13.5,8.1,21,10.8c3.7,1.3,7.6,2.4,11.4,3.3
				C112.3,432.7,116.2,433.4,120.2,433.8z"/>
		</g>
	</g>
	<g>
		<path class="st11" d="M207.6,303.6c0,0-22.9,4.3-48.8,4.6c-25.9-0.3-48.4-4.6-48.4-4.6c-38.3,39.2,35.2,52.2,48.6,52.2
			C171.7,355.8,245.1,342.7,207.6,303.6z"/>
		<g>
			<path class="st6" d="M60,310.1c1.5-7.3,5.1-21,28.7-16.3c23.6,4.7,52.9,28.7,67.3,38.5c14.4,9.9,19,13.7,28.3,14.1
				c9.3,0.4,10.1-7.4,17.1-7.1c7,0.3,6.8,6.7,8.8,9.6c4.2,5.8,7,4.7,13.2,9.7c5,4,9.1-2.5,15.7,3c0,0-7.5,4.1-11.9,5.2
				c-4.4,1.1-33.2-2.4-47.3-3.1c-14.1-0.7-40.2-5.7-53.3-8.4C106.7,351.2,54.5,335.9,60,310.1z"/>
			<g>
				<g>
					<path class="st2" d="M223.5,358.6c-6.2-5-9.1-3.9-13.2-9.7c-2.1-2.9-1.8-9.3-8.8-9.6c-7-0.3-7.8,7.5-17.1,7.1
						c-2.8-0.1-5.2-0.6-7.5-1.4c0,2.4-0.3,4.7-0.9,7.1c-0.8,3-2.5,8.7-4.2,11.2c3.1,0.2,5.9,0.4,8.3,0.5c14.1,0.7,42.9,4.2,47.3,3.1
						c4.4-1.1,11.9-5.2,11.9-5.2C232.7,356.1,228.5,362.6,223.5,358.6z"/>
					<path class="st5" d="M224.4,367.3c-4.9,0-14.1-0.8-23.8-1.7c-7.4-0.7-15.1-1.3-20.5-1.6c-2.4-0.1-5.2-0.3-8.3-0.5l-0.4,0
						l0.2-0.4c1.5-2.2,3.1-7.2,4.2-11.2c0.6-2.4,0.9-4.6,0.9-7l0-0.4l0.3,0.1c2.4,0.8,4.8,1.3,7.5,1.4c4.9,0.2,7.3-1.8,9.7-3.8
						c2.1-1.8,4-3.4,7.4-3.2c5.3,0.3,6.6,3.9,7.7,6.8c0.4,1.1,0.8,2.2,1.4,2.9c2.4,3.3,4.4,4.3,6.8,5.6c1.8,0.9,3.8,1.9,6.3,4
						c2.2,1.8,4.2,1.4,6.5,1c2.6-0.5,5.6-1,9.3,2l0.3,0.2l-0.3,0.2c-0.1,0-7.6,4.2-12,5.2C226.8,367.2,225.7,367.3,224.4,367.3z
						 M172.1,363c2.9,0.2,5.6,0.3,7.9,0.5c5.4,0.3,13.1,0.9,20.6,1.6c11.8,1.1,24,2.1,26.7,1.5c3.8-0.9,10-4.2,11.6-5
						c-3.3-2.6-6-2.1-8.6-1.7c-2.3,0.4-4.5,0.8-6.9-1.1l0,0c-2.5-2-4.5-3-6.3-3.9c-2.5-1.3-4.5-2.3-7-5.8c-0.6-0.8-1-1.9-1.4-3.1
						c-1.1-2.9-2.3-6.2-7.2-6.4c-3.2-0.2-5.1,1.4-7.1,3.1c-2.3,2-5,4.2-10.1,3.9c-2.6-0.1-4.9-0.5-7.3-1.3c0,2.3-0.3,4.5-0.9,6.8
						C175.6,353.9,173.9,360,172.1,363z"/>
				</g>
				<path class="st5" d="M224.4,367.3c-4.9,0-14.1-0.8-23.8-1.7c-7.4-0.7-15.1-1.3-20.5-1.6c-2.4-0.1-5.2-0.3-8.3-0.5l-0.4,0
					l0.2-0.3c1.9-2.8,3.7-9.2,4.2-11.2c0.6-2.4,0.9-4.7,0.9-7l0-0.3l0.3,0.1c2.4,0.8,4.8,1.3,7.5,1.4c4.9,0.2,7.4-1.8,9.7-3.8
					c2.1-1.7,4.1-3.4,7.4-3.2c5.2,0.3,6.6,3.9,7.7,6.8c0.4,1.1,0.8,2.2,1.4,2.9c2.4,3.3,4.4,4.3,6.8,5.6c1.8,0.9,3.8,1.9,6.3,4
					c2.2,1.8,4.2,1.4,6.5,1c2.6-0.5,5.6-1,9.3,2l0.3,0.2l-0.3,0.2c-0.1,0-7.6,4.2-12,5.2C226.8,367.2,225.7,367.3,224.4,367.3z
					 M172.1,363c3,0.2,5.6,0.3,7.9,0.5c5.4,0.3,13.1,0.9,20.6,1.6c11.8,1.1,24,2.1,26.7,1.5c3.8-0.9,10.1-4.2,11.6-5
					c-3.3-2.6-6-2.2-8.6-1.7c-2.3,0.4-4.5,0.8-6.9-1.1l0,0c-2.5-2-4.5-3.1-6.3-3.9c-2.5-1.3-4.5-2.3-7-5.8c-0.6-0.8-1-1.9-1.4-3.1
					c-1.1-2.9-2.3-6.2-7.2-6.4c-3.2-0.2-5.1,1.4-7.1,3.1c-2.3,2-5,4.2-10.1,3.9c-2.6-0.1-4.9-0.6-7.3-1.3c0,2.3-0.3,4.5-0.9,6.8
					C175.6,353.9,173.9,360.1,172.1,363z"/>
			</g>
		</g>
		<g>
			<path class="st5" d="M176.2,345.3c-0.2,0-18.8-4.7-27.7-12.5c-14.9-13.2-36.1-30.1-52.5-35.7l0.2-0.6
				c16.5,5.7,37.8,22.6,52.7,35.8c8.8,7.8,27.2,12.3,27.4,12.4L176.2,345.3z"/>
		</g>
		<g>
			<g>
				<g>
					<path class="st2" d="M233.8,410.5h-17.9c0,0,0.8,9.1-1.3,15.9c-2.1,6.8-2.5,12.8,2,12.8c4.5,0,23,0.4,31.6,0.8
						c8.6,0.4,29.3,0,29.3,0s-3.9-9.1-14.7-9.1C253.6,431,235.1,422.4,233.8,410.5z"/>
					<path class="st5" d="M259.6,440.5c-4.3,0-8.6,0-11.4-0.2c-8.6-0.4-27-0.8-31.6-0.8c-1.2,0-2.2-0.4-2.8-1.3
						c-1.8-2.4-0.7-7.8,0.6-11.9c2.1-6.6,1.3-15.7,1.3-15.8l0-0.3H234l0,0.2c1.3,11.7,19.7,20.3,28.7,20.3c10.9,0,14.9,9.1,14.9,9.2
						l0.1,0.3l-0.4,0C277.3,440.3,268.2,440.5,259.6,440.5z M216.2,410.8c0.1,1.6,0.6,9.6-1.3,15.7c-1.7,5.6-2,9.6-0.7,11.4
						c0.5,0.7,1.3,1.1,2.4,1.1c4.5,0,23,0.4,31.6,0.8c7.8,0.4,26,0.1,28.9,0c-0.8-1.6-5-8.6-14.3-8.6c-9.2,0-27.7-8.6-29.2-20.5
						H216.2z"/>
				</g>
				<g>
					<path class="st5" d="M227.3,437.2h-0.7c0-11.3-10.9-12.5-11.4-12.5l0.1-0.7C215.3,423.9,227.3,425.2,227.3,437.2z"/>
				</g>
				<g>
					<path class="st5" d="M225.1,429.9l-0.6-0.4c0.1-0.1,1.5-9.9,13.8-10l0,0.7C226.4,420.4,225.1,429.8,225.1,429.9z"/>
				</g>
				<g>
					<path class="st5" d="M227,433.4l-0.6-0.4c0.1-0.1,1.9-10.6,14.7-10.7l0,0.7C228.6,423.2,227,433.3,227,433.4z"/>
				</g>
				<g>
					<path class="st5" d="M257,436.8h-0.7c0-6,5.4-6.6,5.5-6.6l0.1,0.7C261.6,431,257,431.5,257,436.8z"/>
				</g>
				<g>
					<path class="st8" d="M213.1,436.3c0.4,2.3,1.8,3,3.5,3c4.5,0,23,0.4,31.6,0.8c8.6,0.4,29.3,0,29.3,0s-0.6-1.4-2-3.1
						L213.1,436.3z"/>
				</g>
			</g>
			<path class="st6" d="M240.4,366.5c-1.1,11-3.4,30.8-6.2,45.1c0,0.1,0,0.2-0.1,0.3c-3,0.8-8.8,0.7-11.7,0.6
				c-2.4-0.1-4.7-0.5-7-1.2c0-0.1,0-0.2,0-0.3c-0.2-5.7-2.3-11.9-5.8-23.4c-5.1-16.7-19.1-51.8-16.5-75.8
				c2.7-23.9,16.8-23.2,24.3-22.5C243.6,291.8,242.5,346.2,240.4,366.5z"/>
			<g>
				<path class="st5" d="M222.4,412.1c-2.4-0.1-4.7-0.5-6.9-1.2l0,0c0,0.1,0,0.2,0,0.3c2.2,0.7,4.5,1.1,7,1.2
					c3,0.2,8.7,0.3,11.7-0.6c0-0.1,0-0.2,0.1-0.3C231.6,412.3,226.4,412.3,222.4,412.1z"/>
			</g>
		</g>
		<g>
			<path class="st2" d="M186.4,270.6c0,0,4.5,27.3,13.2,38.1l-85.9,0.9c0,0,11.8-23.9,12.2-37.7L186.4,270.6z"/>
			<g>
				<g>
					<path class="st2" d="M196.4,204.6c12.1,6.6,35,25.3,47,38.8c12,13.5,1.2,33.2-15.8,26.3c-17-6.9-48.7-28.3-53.5-33.7
						C164.5,225.3,177.8,194.4,196.4,204.6z"/>
					<path class="st5" d="M234.3,271.4c-2.1,0-4.4-0.4-6.9-1.4c-17.2-7-48.8-28.4-53.6-33.8c-5.6-6.4-3.1-19.6,3-27.1
						c5.5-6.8,12.7-8.5,19.8-4.6c12.6,7,35.5,25.8,47,38.8c6.9,7.7,6,17,2.2,22.3C243.5,268.7,239.5,271.4,234.3,271.4z M189,202.8
						c-4.3,0-8.5,2.2-11.9,6.5c-5.9,7.4-8.5,20.3-3,26.5c4.8,5.4,36.3,26.7,53.4,33.7c8.4,3.4,14.7,0,17.8-4.3
						c3.6-5.1,4.5-14.1-2.2-21.6c-11.5-13-34.3-31.8-46.9-38.7C193.8,203.5,191.4,202.8,189,202.8z"/>
				</g>
			</g>
			<path class="st2" d="M152.3,304.8c-0.6-1.1,2.9-3.9,2.8-10.2c-0.1-6.3,2.6-4.2,6.8-7.8c4.2-3.6,4.7-5.1,10.3-3.1
				c5.7,2,7.2,1.6,9.5-0.3c2.3-1.9,23.1-20.2,31.8-29.6c8.7-9.5,34.6,5,17.5,19.8l-55.5,24.6c0,0-5,1.4-7.8-2
				c-2.8-3.5-6.5,0.6-6.6,2.9c-0.1,2.3,1.9,4.4-0.1,5.2c-2,0.8-3.4-2.2-3.4-2.2S153.3,306.7,152.3,304.8z"/>
			<g>
				<path class="st2" d="M243.7,267.4c-11.4,10.2-21.1,14.9-42.6,25.8c0,0-9.9-11.3-11.8-19.7c0,0,24-24.6,32.9-31.7
					C231.1,234.8,252.5,259.6,243.7,267.4z"/>
				<path class="st5" d="M201.1,293.5l-0.1-0.1c-0.1-0.1-10-11.4-11.8-19.8l0-0.1l0.1-0.1c0.2-0.2,24.1-24.7,32.9-31.7
					c4.8-3.8,12.6,1.2,17.8,7.4c5.1,6.1,8.6,14.5,4,18.6c-10.9,9.8-20,14.4-40,24.5L201.1,293.5z M189.6,273.6
					c1.8,7.7,10.4,17.9,11.6,19.3l2.5-1.3c19.9-10.1,29-14.6,39.9-24.4l0,0c4.3-3.9,0.9-12-4.1-17.8c-5.2-6.2-12.8-10.7-17.1-7.3
					C213.9,248.7,191.3,271.9,189.6,273.6z"/>
			</g>
			<path class="st2" d="M246,264.2c0,0-1.4,2.2-2.4,3s-15.4,0-15.4,0l-13.3-18.4l-0.4-0.5l4-10.9l8.9-1.4l11.8,8.2l8.3,12.3
				l-0.7,5.1L246,264.2z"/>
			<path class="st5" d="M172.7,155.4c9.1,11.2,16,10,10.4,22.4c-5.6,12.4,15.1,6,13.9,18.6c-1.1,12.6-10.9,11.7-2,22.2
				c8.9,10.5-9.9,29.6-9.9,29.6H129c0,0-20.2-9.5-14.6-25.4c5.6-15.9-4.1-16.1,9.3-27.2c8.6-7.1,0.7-11.4,0.7-21.8
				c0-11.5,11.4-16.8,16.6-15.7C146.3,159.3,157.6,136.8,172.7,155.4z"/>
			<g>
				<g>
					<path class="st2" d="M117.1,204.6c-12.1,6.6-35,25.3-47,38.8c-12,13.5-1.2,33.2,15.8,26.3c17-6.9,48.7-28.3,53.5-33.7
						C149,225.3,135.7,194.4,117.1,204.6z"/>
					<path class="st5" d="M79.2,271.4c-5.3,0-9.2-2.7-11.5-5.9c-3.7-5.3-4.6-14.5,2.2-22.3c11.5-13,34.4-31.9,47-38.8
						c7.1-3.9,14.3-2.2,19.8,4.6c6.1,7.6,8.6,20.8,3,27.1c-4.8,5.5-36.4,26.8-53.6,33.8C83.6,270.9,81.3,271.4,79.2,271.4z
						 M117.1,204.6l0.1,0.2c-12.6,6.9-35.4,25.8-46.9,38.7c-6.7,7.5-5.8,16.5-2.2,21.6c3.1,4.3,9.3,7.7,17.8,4.3
						c17.2-7,48.6-28.3,53.4-33.7c5.5-6.2,2.9-19.1-3-26.5c-5.3-6.6-12.3-8.3-19.1-4.5L117.1,204.6z"/>
				</g>
			</g>
			<g>
				<path class="st2" d="M198.9,252.7c1.7-5,1-19.3,0-26.2c-0.8-7.9,0.3-20.5-7.8-24.2c-3.1-1.5-62.5-0.1-67.2,0
					c-3.8,0.1-6.2,3.1-8.1,8.9c-2.1,11-2.7,21.5-4.5,32.5c-1,5.9-0.1,10.6,3.5,19.2c5.2,14.7-7.5,37.7-7.5,37.7s52.8,20.9,98-0.4
					C205.3,300.2,192.1,272.7,198.9,252.7z"/>
				<path class="st5" d="M159.1,310c-7.3,0-14-0.6-19.8-1.4c-18.7-2.5-32-7.8-32.1-7.8l-0.3-0.1l0.1-0.3c0.1-0.2,12.6-23.1,7.4-37.5
					c-3.7-8.8-4.5-13.5-3.5-19.3c0.8-4.8,1.4-9.7,1.9-14.3c0.7-5.9,1.4-12,2.6-18.2c2.1-6.3,4.6-9,8.3-9.1l0.1,0
					c15-0.3,64.3-1.3,67.3,0c6.8,3.1,7.3,12.4,7.7,19.9c0.1,1.6,0.2,3.2,0.3,4.6c0.9,6.6,1.7,21.1,0,26.3l0,0
					c-6.7,19.7,6.3,47,6.4,47.3l0.1,0.2l-0.2,0.1C189.9,307.8,173.4,310,159.1,310z M107.7,300.5c2,0.7,14.6,5.4,31.7,7.7
					c17.1,2.3,42.3,2.8,65.6-8.1c-1.3-2.7-12.8-28.6-6.3-47.4l0,0c1.7-5.1,0.9-19.4,0-26c-0.1-1.4-0.2-3-0.3-4.6
					c-0.4-7.3-0.8-16.4-7.4-19.4c-2.3-1-37.5-0.6-67.1,0l-0.1,0c-3.5,0.1-5.8,2.7-7.9,8.7c-1.2,6.1-1.9,12.2-2.6,18.1
					c-0.6,4.7-1.1,9.5-1.9,14.3c-1,5.7-0.1,10.3,3.5,19.1C119.9,276.6,109,297.9,107.7,300.5z"/>
			</g>
			<g>
				<path class="st11" d="M110.9,293.8l-0.7-0.3c3-7.2,7.6-20.8,4.2-30.4c-3.7-8.8-4.6-13.6-3.5-19.4c0.8-4.8,1.4-9.7,1.9-14.3
					c0.5-4.6,1.1-9.4,1.9-14.1l0.7,0.1c-0.8,4.7-1.3,9.5-1.9,14.1c-0.6,4.7-1.1,9.5-1.9,14.3c-1,5.7-0.1,10.3,3.5,19
					C118.5,272.2,114.7,284.8,110.9,293.8z"/>
			</g>
			<g>
				<path class="st11" d="M199.4,284.7c-2.4-8.8-4.4-21.5-0.8-32.1c1.6-4.7,1.1-18,0.1-25.5l0.7-0.1c1,7.5,1.5,21-0.1,25.8
					c-3.5,10.4-1.5,23,0.8,31.6L199.4,284.7z"/>
			</g>
			<g>
				<path class="st2" d="M163.6,188.9v12.8c6.1,15.8-7.5,35.6-7.5,35.6s-12.8-21.3-7-35.6v-18.4C149.1,183.3,154.6,186,163.6,188.9z
					"/>
				<path class="st5" d="M156,237.8l-0.2-0.3c-0.1-0.2-12.8-21.6-7-35.8v-18.8l0.4,0.2c0.1,0,5.6,2.7,14.5,5.6l0.2,0.1v13
					c6.1,15.8-7.5,35.6-7.6,35.8L156,237.8z M149.3,183.7l0,18.1c-5.3,13,5.2,32.2,6.8,35.1c1.7-2.7,12.9-20.6,7.3-35l0-0.1v-12.6
					C155.8,186.6,150.7,184.3,149.3,183.7z"/>
			</g>
			<path class="st11" d="M160.9,196.2c0.9-0.9,1.9-4.5,2.9-4.9v-3.1c-9.3-3-15-5.6-15-5.6v10.4c0.7,0.6,1.9,3.7,3.4,4.8
				C154.7,199.7,157.9,199.1,160.9,196.2z"/>
			<g>
				<path class="st2" d="M167,176.9c-0.5-3.8-0.7-6.4-6.7-8.4c-6.5-2.2-12.2,0.6-14.3,7.1c-0.8,2.2,0.6,12.2,1.5,15.4
					c0.6,2.2,7.3,5.9,7.3,5.9c0.4,0.5,3.1,0.5,3.4,0c0,0,6.5-4.4,7-5.8C166.3,187.9,167.1,178,167,176.9z"/>
				<path class="st5" d="M156.3,197.5c-0.4,0-1.5,0-1.8-0.5c-0.6-0.4-6.8-3.9-7.4-6c-0.8-3-2.3-13.2-1.5-15.5
					c1.1-3.2,3.1-5.6,5.7-6.9c2.6-1.3,5.7-1.4,9-0.3c6,2,6.4,4.7,6.9,8.3l0,0.3c0.2,1.2-0.7,11.1-1.8,14.2c-0.5,1.5-6.3,5.4-7.1,5.9
					C157.9,197.4,156.7,197.5,156.3,197.5C156.4,197.5,156.4,197.5,156.3,197.5z M156,168c-1.6,0-3.1,0.3-4.4,1
					c-2.5,1.2-4.4,3.5-5.4,6.6c-0.7,2.1,0.6,12,1.5,15.2c0.5,1.7,5.3,4.7,7.2,5.8l0.1,0.1c0.1,0.1,0.6,0.3,1.5,0.3
					c0.9,0,1.4-0.2,1.5-0.3l0.1-0.1c1.8-1.2,6.5-4.6,6.9-5.7c1.1-3,1.9-12.9,1.8-14l0-0.3c-0.5-3.6-0.8-6-6.5-7.9
					C158.7,168.2,157.3,168,156,168z"/>
			</g>
			<g>
				<path class="st11" d="M155.6,187l-0.3-0.7c0.4-0.2,1.6-1,1.3-1.6c-1.1-2.4-0.6-5.6-0.6-5.7l0.7,0.1c0,0-0.4,3.1,0.6,5.3
					C157.7,185.6,156.4,186.6,155.6,187z"/>
			</g>
			<g>
				<path class="st11" d="M148.3,178.3l-0.4-0.6c3.2-2.1,5.5-0.2,5.5-0.2l-0.5,0.6C152.8,178,150.9,176.5,148.3,178.3z"/>
			</g>
			<g>
				<path class="st11" d="M163.5,178.4c-0.1-0.1-1.7-1.9-4.6-0.5l-0.3-0.7c3.4-1.6,5.5,0.6,5.5,0.7L163.5,178.4z"/>
			</g>
			<g>
				<path class="st11" d="M155.1,190.1c-1.7,0-2.8-0.4-2.9-0.4l0.2-0.7c0,0,1.1,0.3,2.7,0.3c1.6,0,4.7-1,4.7-1l0.2,0.7
					C159.9,189.2,156.8,190.1,155.1,190.1z"/>
			</g>
			<path class="st5" d="M150.9,167.3c0,0,10.4,8.4,17.6,10.3C168.6,177.6,170.4,161.3,150.9,167.3z"/>
			<path class="st14" d="M173.7,262.6c0,8.1-3.6,14.6-17.6,14.6c-14,0-17.6-6.5-17.6-14.6c0-8.1-13.2-14.6,17.6-14.6
				C186.9,248,173.7,254.5,173.7,262.6z"/>
			<g>
				<path class="st11" d="M151,299.3c-2.1,0-4-0.3-5.6-1l0.3-0.7c9.6,4,31.2-6.9,31.4-7l0.3,0.7C176.7,291.8,161.7,299.3,151,299.3z
					"/>
			</g>
			<path class="st2" d="M161.2,304.8c0.6-1.1-2.9-3.9-2.8-10.2c0.1-6.3-2.6-4.2-6.8-7.8c-4.2-3.6-4.7-5.1-10.3-3.1
				c-5.7,2-7.2,1.6-9.5-0.3c-2.3-1.9-23.1-20.2-31.8-29.6c-8.7-9.5-34.6,5-17.5,19.8l55.5,24.6c0,0,5,1.4,7.8-2
				c2.8-3.5,6.5,0.6,6.6,2.9c0.1,2.3-1.9,4.4,0.1,5.2c2,0.8,3.4-2.2,3.4-2.2S160.2,306.7,161.2,304.8z"/>
			<g>
				<path class="st2" d="M69.8,267.4c11.4,10.2,21.1,14.9,42.6,25.8c0,0,9.9-11.3,11.8-19.7c0,0-24-24.6-32.9-31.7
					C82.4,234.8,61,259.6,69.8,267.4z"/>
				<path class="st5" d="M112.4,293.5l-2.8-1.4c-20-10.1-29.1-14.7-40-24.5l0,0c-4.5-4.1-1.1-12.5,4-18.6c5.2-6.2,13-11.2,17.8-7.4
					c8.8,6.9,32.7,31.4,32.9,31.7l0.1,0.1l0,0.1c-1.9,8.4-11.7,19.7-11.8,19.8L112.4,293.5z M87.6,240.9c-4.2,0-9.6,3.8-13.6,8.5
					c-5,5.9-8.3,14-4.1,17.8l0,0c10.9,9.8,20,14.3,39.9,24.4l2.5,1.3c1.2-1.3,9.8-11.6,11.6-19.3c-1.7-1.7-24.3-24.8-32.8-31.5
					C90.1,241.2,88.9,240.9,87.6,240.9z"/>
			</g>
			<g>
				<g>
					
						<linearGradient id="SVGID_3_" gradientUnits="userSpaceOnUse" x1="631.5446" y1="304.9478" x2="639.5936" y2="304.9478" gradientTransform="matrix(1 0 0 1 -455.3938 0)">
						<stop  offset="0" style="stop-color:#AACEFF"/>
						<stop  offset="1" style="stop-color:#DBE9FF"/>
					</linearGradient>
					<path class="st15" d="M184,304.4h-6.8c-0.4,0-0.8,0.3-0.8,0.6l-0.1,0.5h7.8l0.2-0.8C184.2,304.5,184.1,304.4,184,304.4z"/>
					
						<linearGradient id="SVGID_4_" gradientUnits="userSpaceOnUse" x1="622.1124" y1="304.9478" x2="630.1423" y2="304.9478" gradientTransform="matrix(1 0 0 1 -455.3938 0)">
						<stop  offset="0" style="stop-color:#AACEFF"/>
						<stop  offset="1" style="stop-color:#DBE9FF"/>
					</linearGradient>
					<path class="st16" d="M174.5,304.4h-6.8c-0.4,0-0.8,0.3-0.8,0.6l-0.1,0.5h7.8l0.2-0.8C174.8,304.5,174.7,304.4,174.5,304.4z"/>
					
						<linearGradient id="SVGID_5_" gradientUnits="userSpaceOnUse" x1="612.6812" y1="304.9478" x2="620.6905" y2="304.9478" gradientTransform="matrix(1 0 0 1 -455.3938 0)">
						<stop  offset="0" style="stop-color:#AACEFF"/>
						<stop  offset="1" style="stop-color:#DBE9FF"/>
					</linearGradient>
					<path class="st17" d="M165,304.4h-6.8c-0.4,0-0.8,0.3-0.8,0.6l-0.1,0.5h7.8l0.2-0.8C165.3,304.5,165.2,304.4,165,304.4z"/>
					
						<linearGradient id="SVGID_6_" gradientUnits="userSpaceOnUse" x1="603.2491" y1="304.9478" x2="611.2393" y2="304.9478" gradientTransform="matrix(1 0 0 1 -455.3938 0)">
						<stop  offset="0" style="stop-color:#AACEFF"/>
						<stop  offset="1" style="stop-color:#DBE9FF"/>
					</linearGradient>
					<path class="st18" d="M155.6,304.4h-6.8c-0.4,0-0.7,0.3-0.8,0.6l-0.1,0.5h7.8l0.2-0.8C155.9,304.5,155.8,304.4,155.6,304.4z"/>
					
						<linearGradient id="SVGID_7_" gradientUnits="userSpaceOnUse" x1="595.3978" y1="304.9478" x2="600.1118" y2="304.9478" gradientTransform="matrix(1 0 0 1 -455.3938 0)">
						<stop  offset="0" style="stop-color:#AACEFF"/>
						<stop  offset="1" style="stop-color:#DBE9FF"/>
					</linearGradient>
					<path class="st19" d="M144.5,304.4h-3.6c-0.4,0-0.7,0.3-0.8,0.6l-0.1,0.5h4.6l0.1-0.8C144.7,304.5,144.6,304.4,144.5,304.4z"/>
					
						<linearGradient id="SVGID_8_" gradientUnits="userSpaceOnUse" x1="589.8369" y1="304.9478" x2="594.5397" y2="304.9478" gradientTransform="matrix(1 0 0 1 -455.3938 0)">
						<stop  offset="0" style="stop-color:#AACEFF"/>
						<stop  offset="1" style="stop-color:#DBE9FF"/>
					</linearGradient>
					<path class="st20" d="M138.9,304.4h-3.6c-0.4,0-0.7,0.3-0.8,0.6l-0.1,0.5h4.6l0.1-0.8C139.2,304.5,139,304.4,138.9,304.4z"/>
					
						<linearGradient id="SVGID_9_" gradientUnits="userSpaceOnUse" x1="584.6025" y1="304.9478" x2="589.295" y2="304.9478" gradientTransform="matrix(1 0 0 1 -455.3938 0)">
						<stop  offset="0" style="stop-color:#AACEFF"/>
						<stop  offset="1" style="stop-color:#DBE9FF"/>
					</linearGradient>
					<path class="st21" d="M133.6,304.4H130c-0.4,0-0.7,0.3-0.8,0.6l-0.1,0.5h4.6l0.1-0.8C133.9,304.5,133.8,304.4,133.6,304.4z"/>
				</g>
				<path class="st8" d="M209.1,241.6H104.3c-1.4,0-2.4,1.3-2.2,2.6l11.3,60.8h88.5l9.4-61.2C211.4,242.5,210.5,241.6,209.1,241.6z"
					/>
				<g>
					<path class="st0" d="M113.7,307.8c0,0.2,0.2,0.4,0.4,0.4h86.1c0.5,0,1-0.4,1.2-0.8l0.5-2.4h-88.5L113.7,307.8z"/>
					<path class="st5" d="M200.3,308.5h-86.1c-0.2,0-0.4-0.1-0.6-0.2c-0.1-0.1-0.2-0.3-0.2-0.5l-0.4-3.2h89.3l-0.5,2.8
						C201.6,308.1,200.9,308.5,200.3,308.5z M114.1,307.8l86.2,0c0.4,0,0.7-0.3,0.8-0.5l0.4-2h-87.7L114.1,307.8L114.1,307.8z"/>
				</g>
				<g>
					<rect x="108.4" y="241.1" class="st11" width="96.6" height="0.7"/>
				</g>
			</g>
			<path class="st2" d="M192.9,203c0,0-2.6-0.7-3.4-0.7c-0.8,0-2.6,18.7-2.6,18.7l11.7,6.3l1.4-0.2l1.5-13.4l-3.1-7.2l-4.4-2.7
				L192.9,203z"/>
			<path class="st2" d="M124,202.6c0,0-1.5,0-2.9,0.5c-1.4,0.5-3,1.3-3,1.3s-4.4,6-4.4,6c0,0.1-1.5,11.2-1.5,11.2l1.4,0.6l1.4,0.3
				l9-15L124,202.6z"/>
			<path class="st2" d="M67.5,264.2c0,0,1.4,2.2,2.4,3c1,0.9,15.4,0,15.4,0l13.3-18.4l0.4-0.5l-4-10.9l-8.9-1.4l-11.8,8.2L66,256.4
				l0.7,5.1L67.5,264.2z"/>
			<path class="st5" d="M151.9,180.3c0,0.7-0.6,1.3-1.3,1.3c-0.7,0-1.3-0.6-1.3-1.3c0-0.3,0.1-0.5,0.2-0.7c0.3,0.1,0.7,0.2,1,0.2
				c0.4,0,0.7-0.1,1-0.2C151.8,179.8,151.9,180,151.9,180.3z"/>
			<path class="st5" d="M162.6,180.3c0,0.7-0.6,1.3-1.3,1.3c-0.7,0-1.3-0.6-1.3-1.3c0-0.3,0.1-0.5,0.2-0.7c0.3,0.1,0.7,0.2,1,0.2
				c0.4,0,0.7-0.1,1-0.2C162.5,179.8,162.6,180,162.6,180.3z"/>
		</g>
	</g>
</g>
</svg>
