<?xml version="1.0" encoding="utf-8"?>
<!-- Generator: Adobe Illustrator 24.2.0, SVG Export Plug-In . SVG Version: 6.00 Build 0)  -->
<svg version="1.1" id="Layer_1" xmlns="http://www.w3.org/2000/svg" xmlns:xlink="http://www.w3.org/1999/xlink" x="0px" y="0px"
	 width="65px" height="65px" viewBox="0 0 65 65" style="enable-background:new 0 0 65 65;" xml:space="preserve">
<style type="text/css">
	.st0{fill:#00A594;}
	.st1{fill:#F4A620;}
</style>
<g>
	<path class="st0" d="M6.6,39c-1.8-2-2.6-4.2-2.1-6.9c0.3-1.8,1.2-3.3,2.7-4.5c3-2.4,7.3-2.2,10.1,0.5c2.6,2.5,3.4,7.2,0,10.8
		c0.6,0.4,1.2,0.8,1.8,1.2c0.8-0.6,1.6-1.1,2.4-1.7c0.1-0.1,0.2-0.3,0.2-0.4c0-0.5,0.3-0.9,0.7-1.1c1.6-0.8,3.1-1.5,4.7-2.3
		c0-0.1,0-0.1,0-0.2c0.1-0.8-0.1-1.4-0.9-2c-0.8-0.6-1.4-1.4-2-2.3c-0.4-0.6-0.7-0.8-1.5-0.8c-2.1,0-3.8-1.4-4.2-3.5
		c-0.3-1.7,0.2-3.1,1.5-4.2c0.5-0.4,0.6-0.8,0.6-1.3c-0.1-3.1,0.7-6,2.7-8.4c3.4-3.8,7.6-5.2,12.5-3.8c4.9,1.4,7.7,4.8,8.4,9.9
		c0.1,0.9,0.1,1.8,0.1,2.6c0,0.3,0.2,0.6,0.4,0.8c1.5,1.2,2.1,3.1,1.5,4.8c-0.6,1.8-2.2,3-4.2,3c-0.7,0-1,0.2-1.4,0.8
		c-0.6,0.9-1.4,1.7-2.2,2.5c-0.5,0.5-0.8,0.9-0.7,1.5c0,0.2,0,0.4,0,0.5c1.6,0.8,3.1,1.5,4.6,2.3c0.5,0.3,0.8,0.6,0.8,1.2
		c0,0.1,0.1,0.3,0.2,0.4c0.8,0.6,1.6,1.1,2.4,1.7c0.6-0.4,1.1-0.7,1.8-1.2c-1.9-2-2.6-4.4-2.1-7.1c0.4-1.8,1.4-3.3,2.9-4.4
		c3-2.2,7.1-1.9,9.8,0.7c1.5,1.5,2.3,3.3,2.3,5.4c0,1.8-0.4,2.9-2.2,5.5c0.6,0.4,1.2,0.7,1.7,1.2c3,2.4,4.6,5.5,4.8,9.4
		c0,1.3,0.1,2.7-0.2,4c-0.7,3-3.2,4.9-6.3,5c-2.5,0-5,0-7.5,0c0,0.2,0,0.4-0.1,0.5c0,0.6,0,1.1,0,1.7c0,2.9-2.1,4.7-5,4.2
		c-2.1-0.4-4.1-1-6.2-1.6c-1.5-0.4-2.9-0.8-4.4-1.2c-0.2-0.1-0.6,0.1-0.8,0.2c-0.4,0.3-0.8,0.8-1.2,1.1c-0.6,0.5-1.1,0.5-1.7,0
		c-0.1,0-0.1-0.1-0.1-0.1c-0.8-1.2-1.8-1.4-3.3-0.9c-2.7,0.9-5.5,1.6-8.3,2.3c-0.7,0.2-1.5,0.3-2.3,0.2c-2.1-0.2-3.5-1.8-3.6-4
		c0-0.8,0-1.6,0-2.5c-0.3,0-0.5,0-0.8,0c-2.2,0-4.3,0-6.5,0c-4,0-6.8-2.8-6.8-6.8c0-2.2,0.1-4.4,1-6.5c1.1-2.5,2.7-4.4,5-5.8
		C6.2,39.3,6.4,39.2,6.6,39z M28.2,53.2c0.8,0.1,1-0.3,1.1-0.9c0.3-2.1,0.5-4.3,0.9-6.4c0.2-1-0.2-1.5-0.9-2c-1,0.8-1.3,0.8-2.2-0.1
		c-1.3-1.3-2.5-2.5-3.8-3.8c-0.1,0.1-0.2,0.1-0.3,0.2c-4.3,2.5-6.5,6.3-6.6,11.2c-0.1,3,0,6.1,0,9.1c0,1.9,0.9,2.7,2.8,2.3
		c0.2,0,0.4-0.1,0.5-0.1c1.3-0.3,2.6-0.7,3.9-1c1.6-0.4,3.2-0.9,4.6-1.3c0.2-1.7,0.4-3.3,0.6-5c-1.6,0.4-3.1,0.8-4.6,1.2
		c-1.1,0.3-2.2,0.6-3.3,0.8c-0.6,0.2-1.2-0.2-1.3-0.7c-0.2-0.6,0.1-1.1,0.7-1.3c0.2-0.1,0.3-0.1,0.4-0.2c0-1.5-0.1-3,0-4.5
		c0.1-1.4,0.9-2.3,2.1-2.8c1.2-0.5,2.4-0.3,3.3,0.7c0.5,0.6,0.9,1.3,1.2,2C27.6,51.4,27.9,52.3,28.2,53.2z M17.6,41.8
		c-0.6-0.3-1-0.6-1.5-0.9c-0.6-0.3-1.1-0.4-1.8-0.2c-1.7,0.6-3.4,0.5-5,0c-0.3-0.1-0.8-0.1-1.1,0c-2.3,1-3.9,2.6-5,4.9
		c-0.9,2-1,4-1,6.1c0.1,2.7,1.9,4.5,4.6,4.6c2,0,4,0,6,0c0.4,0,0.9,0,1.4,0C13.9,51.1,13.9,46,17.6,41.8z M50.9,56.3
		c2.7,0,5.2,0,7.8,0c1.9,0,3.6-1.5,3.9-3.4c0.2-1.1,0.2-2.3,0.1-3.5c-0.3-4-2.3-7-6-8.7c-0.3-0.1-0.7-0.1-0.9,0
		c-1.9,0.7-3.7,0.7-5.5,0c-0.2-0.1-0.4-0.1-0.6-0.1c-0.8,0.4-1.5,0.7-2.3,1.2c2.9,3.5,3.7,7.5,3.5,11.7
		C50.9,54.4,50.9,55.3,50.9,56.3z M37,60.2c0,0.1,0,0.1,0,0.2c2.3,0.6,4.5,1.2,6.8,1.8c1,0.3,2,0.6,3,0.6c1.3,0.1,2-0.6,2-1.8
		c0-3.7,0.1-7.5-0.2-11.1c-0.4-4.5-2.9-7.7-6.8-9.9c-1.2,1.2-2.4,2.4-3.6,3.6c-1,1-1.2,1.1-2.4,0.3C35,44.4,34.6,45,34.9,46
		c0.2,0.8,0.2,1.6,0.3,2.3c0.1,1,0.3,2,0.4,3c1.5-0.3,1.5-0.3,2.3-1.6c0.1-0.2,0.2-0.4,0.3-0.5c0.9-1.3,2.4-1.8,3.8-1.4
		c1.4,0.4,2.4,1.7,2.4,3.3c0,1.4,0,2.7,0,4.1c0.1,0,0.2,0,0.3,0.1c0.6,0.3,0.9,0.7,0.7,1.3c-0.2,0.6-0.7,0.9-1.4,0.8
		c-0.3,0-0.7-0.1-0.9,0c-1.1,1.4-2.9,1.5-4.4,2.3C38.3,59.9,37.6,60,37,60.2z M40.1,22.6c-1.6-0.4-2.9-1.3-3.8-2.8
		c-2.5,1-5,0.9-7,0.2c-0.8,0.7-1.4,1.2-2.1,1.6c-0.7,0.4-1.4,0.7-2.2,1.1c0,0.7,0,1.5,0,2.3c0.1,3.3,2.3,6.3,5.5,7.1
		c3.3,0.9,6.8-0.4,8.6-3.3C40.2,26.9,40.1,24.8,40.1,22.6z M22.8,20.6c2.5,0.1,3.4-0.4,4.4-2.5c0.3-0.7,0.9-0.9,1.6-0.5
		c2.5,1.2,5,1.2,7.5,0c0.8-0.4,1.4-0.1,1.7,0.7c0.7,1.8,2.4,2.7,4.3,2.2c0.2-4-1.2-7.2-4.7-9.3c-3.4-2-7-2-10.4,0.2
		C23.9,13.5,22.6,16.7,22.8,20.6z M17.3,33.6c0-3-2.4-5.4-5.4-5.4c-3,0-5.4,2.4-5.4,5.4c0,3,2.4,5.4,5.4,5.5
		C14.9,39,17.3,36.6,17.3,33.6z M53.1,28.2c-3,0-5.4,2.4-5.4,5.4c0,3,2.4,5.4,5.4,5.4c3,0,5.4-2.4,5.4-5.4
		C58.5,30.6,56.1,28.2,53.1,28.2z M32.5,61.4c0.6-0.6,1-1.1,1.5-1.6c0.5-0.4,0.6-0.9,0.5-1.5c-0.4-2.7-0.8-5.4-1.2-8.1
		c-0.2-1.2-0.3-2.4-0.5-3.5c-0.6-0.2-0.6,0.2-0.7,0.5c-0.2,1.2-0.3,2.3-0.5,3.5c-0.4,2.7-0.8,5.3-1.1,8c0,0.3,0,0.6,0.2,0.8
		C31.2,60.1,31.8,60.7,32.5,61.4z M35.8,34.1c-2.2,0.7-4.3,0.7-6.4,0c-0.3,1.4-0.1,2.6,1.1,3.5c0.3,0.2,0.6,0.6,0.9,0.8
		c0.8,0.8,1.5,0.8,2.3,0c0.6-0.6,1.2-1.2,1.8-1.8c0.2-0.2,0.3-0.4,0.3-0.6C35.8,35.4,35.8,34.8,35.8,34.1z M39.2,51.9
		c1.2,1.3,1.6,2.8,1.8,4.5c0.8-0.6,1.2-1.3,1.2-2.1c0-1.1,0-2.2,0-3.2c0-0.6-0.3-1-0.8-1.2c-0.5-0.2-1,0-1.3,0.5
		C39.8,50.8,39.5,51.4,39.2,51.9z M22.8,54.6c1.2-0.3,2.2-0.6,3.4-0.9c-0.5-1.2-0.9-2.3-1.4-3.4c-0.1-0.3-0.8-0.6-1-0.5
		c-0.4,0.1-0.8,0.6-0.9,1C22.7,52.1,22.8,53.3,22.8,54.6z M29.8,40.1c-1-1-2-2-3-3c-0.7,0.3-1.4,0.7-2.1,1.1
		c1.2,1.2,2.4,2.3,3.5,3.5C28.7,41.1,29.2,40.6,29.8,40.1z M36.8,41.7c1.2-1.2,2.4-2.3,3.5-3.5c-0.6-0.3-1.2-0.6-1.9-0.9
		c-0.1-0.1-0.4,0-0.5,0c-0.9,0.9-1.9,1.8-2.8,2.8C35.8,40.6,36.3,41.2,36.8,41.7z M36.6,58c0.5-0.1,1-0.3,1.5-0.4
		c0.5-0.1,0.8-0.4,0.7-0.8c-0.1-0.9-0.2-1.8-0.6-2.6c-0.5-1.2-1.1-1.3-2.2-0.6C36.2,55,36.4,56.5,36.6,58z M22.8,22.8
		c-1.4,0.1-2.3,1.1-2.2,2.4c0.1,1.2,1.2,2.1,2.2,1.9C22.8,25.6,22.8,24.2,22.8,22.8z M42.2,27c1.1,0.1,2.2-0.8,2.2-2
		c0-1.2-0.9-2.2-2.2-2.2C42.2,24.2,42.2,25.6,42.2,27z M34.1,42.2c-1.1-1.7-2.5-1.3-3.2,0c0.5,0.6,1.1,1.1,1.6,1.7
		C33.1,43.4,33.6,42.8,34.1,42.2z"/>
	<path class="st1" d="M52,10.8c-1.1,0-2.1,0-3.1,0c-0.5,0-0.9-0.1-1.2-0.6c-0.2-0.5-0.1-0.9,0.3-1.3c2.5-2.8,4.9-5.6,7.4-8.4
		c0.6-0.7,1.3-0.7,1.9,0c2.4,2.8,4.9,5.6,7.3,8.3c0.3,0.4,0.5,0.8,0.3,1.3c-0.2,0.5-0.7,0.7-1.2,0.7c-1,0-1.9,0-3,0c0,0.7,0,1.3,0,2
		c0,0.8-0.4,1.3-1.1,1.3c-0.7,0-1.1-0.4-1.1-1.3c0-1,0-1.9,0-2.9c0-0.8,0.4-1.2,1.2-1.2c0.6,0,1.1,0,1.9,0c-1.8-2-3.5-3.9-5.2-5.9
		c-1.7,2-3.4,3.9-5.2,5.9c0.7,0,1.2,0,1.8,0c0.8,0,1.2,0.4,1.2,1.2c0,1.4,0,2.8,0,4.1c0,0.8-0.4,1.2-1.1,1.2c-0.7,0-1-0.4-1.1-1.2
		C52,13,52,11.9,52,10.8z"/>
	<path class="st1" d="M4.4,10.8c-1.1,0-2.1,0-3.1,0c-0.5,0-0.9-0.2-1.2-0.6c-0.2-0.5,0-0.9,0.3-1.3c2.4-2.8,4.9-5.6,7.3-8.3
		c0.6-0.7,1.3-0.7,1.9,0c2.4,2.8,4.9,5.6,7.3,8.3c0.3,0.4,0.5,0.8,0.3,1.3c-0.2,0.5-0.6,0.7-1.2,0.6c-1,0-2,0-3.1,0c0,0.7,0,1.3,0,2
		c0,0.8-0.4,1.3-1.1,1.3c-0.7,0-1.1-0.5-1.1-1.3c0-0.9,0-1.9,0-2.8c0-0.8,0.4-1.2,1.2-1.3c0.5,0,1.1,0,1.8,0c-1.8-2-3.5-3.9-5.2-5.9
		C7,4.7,5.3,6.6,3.5,8.7c0.7,0,1.2,0,1.7,0c0.9,0,1.3,0.4,1.3,1.3c0,1.3,0,2.7,0,4c0,0.8-0.4,1.2-1.1,1.2c-0.6,0-1.1-0.4-1.1-1.2
		C4.3,12.9,4.4,11.9,4.4,10.8z"/>
	<path class="st1" d="M31.4,2.2c0-0.4,0-0.8,0-1.1c0-0.6,0.5-1,1.1-1c0.6,0,1,0.4,1.1,1c0,0.8,0,1.6,0,2.4c0,0.6-0.5,1-1.1,1
		c-0.6,0-1-0.4-1-1C31.4,2.9,31.4,2.6,31.4,2.2z"/>
	<path class="st1" d="M26.4,1.7c0.9,0,2.9,1.9,2.8,2.6c0,0.3-0.3,0.8-0.6,0.9c-0.3,0.1-0.8,0.1-1-0.1c-0.7-0.5-1.3-1.1-1.8-1.8
		c-0.2-0.2-0.2-0.8,0-1.1C25.9,2,26.3,1.8,26.4,1.7z"/>
	<path class="st1" d="M36.7,5.5c-0.2-0.2-0.6-0.3-0.8-0.6c-0.1-0.3-0.2-0.8,0-1c0.6-0.7,1.2-1.4,1.9-1.9C38.1,1.7,38.7,1.8,39,2
		c0.5,0.2,0.6,0.9,0.3,1.2C38.7,4,38,4.6,37.3,5.3C37.2,5.4,37,5.4,36.7,5.5z"/>
	<path class="st1" d="M13,17.9c0,0.2,0,0.4,0,0.6c-0.1,0.6-0.4,0.9-1,1c-0.6,0-1-0.4-1.1-1c0-0.4,0-0.9,0-1.3c0-0.6,0.5-1,1.1-1
		c0.6,0,1,0.4,1.1,1C13,17.5,13,17.7,13,17.9z"/>
	<path class="st1" d="M60.7,17.9c0,0.2,0,0.4,0,0.6c-0.1,0.6-0.5,1-1.1,1c-0.6,0-1-0.4-1.1-1c0-0.4,0-0.7,0-1.1
		c0-0.7,0.4-1.1,1.1-1.2c0.7,0,1.1,0.4,1.1,1.2C60.7,17.6,60.7,17.7,60.7,17.9C60.7,17.9,60.7,17.9,60.7,17.9z"/>
	<path class="st1" d="M6.5,19c0,0.2,0,0.4,0,0.6c-0.1,0.6-0.4,0.9-1,1c-0.6,0-1.1-0.4-1.1-0.9c0-0.4,0-0.9,0-1.3c0-0.6,0.5-1,1.1-1
		c0.6,0,1,0.4,1.1,1C6.5,18.6,6.5,18.8,6.5,19C6.5,19,6.5,19,6.5,19z"/>
	<path class="st1" d="M54.2,18.9c0,1.2-0.3,1.7-1.1,1.7c-0.8,0-1.1-0.5-1.1-1.6c0-1.1,0.3-1.6,1.1-1.6
		C53.8,17.3,54.2,17.8,54.2,18.9z"/>
	<path class="st1" d="M7.6,22.2c0-1.1,0.3-1.6,1.1-1.6c0.8,0,1.1,0.5,1.1,1.6c0,0.2,0,0.3,0,0.5c0,0.7-0.4,1.1-1.1,1.1
		c-0.6,0-1-0.4-1.1-1.1C7.6,22.5,7.6,22.4,7.6,22.2z"/>
	<path class="st1" d="M57.4,22.2c0,1.2-0.3,1.6-1.1,1.6c-0.8,0-1.1-0.5-1.1-1.6c0-0.2,0-0.3,0-0.5c0-0.7,0.4-1.1,1.1-1.1
		c0.6,0,1,0.4,1.1,1.1C57.4,21.9,57.4,22,57.4,22.2z"/>
</g>
</svg>
