<?xml version="1.0" encoding="utf-8"?>
<!-- Generator: Adobe Illustrator 24.2.0, SVG Export Plug-In . SVG Version: 6.00 Build 0)  -->
<svg version="1.1" id="Layer_1" xmlns="http://www.w3.org/2000/svg" xmlns:xlink="http://www.w3.org/1999/xlink" x="0px" y="0px"
	 width="65px" height="65px" viewBox="0 0 65 65" style="enable-background:new 0 0 65 65;" xml:space="preserve">
<style type="text/css">
	.st0{fill:#00A594;}
	.st1{fill:#F4A620;}
</style>
<g>
	<path class="st0" d="M44,53.5c0,1.4,0,2.7,0,4c1.5,0.7,2.5,1.8,2.5,3.5c0.1,1.9-1.3,3.5-3.2,3.9c-1.8,0.3-3.6-0.7-4.2-2.5
		c-0.6-1.8,0.1-3.7,1.8-4.6c0.5-0.2,0.6-0.5,0.6-1c0-1.1,0-2.2,0-3.3c-2.5,0-5,0-7.6,0c0,1.3,0,2.6,0,4c1.5,0.7,2.5,1.8,2.5,3.6
		c0,1.9-1.3,3.5-3.2,3.8c-1.8,0.3-3.6-0.7-4.2-2.5c-0.6-1.7,0-3.7,1.7-4.6c0.5-0.3,0.6-0.6,0.6-1.1c0-1.1,0-2.1,0-3.2
		c-2.6,0-5.1,0-7.6,0c0,1.3,0,2.6,0,3.8c0,0.1,0.3,0.3,0.5,0.4c1.5,0.8,2.3,2.5,1.9,4.2c-0.4,1.7-1.8,2.9-3.5,3
		c-1.7,0.1-3.3-1-3.8-2.6c-0.6-1.8,0.2-3.7,1.9-4.6c0.4-0.2,0.5-0.4,0.5-0.8c0-1.1,0-2.3,0-3.5c-1.5,0-3,0-4.4,0
		c-1.5,0-2.7-0.5-3.7-1.6c-0.9-1-1.4-2.1-1.4-3.4c0-1.3,0-2.5,0-3.9c-1.4,0-2.7,0-4,0c-0.7,1.5-1.8,2.4-3.5,2.5
		C2,47.2,0.4,45.9,0.1,44c-0.3-1.8,0.7-3.6,2.5-4.2c1.8-0.7,3.7,0.1,4.6,1.7c0.3,0.5,0.5,0.6,1,0.6c1.1,0,2.2,0,3.3,0
		c0-2.6,0-5,0-7.6c-1.3,0-2.6,0-3.8,0c-0.1,0-0.3,0.3-0.4,0.5c-0.9,1.6-2.6,2.4-4.4,1.9C1.1,36.4,0,34.8,0,33c0-1.7,1.2-3.2,2.9-3.6
		c1.7-0.4,3.4,0.3,4.3,1.8c0.1,0.2,0.2,0.4,0.3,0.6c1.2,0,2.4,0,3.6,0c0.1,0,0.2,0,0.4,0c0-2.5,0-5.1,0-7.6c-1.3,0-2.5,0-3.8,0
		c-0.2,0-0.4,0.3-0.5,0.5c-0.9,1.6-2.6,2.4-4.4,1.9c-1.7-0.4-2.8-2-2.8-3.7c0-1.7,1.2-3.2,2.8-3.6c1.7-0.5,3.5,0.2,4.3,1.8
		c0.1,0.2,0.2,0.4,0.3,0.6c1.3,0,2.6,0,4,0c0-0.3,0-0.6,0-0.8c0-1.7-0.1-3.5,0.1-5.2c0.3-2.4,2.4-4.1,4.9-4.1c1.5,0,3,0,4.6,0
		c0-0.9,0-1.8,0-2.7c0-0.3,0-0.5,0-0.8c0.1-0.4-0.1-0.7-0.5-0.9c-1.7-0.9-2.5-2.9-1.8-4.7c0.6-1.8,2.5-2.8,4.3-2.4
		c1.9,0.4,3.2,2,3.1,4c-0.1,1.5-0.8,2.5-2.5,3.4c0,1.1,0,2.3,0,3.4c0,0.2,0,0.3,0,0.5c2.6,0,5.1,0,7.6,0c0-1.3,0-2.5,0-3.8
		c0-0.2-0.3-0.4-0.5-0.5c-1.6-0.9-2.3-2.6-1.9-4.3C29.2,1.2,30.7,0,32.5,0c1.7,0,3.2,1.1,3.7,2.8c0.5,1.7-0.2,3.5-1.7,4.3
		c-0.2,0.1-0.4,0.2-0.6,0.3c0,1.3,0,2.6,0,4c2.5,0,5,0,7.6,0c0-1.3,0-2.5,0-3.8c0-0.1-0.3-0.3-0.5-0.4c-1.6-0.9-2.4-2.6-1.9-4.3
		C39.4,1.2,40.9,0,42.6,0c1.8,0,3.3,1.1,3.8,2.8c0.5,1.7-0.3,3.5-1.9,4.3c-0.5,0.2-0.6,0.5-0.6,1c0,1.1,0,2.2,0,3.3
		c0.2,0,0.4,0,0.6,0c1.3,0,2.7,0,4,0c2.7,0.1,4.9,2.2,5,5c0,1.7,0,3.4,0,5.2c1.3,0,2.5,0,3.8,0c0.2,0,0.4-0.3,0.5-0.5
		c0.9-1.6,2.6-2.4,4.4-1.9c1.7,0.4,2.8,2,2.8,3.7c0,1.7-1.2,3.3-2.9,3.7c-1.7,0.4-3.5-0.3-4.3-1.9c-0.2-0.4-0.4-0.5-0.8-0.5
		c-1.1,0-2.2,0-3.4,0c0,2.5,0,5.1,0,7.6c1.3,0,2.6,0,4,0c0.1-0.1,0.2-0.3,0.3-0.5c0.9-1.6,2.6-2.3,4.3-1.9c1.7,0.4,2.8,2,2.8,3.7
		c0,1.7-1.2,3.2-2.8,3.7c-1.7,0.5-3.5-0.3-4.3-1.9c-0.2-0.5-0.5-0.6-1-0.6c-1.1,0-2.2,0-3.3,0c0,2.5,0,5,0,7.6c1.3,0,2.6,0,4,0
		c0.7-1.5,1.8-2.5,3.6-2.5c1.9,0,3.5,1.3,3.8,3.3c0.3,1.8-0.8,3.6-2.5,4.2c-1.8,0.6-3.7-0.1-4.6-1.8c-0.2-0.4-0.5-0.6-1-0.6
		c-1.1,0-2.2,0-3.4,0c0,0.7,0,1.3,0,1.9c0.4,4.9-2,7.4-7,7C45.7,53.5,44.9,53.5,44,53.5z M51,32.6c0-5.2,0-10.4,0-15.6
		C51,15,50,14,48,14c-10.4,0-20.7,0-31.1,0C15,14,14,15,14,17c0,10.4,0,20.7,0,31.1C14,50,15,51,17,51c10.4,0,20.7,0,31.1,0
		C50,51,51,50,51,48C51,42.9,51,37.7,51,32.6z M22.3,5.1c0.7,0,1.2-0.6,1.3-1.3c0-0.7-0.6-1.3-1.3-1.3c-0.7,0-1.2,0.6-1.3,1.2
		C21,4.5,21.6,5.1,22.3,5.1z M32.5,5.1c0.7,0,1.3-0.6,1.3-1.2c0-0.7-0.6-1.3-1.3-1.3c-0.7,0-1.3,0.6-1.3,1.2
		C31.2,4.5,31.8,5.1,32.5,5.1z M42.7,2.6c-0.7,0-1.3,0.5-1.3,1.2c0,0.7,0.5,1.3,1.3,1.3c0.7,0,1.3-0.6,1.3-1.3
		C44,3.1,43.4,2.6,42.7,2.6z M5.1,22.9c0-0.7-0.6-1.2-1.3-1.2c-0.7,0-1.3,0.6-1.3,1.3c0,0.7,0.6,1.2,1.3,1.2
		C4.5,24.2,5.1,23.6,5.1,22.9z M62.4,23c0-0.7-0.5-1.3-1.2-1.3c-0.7,0-1.3,0.6-1.3,1.3c0,0.7,0.5,1.3,1.2,1.3
		C61.8,24.2,62.4,23.7,62.4,23z M3.8,31.9c-0.7,0-1.3,0.6-1.3,1.2c0,0.7,0.6,1.3,1.3,1.3c0.7,0,1.3-0.6,1.3-1.3
		C5.1,32.4,4.5,31.9,3.8,31.9z M61.2,31.9c-0.7,0-1.2,0.6-1.3,1.2c0,0.7,0.6,1.3,1.3,1.3c0.7,0,1.3-0.6,1.3-1.3
		C62.4,32.4,61.8,31.9,61.2,31.9z M5.1,43.3c0-0.7-0.5-1.3-1.2-1.3c-0.7,0-1.3,0.5-1.3,1.3c0,0.7,0.5,1.3,1.2,1.3
		C4.5,44.6,5.1,44.1,5.1,43.3z M62.4,43.3c0-0.7-0.6-1.2-1.2-1.3c-0.7,0-1.3,0.6-1.3,1.3c0,0.7,0.6,1.2,1.2,1.3
		C61.8,44.6,62.4,44,62.4,43.3z M23.6,61.2c0-0.7-0.6-1.3-1.2-1.3c-0.7,0-1.3,0.6-1.3,1.3c0,0.7,0.5,1.3,1.2,1.3
		C23,62.5,23.6,61.9,23.6,61.2z M33.8,61.2c0-0.7-0.6-1.3-1.2-1.3c-0.7,0-1.3,0.6-1.3,1.3c0,0.7,0.6,1.3,1.2,1.3
		C33.2,62.5,33.8,61.9,33.8,61.2z M44,61.2c0-0.7-0.6-1.3-1.2-1.3c-0.7,0-1.3,0.6-1.3,1.3c0,0.7,0.6,1.3,1.2,1.3
		C43.4,62.5,44,61.9,44,61.2z"/>
	<path class="st1" d="M17.8,32.4c0-4.3,0-8.6,0-12.9c0-1.2,0.4-1.7,1.6-1.7c8.7,0,17.4,0,26,0c1.2,0,1.6,0.4,1.6,1.6
		c0,5.4,0,10.8,0,16.2c0,0.6-0.2,1-0.6,1.5c-3.1,3.1-6.3,6.2-9.4,9.4c-0.4,0.4-0.9,0.6-1.5,0.6c-5.4,0-10.8,0-16.2,0
		c-1.2,0-1.6-0.4-1.6-1.7C17.8,41.1,17.8,36.8,17.8,32.4z M20.4,20.4c0,8.1,0,16.1,0,24.1c0.1,0,0.2,0,0.2,0c4.8,0,9.6,0,14.5,0
		c0.2,0,0.5-0.2,0.7-0.4c2.8-2.8,5.6-5.6,8.3-8.3c0.3-0.3,0.4-0.6,0.4-1c0-4.6,0-9.2,0-13.8c0-0.2,0-0.4,0-0.6
		C36.5,20.4,28.5,20.4,20.4,20.4z"/>
	<path class="st1" d="M33.4,39c0,0.7-0.6,1.3-1.3,1.2c-0.7,0-1.3-0.6-1.3-1.3c0-0.7,0.6-1.3,1.3-1.3C32.9,37.8,33.4,38.3,33.4,39z"
		/>
	<path class="st0" d="M27.6,26.1c0,0.7-0.6,1.2-1.3,1.2c-0.7,0-1.3-0.6-1.3-1.2c0-0.7,0.6-1.3,1.3-1.3C27,24.8,27.6,25.4,27.6,26.1z
		"/>
	<path class="st0" d="M33.9,26.1c0,0.7-0.5,1.3-1.2,1.3c-0.7,0-1.3-0.6-1.3-1.3c0-0.7,0.6-1.2,1.3-1.2
		C33.4,24.8,33.9,25.4,33.9,26.1z"/>
	<path class="st1" d="M40.3,26.1c0,0.7-0.5,1.3-1.2,1.3c-0.7,0-1.3-0.6-1.3-1.3c0-0.7,0.6-1.2,1.3-1.2
		C39.7,24.8,40.3,25.3,40.3,26.1z"/>
	<path class="st0" d="M27.6,32.4c0,0.7-0.6,1.2-1.3,1.2c-0.7,0-1.3-0.5-1.3-1.2c0-0.7,0.6-1.3,1.3-1.3C27,31.2,27.6,31.7,27.6,32.4z
		"/>
	<path class="st0" d="M33.9,32.4c0,0.7-0.5,1.3-1.2,1.3c-0.7,0-1.3-0.6-1.3-1.3c0-0.7,0.6-1.2,1.3-1.2
		C33.4,31.2,33.9,31.7,33.9,32.4z"/>
	<path class="st1" d="M40.3,32.4c0,0.7-0.5,1.3-1.2,1.3c-0.7,0-1.3-0.6-1.3-1.3c0-0.7,0.6-1.2,1.3-1.3
		C39.7,31.2,40.3,31.7,40.3,32.4z"/>
	<path class="st1" d="M24.7,38.9c0-0.7,0.6-1.2,1.3-1.2c0.7,0,1.3,0.6,1.3,1.3c0,0.7-0.6,1.3-1.3,1.3C25.2,40.2,24.7,39.6,24.7,38.9
		z"/>
</g>
</svg>
