<?xml version="1.0" encoding="utf-8"?>
<!-- Generator: Adobe Illustrator 24.2.0, SVG Export Plug-In . SVG Version: 6.00 Build 0)  -->
<svg version="1.1" id="Layer_1" xmlns="http://www.w3.org/2000/svg" xmlns:xlink="http://www.w3.org/1999/xlink" x="0px" y="0px"
	 width="65px" height="65px" viewBox="0 0 65 65" style="enable-background:new 0 0 65 65;" xml:space="preserve">
<style type="text/css">
	.st0{fill:#00A594;}
	.st1{fill:#F4A620;}
</style>
<g>
	<path class="st0" d="M0,32.5c0-8.6,0-17.1,0-25.7c0-3.2,1.7-5.6,4.5-6.5C5.3,0.1,6,0,6.8,0c7.7,0,15.4,0,23.1,0
		c4,0,6.7,2.7,6.8,6.7c0,1.7,0,3.4,0,5.1c0,0.9,0.2,1.1,1.1,1.1c7.9,0,15.9,0,23.8,0c1.1,0,2.2,0.3,2.8,1.3c0.3,0.5,0.6,1.3,0.6,1.9
		c0,10.9,0,21.9,0,32.8c0,2.2-1.8,3.6-4,3.1c-1.1-0.3-2.2-0.6-3.3-0.8c-1.2-0.3-2-0.9-2.5-2.1c-0.3-0.7-0.6-1.4-0.9-2.1
		c-0.4-1-0.4-2,0.2-3c0.7-1.2,1.3-2.3,2.1-3.4c0.3-0.4,0.2-0.7-0.2-1.1C55.8,39,55.4,38.5,55,38c-0.4-0.5-0.8-0.6-1.3-0.2
		c-1,0.7-2,1.2-3,1.8c-1.2,0.7-2.3,0.8-3.6,0.2c-0.6-0.2-1.2-0.5-1.8-0.7c-1-0.4-1.7-1.2-2-2.2c-0.3-1.3-0.7-2.6-1-3.9
		c-0.1-0.5-0.4-0.7-0.9-0.7c-0.7,0-1.4,0-2.1,0c-0.4,0-0.6,0.1-0.7,0.6c-0.3,1.3-0.6,2.5-0.9,3.8c-0.3,1.3-1.1,2.1-2.3,2.6
		c-0.6,0.2-1.2,0.5-1.8,0.7c-1.1,0.5-2.2,0.4-3.2-0.2c-1.1-0.7-2.3-1.3-3.4-2c-0.3-0.2-0.6-0.2-0.8,0.1c-0.5,0.6-1.1,1.1-1.6,1.6
		c-0.3,0.3-0.3,0.5-0.1,0.9c0.7,1.1,1.3,2.2,2,3.3c0.7,1.2,0.8,2.4,0.1,3.6c-0.3,0.5-0.5,1.1-0.7,1.6c-0.4,1-1.2,1.7-2.2,2
		c-1.2,0.3-2.4,0.7-3.6,0.9c-2.3,0.5-4-0.9-4-3.2c0-10.8,0-21.6,0-32.4c0-2.1,1.2-3.4,3.4-3.4c4.4,0,8.7,0,13.1,0
		c0.9,0,1.1-0.2,1.1-1.1c0-1.7,0-3.4,0-5.1c0-2.2-1.5-3.7-3.7-3.7C22.2,3,14.5,3,6.7,3C4.5,3,3.1,4.5,3.1,6.7c0,17.2,0,34.4,0,51.6
		c0,2.2,1.4,3.7,3.7,3.7c7.7,0,15.5,0,23.2,0c2.3,0,3.7-1.5,3.7-3.7c0-0.7,0-1.3,0-2c0-0.9,0.6-1.5,1.4-1.5c0.8-0.1,1.6,0.5,1.6,1.4
		c0,1.4,0.1,2.7-0.2,4.1c-0.6,2.8-3.1,4.8-5.9,4.8c-3.3,0.1-6.6,0-9.9,0c-4.7,0-9.3,0-14,0c-3.4,0-5.9-2.1-6.6-5.2
		C0,59.2,0,58.5,0,57.9C0,49.4,0,41,0,32.5z M40.5,16c-6.8,0-13.5,0-20.3,0c-0.9,0-1.1,0.2-1.1,1.1c0,1.1,0,2.3,0,3.4
		c0,1.3,0.1,1.3,1.3,1.3c11.2,0,22.4,0,33.6,0c0.3,0,0.5,0,0.8,0c0.7,0.1,1.3,0.7,1.3,1.4c0,0.8-0.4,1.4-1.1,1.6
		c-0.3,0.1-0.7,0.1-1,0.1c-11.1,0-22.3,0-33.4,0c-1.4,0-1.5,0.1-1.5,1.4c0,7.1,0,14.2,0,21.3c0,0.2,0,0.3,0,0.5
		c0,0.5,0.3,0.8,0.8,0.7c0.4-0.1,0.9-0.3,1.3-0.3c1.3-0.1,2.2-0.8,2.5-2.1c0.1-0.4,0.2-0.8-0.1-1.2c-0.7-1.1-1.4-2.2-2-3.3
		c-0.8-1.4-0.6-3,0.5-4.2c0.6-0.7,1.3-1.3,1.9-1.9c1.3-1.3,2.8-1.5,4.4-0.6c1.1,0.6,2.2,1.3,3.3,1.9c0.2,0.1,0.5,0.2,0.6,0.2
		c0.7-0.2,1.3-0.5,2-0.8c0.2-0.1,0.3-0.3,0.3-0.5c0.3-1.3,0.7-2.5,1-3.8c0.4-1.6,1.6-2.6,3.3-2.6c1,0,2,0,3,0c1.7,0,2.9,1,3.4,2.7
		c0.2,0.8,0.5,1.5,0.5,2.3c0.1,1.5,0.9,2.4,2.3,2.8c0.4,0.1,0.8,0.2,1.2-0.1c1.1-0.7,2.2-1.3,3.3-2c1.4-0.8,2.9-0.6,4.1,0.5
		c0.7,0.6,1.3,1.3,2,1.9c1.4,1.3,1.6,3,0.6,4.6c-0.6,1-1.3,2.1-1.9,3.1c-0.1,0.3-0.2,0.7-0.1,1c0.3,1.5,1.2,2.3,2.8,2.4
		c0.1,0,0.3,0.1,0.4,0.1c1.3,0.3,1.4,0.2,1.4-1.1c0-10.1,0-20.3,0-30.4c0-1-0.1-1.1-1.1-1.1C54,16,47.2,16,40.5,16z"/>
	<path class="st1" d="M40.4,51.7c-2.4,0-4.8,0-7.3,0c-1.3,0-1.8-0.6-1.8-1.9c0.1-6.2,5.2-9.2,10.2-8.7c3.7,0.4,6.4,2.3,7.6,5.9
		c0.3,0.9,0.4,1.9,0.5,2.8c0.1,1.1-0.6,1.8-1.7,1.8C45.4,51.7,42.9,51.7,40.4,51.7z M40.5,48.6c1.6,0,3.1,0,4.7,0
		c0.9,0,1.2-0.4,0.7-1.2c-1.2-2.1-3-3.3-5.4-3.3c-2.4,0-4.3,1.1-5.4,3.3c-0.4,0.8-0.2,1.2,0.8,1.2C37.4,48.6,39,48.6,40.5,48.6z"/>
	<path class="st1" d="M18.3,8.8c-1.4,0-2.7,0-4.1,0c-1,0-1.6-0.6-1.6-1.5c0-0.9,0.6-1.6,1.5-1.6c2.8,0,5.6,0,8.4,0
		c1,0,1.5,0.7,1.5,1.6c0,0.9-0.6,1.4-1.6,1.4C21.1,8.8,19.7,8.8,18.3,8.8z"/>
	<path class="st1" d="M18.3,55.9c1.4,0,2.7,0,4.1,0c1.1,0,1.6,0.5,1.7,1.5c0,1-0.6,1.5-1.7,1.6c-2.7,0-5.4,0-8.1,0
		c-1.1,0-1.7-0.6-1.7-1.6c0-0.9,0.6-1.5,1.7-1.5C15.6,55.9,17,55.9,18.3,55.9z"/>
	<path class="st1" d="M8.3,8.8c-1.1,0-1.8-0.6-1.8-1.5c0-0.9,0.7-1.5,1.8-1.5c1.1,0,1.8,0.6,1.8,1.6C10.2,8.2,9.4,8.8,8.3,8.8z"/>
	<path class="st1" d="M58.8,21.8c0.2,0,0.4,0,0.6,0c0.8,0.1,1.5,0.7,1.5,1.5c0,0.8-0.6,1.4-1.4,1.5c-0.5,0.1-1,0-1.5,0
		c-0.9-0.1-1.4-0.8-1.4-1.6c0-0.8,0.6-1.4,1.5-1.4C58.3,21.7,58.6,21.8,58.8,21.8C58.8,21.8,58.8,21.8,58.8,21.8z"/>
	<path class="st1" d="M23.2,17.2c0.2,0,0.5,0,0.7,0c0.8,0.1,1.4,0.8,1.4,1.5c0,0.8-0.6,1.4-1.4,1.5c-0.4,0-0.7,0-1.1,0
		c-0.9,0-1.5-0.6-1.5-1.5c0-1,0.5-1.5,1.5-1.6C23,17.2,23.1,17.2,23.2,17.2C23.2,17.2,23.2,17.2,23.2,17.2z"/>
	<path class="st1" d="M28.1,17.2c1.4,0,2,0.7,1.9,1.8c-0.1,0.7-0.6,1.2-1.3,1.3c-0.3,0-0.6,0-0.9,0c-1,0-1.7-0.7-1.7-1.6
		c0-0.9,0.6-1.5,1.6-1.6C27.8,17.2,27.9,17.2,28.1,17.2z"/>
	<path class="st1" d="M32.7,20.4c-0.3-0.1-0.7-0.1-1-0.2c-0.7-0.2-1.1-0.9-1-1.6c0.1-0.7,0.6-1.3,1.4-1.4c0.3,0,0.6,0,0.8,0
		c1.1,0,1.7,0.5,1.7,1.6c0,1-0.6,1.6-1.7,1.6C32.8,20.4,32.8,20.4,32.7,20.4C32.7,20.4,32.7,20.4,32.7,20.4z"/>
</g>
</svg>
