<?xml version="1.0" encoding="utf-8"?>
<!-- Generator: Adobe Illustrator 24.2.0, SVG Export Plug-In . SVG Version: 6.00 Build 0)  -->
<svg version="1.1" id="Layer_1" xmlns="http://www.w3.org/2000/svg" xmlns:xlink="http://www.w3.org/1999/xlink" x="0px" y="0px"
	 width="65px" height="65px" viewBox="0 0 65 65" style="enable-background:new 0 0 65 65;" xml:space="preserve">
<style type="text/css">
	.st0{fill:#00A594;}
	.st1{fill:#F4A620;}
</style>
<g>
	<path class="st0" d="M32.5,0c9.5,0,19,0,28.4,0c2,0,3.5,1,3.9,2.7C65,3.2,65,3.6,65,4.1c0,16.2,0,32.5,0,48.7
		c0,2.5-1.5,4.1-4.1,4.1c-3.4,0-6.8,0-10.2,0c-0.6,0-1,0.2-1.4,0.6c-0.9,1-1.9,1.9-2.8,2.8c-0.7,0.7-1.2,0.8-2.1,0.2
		c-1.2-0.8-2.4-1.5-3.7-2.3c-1.1-0.7-2.6-0.1-3,1.2c-0.4,1.5-0.7,2.9-1.1,4.4c-0.2,0.9-0.6,1.2-1.5,1.2c-1.8,0-3.6,0-5.4,0
		c-0.9,0-1.3-0.3-1.5-1.2c-0.3-1.3-0.6-2.6-0.9-3.9c-0.1-0.6-0.5-0.9-1-1.2c-1.3-0.8-2.4-0.5-3.5,0.4c-0.7,0.5-1.5,0.9-2.2,1.4
		c-0.9,0.6-1.4,0.5-2.2-0.3c-0.9-0.9-1.9-1.8-2.8-2.8c-0.4-0.4-0.7-0.5-1.2-0.5c-3.4,0-6.9,0-10.3,0c-2.6,0-4.1-1.5-4.1-4.1
		c0-13.5,0-26.9,0.1-40.4c0-1.4,0.5-1.9,1.9-1.9c16.9,0,33.8,0,50.7,0c1,0,1.6,0.4,1.8,1.1c0.2,0.8-0.2,1.6-1,1.8
		c-0.4,0.1-0.8,0.1-1.2,0.1c-15.9,0-31.9,0-47.8,0c-1.3,0-1.3,0-1.3,1.3c0,12.6,0,25.1,0,37.7c0,1.2,0.1,1.2,1.2,1.2
		c3.3,0,6.6,0,9.9,0c0.6,0,1-0.2,1.2-0.7c0.1-0.2,0.2-0.4,0.3-0.5c1.1-1.9,1.1-1.9,0.3-3.9c-0.2-0.5-0.6-0.8-1.1-1
		c-1.2-0.3-2.4-0.6-3.6-0.9c-0.9-0.2-1.3-0.6-1.3-1.6c0-1.8,0-3.5,0-5.3c0-0.9,0.3-1.3,1.2-1.5c1.2-0.3,2.4-0.6,3.6-0.9
		c0.7-0.2,1.1-0.5,1.4-1.1c0.7-1.3,0.7-2.4-0.2-3.6c-0.6-0.7-1-1.6-1.5-2.4c-0.4-0.6-0.3-1.1,0.2-1.6c1.3-1.3,2.5-2.6,3.8-3.9
		c0.7-0.7,1.2-0.7,1.9-0.3c1.2,0.7,2.3,1.4,3.4,2.1c1.4,0.8,3,0.2,3.4-1.4c0.3-1.3,0.7-2.7,1-4c0.2-0.9,0.6-1.2,1.5-1.2
		c1.7,0,3.4,0,5.1,0c1.1,0,1.4,0.3,1.7,1.3c0.4,1.5,0.8,3,1.1,4.5c0.2,1.1,1.8,1.7,2.6,1.1c1.3-0.9,2.7-1.6,4.1-2.4
		c0.9-0.5,1.2-0.5,1.9,0.2c1.2,1.2,2.5,2.5,3.7,3.7c0.6,0.6,0.7,1.1,0.2,1.8c-0.9,1.5-1.8,3-2.7,4.6c-0.6,1-0.2,1.8,0.9,2.1
		c1.6,0.4,3.3,0.8,4.9,1.3c1.1,0.3,1.3,0.6,1.4,1.7c0,1.6,0,3.2,0,4.9c0,1.2-0.3,1.6-1.5,1.9c-1.5,0.4-3.1,0.7-4.6,1.1
		c-1.1,0.3-1.6,1.3-1,2.3c0.6,1,1.1,2,1.8,3c0.2,0.3,0.6,0.5,0.9,0.5c3.5,0,7,0,10.4,0c0.7,0,1-0.3,0.9-0.9c0-0.1,0-0.3,0-0.4
		c0-16,0-32,0-48c0-1.3-0.1-1.4-1.4-1.4C41.9,3,23.2,3,4.5,3c-0.2,0-0.4,0-0.6,0c-0.5,0-0.7,0.3-0.7,0.8c0,1,0,2,0,3
		c0,1.1-0.6,1.8-1.5,1.8c-0.9,0-1.6-0.7-1.6-1.9C0,5.9,0,5,0,4.1C0,1.6,1.5,0,4,0c6,0,12.1,0,18.1,0C25.6,0,29,0,32.5,0z M24.5,54.6
		c0.3,0.1,0.5,0.1,0.7,0.2c1.3,0.5,2.5,0.9,3.7,1.4c0.4,0.2,0.8,0.6,0.9,0.9c0.4,1,0.6,2,0.8,3.1c0.4,1.6,0.5,1.6,2,1.6
		c1.1,0,1.3-0.2,1.6-1.3c0.3-1.1,0.6-2.2,0.8-3.4c0.1-0.7,0.5-1.1,1.2-1.4c1-0.4,1.9-0.8,2.8-1.3c0.6-0.3,1.1-0.3,1.7,0.1
		c1.1,0.7,2.2,1.3,3.2,2c0.9,0.5,1.2,0.5,2-0.2c1-1,1.1-1.3,0.6-2.2c-0.7-1.2-1.4-2.4-2.1-3.6c-0.3-0.5-0.3-1-0.1-1.6
		c0.4-0.8,0.7-1.6,1-2.4c0.2-0.7,0.7-1,1.3-1.2c1.3-0.3,2.6-0.6,4-1c1-0.3,1.2-0.6,1.2-1.9c0-1.1-0.3-1.4-1.2-1.7
		c-1.4-0.3-2.7-0.7-4.1-1c-0.7-0.2-1.1-0.5-1.3-1.2c-0.3-0.8-0.6-1.5-0.9-2.3c-0.3-0.6-0.3-1.1,0.1-1.7c0.7-1.1,1.3-2.2,1.9-3.3
		c0.8-1.4,0.8-1.6-0.4-2.8C45.2,28,44.9,28,44,28.5c-1.2,0.7-2.4,1.4-3.6,2.1c-0.6,0.4-1.1,0.4-1.7,0.1c-0.8-0.4-1.6-0.8-2.4-1.1
		c-0.7-0.3-1-0.7-1.2-1.4c-0.3-1.3-0.6-2.6-1-3.9c-0.2-0.7-0.6-1-1.3-0.9c-0.2,0-0.4,0-0.6,0c-0.8,0-1.2,0.3-1.4,1.1
		c-0.3,1.2-0.7,2.5-1,3.7c-0.1,0.6-0.4,0.9-1,1.1c-1.1,0.4-2.2,0.8-3.2,1.2c-0.6,0.3-1.2,0.2-1.7-0.1c-1-0.6-2.1-1.2-3.1-1.9
		c-0.6-0.3-1.1-0.3-1.5,0.2c-0.2,0.2-0.3,0.3-0.5,0.5c-0.7,0.7-0.8,1.2-0.3,2c0.5,0.9,1.1,1.8,1.6,2.6c0.4,0.6,0.4,1.2,0,1.8
		c-0.5,1.1-1,2.2-1.5,3.3c-0.2,0.7-0.6,1.1-1.3,1.2c-1.1,0.2-2.1,0.5-3.1,0.8c-0.8,0.2-1.1,0.6-1,1.8c0,1,0.3,1.4,1.1,1.6
		c1,0.3,2,0.5,3,0.7c0.7,0.1,1,0.5,1.3,1.2c0.5,1.2,1,2.4,1.6,3.6c0.3,0.6,0.3,1.1,0,1.7c-0.6,0.9-1.1,1.8-1.7,2.8
		C18,55,18.1,55.4,18.7,56c0.2,0.2,0.4,0.3,0.5,0.5c0.5,0.6,1.1,0.6,1.7,0.2c0.9-0.6,1.9-1.2,2.8-1.7C24,54.8,24.3,54.7,24.5,54.6z"
		/>
	<path class="st1" d="M58,13.6c-0.3,0-0.6,0-0.9,0c-0.9-0.1-1.5-0.7-1.5-1.5c0-0.8,0.6-1.5,1.4-1.5c0.6,0,1.3,0,1.9,0
		c0.9,0.1,1.5,0.7,1.5,1.5c0,0.8-0.6,1.5-1.5,1.6C58.6,13.6,58.3,13.6,58,13.6z"/>
	<path class="st1" d="M20.7,5.1c0.3,0,0.5,0,0.8,0c0.8,0.1,1.4,0.7,1.5,1.5c0,0.8-0.5,1.5-1.4,1.6c-0.5,0.1-1.1,0-1.6,0
		c-0.9-0.1-1.5-0.7-1.5-1.6c0-0.8,0.6-1.5,1.5-1.5C20.3,5.1,20.5,5.1,20.7,5.1C20.7,5.1,20.7,5.1,20.7,5.1z"/>
	<path class="st1" d="M8,5.1c0.2,0,0.5,0,0.7,0c0.9,0.1,1.5,0.7,1.5,1.5c0,0.8-0.6,1.5-1.4,1.6c-0.5,0-1,0-1.5,0
		C6.4,8.1,5.9,7.5,5.9,6.7c0-0.9,0.6-1.5,1.5-1.5C7.6,5.1,7.8,5.1,8,5.1z"/>
	<path class="st1" d="M14.4,8.2c-1.4,0-1.9-0.3-2.1-1.3c-0.2-1,0.4-1.7,1.4-1.8c0.4,0,0.9,0,1.3,0c0.9,0,1.6,0.7,1.6,1.5
		c0,0.9-0.6,1.5-1.6,1.5C14.8,8.2,14.6,8.2,14.4,8.2z"/>
	<path class="st1" d="M43.1,42.1c-0.1,6.1-4.2,10.6-9.8,11.1C28,53.7,23.1,50,22.1,44.6c-0.5-2.7,0-5.3,1.4-7.6
		c0.6-1,1.4-1.3,2.3-0.8c0.9,0.5,1,1.4,0.4,2.4c-2.6,4.3-0.5,9.9,4.3,11.2c3,0.8,5.6,0,7.7-2.3c2-2.3,2.5-5,1.3-7.9
		c-1.2-2.9-3.6-4.4-6.7-4.6c-1.1-0.1-1.7-0.5-1.8-1.3c-0.1-1,0.6-1.8,1.7-1.8c3.3,0.1,6.1,1.4,8.2,4C42.4,37.9,43.1,40.2,43.1,42.1z
		"/>
</g>
</svg>
