<?xml version="1.0" encoding="utf-8"?>
<!-- Generator: Adobe Illustrator 24.2.0, SVG Export Plug-In . SVG Version: 6.00 Build 0)  -->
<svg version="1.1" id="Layer_1" xmlns="http://www.w3.org/2000/svg" xmlns:xlink="http://www.w3.org/1999/xlink" x="0px" y="0px"
	 width="595px" height="575px" viewBox="0 0 595 575" style="enable-background:new 0 0 595 575;" xml:space="preserve">
<style type="text/css">
	.st0{fill:#40C9FF;}
	.st1{fill:#FE4040;}
	.st2{fill:#151924;}
	.st3{fill:#7665FF;}
	.st4{fill:#FFCF34;}
	.st5{fill:#D1AA2B;}
	.st6{fill:#FFFFFF;}
	.st7{fill:url(#SVGID_1_);}
	.st8{fill:url(#SVGID_2_);}
	.st9{fill:url(#SVGID_3_);}
	.st10{fill:url(#SVGID_4_);}
	.st11{fill:url(#SVGID_5_);}
	.st12{fill:url(#SVGID_6_);}
	.st13{fill:url(#SVGID_7_);}
</style>
<g>
	<path class="st0" d="M457,194.1c-138.8,0-106.5-123.7-237.3-123.7c-227.4,0-199.1,238.9-122,345c81,111.5,204.1,131.3,330.4,77
		C606.4,415.6,605.8,194.1,457,194.1z"/>
	<g>
		<g>
			<path class="st1" d="M85.6,328.8c24.6-22.5,57.1,35.8,54,58.9h-12.3C115.3,381.9,65.6,347,85.6,328.8z"/>
			<g>
				<path class="st2" d="M133.1,387.9c-18.2-33.3-47.6-58.4-47.9-58.7l0.7-0.9c0.3,0.3,29.9,25.5,48.2,59L133.1,387.9z"/>
			</g>
			<g>
				<path class="st2" d="M118.7,365c-0.9-0.1-21.4-2.2-27.7-4.6l0.4-1.1c6.1,2.3,27.2,4.5,27.4,4.5L118.7,365z"/>
			</g>
			<g>
				<path class="st2" d="M103.7,345.4l-1-0.4c2.9-7.1,3.4-18.6,3.4-18.7l1.1,0.1C107.2,326.8,106.7,338.1,103.7,345.4z"/>
			</g>
			<path class="st1" d="M128.7,350c7.5,13.2,12.1,28.3,10.9,37.7C122.4,372.7,125.9,352.4,128.7,350z"/>
			<path class="st1" d="M148.6,313.1c21.8-9.1,15.3,45.4-3.9,74.6h-8.9C131.3,380.4,130.9,320.4,148.6,313.1z"/>
			<g>
				<path class="st2" d="M140.1,387.8l-1.1-0.2c3.4-16.2,12.7-68.3,12.8-68.8l1.1,0.2C152.8,319.4,143.5,371.6,140.1,387.8z"/>
			</g>
			<g>
				
					<rect x="141.6" y="364.3" transform="matrix(0.7051 -0.7091 0.7091 0.7051 -214.942 212.7796)" class="st2" width="13.5" height="1.1"/>
			</g>
			<g>
				
					<rect x="140.8" y="337.7" transform="matrix(0.5744 -0.8185 0.8185 0.5744 -221.7118 262.2687)" class="st2" width="1.1" height="13.3"/>
			</g>
		</g>
		<path class="st3" d="M105.5,387.7v7.5c0,8.5,1.8,16.9,5.2,24.4l1.3,3l9,97.8h25.6l9.5-97.8l1.3-3c3.4-7.4,5.2-15.8,5.2-24.4v-7.5
			H105.5z"/>
		<g>
			<rect x="105.8" y="406.1" class="st2" width="42.5" height="1.1"/>
		</g>
		<g>
			<rect x="141.1" y="421.9" class="st2" width="15.2" height="1.1"/>
		</g>
		<g>
			<path class="st2" d="M121.9,520.9h-1.5l-9-98.2l-1.3-2.9c-3.4-7.5-5.2-16-5.2-24.6v-8.1h57.6v1.1H106v7c0,8.4,1.8,16.8,5.1,24.1
				l1.4,3.1l8.9,97.3h0.4V520.9z"/>
		</g>
	</g>
	<g>
		<g>
			<path class="st4" d="M251.9,343.1c-15.8-23.5-33.4-11.3-37.9-4.7C173.3,399,112.2,411.2,106.1,449c-3.3,20.5,10.8,71.7,95.1,72.4
				c88,0.8,108.5-61.8,88.4-101.9C269.5,379.6,267.7,366.6,251.9,343.1z"/>
		</g>
		<path class="st5" d="M244.4,386.6c-3.8-36.6-23.1-31.9-50.7-6.5c-27.6,25.4-35.9,37.9-54,38.9c-18.1,1-18.3,13.8-15,17
			c18,17.9,67,20.8,98.9,14.7c16.5-3.2,32.3-25.9,44.8-24.3C268.3,426.3,247.5,416.2,244.4,386.6z"/>
		<g>
			<path class="st2" d="M210,519.7c-14.6,0-24.7-12-29.3-23.2c-5.9-14.3-4.3-28.9,4-37.1c7.1-7,16.1-8.1,24.8-9.2
				c13.3-1.7,25.8-3.3,32.8-23.8c11.7-34.3-7-91.1-7.2-91.7l1.1-0.4c0.2,0.6,19,57.8,7.2,92.4c-7.3,21.2-20.7,22.9-33.8,24.6
				c-8.5,1.1-17.3,2.2-24.2,8.9c-9.1,9-8.4,24.4-3.8,35.8c4.5,10.9,14.2,22.5,28.3,22.5V519.7z"/>
		</g>
		<g>
			<path class="st2" d="M139.4,505.5c-14.2-5.2-20.2-23.1-19.9-38.7c0.2-13,5.2-28.4,18.2-32.6c9-2.9,15.8-3,21.8-3.1
				c10.8-0.2,20.2-0.3,38-16.2c27.5-24.6,27.8-78.8,27.8-79.3l1.1,0c0,0.5-0.2,55.3-28.1,80.2c-18.2,16.2-27.7,16.4-38.7,16.5
				c-6.2,0.1-12.7,0.2-21.5,3c-12.5,4-17.2,19-17.5,31.6c-0.3,14.6,5.6,32.6,19.2,37.6L139.4,505.5z"/>
		</g>
		<path class="st2" d="M222.3,517.6c3.7-0.5,7.4-1.3,11-2.2c3.6-1,7.2-2.1,10.7-3.5c3.5-1.3,6.9-3,10.2-4.8c3.2-1.9,6.4-3.8,9.3-6.2
			c5.9-4.6,11-10.2,14.8-16.6c3.8-6.4,6.2-13.6,7.4-21c0.1-0.9,0.4-1.8,0.4-2.8l0.2-2.8c0.1-1.9,0.4-3.7,0.3-5.6
			c0-1.9,0-3.7-0.1-5.6l-0.5-5.6c-0.1-0.9-0.1-1.9-0.3-2.8l-0.5-2.8c-0.3-1.8-0.6-3.7-1-5.5l-1.4-5.5c-0.4-1.8-0.8-3.7-1.5-5.4
			c-2.1-7.2-4.7-14.2-7.7-21.2l-2.3-5.2c-0.8-1.7-1.5-3.5-2.3-5.1l-5-10.1l5.3,10c0.9,1.6,1.7,3.4,2.5,5.1l2.4,5.1
			c3.1,6.9,5.8,13.9,8,21.1c0.6,1.8,1.1,3.6,1.5,5.4l1.4,5.5c0.4,1.8,0.7,3.7,1,5.6l0.5,2.8c0.2,0.9,0.2,1.9,0.3,2.8l0.6,5.6
			c0.1,1.9,0.1,3.8,0.1,5.7c0.1,1.9-0.1,3.8-0.3,5.7l-0.2,2.8c-0.1,0.9-0.3,1.9-0.4,2.8c-1.2,7.5-3.7,14.8-7.6,21.3
			c-3.9,6.5-9.1,12.2-15.2,16.7c-6,4.6-12.8,8.1-19.9,10.8c-3.5,1.3-7.1,2.4-10.8,3.3C229.7,516.5,226,517.2,222.3,517.6z"/>
	</g>
	<g>
		<g>
			<path class="st2" d="M516.5,321.8l-1.1-0.3l21.2-82.7c1.3-8.1-1.2-16.9-6.7-23.4c-4.8-5.6-11.3-8.9-17.8-8.9h-31.5
				c-16.6,0-30.3,12.5-33.3,30.5l-6.3,83.5l-1.1-0.1l6.3-83.5c3.1-18.5,17.2-31.5,34.4-31.5h31.5c6.9,0,13.7,3.4,18.7,9.2
				c5.7,6.7,8.3,15.9,6.9,24.4L516.5,321.8z"/>
		</g>
		<g>
			<path class="st2" d="M505.5,321.7l-1.1-0.2l12.5-82.7c1.1-10.9-2-22.8-7.4-28.7c-2.1-2.4-4.5-3.6-6.9-3.6h-18.6
				c-9.7,0-17.6,12.5-19.4,30.4l-3.7,83.5l-1.1-0.1l3.7-83.5c1.9-18.8,10.1-31.5,20.5-31.5h18.6c2.7,0,5.3,1.4,7.7,4
				c5.6,6.2,8.8,18.3,7.7,29.6L505.5,321.7z"/>
		</g>
		<g>
			<path class="st2" d="M495.5,321.7l-1.1-0.1l4.7-82.7c0.6-15.6-1.8-29.4-4.3-32c-0.2-0.2-0.4-0.4-0.6-0.4h-6.9
				c-2.8,0-6.1,10.7-6.9,30.4l-1.4,83.5l-1.1,0l1.4-83.5c0.5-14.5,2.9-31.5,8-31.5h6.9c0.5,0,1,0.2,1.4,0.7c3,3.1,5.1,18.2,4.6,32.8
				L495.5,321.7z"/>
		</g>
		<g>
			<path class="st2" d="M501.5,520h-18.1c-4.9,0-9-4-9.1-8.9l-3.6-172.7c-0.1-3.9,1.3-7.5,3.7-10c1.9-1.9,4.3-3,6.8-3h22.3
				c2.5,0,4.9,1.1,6.8,3c2.4,2.5,3.8,6.1,3.7,10l-3.6,172.7C510.4,516,506.4,520,501.5,520z M481.3,326.5c-2.2,0-4.3,0.9-6,2.7
				c-2.2,2.3-3.5,5.6-3.4,9.2l3.6,172.7c0.1,4.3,3.6,7.9,7.9,7.9h18.1c4.3,0,7.8-3.5,7.9-7.9l3.6-172.7c0.1-3.6-1.2-6.9-3.4-9.2
				c-1.7-1.7-3.8-2.7-6-2.7H481.3z"/>
		</g>
		<g>
			<path class="st2" d="M436.2,520h-18.1c-4.9,0-9-4-9.1-8.9l-3.6-172.7c-0.1-3.9,1.3-7.5,3.7-10c1.9-1.9,4.3-3,6.8-3h22.3
				c2.5,0,4.9,1.1,6.8,3c2.4,2.5,3.8,6.1,3.7,10l-3.6,172.7C445.1,516,441.1,520,436.2,520z M416,326.5c-2.2,0-4.3,0.9-6,2.7
				c-2.2,2.3-3.5,5.6-3.4,9.2l3.6,172.7c0.1,4.3,3.6,7.9,7.9,7.9h18.1c4.3,0,7.8-3.5,7.9-7.9l3.6-172.7c0.1-3.6-1.2-6.9-3.4-9.2
				c-1.7-1.7-3.8-2.7-6-2.7H416z"/>
		</g>
		<path class="st2" d="M404.1,329.7c38,2.7,76.2,2.7,114.3,0c3-0.2,5.3-2.8,5.1-5.8l0,0c-0.2-3-2.9-5.2-5.9-5
			c-37.5,2.7-75.2,2.7-112.7,0c-3-0.2-5.6,2-5.9,5l0,0C398.8,326.9,401.1,329.5,404.1,329.7z"/>
	</g>
	<path class="st0" d="M497.2,171.2c-45.2,10.5-139.1-14-160.6-93.7S630.7,140.2,497.2,171.2z"/>
	<g>
		<g>
			<g>
				<g>
					<polygon class="st6" points="339.9,467 316.7,460.3 322.7,429.3 351.8,437.8 					"/>
					<path d="M340.2,467.6l-24.1-7l6.2-31.9l30.2,8.8L340.2,467.6z M317.2,459.9l22.4,6.5l11.5-28.3l-28-8.1L317.2,459.9z"/>
				</g>
				<g>
					<path class="st4" d="M316.6,449.4c0,0,6.8-0.1,9.8,7.6c3,7.7,7.9,4,9.9,3.8c2-0.2,4.5,0,6.8,2c0,0-9.3,30.7-13.9,40.7
						l-71.1-20.6c0,0,0.6-7.6,8.1-9c7.4-1.4,37.5-1.2,43.8-6.9C316.3,461.3,316.6,449.4,316.6,449.4z"/>
					<g>
						<path class="st2" d="M318.7,495l-1-0.4c5.5-13.4,19.7-14.2,19.9-14.2l0,1.1C337.4,481.5,323.9,482.3,318.7,495z"/>
					</g>
					<path class="st2" d="M331.8,497.2c-0.9,2.5-1.8,4.7-2.6,6.3l-71.1-20.6c0,0,0.3-3.5,2.9-6.2L331.8,497.2z"/>
					<g>
						<path class="st2" d="M304.3,477.6c-3,0-5.2-0.2-5.5-0.2l-0.1,0l-7.5-4.7l0.6-1l7.3,4.6c1.6,0.1,16.7,1.4,20.4-4
							c4-5.7,3-15.3,3-15.4l1.1-0.1c0,0.4,1.1,10.1-3.2,16.2C317.6,476.8,309.7,477.6,304.3,477.6z"/>
					</g>
					<g>
						
							<rect x="304.3" y="468.6" transform="matrix(0.5841 -0.8117 0.8117 0.5841 -256.7833 443.9763)" class="st2" width="1.1" height="7.9"/>
					</g>
					<g>
						
							<rect x="312.2" y="466.1" transform="matrix(0.5842 -0.8116 0.8116 0.5842 -251.4274 449.2697)" class="st2" width="1.1" height="7.9"/>
					</g>
				</g>
			</g>
			<path class="st1" d="M423.1,262.8c-23.9,3.3-66,12.8-92.4,30.5c-26.4,17.7-7.1,58.2,19.9,55.4c27.7-2.9,57-11.3,89.5-23.4
				C472.5,313.2,462.4,257.3,423.1,262.8z"/>
			<path class="st2" d="M371.1,277.9c3.3,8,4.1,17.4,8.4,25c4.4,7.9,15,10.5,22,4.5c8.2-7,8.7-15.6,10-25.7
				c0.7-5.7,1.5-11.5,1.6-17.3c-12.8,2.3-28.4,5.8-43.7,11C370,276,370.6,276.8,371.1,277.9z"/>
			<path class="st2" d="M401.9,310.2c-6.8,2-20,8.9-26.4,11.7c-6.3,2.8-20.9,25.2-21.8,26.4c26.8-3.2,55.1-11.4,86.4-23
				c9.3-3.5,15.1-10.6,17.7-18.8C454.6,306.3,416.5,306,401.9,310.2z"/>
			<g>
				<path class="st1" d="M295.3,440.1c0,0,18.8-93.3,22.7-126.2c3.9-32.9,58.3-13.1,62.6,13.7c4.4,27.5-27.3,122.4-27.3,122.4
					L295.3,440.1z"/>
			</g>
			<g>
				<path class="st2" d="M310.1,434.5l-1.1-0.3c4.6-15.9,7.3-40.2,10-63.6c3.3-29.2,6.4-56.8,12.8-63.7c11.1-12,55.3-27.4,57.2-28.1
					l0.4,1.1c-0.5,0.2-45.8,16-56.8,27.8c-6.1,6.6-9.2,34-12.5,63C317.4,394.2,314.7,418.5,310.1,434.5z"/>
			</g>
			<g>
				<path class="st4" d="M291,426.6c0.9,7.7,1.7,16.8,1.7,16.8s5.3,4.1,11.8,6.2c37.6,12.3,50.9,4.7,50.9,4.7s4.8-10.2,5.9-15
					C351.8,439.1,314.3,436.9,291,426.6z"/>
				<g>
					<path class="st2" d="M341.3,457.1c-8.1,0-20.1-1.5-36.9-7.1c-6.5-2.1-11.7-6.1-11.9-6.3l-0.2-0.1l0-0.2c0-0.1-0.8-9.2-1.7-16.8
						l-0.1-1l0.9,0.4c4.3,1.9,9.3,3.6,14.8,5.1l-0.3,1.1c-5.2-1.4-9.9-3-14-4.8c0.8,6.7,1.5,14.2,1.6,15.6c1,0.7,5.8,4.1,11.4,6
						c34.7,11.4,48.7,5.5,50.2,4.8l0.5,1C354.1,455.4,349.8,457.1,341.3,457.1z"/>
				</g>
			</g>
		</g>
		<g>
			<g>
				<path class="st6" d="M401,241.8c-1.3-1.1-21.2-15.9-25.8-17.8c-0.7,0.8-29.4,44.3-34.3,51.8c-0.7,0.9-3.9,4-15.4,7
					c-13.7,3.6-14,11-14,11s-0.2,7.4,1.4,10.2c1.1,2,11.7,3.8,15.3,2.7c2.6-0.8,4.9-3.2,2.9-5c-2-1.8-0.8-3.4-0.3-4.1
					c0.5-0.9,2-1.2,3-1.4c0,0,0.1,0,0.1,0.1c0.4,0.2,0.8,0.4,1.2,0.5c0.1,0.2,0.1,0.4,0.1,0.6c0.2,3.3,0.3,8.2,2,9.7
					c1.8,1.5,1.8-0.8,2.1-2.2c0.3-1.4,1.3-4.7,2-6.4c0.6-1.6,4.9-5.8,5.1-8.9c0.5-0.7,0.9-1.3,1.1-1.6
					C356.3,278.4,398.8,243.3,401,241.8z"/>
				<path d="M338.1,308c-0.6,0-1.1-0.4-1.3-0.6c-1.7-1.5-2-5.7-2.2-9l-0.1-1c0-0.1,0-0.2,0-0.3c-0.3-0.1-0.6-0.2-0.9-0.4
					c-1.3,0.2-2.2,0.6-2.5,1.1l-0.1,0.1c-0.6,1-1.1,2.1,0.3,3.3c1,0.9,1,1.8,0.9,2.4c-0.4,1.7-2.3,2.9-4,3.4
					c-3.6,1.1-14.5-0.6-15.9-2.9c-1.6-2.8-1.5-10.1-1.5-10.5c0-0.3,0.5-7.8,14.4-11.5c11.4-3,14.5-6,15.2-6.9
					c7.8-11.9,33.6-50.9,34.3-51.8l0.2-0.3l0.3,0.1c4.6,1.8,24.6,16.7,25.9,17.8l0.5,0.4l-0.5,0.4c-1.8,1.3-44.6,36.6-53.5,46.1
					c-0.1,0.2-0.5,0.8-0.9,1.4c-0.2,2.1-2.1,4.5-3.6,6.5c-0.7,0.9-1.4,1.8-1.6,2.3c-0.7,1.7-1.7,5-2,6.4c0,0.2-0.1,0.5-0.1,0.7
					c-0.2,1-0.3,2-1.1,2.3C338.4,308,338.3,308,338.1,308z M333.8,295.7l0.3,0.1c0.3,0.2,0.7,0.3,1.1,0.4l0.3,0.1l0.1,0.3
					c0.1,0.2,0.1,0.5,0.1,0.7l0.1,1c0.2,3,0.4,7.1,1.8,8.3c0.5,0.4,0.7,0.4,0.7,0.4c0.2-0.1,0.4-1.1,0.5-1.5c0-0.3,0.1-0.5,0.1-0.8
					c0.3-1.4,1.3-4.8,2-6.5c0.2-0.6,0.9-1.5,1.7-2.6c1.4-1.8,3.2-4.3,3.4-6.2l0-0.1l0.1-0.1c0.5-0.7,0.8-1.2,1-1.6
					c8.5-9.2,47.9-41.8,53.2-45.9c-3.3-2.5-20-14.9-24.8-17.1c-2.2,3.1-19.4,29.2-34.1,51.4c-1,1.2-4.4,4.3-15.7,7.2
					c-13.2,3.5-13.6,10.5-13.7,10.5c0,0.1-0.1,7.3,1.4,9.9c0.9,1.6,11,3.5,14.7,2.4c1.6-0.5,3.1-1.7,3.3-2.7c0.1-0.5-0.1-1-0.6-1.5
					c-2.2-2-0.9-3.9-0.5-4.6l0.1-0.1c0.5-0.8,1.6-1.4,3.3-1.6L333.8,295.7z"/>
			</g>
			<path class="st2" d="M325.5,306.7l-1.4-10.7C324.2,296,323.9,303,325.5,306.7z"/>
			<path class="st2" d="M317,306.5l-2.5-10.5C314.5,296,314.9,303,317,306.5z"/>
			<path class="st2" d="M321.6,307.2l-3.1-12.3C318.5,295,319.5,303.7,321.6,307.2z"/>
		</g>
		<g>
			<path class="st1" d="M431.8,165.5c11.9,17.6-2.8,54.5-43.7,96.4c0,0-13.7-14.5-26.9-43.5c0,0,13.2-20.2,32.2-42.3
				S426.8,158.1,431.8,165.5z"/>
			<path class="st4" d="M361.8,211.6c-1.6,3.1-3.3,6.4-3.3,6.4s0.5,3.1,1.9,6.1c11.2,25.5,32.8,48.6,32.8,48.6l7.2-9.6
				C388.3,249.2,367.3,224.1,361.8,211.6z"/>
			<g>
				<path class="st2" d="M392.5,272.8c-2.4-2.3-22.7-25.8-32.7-48.5c-1.4-3.1-1.9-6.1-1.9-6.3l0-0.2l0.1-0.2c0,0,1.8-3.3,3.3-6.3
					l0.5-1l0.5,1.1c0.9,2,2.1,4.3,3.7,6.8l-1,0.6c-1.3-2.2-2.4-4.1-3.2-5.9c-1.2,2.3-2.4,4.5-2.7,5.2c0.1,0.7,0.7,3.3,1.8,5.8
					c9.9,22.5,30.1,45.8,32.4,48.2L392.5,272.8z"/>
			</g>
		</g>
		<g>
			<g>
				<polygon class="st6" points="450.1,482 425.9,482 423.1,450.6 453.4,450.6 				"/>
				<path d="M425.5,482.5l-2.9-32.4l31.4,0l-3.4,32.4L425.5,482.5z M423.6,451.1l2.8,30.4l23.3,0l3.2-30.4L423.6,451.1z"/>
			</g>
			<g>
				<path class="st4" d="M422.9,471.6c0,0,6.5-2,11.6,4.6c5,6.6,8.7,1.6,10.6,0.8c1.9-0.8,4.3-1.2,7.1,0c0,0-0.4,32.1-2,43
					l-74.1,0.1c0,0-1.5-7.4,5.2-10.9c6.8-3.4,35.7-11.6,40.1-18.8C425.9,483.1,422.9,471.6,422.9,471.6z"/>
				<g>
					<path class="st2" d="M437.5,514.8l-1.1-0.1c1.5-14.4,15-19.1,15.1-19.2l0.4,1.1C451.8,496.6,439,501.1,437.5,514.8z"/>
				</g>
				<path class="st2" d="M450.8,513.2c-0.2,2.7-0.4,5-0.7,6.8l-74.1,0.1c0,0-0.7-3.5,1-6.8L450.8,513.2z"/>
				<g>
					<path class="st2" d="M413.4,503.4l-8.6-2.4l0.3-1.1l8.3,2.3c1.5-0.3,16.4-3.4,18.5-9.5c2.2-6.6-1.4-15.5-1.5-15.6l1-0.4
						c0.2,0.4,3.9,9.4,1.5,16.4c-2.4,7.1-18.8,10.2-19.5,10.3L413.4,503.4z"/>
				</g>
				<g>
					
						<rect x="417.5" y="493.2" transform="matrix(0.3341 -0.9426 0.9426 0.3341 -190.2073 725.0957)" class="st2" width="1.1" height="7.9"/>
				</g>
				<g>
					
						<rect x="424.3" y="488.5" transform="matrix(0.334 -0.9426 0.9426 0.334 -181.2415 728.4788)" class="st2" width="1.1" height="7.9"/>
				</g>
			</g>
			<path class="st1" d="M481,304.6c-2.8,11.8-12.3,55.9-35.4,79.1c0,0-82.3,7.5-69-22.9c10.9-24.9,26.3-65.8,33.2-79.9
				C416.6,266.8,487.1,278.8,481,304.6z"/>
			<path class="st2" d="M472.5,335.5c4.6-13.6,7.3-25.6,8.5-30.9c6.1-25.8-40.2-22.3-47-8.2c-0.6,1.2-14.4,23.1-15,24.6
				C421.6,324.2,444.6,341,472.5,335.5z"/>
			<g>
				<path class="st1" d="M398.8,473.8c0,0-13.9-67-23-98.9c-9.1-31.9,48.6-28.5,62.9-5.4c14.7,23.7,18.4,52.3,20.5,103.6
					L398.8,473.8z"/>
			</g>
			<g>
				<path class="st2" d="M408.9,468.9c-0.2-0.9-16.7-89.3-18.6-98c-1.9-8.9,23.6-56.2,24.7-58.2l1,0.5c-0.3,0.5-26.4,49-24.6,57.5
					c1.9,8.7,18.5,97.2,18.6,98L408.9,468.9z"/>
			</g>
			<g>
				<path class="st4" d="M391.1,464.8c2.8,7.2,5.9,15.8,5.9,15.8s6.1,2.6,12.9,3.1c39.5,2.5,50.4-8.2,50.4-8.2s2.1-11.1,2-16
					C453.1,461.8,416.3,468.9,391.1,464.8z"/>
				<g>
					<path class="st2" d="M421.6,484.6c-3.6,0-7.5-0.1-11.7-0.4c-6.8-0.4-12.9-3-13.1-3.1l-0.2-0.1l-0.1-0.2c0-0.1-3.1-8.7-5.9-15.8
						l-0.4-0.9l1,0.2c4.6,0.8,9.9,1.2,15.6,1.3l0,1.1c-5.4-0.1-10.3-0.5-14.8-1.1c2.4,6.3,4.9,13.3,5.4,14.7
						c1.2,0.5,6.6,2.5,12.5,2.9c36.5,2.3,48.6-6.8,49.8-7.9l0.7,0.9C458.6,477.6,448.8,484.6,421.6,484.6z"/>
				</g>
			</g>
		</g>
		<path class="st6" d="M442.7,154.3c36.8,2.6,53.8,101.6,36.3,158.8c0,0-54.9,1.4-99.6-44.3c0,0,1.9-14.1,14.9-26.5
			c0,0,3.6-50.1,16.2-70.2S434.2,153.7,442.7,154.3z"/>
		<path class="st1" d="M392.9,301.8c1.9-1.9,17.1-4.5,17.1-18c0-4.9,2.2-36.6,2.9-45.6c0.7-9,4.1-66.6,8.8-79.3
			c-4.9,2.3-6.4,4.2-12,13c-12.6,20.1-11.3,49.9-19.3,67.8c-7.3,16.4-21.5,36.1-21.5,36.1C383.6,272.4,381.2,295.4,392.9,301.8z"/>
		<g>
			<path class="st2" d="M407.2,286.2l-1.1-0.3c1.9-6.2,1.3-10.8-1.7-26.5c-3.1-16.2-1.5-65.5-1.4-66l0-1.2l0.9,0.9
				c1.6,1.5,3.7,3.5,5.3,5c-0.8-1.8-1.7-4-2-5l-0.1-0.2l0-0.2c2.8-12,12.8-32.6,12.9-32.8l1,0.5c-0.1,0.2-9.9,20.5-12.8,32.4
				c1.3,3.3,2.8,6.8,3.1,7.2l0.3,0.4l-0.3,0.4c-0.2,0.2-0.3,0.3-0.8-0.1l0,0c0,0-0.1-0.1-0.1-0.1c-0.8-0.6-2.5-2.2-6.4-5.9
				c-0.2,7.8-1.4,49.9,1.5,64.5C408.5,275.1,409.1,279.8,407.2,286.2z"/>
		</g>
		<path class="st1" d="M442.7,154.2c0,0-11.8,16.6-11.8,32.1c0,18.1-8.3,38.9-1,81c6.9,40.1-11.5,52.5-11.8,53
			c28,11.7,72.2-6.6,72.2-6.6C497.7,254.5,479.5,156.8,442.7,154.2z"/>
		<g>
			<path class="st2" d="M429.9,308.2l-1.1-0.3c1.2-4.1,2.4-6.8,3.5-9.2c2.6-5.7,4.6-10.3,5.4-29.8c1.1-25.9,0.1-72.4,0-78.8l-4,1.2
				l3.5-5.6c4.5-15.4,5.1-30.2,5.1-30.4l1.1,0c0,0.1-0.7,15.2-5.2,30.7l-0.1,0.1l-2,3.2l2.6-0.7l0,0.7c0,0.5,1.2,51.8,0,79.6
				c-0.8,19.8-2.9,24.4-5.5,30.2C432.2,301.7,431.1,304.2,429.9,308.2z"/>
		</g>
		<path class="st2" d="M467.4,183.9l-5.6,64.6C461.8,248.5,495.9,232.9,467.4,183.9z"/>
		<g>
			<path class="st2" d="M413.8,102c-5.2,5.3-8,21.7-1.2,34.8c6.9,13.1,0.2,19.5,0.2,19.5s25.8-0.4,32.1-4.6c0,0-1.7-4.4-0.7-10.4
				c0,0,1,5.1,4.1,8.7c0,0,6,3.3,12.8-2.9c0,0-9.7-9.1-10-27.1c-0.4-18.1-12-23.3-18.3-24.1C426.7,95,418.6,97.1,413.8,102z"/>
			<g>
				<path class="st6" d="M413.8,138.1l7.3,23c0,0,14.4,4.8,21.7-6.8l-6.5-23.3L413.8,138.1z"/>
				<path d="M427.9,162.5c-3.9,0-6.9-1-7-1l-0.2-0.1l-7.5-23.7l23.4-7.5l6.8,24l-0.1,0.2C439,161.1,432.7,162.5,427.9,162.5z
					 M421.4,160.7c1.9,0.5,14.2,3.7,20.8-6.5l-6.3-22.6l-21.4,6.9L421.4,160.7z"/>
			</g>
			<g>
				<path class="st6" d="M437.6,125.9c-1.5-8.4-2.6-15.9-8.6-18.9c-2.5-1.3-5.1-1.6-7.6-1.4c-8.2,0.6-14.4,5.4-15.5,13.5
					c-1.2,9.1-1.8,26.9,9.1,28.2c3.5,0.4,9-1.6,13.7-4.5L437.6,125.9z"/>
				<path d="M416,147.8c-0.4,0-0.7,0-1.1-0.1c-2.6-0.3-4.7-1.5-6.3-3.6c-5.1-6.5-3.9-19.8-3.2-25.1c1.1-8.1,7.1-13.3,16-14
					c2.9-0.2,5.5,0.3,7.9,1.5c5.9,3,7.2,10,8.6,18.2l0.2,1.1l-1,0.2l-0.2-1.1c-1.4-7.9-2.6-14.7-8.1-17.5c-2.2-1.1-4.7-1.6-7.3-1.4
					c-8.4,0.7-14.1,5.6-15.1,13.1c-0.6,4.1-2,18,3,24.4c1.5,1.9,3.4,3,5.6,3.3c3.1,0.4,8.3-1.4,13.3-4.4l0.5,0.9
					C425.1,145.5,419.9,147.8,416,147.8z"/>
			</g>
			<g>
				<path class="st2" d="M411.5,131.3c-0.5-0.3-3.3-1.8-3.4-3.3c0-0.3,0-0.8,0.6-1.2c2.8-2.2,3.2-6,3.3-6.7c-0.3-0.5-1.5-2.3-4.1-2
					l-0.1-1.1c3.1-0.3,4.8,1.7,5.3,2.8l0.1,0.1l0,0.1c0,0.2-0.2,5-3.7,7.7c-0.1,0.1-0.1,0.2-0.1,0.2c0,0.6,1.5,1.7,2.8,2.4
					L411.5,131.3z"/>
			</g>
			<path class="st2" d="M437.1,123.9c0,0-5.9-10-13-13c0,0-14.1-0.8-17.7,5.6c0,0,0.3-15.4,16.5-15.2
				C438.6,101.7,439.6,117.9,437.1,123.9z"/>
			<path class="st6" d="M439.6,123.3c-1.2-0.3-2.5-0.2-3.6,0.3l-0.1,5.5c-0.2-0.2-0.4-0.3-0.6-0.3c-1,0-2.1,2.1-1.5,3.1
				c0.2,0.3,0.4,0.4,0.5,0.4c0.5,0.2,1.1,0,1.6-0.3l0,2.2c0.3,0.2,0.7,0.3,1.1,0.4c3.1,0.7,6.2-1.2,7-4.3
				C444.6,127.1,442.7,124,439.6,123.3z"/>
			<g>
				<g>
					<path class="st6" d="M424.8,111.7l-1-0.6c2.3-3.9,5.5-4.6,5.7-4.7l0.3,1.1C429.8,107.6,426.9,108.3,424.8,111.7z"/>
					<path d="M425,112.4l-1.8-1.1l0.3-0.4c2.4-4,5.9-4.9,6-4.9l0.5-0.1l0.5,2.1l-0.5,0.1c0,0-2.7,0.7-4.7,3.9L425,112.4z M424.5,111
						l0.1,0.1c1.6-2.5,3.6-3.5,4.6-3.8l0-0.1C428.3,107.4,426.2,108.4,424.5,111z"/>
				</g>
			</g>
			<g>
				<path class="st2" d="M438,133.3c-0.1,0-0.3,0-0.4,0c-0.4-0.1-0.8-0.3-1-0.7c-0.5-0.9-0.1-1.5,0.3-1.9c0.3-0.4,0.6-0.7,0.4-1.4
					c-0.1-0.6-0.5-1-0.8-1.4c-0.5-0.6-1.3-1.6,0.1-2.7c1.9-1.6,4.9,1.3,5.1,1.4l-0.8,0.8c-0.6-0.6-2.6-2.1-3.6-1.4
					c-0.5,0.4-0.5,0.5,0,1.2c0.4,0.5,0.8,1,1,1.9c0.3,1.2-0.3,1.9-0.6,2.3c-0.3,0.4-0.3,0.4-0.2,0.6c0.1,0.1,0.2,0.2,0.3,0.2
					c0.4,0.1,1.1-0.3,1.4-0.4l0.6,0.9C439.8,132.7,438.9,133.3,438,133.3z"/>
			</g>
			<g>
				<path class="st2" d="M423.8,121.8c-4-3.4-5.7-1.9-5.7-1.9l-0.8-0.8c0.1-0.1,2.4-2.4,7.3,1.8L423.8,121.8z"/>
			</g>
			<g>
				<path class="st2" d="M410.3,135.4c-0.3,2.5,1.3,4.8,3.8,5.4c2.7,0.6,5.4-1,6-3.7c0.1-0.6,0.1-1.2,0.1-1.7
					C416.9,135.7,413.5,135.8,410.3,135.4z"/>
				<path class="st1" d="M412.1,139.7c0,0.1,0,0.1,0,0.2c0.6,0.5,1.2,0.8,2,1c2.7,0.6,5.4-1,6-3.7
					C420.3,136.2,412.5,135.8,412.1,139.7z"/>
			</g>
			<path class="st2" d="M421.8,123.3c-0.2,0.7-0.9,1.1-1.6,1c-0.7-0.2-1.1-0.9-1-1.6c0.2-0.7,0.9-1.1,1.6-1
				C421.5,121.8,422,122.6,421.8,123.3z"/>
			<path class="st2" d="M409.9,121.8c-0.2,0.7-0.9,1.1-1.6,1c-0.7-0.2-1.1-0.9-1-1.6c0.2-0.7,0.9-1.1,1.6-1
				C409.7,120.4,410.1,121.1,409.9,121.8z"/>
			<g>
				<path class="st2" d="M431.8,137.7c-1-2.9-0.2-5.3,0.5-7.6c0.6-2,1.2-3.9,0.7-6c-0.5-2.2-1.6-3.8-2.7-5.5
					c-1.3-1.9-2.7-3.9-2.8-6.6l1.1,0c0.1,2.4,1.3,4.1,2.6,6c1.2,1.7,2.4,3.5,2.9,5.9c0.5,2.4-0.1,4.5-0.8,6.6
					c-0.7,2.2-1.3,4.4-0.5,6.9L431.8,137.7z"/>
			</g>
		</g>
		<g>
			<g>
				<path class="st6" d="M436.9,239.1c-9.4-9.3-41.1-30.4-45-32.9c-2.2-2.4-6-7.1-10.4-14.7c-4.4-7.7-9.4-10-12.5-10.7
					c-0.5-0.1-18.6-4.9-24-3c-1.2,0.4-1.4,2.6-0.1,2.7c5.4,0.7,19.6,4.7,19.6,4.7s-12.4,5.3-12.1,7c0.2,1,2.5,4.9,4.5,8.1
					c1.4,2.3,4.1,2.2,6.7,1.3c3.1-1,5.5-1.6,6.3-1.3c1,0.3,1.7,1.6,2.1,2.5c0,0,0,0.1,0,0.1c-1.4,6.2,6.2,9.7,8.7,10.7
					c9.4,7.5,23.5,34.3,39.3,48.3C430.6,271.5,452.2,254.4,436.9,239.1z"/>
				<path d="M427.3,265.2c-2.7,0-5.4-0.9-7.6-2.9c-8.6-7.6-16.7-19.1-23.9-29.2c-6-8.4-11.1-15.7-15.4-19.1
					c-2.6-1-10.4-4.7-8.9-11.2c-0.5-1.2-1.1-1.9-1.7-2.1c-0.6-0.2-2.6,0.2-6,1.3c-4.3,1.5-6.4,0-7.3-1.5c-4.4-7.1-4.5-8-4.6-8.3
					c-0.3-1.6,6.3-4.9,11.1-7c-3.7-1-13.8-3.7-18.1-4.3c-0.8-0.1-1.3-0.7-1.4-1.5c-0.1-0.8,0.4-1.9,1.3-2.2c5.5-1.9,23.6,2.8,24.3,3
					c3.4,0.7,8.4,3.2,12.9,10.9c4.3,7.4,7.9,12,10.3,14.6c3.9,2.5,35.6,23.6,45,33l0,0c8.2,8.1,5.9,16.5,1.5,21.2
					C435.8,263.2,431.5,265.2,427.3,265.2z M369.3,199.8c0.3,0,0.5,0,0.7,0.1c0.9,0.3,1.7,1.2,2.4,2.8l0.1,0.1l-0.1,0.3
					c-1.3,5.8,6.1,9.2,8.4,10.1l0.1,0.1c4.3,3.4,9.6,10.8,15.6,19.3c7.1,10,15.2,21.4,23.7,29c5.3,4.7,13.2,2.5,17.7-2.3
					c4.3-4.6,6.2-12.2-1.4-19.8l0,0c-9.4-9.3-41.3-30.5-44.9-32.9l-0.1-0.1c-2.4-2.6-6.1-7.3-10.5-14.8c-4.2-7.4-9-9.8-12.2-10.4
					c-6.4-1.7-19.6-4.5-23.8-3c-0.5,0.2-0.7,0.7-0.7,1.2c0,0.3,0.2,0.5,0.5,0.6c5.4,0.7,19,4.5,19.6,4.7l1.4,0.4l-1.3,0.6
					c-5.5,2.4-11.6,5.5-11.8,6.5c0.1,0.3,0.6,1.7,4.5,7.9c1.1,1.7,3.1,2.1,6.1,1.1C365,200.6,367.7,199.8,369.3,199.8z"/>
			</g>
			<path class="st2" d="M356.5,199.5l12.4-4.6C368.9,194.9,360.5,196.8,356.5,199.5z"/>
			<path class="st2" d="M354,195.8l13.9-6.7C367.9,189.1,357.7,192.7,354,195.8z"/>
		</g>
		<g>
			<path class="st2" d="M453.9,286.6c-3.6,0-6.9-0.3-9.3-1.2l0.4-1.1c9.5,3.4,32.8-1.9,33.1-1.9l0.3,1.1
				C477.5,283.6,464.5,286.6,453.9,286.6z"/>
		</g>
		<g>
			<path class="st1" d="M456.8,164.1c18.3,10.8,19.3,50.6,0.4,106c0,0-18.8-12-39.1-46.6c0,0,3.9-4.7,11.6-32.8
				C437.5,162.6,449.2,159.6,456.8,164.1z"/>
			<g>
				<path class="st2" d="M458,269.7l-1.1-0.4c15.8-47,18.9-74.5,10.4-91.9l1-0.5C477,194.7,473.9,222.4,458,269.7z"/>
			</g>
			<path class="st4" d="M419.4,215.1c-1.2,3.2-2.6,6.7-2.6,6.7s0.9,3,2.5,5.9c13.9,24.1,37.9,44.7,37.9,44.7l6.1-10.3
				C449.9,249.5,426.3,226.9,419.4,215.1z"/>
			<g>
				<path class="st2" d="M456.6,272.6c-2.6-2.1-25.4-23.2-37.8-44.7c-1.7-2.9-2.5-5.9-2.6-6l-0.1-0.2l0.1-0.2c0,0,1.4-3.5,2.6-6.7
					l0.4-1.1l0.6,1c1.1,1.9,2.6,4,4.4,6.4l-0.9,0.7c-1.5-2-2.8-3.8-3.9-5.5c-0.9,2.4-1.9,4.8-2.1,5.4c0.2,0.7,1,3.2,2.4,5.6
					c12.3,21.3,34.9,42.3,37.5,44.3L456.6,272.6z"/>
			</g>
		</g>
		<g>
			<path class="st2" d="M383.3,347.4l-1-0.4c0.1-0.2,9.7-24.9,16.5-40.5l1,0.4C393,322.5,383.4,347.1,383.3,347.4z"/>
		</g>
	</g>
	<g>
		<path class="st2" d="M482.8,276.8c0,0.2-0.2,0.4-0.4,0.4h-76.1c-0.5,0-0.9-0.4-0.9-0.9v-2.1h77.4V276.8z"/>
		<g>
			<path class="st2" d="M415.3,273.4v0.9h-2.7v-1.2h2.4C415.2,273.1,415.3,273.2,415.3,273.4z"/>
			<path class="st2" d="M418.5,273.4v0.9h-2.7v-1.2h2.4C418.4,273.1,418.5,273.2,418.5,273.4z"/>
			<path class="st2" d="M421.6,273.4v0.9h-2.7v-1.2h2.4C421.5,273.1,421.6,273.2,421.6,273.4z"/>
			<path class="st2" d="M434.8,273.4v0.9h-2.7v-1.2h2.4C434.6,273.1,434.8,273.2,434.8,273.4z"/>
			<path class="st2" d="M437.9,273.4v0.9h-2.7v-1.2h2.4C437.8,273.1,437.9,273.2,437.9,273.4z"/>
			<path class="st2" d="M474.9,273.4v0.9h-2.7v-1.2h2.4C474.8,273.1,474.9,273.2,474.9,273.4z"/>
			<path class="st2" d="M478.1,273.4v0.9h-2.7v-1.2h2.4C477.9,273.1,478.1,273.2,478.1,273.4z"/>
			<path class="st2" d="M431.5,273.4v0.9h-9.3v-1.2h9C431.4,273.1,431.5,273.2,431.5,273.4z"/>
			<path class="st2" d="M488.3,273.4v0.9h-9.3v-1.2h9C488.2,273.1,488.3,273.2,488.3,273.4z"/>
			<path class="st2" d="M471.5,273.4v0.9H439v-1.2h32.1C471.3,273.1,471.5,273.2,471.5,273.4z"/>
		</g>
		<g>
			
				<linearGradient id="SVGID_1_" gradientUnits="userSpaceOnUse" x1="630.5579" y1="273.6836" x2="638.1088" y2="273.6836" gradientTransform="matrix(-1 0 0 1 1125.3555 0)">
				<stop  offset="0" style="stop-color:#AACEFF"/>
				<stop  offset="1" style="stop-color:#DBE9FF"/>
			</linearGradient>
			<path class="st7" d="M487.5,273.1h6.6c0.4,0,0.7,0.3,0.7,0.7v0.5h-7.6v-0.9C487.2,273.2,487.4,273.1,487.5,273.1z"/>
			
				<linearGradient id="SVGID_2_" gradientUnits="userSpaceOnUse" x1="621.4642" y1="273.6836" x2="629.014" y2="273.6836" gradientTransform="matrix(-1 0 0 1 1125.3555 0)">
				<stop  offset="0" style="stop-color:#AACEFF"/>
				<stop  offset="1" style="stop-color:#DBE9FF"/>
			</linearGradient>
			<path class="st8" d="M496.6,273.1h6.6c0.4,0,0.7,0.3,0.7,0.7v0.5h-7.5v-0.9C496.3,273.2,496.5,273.1,496.6,273.1z"/>
			
				<linearGradient id="SVGID_3_" gradientUnits="userSpaceOnUse" x1="612.3696" y1="273.6836" x2="619.9193" y2="273.6836" gradientTransform="matrix(-1 0 0 1 1125.3555 0)">
				<stop  offset="0" style="stop-color:#AACEFF"/>
				<stop  offset="1" style="stop-color:#DBE9FF"/>
			</linearGradient>
			<path class="st9" d="M505.7,273.1h6.6c0.4,0,0.7,0.3,0.7,0.7v0.5h-7.5v-0.9C505.4,273.2,505.6,273.1,505.7,273.1z"/>
			
				<linearGradient id="SVGID_4_" gradientUnits="userSpaceOnUse" x1="603.2758" y1="273.6836" x2="610.8256" y2="273.6836" gradientTransform="matrix(-1 0 0 1 1125.3555 0)">
				<stop  offset="0" style="stop-color:#AACEFF"/>
				<stop  offset="1" style="stop-color:#DBE9FF"/>
			</linearGradient>
			<path class="st10" d="M514.8,273.1h6.6c0.4,0,0.7,0.3,0.7,0.7v0.5h-7.5v-0.9C514.5,273.2,514.7,273.1,514.8,273.1z"/>
			
				<linearGradient id="SVGID_5_" gradientUnits="userSpaceOnUse" x1="595.7054" y1="273.6836" x2="600.1176" y2="273.6836" gradientTransform="matrix(-1 0 0 1 1125.3555 0)">
				<stop  offset="0" style="stop-color:#AACEFF"/>
				<stop  offset="1" style="stop-color:#DBE9FF"/>
			</linearGradient>
			<path class="st11" d="M525.5,273.1h3.4c0.4,0,0.7,0.3,0.7,0.7v0.5h-4.4v-0.9C525.2,273.2,525.4,273.1,525.5,273.1z"/>
			
				<linearGradient id="SVGID_6_" gradientUnits="userSpaceOnUse" x1="590.3431" y1="273.6836" x2="594.7562" y2="273.6836" gradientTransform="matrix(-1 0 0 1 1125.3555 0)">
				<stop  offset="0" style="stop-color:#AACEFF"/>
				<stop  offset="1" style="stop-color:#DBE9FF"/>
			</linearGradient>
			<path class="st12" d="M530.9,273.1h3.4c0.4,0,0.7,0.3,0.7,0.7v0.5h-4.4v-0.9C530.6,273.2,530.7,273.1,530.9,273.1z"/>
			
				<linearGradient id="SVGID_7_" gradientUnits="userSpaceOnUse" x1="585.2963" y1="273.6836" x2="589.7083" y2="273.6836" gradientTransform="matrix(-1 0 0 1 1125.3555 0)">
				<stop  offset="0" style="stop-color:#AACEFF"/>
				<stop  offset="1" style="stop-color:#DBE9FF"/>
			</linearGradient>
			<path class="st13" d="M535.9,273.1h3.4c0.4,0,0.7,0.3,0.7,0.7v0.5h-4.4v-0.9C535.6,273.2,535.8,273.1,535.9,273.1z"/>
		</g>
		<path class="st2" d="M476.5,217.5c0.6-2.4,2.9-4.3,5.4-4.2l-17.5,63.7c0,0-3-1-2.2-4.2C462.8,270,473.1,230.4,476.5,217.5z"/>
		<path class="st3" d="M482.5,213.2h81c1.1,0,2,1.1,1.7,2.2l-14.9,58.9H465l15.1-59.2C480.4,213.9,481.4,213.2,482.5,213.2z"/>
		<g>
			<path class="st2" d="M555,257.7l-1.1-0.3l10.7-42.2c0.1-0.4,0-0.7-0.2-1c-0.2-0.3-0.6-0.5-0.9-0.5h-66.7v-1.1h66.7
				c0.7,0,1.4,0.3,1.8,0.9c0.4,0.6,0.6,1.3,0.4,2L555,257.7z"/>
		</g>
		<path class="st3" d="M550.4,276.8c0,0.2-0.2,0.4-0.4,0.4h-83.6c-0.5,0-0.9-0.4-0.9-0.9v-2.1h84.9V276.8z"/>
		<g>
			<rect x="480.4" y="273.7" class="st2" width="69.5" height="1.1"/>
		</g>
		<g>
			<polygon class="st2" points="465.4,274.8 405.4,274.8 405.4,273.7 464.5,273.7 476.1,228.5 477.2,228.8 			"/>
		</g>
	</g>
	<g>
		<g>
			<rect x="263.6" y="287.9" class="st6" width="16" height="232.9"/>
			<polygon class="st2" points="263.6,287.9 263.6,306.3 272.1,306.3 272.1,520.8 279.7,520.8 279.7,287.9 			"/>
			<g>
				<rect x="271.6" y="306.3" class="st2" width="1.1" height="214.6"/>
			</g>
		</g>
		<g>
			<path class="st6" d="M240.4,277.6V292h323.3c-0.4-4.8-1.3-11.4-2.1-14.4H240.4z"/>
			<g>
				<polygon class="st2" points="563.8,292.6 239.9,292.6 239.9,277.3 495.6,277.3 495.6,278.4 241,278.4 241,291.5 563.8,291.5 
									"/>
			</g>
		</g>
	</g>
	<g>
		<rect x="71.4" y="520" class="st2" width="465" height="1.1"/>
	</g>
	<g>
		<g>
			<path class="st4" d="M340.8,155.9c0,8.7-7,15.7-15.7,15.7c-8.7,0-15.7-7-15.7-15.7c0-8.7,7-15.7,15.7-15.7
				C333.8,140.2,340.8,147.3,340.8,155.9z"/>
			<g>
				<path class="st2" d="M325.2,175.6c-10.9,0-19.7-8.8-19.7-19.7c0-10.9,8.8-19.7,19.7-19.7c10.9,0,19.7,8.8,19.7,19.7
					C344.8,166.8,336,175.6,325.2,175.6z M325.2,137.4c-10.2,0-18.6,8.3-18.6,18.6c0,10.2,8.3,18.6,18.6,18.6
					c10.2,0,18.6-8.3,18.6-18.6C343.7,145.7,335.4,137.4,325.2,137.4z"/>
			</g>
			<g>
				<path class="st6" d="M324.3,168.7C324.3,168.7,324.3,168.7,324.3,168.7c-1.8,0-2.4-1.6-2.9-3.1c-1.3-3.6-3.4-6.8-4.3-7.1
					c0,0,0,0,0.1,0l-3.6-2.1c0.2-0.4,1.5-2.4,3.6-2.4c3,0,5.5,3.7,7,6.7c2.6-7,5.8-13.9,10-15.8l1.8,4.1c-1.6,0.7-4.3,3.9-8.4,15.3
					c-0.2,0.6-0.4,1.1-0.5,1.4l-0.2,0.5C326.6,167.2,326,168.7,324.3,168.7z"/>
			</g>
		</g>
		<path class="st3" d="M125.8,58.4H40.5c-6.2,0-11.3,5-11.3,11.3v190.5c0,6.2,5,11.3,11.3,11.3h85.3c6.2,0,11.3-5,11.3-11.3V69.7
			C137.1,63.4,132.1,58.4,125.8,58.4z"/>
		<g>
			<path class="st2" d="M367.8,272h-85.3c-6.5,0-11.8-5.3-11.8-11.8V69.7c0-6.5,5.3-11.8,11.8-11.8h85.3c6.5,0,11.8,5.3,11.8,11.8
				v190.5C379.6,266.7,374.3,272,367.8,272z M282.5,59c-5.9,0-10.7,4.8-10.7,10.7v190.5c0,5.9,4.8,10.7,10.7,10.7h85.3
				c5.9,0,10.7-4.8,10.7-10.7V69.7c0-5.9-4.8-10.7-10.7-10.7H282.5z"/>
		</g>
		<path class="st6" d="M246.8,100.5h-85.3c-6.2,0-11.3,5-11.3,11.3v190.5c0,6.2,5,11.3,11.3,11.3h85.3c6.2,0,11.3-5,11.3-11.3V111.8
			C258.1,105.5,253.1,100.5,246.8,100.5z"/>
		<g>
			<g>
				<g>
					<rect x="118.9" y="68.9" class="st6" width="8.6" height="1.1"/>
				</g>
				<g>
					<rect x="118.9" y="72.3" class="st6" width="8.6" height="1.1"/>
				</g>
				<g>
					<rect x="118.9" y="75.6" class="st6" width="8.6" height="1.1"/>
				</g>
			</g>
			<g>
				<polygon class="st6" points="40.3,75.4 37.7,72.9 40.4,70.2 41.2,71 39.3,72.9 41.1,74.6 				"/>
			</g>
		</g>
		<g>
			<g>
				<g>
					<rect x="361.1" y="68.9" class="st2" width="8.6" height="1.1"/>
				</g>
				<g>
					<rect x="361.1" y="72.3" class="st2" width="8.6" height="1.1"/>
				</g>
				<g>
					<rect x="361.1" y="75.6" class="st2" width="8.6" height="1.1"/>
				</g>
			</g>
			<g>
				<polygon class="st2" points="282.4,75.4 279.9,72.9 282.6,70.2 283.3,71 281.5,72.9 283.2,74.6 				"/>
			</g>
		</g>
		<g>
			<g>
				<g>
					<rect x="240.1" y="110.9" class="st2" width="8.6" height="1.1"/>
				</g>
				<g>
					<rect x="240.1" y="114.3" class="st2" width="8.6" height="1.1"/>
				</g>
				<g>
					<rect x="240.1" y="117.6" class="st2" width="8.6" height="1.1"/>
				</g>
			</g>
			<g>
				<polygon class="st2" points="161.4,117.4 158.9,114.9 161.6,112.2 162.4,113 160.5,114.9 162.2,116.6 				"/>
			</g>
		</g>
		<g>
			<path class="st6" d="M123.5,104.2H42.9c-4,0-7.2-3.2-7.2-7.2c0-4,3.2-7.2,7.2-7.2h80.6c4,0,7.2,3.2,7.2,7.2
				C130.7,100.9,127.5,104.2,123.5,104.2z M42.9,90.8c-3.4,0-6.1,2.7-6.1,6.1s2.7,6.1,6.1,6.1h80.6c3.4,0,6.1-2.7,6.1-6.1
				s-2.7-6.1-6.1-6.1H42.9z"/>
		</g>
		<g>
			<g>
				<path class="st6" d="M121.6,99c-1.4,0-2.6-1.2-2.6-2.6c0-1.4,1.2-2.6,2.6-2.6c1.4,0,2.6,1.2,2.6,2.6C124.2,97.8,123,99,121.6,99
					z M121.6,94.9c-0.8,0-1.5,0.7-1.5,1.5c0,0.8,0.7,1.5,1.5,1.5c0.8,0,1.5-0.7,1.5-1.5C123.1,95.6,122.4,94.9,121.6,94.9z"/>
			</g>
			<g>
				
					<rect x="123.1" y="97.6" transform="matrix(0.7073 -0.7069 0.7069 0.7073 -33.6203 116.3095)" class="st6" width="1.1" height="2.3"/>
			</g>
		</g>
		<path class="st0" d="M60,125.8c0,5.9-4.8,10.7-10.7,10.7c-5.9,0-10.7-4.8-10.7-10.7c0-5.9,4.8-10.7,10.7-10.7
			C55.3,115.1,60,119.9,60,125.8z"/>
		<path class="st1" d="M60,155.4c0,5.9-4.8,10.7-10.7,10.7c-5.9,0-10.7-4.8-10.7-10.7c0-5.9,4.8-10.7,10.7-10.7
			C55.3,144.7,60,149.5,60,155.4z"/>
		<path class="st6" d="M60,185c0,5.9-4.8,10.7-10.7,10.7c-5.9,0-10.7-4.8-10.7-10.7s4.8-10.7,10.7-10.7C55.3,174.3,60,179.1,60,185z
			"/>
		<path class="st4" d="M60,214.6c0,5.9-4.8,10.7-10.7,10.7c-5.9,0-10.7-4.8-10.7-10.7c0-5.9,4.8-10.7,10.7-10.7
			C55.3,203.9,60,208.7,60,214.6z"/>
		<path class="st2" d="M60,244.2c0,5.9-4.8,10.7-10.7,10.7c-5.9,0-10.7-4.8-10.7-10.7c0-5.9,4.8-10.7,10.7-10.7
			C55.3,233.5,60,238.2,60,244.2z"/>
		
			<ellipse transform="matrix(0.2484 -0.9687 0.9687 0.2484 -4.8222 320.5817)" class="st2" cx="204.2" cy="163.4" rx="39.2" ry="39.2"/>
		<g>
			<path class="st4" d="M204.2,207.5c-24.3,0-44.1-19.8-44.1-44.1c0-24.3,19.8-44.1,44.1-44.1c24.3,0,44.1,19.8,44.1,44.1
				C248.3,187.7,228.5,207.5,204.2,207.5z M204.2,120.4c-23.7,0-43,19.3-43,43c0,23.7,19.3,43,43,43c23.7,0,43-19.3,43-43
				C247.1,139.7,227.9,120.4,204.2,120.4z"/>
		</g>
		<g>
			<g>
				<g>
					<path class="st2" d="M131,251H62.7v-13.6H131V251z M63.8,249.8h66.1v-11.4H63.8V249.8z"/>
				</g>
			</g>
			<g>
				<rect x="68.1" y="241" class="st6" width="23.9" height="2.4"/>
				<rect x="93.4" y="241" class="st6" width="10" height="2.4"/>
			</g>
			<g>
				
					<rect x="84.9" y="245.2" transform="matrix(-1 -1.224647e-16 1.224647e-16 -1 204.8978 492.8995)" class="st6" width="35.1" height="2.4"/>
				
					<rect x="68.1" y="245.2" transform="matrix(-1 -1.224647e-16 1.224647e-16 -1 150.8378 492.8995)" class="st6" width="14.7" height="2.4"/>
			</g>
		</g>
		<g>
			<g>
				<rect x="68.1" y="211.2" class="st6" width="23.9" height="2.4"/>
				<rect x="93.4" y="211.2" class="st6" width="10" height="2.4"/>
			</g>
			<g>
				
					<rect x="84.9" y="215.4" transform="matrix(-1 -1.224647e-16 1.224647e-16 -1 204.8978 433.338)" class="st6" width="35.1" height="2.4"/>
				
					<rect x="68.1" y="215.4" transform="matrix(-1 -1.224647e-16 1.224647e-16 -1 150.8378 433.338)" class="st6" width="14.7" height="2.4"/>
			</g>
		</g>
		<g>
			<g>
				<rect x="68.1" y="181.4" class="st6" width="23.9" height="2.4"/>
				<rect x="93.4" y="181.4" class="st6" width="10" height="2.4"/>
			</g>
			<g>
				
					<rect x="84.9" y="185.7" transform="matrix(-1 -1.224647e-16 1.224647e-16 -1 204.8978 373.7765)" class="st6" width="35.1" height="2.4"/>
				
					<rect x="68.1" y="185.7" transform="matrix(-1 -1.224647e-16 1.224647e-16 -1 150.8378 373.7765)" class="st6" width="14.7" height="2.4"/>
			</g>
		</g>
		<g>
			<g>
				<rect x="68.1" y="151.7" class="st6" width="23.9" height="2.4"/>
				<rect x="93.4" y="151.7" class="st6" width="10" height="2.4"/>
			</g>
			<g>
				
					<rect x="84.9" y="155.9" transform="matrix(-1 -1.224647e-16 1.224647e-16 -1 204.8978 314.215)" class="st6" width="35.1" height="2.4"/>
				
					<rect x="68.1" y="155.9" transform="matrix(-1 -1.224647e-16 1.224647e-16 -1 150.8378 314.215)" class="st6" width="14.7" height="2.4"/>
			</g>
		</g>
		<g>
			<path class="st1" d="M184.9,262.4c0,5.9-4.8,10.7-10.7,10.7s-10.7-4.8-10.7-10.7c0-5.9,4.8-10.7,10.7-10.7
				S184.9,256.5,184.9,262.4z"/>
			<g>
				<g>
					<rect x="192.9" y="258.6" class="st2" width="23.9" height="2.4"/>
					<rect x="218.2" y="258.6" class="st2" width="10" height="2.4"/>
				</g>
				<g>
					
						<rect x="209.8" y="262.8" transform="matrix(-1 -1.224647e-16 1.224647e-16 -1 454.599 528.1398)" class="st2" width="35.1" height="2.4"/>
					
						<rect x="192.9" y="262.8" transform="matrix(-1 -1.224647e-16 1.224647e-16 -1 400.5383 528.1398)" class="st2" width="14.7" height="2.4"/>
				</g>
			</g>
		</g>
		<g>
			<path class="st0" d="M184.9,286.3c0,5.9-4.8,10.7-10.7,10.7s-10.7-4.8-10.7-10.7c0-5.9,4.8-10.7,10.7-10.7
				S184.9,280.4,184.9,286.3z"/>
			<g>
				<g>
					<rect x="192.9" y="282.5" class="st2" width="23.9" height="2.4"/>
					<rect x="218.2" y="282.5" class="st2" width="10" height="2.4"/>
				</g>
				<g>
					
						<rect x="209.8" y="286.8" transform="matrix(-1 -1.224647e-16 1.224647e-16 -1 454.599 575.961)" class="st2" width="35.1" height="2.4"/>
					
						<rect x="192.9" y="286.8" transform="matrix(-1 -1.224647e-16 1.224647e-16 -1 400.5383 575.961)" class="st2" width="14.7" height="2.4"/>
				</g>
			</g>
		</g>
		<g>
			<path class="st4" d="M305.9,227.2c0,5.9-4.8,10.7-10.7,10.7c-5.9,0-10.7-4.8-10.7-10.7s4.8-10.7,10.7-10.7
				C301.1,216.5,305.9,221.3,305.9,227.2z"/>
			<g>
				<g>
					<rect x="313.9" y="223.5" class="st2" width="23.9" height="2.4"/>
					<rect x="339.2" y="223.5" class="st2" width="10" height="2.4"/>
				</g>
				<g>
					
						<rect x="330.8" y="227.7" transform="matrix(-1 -1.224647e-16 1.224647e-16 -1 696.5676 457.8883)" class="st2" width="35.1" height="2.4"/>
					
						<rect x="313.9" y="227.7" transform="matrix(-1 -1.224647e-16 1.224647e-16 -1 642.5071 457.8883)" class="st2" width="14.7" height="2.4"/>
				</g>
			</g>
		</g>
		<g>
			<path class="st3" d="M305.9,251.1c0,5.9-4.8,10.7-10.7,10.7c-5.9,0-10.7-4.8-10.7-10.7c0-5.9,4.8-10.7,10.7-10.7
				C301.1,240.5,305.9,245.2,305.9,251.1z"/>
			<g>
				<g>
					<rect x="313.9" y="247.4" class="st2" width="23.9" height="2.4"/>
					<rect x="339.2" y="247.4" class="st2" width="10" height="2.4"/>
				</g>
				<g>
					
						<rect x="330.8" y="251.6" transform="matrix(-1 -1.224647e-16 1.224647e-16 -1 696.5676 505.7091)" class="st2" width="35.1" height="2.4"/>
					
						<rect x="313.9" y="251.6" transform="matrix(-1 -1.224647e-16 1.224647e-16 -1 642.5071 505.7091)" class="st2" width="14.7" height="2.4"/>
				</g>
			</g>
		</g>
		<g>
			<g>
				<rect x="68.1" y="121.9" class="st6" width="23.9" height="2.4"/>
				<rect x="93.4" y="121.9" class="st6" width="10" height="2.4"/>
			</g>
			<g>
				
					<rect x="84.9" y="126.1" transform="matrix(-1 -1.224647e-16 1.224647e-16 -1 204.8978 254.6534)" class="st6" width="35.1" height="2.4"/>
				
					<rect x="68.1" y="126.1" transform="matrix(-1 -1.224647e-16 1.224647e-16 -1 150.8378 254.6534)" class="st6" width="14.7" height="2.4"/>
			</g>
		</g>
		<g>
			<rect x="161" y="217.1" class="st2" width="56.4" height="4.5"/>
			<rect x="224.6" y="217.1" class="st2" width="22.7" height="4.5"/>
		</g>
		<path class="st3" d="M222.6,242.4h-36.9c-3.5,0-6.3-2.8-6.3-6.3l0,0c0-3.5,2.8-6.3,6.3-6.3h36.9c3.5,0,6.3,2.8,6.3,6.3l0,0
			C229,239.6,226.1,242.4,222.6,242.4z"/>
		<g>
			<g>
				<rect x="296.8" y="113.3" class="st2" width="35.3" height="2.4"/>
				<rect x="334.2" y="113.3" class="st2" width="14.8" height="2.4"/>
			</g>
			<g>
				
					<rect x="311.7" y="117.5" transform="matrix(-1 -1.224647e-16 1.224647e-16 -1 675.2229 237.4728)" class="st2" width="51.8" height="2.4"/>
				
					<rect x="286.8" y="117.5" transform="matrix(-1 -1.224647e-16 1.224647e-16 -1 595.3167 237.4728)" class="st2" width="21.8" height="2.4"/>
			</g>
		</g>
		<g>
			<polygon class="st2" points="144.9,243.9 135.7,243.9 135.7,242.8 143.8,242.8 143.8,168.4 156.6,168.4 156.6,169.5 144.9,169.5 
							"/>
		</g>
		<g>
			<polygon class="st2" points="265.4,237.6 231.9,237.6 231.9,236.5 264.3,236.5 264.3,153.2 289.8,153.2 289.8,154.3 265.4,154.3 
							"/>
		</g>
		<circle class="st2" cx="135.7" cy="243.4" r="2.4"/>
		<circle class="st2" cx="231.9" cy="237.1" r="2.4"/>
		<path class="st2" d="M292.4,154c0,1.3-1.1,2.4-2.4,2.4c-1.3,0-2.4-1.1-2.4-2.4c0-1.3,1.1-2.4,2.4-2.4
			C291.3,151.7,292.4,152.7,292.4,154z"/>
		<path class="st2" d="M160.1,168.9c0,1.3-1.1,2.4-2.4,2.4s-2.4-1.1-2.4-2.4s1.1-2.4,2.4-2.4S160.1,167.6,160.1,168.9z"/>
	</g>
</g>
</svg>
