<?xml version="1.0" encoding="utf-8"?>
<!-- Generator: Adobe Illustrator 24.2.0, SVG Export Plug-In . SVG Version: 6.00 Build 0)  -->
<svg version="1.1" id="Layer_1" xmlns="http://www.w3.org/2000/svg" xmlns:xlink="http://www.w3.org/1999/xlink" x="0px" y="0px"
	 width="595px" height="575px" viewBox="0 0 595 575" style="enable-background:new 0 0 595 575;" xml:space="preserve">
<style type="text/css">
	.st0{fill:#FE4040;}
	.st1{fill:#7665FF;}
	.st2{fill:#151924;}
	.st3{fill:#FFCF34;}
	.st4{fill:#40C9FF;}
	.st5{fill:#FFFFFF;}
</style>
<g>
	<path class="st0" d="M134.7,138.3C182,133,204.1,81.7,202.1,55C196-23.8,87.4,143.6,134.7,138.3z"/>
	<path class="st0" d="M299.5,63C205.9,195.8,35.4,101.2,35.4,294.7c0,145.9,118.2,264.1,264.1,264.1
		c192.6,0,264.1-118.2,264.1-264.1C563.6,88.7,389.7-65,299.5,63z"/>
	<g>
		<g>
			<path class="st1" d="M255.2,377.6C234,397,287,434.3,299.7,440.4h13.1C316.1,415.8,281.5,353.5,255.2,377.6z"/>
			<g>
				<path class="st2" d="M255.6,377.1l-0.8,0.9c0.3,0.3,31.7,27.1,51.2,62.6l1.1-0.6C287.5,404.3,255.9,377.4,255.6,377.1z"/>
			</g>
			<g>
				<path class="st2" d="M261,411.4c6.7,2.5,28.6,4.8,29.6,4.9l0.1-1.2c-0.2,0-22.7-2.4-29.3-4.8L261,411.4z"/>
			</g>
			<g>
				<path class="st2" d="M273.5,394.9l1.1,0.4c3.1-7.8,3.7-19.9,3.8-20.4l-1.2-0.1C277.2,375,276.6,387.3,273.5,394.9z"/>
			</g>
			<path class="st2" d="M312.8,440.4c1.3-10-3.6-26.1-11.6-40.2C298.3,402.8,294.5,424.4,312.8,440.4z"/>
			<path class="st1" d="M322.5,360.8c-18.9,7.8-18.5,71.8-13.7,79.6h9.5C338.8,409.3,345.8,351.1,322.5,360.8z"/>
			<g>
				<path class="st2" d="M312.2,440.3l1.2,0.2c3.7-17.3,13.6-73,13.7-73.5l-1.2-0.2C325.8,367.4,315.9,423,312.2,440.3z"/>
			</g>
			<g>
				
					<rect x="315" y="415.5" transform="matrix(0.7055 -0.7087 0.7087 0.7055 -199.9608 350.9226)" class="st2" width="14.4" height="1.2"/>
			</g>
			<g>
				
					<rect x="314.2" y="387.1" transform="matrix(0.5745 -0.8185 0.8185 0.5745 -188.7181 425.3723)" class="st2" width="1.2" height="14.2"/>
			</g>
		</g>
		<path class="st3" d="M269.3,448.5c0,9.1,2.3,18.1,6.8,26l1.8,3.2l14.2,80.5h33.7l10.2-80.5l1.8-3.2c4.5-7.9,6.8-16.9,6.8-26v-8
			h-75.2V448.5z"/>
		<path class="st3" d="M330.8,448.5c0,9.1-2.3,18.1-6.8,26l-1.8,3.2L312,558.1h13.8l10.2-80.5l1.8-3.2c4.5-7.9,6.8-16.9,6.8-26v-8
			h-13.8V448.5z"/>
		<g>
			<rect x="271" y="460.1" class="st2" width="56" height="1.2"/>
		</g>
		<g>
			<rect x="316.2" y="477" class="st2" width="20" height="1.2"/>
		</g>
		<g>
			<path class="st2" d="M268.7,448.5c0,9.2,2.4,18.3,6.9,26.3l1.7,3.1l14.3,80.9h1.7v-1.2h-0.7l-14.2-80l-1.8-3.3
				c-4.4-7.8-6.7-16.7-6.7-25.7v-7.4h74.6v-1.2h-75.8V448.5z"/>
		</g>
	</g>
	<g>
		<g>
			<path class="st4" d="M456.6,66.1h-294c-6,0-10.9,4.9-10.9,10.9v194.7c0,6,4.9,10.9,10.9,10.9h294c6,0,10.9-4.9,10.9-10.9V77
				C467.5,71,462.7,66.1,456.6,66.1z"/>
		</g>
		<g>
			<g>
				<g>
					<path class="st2" d="M331.7,171.5h115.4V92.7H331.7V171.5z M332.9,93.9h113v76.4h-113V93.9z"/>
				</g>
			</g>
			<g>
				<rect x="342.1" y="107.6" class="st5" width="94.6" height="54.1"/>
			</g>
			<g>
				<rect x="338" y="98.7" class="st2" width="29.8" height="5.2"/>
				<rect x="338" y="106.4" class="st2" width="15.2" height="5.2"/>
			</g>
			<g>
				
					<rect x="382.5" y="132.5" transform="matrix(0.492 -0.8706 0.8706 0.492 91.7326 423.3924)" class="st2" width="52.3" height="1.2"/>
			</g>
			<g>
				
					<rect x="408.1" y="107" transform="matrix(0.8704 -0.4924 0.4924 0.8704 -12.5601 218.4714)" class="st2" width="1.2" height="52.3"/>
			</g>
			<g>
				
					<rect x="342.2" y="132.5" transform="matrix(0.492 -0.8706 0.8706 0.492 71.2545 388.2975)" class="st2" width="52.3" height="1.2"/>
			</g>
			<g>
				
					<rect x="367.8" y="107" transform="matrix(0.8704 -0.4924 0.4924 0.8704 -17.7866 198.6155)" class="st2" width="1.2" height="52.3"/>
			</g>
		</g>
		<g>
			<g>
				<g>
					<path class="st2" d="M331.7,245.6h115.4v-68.4H331.7V245.6z M332.9,178.4h113v66h-113V178.4z"/>
				</g>
			</g>
			<g>
				<g>
					<path class="st5" d="M346.8,199.8h89.7v-5h-89.7V199.8z M348,196.1h87.3v2.6H348V196.1z"/>
				</g>
				<rect x="347.4" y="204.4" class="st4" width="88.5" height="3.8"/>
				<rect x="381" y="213.3" class="st4" width="54.8" height="3.8"/>
				<rect x="396.2" y="222.2" class="st4" width="39.7" height="3.8"/>
				<g>
					<path class="st5" d="M369.1,226.5h23.5v-5h-23.5V226.5z M370.3,222.8h21.1v2.6h-21.1V222.8z"/>
				</g>
				<rect x="411.7" y="231" class="st4" width="24.1" height="3.8"/>
			</g>
		</g>
		<g>
			<g>
				<rect x="178.8" y="74.6" class="st3" width="135.5" height="27.1"/>
			</g>
			<g>
				<g>
					<path class="st2" d="M172.2,98.3h148.7V77.9H172.2V98.3z M173.4,79.1h146.3v18H173.4V79.1z"/>
				</g>
			</g>
			<g>
				<rect x="257.2" y="89.2" class="st0" width="52.4" height="3.8"/>
				<rect x="232" y="89.2" class="st0" width="22" height="3.8"/>
			</g>
			<g>
				<rect x="195.7" y="82.7" class="st2" width="76.9" height="3.8"/>
				<rect x="277.3" y="82.7" class="st2" width="32.3" height="3.8"/>
			</g>
		</g>
		<g>
			<g>
				<rect x="178.8" y="109.8" class="st3" width="135.5" height="27.1"/>
			</g>
			<g>
				<g>
					<path class="st2" d="M172.2,133.5h148.7v-20.4H172.2V133.5z M173.4,114.3h146.3v18H173.4V114.3z"/>
				</g>
			</g>
			<g>
				<rect x="257.2" y="124.4" class="st0" width="52.4" height="3.8"/>
				<rect x="232" y="124.4" class="st0" width="22" height="3.8"/>
			</g>
			<g>
				<rect x="195.7" y="117.9" class="st2" width="76.9" height="3.8"/>
				<rect x="277.3" y="117.9" class="st2" width="32.3" height="3.8"/>
			</g>
		</g>
		<g>
			<g>
				<rect x="178.8" y="145" class="st3" width="135.5" height="27.1"/>
			</g>
			<g>
				<g>
					<path class="st2" d="M172.2,168.7h148.7v-20.4H172.2V168.7z M173.4,149.5h146.3v18H173.4V149.5z"/>
				</g>
			</g>
			<g>
				<rect x="257.2" y="159.6" class="st0" width="52.4" height="3.8"/>
				<rect x="232" y="159.6" class="st0" width="22" height="3.8"/>
			</g>
			<g>
				<rect x="195.7" y="153.1" class="st2" width="76.9" height="3.8"/>
				<rect x="277.3" y="153.1" class="st2" width="32.3" height="3.8"/>
			</g>
		</g>
		<g>
			<g>
				<rect x="178.8" y="180.2" class="st3" width="135.5" height="27.1"/>
			</g>
			<g>
				<g>
					<path class="st2" d="M172.2,203.9h148.7v-20.4H172.2V203.9z M173.4,184.7h146.3v18H173.4V184.7z"/>
				</g>
			</g>
			<g>
				<rect x="257.2" y="194.8" class="st0" width="52.4" height="3.8"/>
				<rect x="232" y="194.8" class="st0" width="22" height="3.8"/>
			</g>
			<g>
				<rect x="195.7" y="188.3" class="st2" width="76.9" height="3.8"/>
				<rect x="277.3" y="188.3" class="st2" width="32.3" height="3.8"/>
			</g>
		</g>
		<g>
			<g>
				<path class="st2" d="M181.3,293.2h130.3v-76.8H181.3V293.2z M182.5,217.7h127.9V292H182.5V217.7z"/>
			</g>
			<rect x="278.1" y="225.8" class="st2" width="21.2" height="21.2"/>
			<g>
				<g>
					
						<rect x="288.1" y="229" transform="matrix(0.7071 -0.7071 0.7071 0.7071 -82.615 273.3579)" class="st5" width="1.2" height="14.8"/>
				</g>
				<g>
					
						<rect x="281.2" y="235.8" transform="matrix(0.7069 -0.7073 0.7073 0.7069 -82.6061 273.4471)" class="st5" width="14.8" height="1.2"/>
				</g>
			</g>
			<rect x="249.2" y="225.8" class="st2" width="21.2" height="21.2"/>
			<g>
				<rect x="189.5" y="256" class="st5" width="52.4" height="3.8"/>
				<rect x="245.1" y="256" class="st5" width="22" height="3.8"/>
			</g>
			<g>
				<rect x="226.5" y="262.5" class="st5" width="76.9" height="3.8"/>
				<rect x="189.5" y="262.5" class="st5" width="32.3" height="3.8"/>
			</g>
			<g>
				<rect x="189.5" y="273" class="st5" width="52.4" height="3.8"/>
				<rect x="245.1" y="273" class="st5" width="22" height="3.8"/>
			</g>
			<g>
				<rect x="226.5" y="279.4" class="st5" width="76.9" height="3.8"/>
				<rect x="189.5" y="279.4" class="st5" width="32.3" height="3.8"/>
			</g>
			<g>
				<g>
					
						<rect x="259.1" y="229" transform="matrix(0.7071 -0.7071 0.7071 0.7071 -91.0826 252.8993)" class="st5" width="1.2" height="14.8"/>
				</g>
			</g>
			<rect x="220.3" y="225.8" class="st2" width="21.2" height="21.2"/>
			<g>
				<path class="st5" d="M225,241.8h10.7V231H225V241.8z M226.2,232.2h8.3v8.3h-8.3V232.2z"/>
			</g>
			<g>
				<rect x="191.3" y="225.8" class="st2" width="21.2" height="21.2"/>
				<g>
					<path class="st5" d="M201.9,230.7c-3.1,0-5.7,2.6-5.7,5.7c0,3.1,2.6,5.7,5.7,5.7c3.1,0,5.7-2.6,5.7-5.7
						C207.6,233.3,205.1,230.7,201.9,230.7z M201.9,240.9c-2.5,0-4.5-2-4.5-4.5c0-2.5,2-4.5,4.5-4.5c2.5,0,4.5,2,4.5,4.5
						C206.4,238.9,204.4,240.9,201.9,240.9z"/>
				</g>
			</g>
		</g>
		<g>
			<g>
				<path class="st1" d="M559.7,147.4h-75.5c-5.2,0-9.4,4.2-9.4,9.4v75.5c0,5.2,4.2,9.4,9.4,9.4h75.5c5.2,0,9.4-4.2,9.4-9.4v-75.5
					C569,151.6,564.8,147.4,559.7,147.4z"/>
				<g>
					<path class="st5" d="M559.7,154.6h-75.5c-1.2,0-2.2,1-2.2,2.2v75.5c0,1.2,1,2.2,2.2,2.2h75.5c1.2,0,2.2-1,2.2-2.2v-75.5
						C561.8,155.6,560.9,154.6,559.7,154.6z M560.6,232.3c0,0.5-0.4,1-1,1h-75.5c-0.5,0-1-0.4-1-1v-75.5c0-0.5,0.4-1,1-1h75.5
						c0.5,0,1,0.4,1,1V232.3z"/>
				</g>
			</g>
			<g>
				<g>
					<path class="st2" d="M459.1,175.5v1.2c6.5,0,9.5,2.6,12.5,5c2.9,2.4,5.9,4.9,11.8,4.9v-1.2c-5.6,0-8.2-2.3-11.1-4.6
						C469.3,178.2,466.1,175.5,459.1,175.5z"/>
				</g>
				<g>
					<path class="st2" d="M485.7,183.3c-1.5,0-2.8,1.3-2.8,2.8c0,1.5,1.3,2.8,2.8,2.8c1.5,0,2.8-1.3,2.8-2.8
						C488.5,184.5,487.2,183.3,485.7,183.3z M485.7,187.7c-0.9,0-1.6-0.7-1.6-1.6c0-0.9,0.7-1.6,1.6-1.6c0.9,0,1.6,0.7,1.6,1.6
						C487.3,187,486.5,187.7,485.7,187.7z"/>
				</g>
				<g>
					<path class="st2" d="M456.9,173.3c-1.5,0-2.8,1.3-2.8,2.8c0,1.5,1.3,2.8,2.8,2.8c1.5,0,2.8-1.3,2.8-2.8
						C459.7,174.6,458.5,173.3,456.9,173.3z M456.9,177.7c-0.9,0-1.6-0.7-1.6-1.6c0-0.9,0.7-1.6,1.6-1.6c0.9,0,1.6,0.7,1.6,1.6
						C458.5,177,457.8,177.7,456.9,177.7z"/>
				</g>
			</g>
			<g>
				<g>
					<path class="st2" d="M485.7,196.9c-1.5,0-2.8,1.3-2.8,2.8c0,1.5,1.3,2.8,2.8,2.8c1.5,0,2.8-1.3,2.8-2.8
						C488.5,198.2,487.2,196.9,485.7,196.9z M485.7,201.3c-0.9,0-1.6-0.7-1.6-1.6c0-0.9,0.7-1.6,1.6-1.6c0.9,0,1.6,0.7,1.6,1.6
						C487.3,200.6,486.5,201.3,485.7,201.3z"/>
				</g>
				<g>
					<path class="st2" d="M456.9,196.9c-1.5,0-2.8,1.3-2.8,2.8c0,1.5,1.3,2.8,2.8,2.8c1.5,0,2.8-1.3,2.8-2.8
						C459.7,198.2,458.5,196.9,456.9,196.9z M456.9,201.3c-0.9,0-1.6-0.7-1.6-1.6c0-0.9,0.7-1.6,1.6-1.6c0.9,0,1.6,0.7,1.6,1.6
						C458.5,200.6,457.8,201.3,456.9,201.3z"/>
				</g>
				<g>
					<rect x="459.1" y="199.1" class="st2" width="24.3" height="1.2"/>
				</g>
			</g>
			<g>
				<g>
					<path class="st2" d="M459.1,222.7v1.2c6.9,0,10.2-2.7,13.3-5.3c2.8-2.4,5.5-4.6,11.1-4.6v-1.2c-6,0-9,2.5-11.8,4.9
						C468.7,220.2,465.6,222.7,459.1,222.7z"/>
				</g>
				<g>
					<path class="st2" d="M485.7,210.6c-1.5,0-2.8,1.3-2.8,2.8c0,1.5,1.3,2.8,2.8,2.8c1.5,0,2.8-1.3,2.8-2.8
						C488.5,211.8,487.2,210.6,485.7,210.6z M485.7,215c-0.9,0-1.6-0.7-1.6-1.6c0-0.9,0.7-1.6,1.6-1.6c0.9,0,1.6,0.7,1.6,1.6
						C487.3,214.2,486.5,215,485.7,215z"/>
				</g>
				<g>
					<path class="st2" d="M456.9,220.5c-1.5,0-2.8,1.3-2.8,2.8c0,1.5,1.3,2.8,2.8,2.8c1.5,0,2.8-1.3,2.8-2.8
						C459.7,221.8,458.5,220.5,456.9,220.5z M456.9,224.9c-0.9,0-1.6-0.7-1.6-1.6c0-0.9,0.7-1.6,1.6-1.6c0.9,0,1.6,0.7,1.6,1.6
						C458.5,224.2,457.8,224.9,456.9,224.9z"/>
				</g>
			</g>
		</g>
		<g>
			<g>
				<path class="st5" d="M505.8,38.8L466.6,39c-5.5,0-9.9,4.5-9.9,10l0.2,50.3c0,5.5,4.5,9.9,10,9.9l39.2-0.2c5.5,0,9.9-4.5,9.9-10
					l-0.2-50.3C515.8,43.2,511.3,38.8,505.8,38.8z"/>
				<path class="st2" d="M505.9,38.2C505.8,38.2,505.8,38.2,505.9,38.2l-39.3,0.2c-2.8,0-5.5,1.1-7.5,3.1c-2,2-3.1,4.7-3.1,7.5
					l0.2,50.3c0,5.8,4.8,10.5,10.6,10.5c0,0,0,0,0.1,0l39.2-0.2c2.8,0,5.5-1.1,7.5-3.1c2-2,3.1-4.7,3.1-7.5l-0.2-50.3
					C516.4,42.9,511.7,38.2,505.9,38.2z M512.8,105.7c-1.8,1.8-4.1,2.8-6.6,2.8l-39.2,0.2c0,0,0,0,0,0c-5.1,0-9.3-4.2-9.4-9.3
					L457.3,49c0-2.5,0.9-4.9,2.7-6.6c1.8-1.8,4.1-2.8,6.6-2.8l39.2-0.2c0,0,0,0,0,0c0,0,0,0,0,0c0,0,0,0,0,0c5.1,0,9.3,4.2,9.4,9.3
					l0.2,50.3C515.5,101.5,514.5,103.9,512.8,105.7z"/>
			</g>
			<g>
				<path class="st3" d="M505.4,61.4c-12.3,0.1-18.6-12.7-18.6-12.8c-0.2-0.4-0.9-0.4-1.1,0c-0.1,0.1-4.5,13-18.5,13
					c-0.2,0-0.7,0.4-0.7,0.6c0,0.3,4.9,37.7,20.1,37.6c15.1-0.1,19.5-37.5,19.5-37.8C506.1,61.8,506.1,61.4,505.4,61.4z"/>
			</g>
		</g>
		<g>
			<g>
				<path class="st2" d="M161.8,254h-40.4c-5.5,0-10,4.5-10,10v51.6c0,5.5,4.5,10,10,10h40.4c5.5,0,10-4.5,10-10v-51.6
					C171.8,258.4,167.3,254,161.8,254z M170.6,315.5c0,4.8-3.9,8.8-8.8,8.8h-40.4c-4.8,0-8.8-3.9-8.8-8.8v-51.6
					c0-4.8,3.9-8.8,8.8-8.8h40.4c4.8,0,8.8,3.9,8.8,8.8V315.5z"/>
			</g>
			<g>
				<g>
					
						<rect x="119" y="263.7" transform="matrix(0.7071 -0.7072 0.7072 0.7071 -151.042 163.9824)" class="st2" width="6.8" height="1.2"/>
				</g>
				<g>
					
						<rect x="121.8" y="260.9" transform="matrix(0.7071 -0.7071 0.7071 0.7071 -151.0294 163.9482)" class="st2" width="1.2" height="6.8"/>
				</g>
			</g>
			<g>
				<path class="st2" d="M136.9,298.6l-13.7-5.7v-3.6l13.7-5.7v4.3l-8.3,3.2l8.3,3.2V298.6z"/>
				<path class="st2" d="M142.6,282h2.5l-4.4,18.3h-2.5L142.6,282z"/>
				<path class="st2" d="M146.4,294.3l8.3-3.2l-8.3-3.2v-4.3l13.7,5.7v3.6l-13.7,5.7V294.3z"/>
			</g>
		</g>
		<g>
			<g>
				<path class="st2" d="M487.9,255.5H371.7c-5.5,0-10,4.5-10,10v111c0,5.5,4.5,10,10,10h116.2c5.5,0,10-4.5,10-10v-111
					C497.9,260,493.4,255.5,487.9,255.5z M496.7,376.5c0,4.8-3.9,8.8-8.8,8.8H371.7c-4.8,0-8.8-3.9-8.8-8.8v-111
					c0-4.8,3.9-8.8,8.8-8.8h116.2c4.8,0,8.8,3.9,8.8,8.8V376.5z"/>
			</g>
			<g>
				<g>
					
						<rect x="369.2" y="265.3" transform="matrix(0.7071 -0.7071 0.7071 0.7071 -78.8339 341.3785)" class="st2" width="6.8" height="1.2"/>
				</g>
				<g>
					
						<rect x="372.1" y="262.4" transform="matrix(0.7071 -0.7071 0.7071 0.7071 -78.8375 341.3573)" class="st2" width="1.2" height="6.8"/>
				</g>
			</g>
			<g>
				<g>
					<rect x="375.1" y="271.6" class="st5" width="32.8" height="36"/>
					<path class="st2" d="M374.5,308.2h34V271h-34V308.2z M375.7,272.2h31.6V307h-31.6V272.2z"/>
				</g>
				<g>
					<path class="st2" d="M391.5,294.9c-5.7,0-10.3,4.6-10.3,10.3v2.5h20.5v-2.5C401.8,299.5,397.2,294.9,391.5,294.9z"/>
					<path class="st2" d="M391.5,281.2c-3.2,0-5.8,2.6-5.8,5.8s2.6,5.8,5.8,5.8c3.2,0,5.8-2.6,5.8-5.8S394.7,281.2,391.5,281.2z"/>
				</g>
			</g>
			<g>
				<rect x="415.9" y="283.7" class="st5" width="40.6" height="5.2"/>
				<rect x="415.9" y="291.4" class="st5" width="20.7" height="5.2"/>
			</g>
			<path class="st3" d="M481.3,301.2c-1.8,0-3.2,1.4-3.2,3.2c0,1.8,1.4,3.2,3.2,3.2c1.8,0,3.2-1.4,3.2-3.2
				C484.5,302.6,483.1,301.2,481.3,301.2z"/>
			<rect x="375.1" y="317.3" class="st2" width="109.4" height="22.5"/>
			<g>
				<rect x="380.9" y="322.2" class="st4" width="97.8" height="3.8"/>
				<rect x="380.9" y="331.1" class="st3" width="37" height="3.8"/>
			</g>
			<rect x="375.1" y="347.2" class="st2" width="109.4" height="22.5"/>
			<g>
				<rect x="380.9" y="352.1" class="st4" width="44.8" height="3.8"/>
				<rect x="429" y="352.1" class="st3" width="49.8" height="3.8"/>
				<rect x="401.3" y="361" class="st3" width="35.7" height="3.8"/>
				<rect x="380.9" y="361" class="st3" width="17.1" height="3.8"/>
			</g>
			<g>
				<path class="st2" d="M477.9,276.8c-4.8,0-8.7,3.9-8.7,8.7s3.9,8.7,8.7,8.7c4.8,0,8.7-3.9,8.7-8.7S482.7,276.8,477.9,276.8z"/>
			</g>
			<g>
				<rect x="481.5" y="266.8" class="st2" width="7.7" height="1.2"/>
			</g>
		</g>
		<g>
			
				<rect x="477.2" y="193.9" transform="matrix(0.7071 -0.7071 0.7071 0.7071 15.3013 426.0332)" class="st2" width="89.5" height="1.2"/>
		</g>
		<g>
			
				<rect x="521.3" y="149.8" transform="matrix(0.7071 -0.7071 0.7071 0.7071 15.3002 426.031)" class="st2" width="1.2" height="89.5"/>
		</g>
	</g>
	<g>
		<g>
			<path class="st4" d="M260.5,544.6c-13.3,0-29.7-11.7-36.6-29.5h-32.8c0,0,2.9,13-0.2,22.8c-3.1,9.8-3.7,18.5,2.9,18.5
				s33.2,0.6,45.6,1.2c12.4,0.6,42.4,0,42.4,0S276.2,544.6,260.5,544.6z"/>
			<g>
				<path class="st2" d="M191.8,534.2l-0.1,1.2c0.2,0,16.4,1.8,16.4,18h1.2C209.3,536.2,192,534.3,191.8,534.2z"/>
			</g>
			<g>
				<path class="st2" d="M205.1,542.4l1,0.6c0.1-0.1,8.8-13.8,25.9-13.9l0-1.2C214.3,528.1,205.2,542.3,205.1,542.4z"/>
			</g>
			<g>
				<path class="st2" d="M207.8,547.5l1,0.6c0.1-0.1,9.3-14.8,27.3-14.9l0-1.2C217.5,532.2,207.9,547.4,207.8,547.5z"/>
			</g>
			<g>
				<path class="st2" d="M251.1,553h1.2c0-7.7,6.6-8.3,6.9-8.4l-0.1-1.2C259,543.4,251.1,544.2,251.1,553z"/>
			</g>
			<path class="st2" d="M188.8,552.2c0.6,3.3,2.5,4.3,5,4.3c6.5,0,33.2,0.6,45.6,1.2c12.4,0.6,42.4,0,42.4,0s-0.9-2.1-2.9-4.5
				L188.8,552.2z"/>
		</g>
		<g>
			<path class="st3" d="M191.1,176.4c-20.6-9.5-64.4,11-102.2,60.8c0,0,32.2,3.1,56.7,22.7c0,0,21.2-17.4,41.1-41.3
				C206.5,194.6,199.7,180.3,191.1,176.4z"/>
			<path class="st2" d="M124.1,247c7.1,3.2,14.5,7.4,21.4,12.8c0,0,21.2-17.4,41.1-41.3C206.5,194.6,124.2,245.7,124.1,247z"/>
			<g>
				<path class="st2" d="M88.8,236.2l1,0.7c31.1-40.7,63.4-58.6,83.2-61.7l-0.2-1.2C152.7,177.2,120.1,195.2,88.8,236.2z"/>
			</g>
			<path class="st2" d="M118.7,244.3c-15.8-6.1-29.3-9.1-30.2-6.7c-0.9,2.4,11.1,9.3,26.9,15.4c15.8,6.1,29.3,9.1,30.2,6.7
				C146.5,257.3,134.5,250.4,118.7,244.3z"/>
		</g>
		<g>
			<g>
				<path class="st5" d="M193.5,307c-4.6-3.6-19.5-7.5-19.5-7.5s14.3,1.8,14.9,0.1c0.4-1,0.3-5.9,0.3-9.9c-0.1-2.9-2.6-4.2-5.5-4.8
					c-3.4-0.7-5.9-1.6-6.5-2.2c-1.9-1.9-1.9-5.1-1.9-5.6c1.2-8.5-17.4-12-18.9-12.3c-3-1.4-48.8-23.2-54.3-24.3
					c-16.4-3.4-26.1,24-5.6,28.6c3.5,0.8,45.6,5,58.1,9.8l0,0c0,0,7.9,4.7,7.5,12.2c-0.5,7.8,8,11.7,8,11.7s15.3,8.2,21.9,6.6
					C193.4,309.2,194.7,307.9,193.5,307z"/>
				<path d="M190.1,310.3c-7.3,0-19.7-6.6-20.2-6.9c-0.3-0.2-8.8-4.2-8.3-12.3c0.4-7.1-7.1-11.7-7.2-11.7l-0.1,0
					c-9.6-3.6-35.5-6.8-49.4-8.6c-4.6-0.6-7.6-1-8.5-1.1c-10.8-2.4-13-10.6-11.7-17c1.6-7.7,8.6-14.5,17.5-12.7
					c5.5,1.1,49.1,21.8,54.4,24.3c2.4,0.4,20.5,4,19.3,12.9c0,0.3,0,3.3,1.7,5.1c0.5,0.5,2.6,1.3,6.3,2.1c4.8,1,5.9,3.5,5.9,5.4
					c0.2,8.9-0.2,9.8-0.3,10.2c-0.5,1.2-4.5,1.3-9.1,0.9c4.7,1.5,10.8,3.7,13.5,5.8l0,0c0.7,0.6,0.7,1.2,0.6,1.6
					c-0.2,1-1.4,1.7-2.4,1.9C191.5,310.2,190.8,310.3,190.1,310.3z M155.2,278.7c1.6,1,7.8,5.6,7.4,12.5c-0.4,7.3,7.6,11.1,7.7,11.2
					c0.2,0.1,15.2,8.1,21.5,6.6c0.8-0.2,1.5-0.7,1.6-1.1c0-0.1,0-0.2-0.2-0.4c-4.4-3.5-19.2-7.3-19.3-7.3l0.2-1.1
					c6.3,0.8,13.6,1.2,14.4,0.4c0.1-0.3,0.4-1.9,0.2-9.7c0-2.2-1.7-3.6-5-4.3c-3.5-0.7-6.1-1.6-6.8-2.4c-2.1-2-2.1-5.3-2.1-6
					c1.1-8.1-17.6-11.6-18.4-11.7l-0.1,0c-2-0.9-48.7-23.1-54.2-24.3c-8.2-1.7-14.7,4.7-16.2,11.8c-1.2,5.8,0.8,13.4,10.8,15.6
					c0.8,0.2,4,0.6,8.4,1.1c14.1,1.8,40.3,5.1,49.9,8.7l0.4,0.2L155.2,278.7z"/>
			</g>
			<path class="st2" d="M189,290.7l-13.9-2.5C175.1,288.2,183.9,291.1,189,290.7z"/>
			<path class="st2" d="M189.3,295.4l-16.4-1.3C172.9,294.1,184.2,296.3,189.3,295.4z"/>
		</g>
		<path class="st2" d="M204.2,243c-6.6,0.2-21.2,1.9-27.2,12c-6.1,10.1-11.9,26.4,6.7,46.8c0,0-3.3,180.6,5.7,223.8
			c0,0,36.3,6.1,76.6-2.9c0,0-26.5-266.5-30.7-273.5C231,242.3,210.1,242.8,204.2,243z"/>
		<g>
			<path class="st2" d="M219.3,387.6l-1.2,0c0,1.1-4.4,107.8,2.3,138.7l1.2-0.3C214.9,495.2,219.2,388.6,219.3,387.6z"/>
		</g>
		<path class="st2" d="M202.1,245.1c-24.1,29.6-2.1,59-2.1,59c-10.5,65.8-55.3,125.2-75.7,148.3c-6.4,7.2-9.9,16.6-9.7,26.3
			c0.1,7.3,0.2,17.9,0.2,33.3c0,42.5,32.2,37.5,42.8,35.5c10.6-2,39.6-20.6,58.7-59.3c19.1-38.7,41.5-182.6,41.5-204.7
			c0-24.4-4.4-34.6-12.7-44C238.5,232.1,207.4,238.6,202.1,245.1z"/>
		<g>
			<path class="st2" d="M231.5,372.6c-31.4,94.4-67.1,137.2-67.4,137.7l0.9,0.8c0.4-0.4,36.2-43.4,67.7-138.1
				c17.6-53,20.8-115.4,20.8-116l-1.2-0.1C252.2,257.6,249.1,319.7,231.5,372.6z"/>
		</g>
		<path class="st2" d="M128.2,466.9c-6.6-2.7-13.8,2.2-13.7,9.3c0.1,7.3,0.2,18.5,0.2,35.7c0,42.5,32.2,37.6,42.8,35.5
			c18.6-3.8,6.9-43.7-7-62.4C142.9,474.8,134.9,469.6,128.2,466.9z"/>
		<g>
			<path class="st5" d="M233.9,426.7l1.2,0.3c12.6-55.8,23.2-127.9,23.2-143.6h-1.2C257.1,299,246.5,371,233.9,426.7z"/>
		</g>
		<g>
			<path class="st5" d="M195.2,257.4l-1.1-0.5c-10.4,23.8,3.6,45,5.2,47.4c-8.9,54.9-41.6,104.5-60.4,129.1l1,0.7
				c18.8-24.8,51.8-74.6,60.6-129.9l0-0.2l-0.2-0.2C200.3,303.6,184.5,281.8,195.2,257.4z"/>
		</g>
		<g>
			<g>
				<g>
					<path class="st5" d="M184.5,169.5c15.6,10.3,21.8,3,23,1.3V150c-14.3-4.5-23-8.6-23-8.6V169.5z"/>
					<path d="M198.9,175.5c-3.6,0-8.4-1.3-14.7-5.5l-0.3-0.2v-29.3l0.8,0.4c0.1,0,8.8,4.1,22.9,8.6l0.4,0.1V171l-0.1,0.1
						C207.2,172.2,204.5,175.5,198.9,175.5z M185.1,169.2c14.6,9.5,20.6,3.2,21.8,1.4v-20.2c-11.5-3.7-19.4-7.1-21.8-8.2V169.2z"/>
				</g>
				<path class="st2" d="M192.5,112.1c-3.7,3.2-30.5,29.4-31.8,30.6c-5.1,4.5-2.2,14.6,5.7,17.1l1.6-5.3l2.6,7
					c4.7,3.9,13.7,5.6,16.5,2.3c8.9-10.1-2.5-21.3-2.6-22.8C183.9,136.8,195.3,109.7,192.5,112.1z"/>
				<g>
					<path class="st5" d="M197.2,155.9c3.3,1.9,6.5,3.2,9.1,3.3c11.7,0.1,13.6-16.9,13.5-26.7c-0.1-8.8-2.2-13.8-7.2-14.9
						c-2.6-0.6-12.9-4-15.7-3c-6.7,2.4-8.9,10.2-11.7,18.9c-0.9,2.8-1.2,8.5-0.3,10.6L197.2,155.9z"/>
					<path d="M206.3,159.8C206.3,159.8,206.3,159.8,206.3,159.8c-2.5,0-5.8-1.2-9.4-3.3l0.6-1c3.4,2,6.5,3.2,8.8,3.2
						c2.7,0,5-0.9,6.8-2.8c5.6-5.6,6.2-18.2,6.1-23.4c-0.1-8.8-2.2-13.3-6.7-14.3c-0.6-0.1-1.7-0.4-3-0.8c-3.7-1-10.5-2.9-12.5-2.2
						c-6.2,2.2-8.4,9.2-10.9,17.4l-0.4,1.1c-0.9,2.7-1.2,8.3-0.3,10.2l-1,0.5c-1.1-2.4-0.6-8.4,0.3-11l0.4-1.1
						c2.7-8.5,5-15.7,11.6-18.1c2.2-0.8,7.7,0.7,13.2,2.2c1.2,0.3,2.3,0.6,2.9,0.8c5.1,1.1,7.6,6.1,7.6,15.4
						c0,5.3-0.5,18.3-6.5,24.2C211.8,158.7,209.3,159.8,206.3,159.8z"/>
				</g>
				<g>
					<path class="st2" d="M212.1,130l-0.2,0.1l0,0.3c0,0.3-1,6.3,1.9,10.1c0.1,0.1,0.1,0.2,0.1,0.3c-0.2,0.6-2,1.4-3.5,1.8l0.3,1.2
						c0.6-0.2,3.8-1.1,4.3-2.6c0.1-0.3,0.1-0.8-0.3-1.4c-2.3-2.9-1.9-7.7-1.7-8.9c0.6-0.3,2.5-1.1,5.2-0.3l0.4-1.1
						C214.8,128.2,212.2,129.9,212.1,130z"/>
				</g>
				<path class="st2" d="M206.2,109.5c-16.4-3.6-20.8,12.3-19.8,19.2c0,0,3.8,4.5,7-2.5c3.9-8.6,17.6-7.3,23.2-6.2
					c0,0,0.8,0.6,2.9,8.1C219.7,128.1,223.1,113.2,206.2,109.5z"/>
				<path class="st2" d="M177.1,111.4c-1.5,4.3-3.3,13.2,6,7.5c11.3-7,25,10.4,27.5-8.5C213.2,90.2,182.7,95.2,177.1,111.4z"/>
				<g>
					<path class="st5" d="M191,132.9c-0.2-0.8-0.6-1.5-1.1-2.1c-1.6-1.9-4.2-2.7-6.6-1.9c-3.2,1-5,4.5-4,7.8c1,3.2,4.5,5,7.8,4
						L191,132.9z"/>
					<path d="M185.2,141.5c-1.1,0-2.1-0.3-3.1-0.8c-1.6-0.8-2.8-2.2-3.3-3.9c-0.5-1.7-0.4-3.5,0.4-5.1c0.8-1.6,2.2-2.8,3.9-3.3
						c2.6-0.8,5.5,0,7.2,2.1c0.6,0.7,1,1.4,1.2,2.3l-1.1,0.3c-0.2-0.7-0.6-1.3-1-1.9c-1.5-1.8-3.8-2.5-6-1.8
						c-1.4,0.5-2.6,1.4-3.3,2.8c-0.7,1.3-0.8,2.9-0.4,4.3c0.5,1.4,1.4,2.6,2.8,3.3c1.3,0.7,2.9,0.8,4.3,0.4l0.3,1.1
						C186.5,141.4,185.8,141.5,185.2,141.5z"/>
				</g>
				<g>
					<path class="st2" d="M186.2,133.5c0.6-0.7,1.1-1.4,0-2.8c-0.4-0.4-0.9-0.7-1.5-0.7c0,0,0,0,0,0c-1.8,0-3.7,2.2-4,2.4l0.9,0.8
						c0.7-0.8,2.1-2,3.1-2c0,0,0,0,0,0c0.2,0,0.4,0.1,0.5,0.3c0.5,0.7,0.5,0.7,0.1,1.2c-0.3,0.4-0.8,0.8-1,1.7
						c-0.3,1.2,0.4,1.8,0.8,2.2c0.1,0.1,0.2,0.2,0.2,0.2c0,0,0,0-0.1,0.1c-0.4,0.6-1.8,0-1.8,0l-0.5,1.1c0.4,0.2,1,0.4,1.7,0.4
						c0.6,0,1.3-0.2,1.7-0.8c0.6-1-0.1-1.6-0.4-1.8c-0.3-0.3-0.5-0.5-0.4-1C185.7,134.1,185.9,133.8,186.2,133.5z"/>
				</g>
				<g>
					<path class="st2" d="M197.8,141.8l-1.1,0.4c2.1,6.2,10.6,6.9,11,6.9l0.1-1.2C207.7,147.9,199.7,147.3,197.8,141.8z"/>
				</g>
				<g>
					<path class="st2" d="M199.1,126.8l0.3,1.2c5.6-1.2,7.3,1.5,7.3,1.6l1-0.6C207.7,128.8,205.7,125.4,199.1,126.8z"/>
				</g>
				<g>
					<path class="st2" d="M218,118.9l-0.7,1c2.1,1.5,7.3,6,5.8,8.9c-2.2,4.1-1.8,6-0.1,8.1l0.9-0.7c-1.2-1.6-1.9-2.9,0.3-6.8
						C226.5,124.9,218.3,119.1,218,118.9z"/>
				</g>
				<path class="st2" d="M202.4,131.5c-1.1,0-2.1,0.9-2.1,2.1c0,1.2,0.9,2.1,2.1,2.1s2.1-0.9,2.1-2.1
					C204.5,132.4,203.5,131.5,202.4,131.5z"/>
				<path class="st2" d="M214.9,131.5c-1.1,0-2.1,0.9-2.1,2.1c0,1.2,0.9,2.1,2.1,2.1c1.1,0,2.1-0.9,2.1-2.1
					C217,132.4,216.1,131.5,214.9,131.5z"/>
			</g>
			<g>
				<path class="st3" d="M183.6,140.1c0,0.1,4.3,7.7,1.2,11.3c-0.8,1-1.3,0.6-1.4,0.5c-1.7-1.2-2.3-7.6-0.1-11.1l-1-0.6
					c-2.5,3.9-1.8,11,0.4,12.7c0.2,0.2,0.6,0.4,1.1,0.4c0.5,0,1.2-0.3,1.9-1.1c3.6-4.2-0.9-12.3-1.1-12.7L183.6,140.1z"/>
			</g>
		</g>
		<g>
			<path class="st3" d="M212.3,167.8c0,0-1.8-2.5-3.7-4.4c-2-1.9-20.2,3-24.5,3.5c-4.3,0.5-7,6.9-7,6.9c-10.3,3-16.9,16.3-14.4,26.5
				c2.6,10.2,14,55.3,14,55.3c36.4-21.8,68.3-14.9,68.3-14.9c6.5-13.8,4-53.8-3.6-64.7C231.1,161.4,212.3,167.8,212.3,167.8z"/>
			<path d="M176.3,256.4l-0.2-0.7c0,0-11.4-45.1-14-55.3c-2.7-10.9,4.3-23.9,14.5-27.1c0.6-1.2,3.3-6.5,7.4-6.9
				c1.2-0.1,3.8-0.7,6.7-1.3c9.8-2.1,16.8-3.5,18.3-2c1.6,1.5,3,3.4,3.6,4.2c2.8-0.8,19.7-5.1,29.3,8.5c7.9,11.2,10.2,51.5,3.7,65.2
				l-0.2,0.4l-0.4-0.1c-0.3-0.1-32.1-6.6-67.9,14.9L176.3,256.4z M206.6,163.5c-3.4,0-11.1,1.7-15.7,2.6c-2.9,0.6-5.5,1.2-6.8,1.3
				c-3.9,0.5-6.6,6.5-6.6,6.5l-0.1,0.2l-0.3,0.1c-9.6,2.8-16.6,15.6-14,25.8c2.4,9.5,12.3,48.7,13.8,54.6
				c33.6-19.8,63.6-15.4,67.6-14.7c6-13.6,3.7-53.1-3.8-63.7c-9.9-14.1-28.2-8-28.4-8l-0.4,0.1l-0.2-0.3c0,0-1.8-2.5-3.7-4.3
				C208,163.5,207.4,163.5,206.6,163.5z"/>
		</g>
		<path class="st2" d="M203.3,216.4c-0.4,2.9-4.4,14.5,6.2,21.1c10.6,6.6,26.6-8.4,20.9-16.4C224.6,213,204.5,208.6,203.3,216.4z"/>
		<g>
			<g>
				<path class="st5" d="M266.1,206.2c-6.3-3-27.1,22.3-16.5,34.4c10.6,12.2,25.9,12.9,34.3,10.4c4.5-1.3,8-8.6,6.3-16.4
					C288.4,227,266.1,206.2,266.1,206.2z"/>
				<path d="M275.4,252.8c-8.8,0-18.9-3.3-26.3-11.8c-6.4-7.4-1.8-19,4.1-26.8c4-5.2,9.8-10.1,13.1-8.6l0.1,0.1
					c0.9,0.9,22.5,21,24.2,28.8c1.8,8.1-2,15.7-6.7,17C281.4,252.4,278.5,252.8,275.4,252.8z M264.9,206.5c-2.6,0-6.9,3.3-10.8,8.4
					c-5.6,7.4-10.1,18.5-4.1,25.3c11,12.7,26.8,12.3,33.7,10.3c4.2-1.2,7.6-8.2,5.9-15.7c-1.6-7.2-22.5-26.9-23.8-28.2
					C265.5,206.5,265.2,206.5,264.9,206.5z"/>
			</g>
			<g>
				<path class="st3" d="M236.2,170.6c-10.8-6.8-22.4-5.3-32,4.1c-6,6-12.2,21.3-2.2,36.4c10,15.1,31.1,39.9,56.3,57.2
					c0,0,15.5-28.8,13.9-58.6C272.3,209.8,250.7,179.8,236.2,170.6z"/>
				<path d="M258.5,269.2l-0.5-0.4c-25-17.1-46-41.6-56.4-57.4c-10.2-15.4-4-30.9,2.3-37.1c9.7-9.6,21.6-11.2,32.7-4.2l0,0
					c14.4,9.1,36,39,36.2,39.3l0.1,0.1l0,0.2c1.5,29.6-13.9,58.6-14,58.9L258.5,269.2z M222.6,167c-6.3,0-12.5,2.7-18,8.2
					c-6,5.9-11.9,20.9-2.1,35.7c10.3,15.6,31,39.7,55.6,56.7c2.1-4.2,14.9-30.6,13.6-57.6c-1.6-2.2-22.1-30.2-35.8-38.9
					C231.6,168.4,227.1,167,222.6,167z"/>
			</g>
			<g>
				<path class="st2" d="M231.5,199.1c8.6,8,30.6,10.1,31.5,10.2l0.1-1.2c-0.2,0-22.5-2.2-30.8-9.9L231.5,199.1z"/>
			</g>
			<g>
				<g>
					<path class="st5" d="M279.8,160.5L279.8,160.5c0,0-2.2-6-6.3-9.5c0.2-0.1,0.4-0.2,0.4-0.2c-1.1-1.3-7.7-4.9-8.2-5.9
						c-0.2-0.5,0.6-3.3,2.4-6.5c1.4-2.6,2.1-3.1-0.1-5c-3.1-2.6-7-5.8-8-6.1c-1.7-0.6-10.8,10.4-10.8,10.4s7.4-12.9,7.5-18.7
						c0-1.5-2.4-2.7-3.1-1.4c-4.5,8.3-8.4,18.4-9.4,21.1c0,0,0,0,0,0s0,0.1-0.1,0.3c-0.1,0.2-0.1,0.4-0.1,0.4s0,0,0.1,0.1
						c-0.4,2.4-0.5,9.7,9.3,17.4c8.8,6.9,12.5,12.2,13.8,14.5c-0.4,9.1-2,53.5-1.9,55c0.8,12,3.7,23.8,14.4,24.8
						c4.4,0.4,12.7-1.6,15.8-11.5C300.6,222.7,286.4,173.3,279.8,160.5z"/>
					<path d="M280.4,251.8c-0.4,0-0.7,0-1.1,0c-9-0.8-13.9-9.1-14.9-25.3c-0.1-1.5,1.6-45.6,1.9-54.9c-1.4-2.5-5.1-7.6-13.5-14.2
						c-9.7-7.6-9.9-14.8-9.5-17.7l-0.1-0.2l0.2-0.6c0-0.2,0.1-0.3,0.1-0.3l0.3-0.8l0.1,0.1c1.4-3.6,5.1-12.8,9.2-20.5
						c0.4-0.7,1.2-1,2.1-0.8c1.1,0.3,2.2,1.3,2.1,2.5c-0.1,3.7-2.9,10-5.1,14.3c3.2-3.6,6.7-7,8-6.6c0.3,0.1,1.3,0.4,8.1,6.2
						c2.3,1.9,1.9,2.8,0.7,5c-0.1,0.2-0.3,0.5-0.4,0.7c-1.8,3.3-2.4,5.7-2.3,6.1c0.2,0.3,2.3,1.7,3.9,2.7c1.8,1.2,3.6,2.3,4.2,3
						l0.5,0.6l-0.3,0.1c3.7,3.6,5.8,8.9,5.9,9.1l0.1,0.3l0,0c7,13.9,20.5,62.7,15.3,79.3C292.8,249.3,285.2,251.8,280.4,251.8z
						 M244.4,139.4l0,0.2c-0.3,2-0.6,9.3,9.1,16.9c8.8,6.9,12.5,12.2,13.9,14.7l0.1,0.1l0,0.2c-0.9,24.6-2,53.8-1.9,54.9
						c1,15.8,5.4,23.5,13.9,24.2c4.2,0.4,12.2-1.6,15.2-11.1c5.2-16.5-8.6-65.5-15.4-78.8l-0.2-0.4l0.1-0.1c-0.5-1.3-2.7-6-6.1-8.9
						l-0.7-0.6l0.4-0.2c-0.8-0.6-2.1-1.5-3.3-2.3c-2.8-1.8-4-2.6-4.3-3.2c-0.5-1,1.1-4.7,2.4-7.1c0.2-0.3,0.3-0.5,0.4-0.8
						c1.1-1.9,1.2-2.2-0.4-3.5c-6-5.1-7.4-5.9-7.8-6c0,0,0,0,0,0c-1.1,0-6.1,5.3-10.2,10.3l-0.9-0.6c0.1-0.1,7.4-12.8,7.4-18.4
						c0-0.6-0.7-1.2-1.3-1.4c-0.3-0.1-0.6-0.1-0.8,0.2c-4.4,8.2-8.3,18.2-9.4,21L244.4,139.4z"/>
				</g>
				<path class="st2" d="M266.8,132.4c-3.5,3.8-8.3,11.2-8.3,11.2L266.8,132.4z"/>
				<path class="st2" d="M252.7,142.1l10.8-12.4C259.6,133.1,252.7,142.1,252.7,142.1z"/>
			</g>
			<g>
				<path class="st2" d="M204.7,214.1l-1,0.6c16.8,27.1,54,53.9,54.3,54.1l0.7-1C258.3,267.6,221.3,241,204.7,214.1z"/>
			</g>
			<g>
				<path class="st2" d="M212.9,167.9l0.5,1.1c5.9-2.8,11.7-1.8,11.8-1.8l0.2-1.2C225.2,166,219.2,164.9,212.9,167.9z"/>
			</g>
		</g>
		<g>
			<path class="st4" d="M121,466.7c-1.3,1.3-3,2.7-5,4c-3.5,2.3-7.9,4.4-13.5,5.3c-15.6,2.6-20.5,12.4-17,26.6
				c3.5,14.2,5.6,24,2.6,37.1c-3,13.1,7.7,18.2,16.7,18.2c5.5,0,13.6,0.1,19.2,0.1c1.5,0,1.5-1.4,0.2-2.2c-4-2.6-8.4-7.5-9.6-13
				c-1.3-6.4,1.2-11.9,3.3-17.7c6-16.6,17.3-42.1,25.4-48.2C128.4,462.8,121,466.7,121,466.7z"/>
			<path class="st2" d="M110.9,538.8c-2-11.3-0.6-23.2,0-28.6c0.7-6.2,3.9-15.3,0.7-23.9c-3.8-10.3-10-10.1-10.6-10
				c-14.3,2.4-19,12.5-15.6,26.3c3.5,14.2,5.6,24,2.6,37.1c-3,13.1,7.7,18.2,16.7,18.2c4.2,0,10.7,0,15.7,0.1c1.6,0,2.3-2,1-3
				C117.7,552.1,112.4,547,110.9,538.8z"/>
			<path class="st4" d="M107.4,538.8c-2-11.3-0.6-23.2,0-28.6c0.7-6.2,3.9-15.3,0.7-23.9c-3.8-10.3-10-10.1-10.6-10
				c-14.3,2.4-19,12.5-15.6,26.3c3.5,14.2,5.6,24,2.6,37.1c-3,13.1,7.7,18.2,16.7,18.2c4.6,0,12.2,0,17.2,0c1.1,0,1.6-1.4,0.7-2.1
				C115.4,553.1,109,547.9,107.4,538.8z"/>
			<path class="st2" d="M95.2,480.1c-5.7,0-10.3,5.9-10.3,13.3c0,7.3,4.6,13.3,10.3,13.3c5.7,0,10.3-5.9,10.3-13.3
				C105.5,486,100.9,480.1,95.2,480.1z"/>
			<g>
				<path class="st2" d="M110.7,472.9v1.2c1.9,0,4.7,2,6.6,5.9c1.6,3.4,4.3,12.6-5.4,24.5l0.9,0.8c10.1-12.4,7.3-22.1,5.6-25.7
					C116.5,475.7,113.3,472.9,110.7,472.9z"/>
			</g>
			<g>
				<path class="st2" d="M115.3,501.2l-0.5,1.1c0.4,0.2,9.2,4.2,5.8,14.5l1.1,0.4C125.5,505.8,115.4,501.2,115.3,501.2z"/>
			</g>
			<g>
				<path class="st2" d="M118.9,493.7l-0.5,1.1c0.4,0.2,9.2,4.2,5.8,14.5l1.1,0.4C129.1,498.3,119,493.7,118.9,493.7z"/>
			</g>
		</g>
		<g>
			<path class="st5" d="M201.4,261.9l-0.3,0.1l0,0.3c-1.8,14.9,4.8,23.7,5.1,24.1l0.1,0.1l10.3,3.6l12.6-11.3l-0.1-0.3
				c-1.5-7.8,0.4-21,0.4-21.1l0.1-0.6l-0.6-0.1C215.3,254.9,201.6,261.9,201.4,261.9z M228,278.6l-11.6,10.3l-9.3-3.3
				c-0.8-1.1-6.3-9.5-4.8-22.7c2-0.9,13.9-6.4,26.1-4.9C228,260.7,226.7,271.5,228,278.6z"/>
		</g>
		<g>
			<path class="st5" d="M171.9,265.2l0.5,1.1c0.1,0,5.2-2.4,10.2-1.8c-1,2.5-3.6,10.8,0,20.8l-5.1,8.7l1,0.6l5.4-9.2l-0.1-0.3
				c-4.2-11.3,0.1-20.7,0.2-20.8l0.3-0.7l-0.8-0.1C178,262.4,172.1,265.1,171.9,265.2z"/>
		</g>
		<g>
			
				<rect x="169" y="212.6" transform="matrix(0.9772 -0.2121 0.2121 0.9772 -44.6392 41.1853)" class="st2" width="1.2" height="32.1"/>
		</g>
	</g>
	<g>
		<g>
			<path class="st2" d="M501.1,427.8c-0.6-6.7-6.1-11.8-12.9-11.8H385.9c-3.6,0-7.1,1.5-9.6,4.2c-2.4,2.7-3.7,6.3-3.4,9.9
				l10.2,116.7c0.6,6.7,6.1,11.8,12.9,11.8h102.3c3.6,0,7.1-1.5,9.6-4.2c2.4-2.7,3.7-6.3,3.4-9.9L501.1,427.8z M507,553.6
				c-2.2,2.4-5.4,3.8-8.7,3.8H396.1c-6.1,0-11.2-4.6-11.7-10.7L374.2,430c-0.3-3.3,0.8-6.5,3-9c2.2-2.4,5.4-3.8,8.7-3.8h102.3
				c6.1,0,11.2,4.6,11.7,10.7l10.2,116.7C510.3,547.9,509.2,551.2,507,553.6z"/>
		</g>
		<g>
			<g>
				<path class="st2" d="M479.2,416H376.9c-6.8,0-12.3,5.1-12.9,11.8l-10.2,116.7c-0.3,3.6,0.9,7.2,3.4,9.9c2.4,2.7,5.9,4.2,9.6,4.2
					H469c6.8,0,12.3-5.1,12.9-11.8l10.2-116.7c0.3-3.6-0.9-7.2-3.4-9.9C486.3,417.5,482.8,416,479.2,416z M490.9,430l-10.2,116.7
					c-0.5,6.1-5.6,10.7-11.7,10.7H366.8c-3.3,0-6.4-1.4-8.7-3.8c-2.2-2.4-3.3-5.7-3-9l10.2-116.7c0.5-6.1,5.6-10.7,11.7-10.7h102.3
					c3.3,0,6.4,1.4,8.7,3.8C490.1,423.4,491.2,426.7,490.9,430z"/>
			</g>
			<path class="st2" d="M498.4,402.3H381.5c-4.6,0-8.3,3.7-8.3,8.3v0.7c0,4.6,3.7,8.3,8.3,8.3h116.9c4.6,0,8.3-3.7,8.3-8.3v-0.7
				C506.7,406,503,402.3,498.4,402.3z"/>
			<g>
				<rect x="409.7" y="415.9" class="st5" width="81.5" height="1.2"/>
			</g>
		</g>
	</g>
	<g>
		<rect x="26" y="557.4" class="st2" width="496.4" height="1.2"/>
	</g>
</g>
</svg>
